<svg width="512" height="512" viewBox="0 0 88 78" fill="none" xmlns="http://www.w3.org/2000/svg">
  <rect width="88" height="78" rx="15" fill="#354146"/>
  <path d="M48.1299 60.4734C51.6586 63.2591 55.8476 65.4689 60.458 66.9766C68.2171 69.5139 75 62.6424 75 54.479L75 24.0414C75 15.8779 68.2171 9.00647 60.458 11.5438C55.8477 13.0514 51.6586 15.2612 48.1299 18.047C44.6013 20.8327 41.8023 24.1399 39.8926 27.7797C37.9829 31.4194 37 35.3205 37 39.2602C37 43.1998 37.9829 47.1009 39.8926 50.7407C41.8023 54.3804 44.6013 57.6876 48.1299 60.4734Z" fill="#64B6FF"/>
  <path d="M41 59.9999C37.5642 62.8786 32.6483 65.3426 28.1593 66.9005C20.6349 69.5118 14 62.8036 14 54.8391V23.665C14 15.7095 20.6177 9.01098 28.1593 11.5438C32.6483 13.0515 36.7272 15.2612 40.163 18.047C43.5987 20.8328 46.3241 24.1399 48.1835 27.7797C50.043 31.4195 51 35.3206 51 39.2602C50.5 48.9999 44.4358 57.1213 41 59.9999Z" fill="#FF6B21"/>
  <mask id="mask0" style="mask-type:alpha" maskUnits="userSpaceOnUse" x="37" y="21" width="15" height="36">
    <path d="M38.1707 46.9811C38.8742 49.4289 39.9055 51.6531 41.2055 53.5266C42.0725 54.7761 43.0477 55.8532 44.105 56.733C53.605 43.7601 53.105 32.2601 44.105 21.7872C43.0477 22.6669 42.0725 23.7441 41.2055 24.9935C39.9055 26.867 38.8742 29.0912 38.1707 31.5391C37.4671 33.9869 37.105 36.6105 37.105 39.2601C37.105 41.9096 37.4671 44.5332 38.1707 46.9811Z" fill="#D9D9D9"/>
  </mask>
  <g mask="url(#mask0)">
    <path d="M75 54.479C75 62.6424 68.2171 69.5139 60.458 66.9766C55.8476 65.4689 51.6586 63.2591 48.1299 60.4734C44.6013 57.6876 41.8023 54.3804 39.8926 50.7407C37.9829 47.1009 37 43.1998 37 39.2602L75 39.2602L75 54.479Z" fill="#FEBC4E"/>
    <path d="M75 24.0414C75 15.8779 68.2171 9.00647 60.458 11.5438C55.8477 13.0514 51.6586 15.2612 48.1299 18.047C44.6013 20.8327 41.8023 24.1399 39.8926 27.7797C37.9829 31.4194 37 35.3205 37 39.2602L75 39.2602V24.0414Z" fill="#FEBC4E"/>
  </g>
</svg>
