<svg width="404" height="367" viewBox="0 0 404 367" fill="none" xmlns="http://www.w3.org/2000/svg">
<path d="M30.8349 231.575C32.5989 231.575 33.9522 231.911 34.8949 232.583C35.8375 233.255 36.3089 234.249 36.3089 235.565C36.3089 236.872 35.8375 237.861 34.8949 238.533C33.9522 239.205 32.5989 239.541 30.8349 239.541H29.7569V240.689H28.0489V239.541H26.9569C25.1929 239.541 23.8395 239.205 22.8969 238.533C21.9542 237.861 21.4829 236.872 21.4829 235.565C21.4829 234.249 21.9542 233.255 22.8969 232.583C23.8395 231.911 25.1929 231.575 26.9569 231.575H28.0489V230.721H29.7569V231.575H30.8349ZM27.0689 238.155H28.0489V232.961H27.0689C24.5209 232.961 23.2469 233.829 23.2469 235.565C23.2469 237.292 24.5209 238.155 27.0689 238.155ZM30.7229 238.155C33.2709 238.155 34.5449 237.292 34.5449 235.565C34.5449 233.829 33.2709 232.961 30.7229 232.961H29.7569V238.155H30.7229ZM43.202 233.185C44.49 233.185 45.526 233.526 46.31 234.207C47.1033 234.889 47.5 235.827 47.5 237.021C47.5 238.216 47.1033 239.154 46.31 239.835C45.526 240.517 44.49 240.857 43.202 240.857C41.5687 240.857 40.402 240.335 39.702 239.289V243.489H38.022V233.353H39.562V234.977C40.2153 233.783 41.4287 233.185 43.202 233.185ZM42.726 239.569C43.678 239.569 44.434 239.336 44.994 238.869C45.554 238.403 45.834 237.787 45.834 237.021C45.834 236.256 45.554 235.64 44.994 235.173C44.434 234.707 43.678 234.473 42.726 234.473C41.7647 234.473 41.004 234.707 40.444 235.173C39.8933 235.64 39.618 236.256 39.618 237.021C39.618 237.787 39.8933 238.403 40.444 238.869C41.004 239.336 41.7647 239.569 42.726 239.569ZM56.1458 233.353H57.9658L54.1298 241.375C53.7284 242.253 53.2944 242.85 52.8278 243.167C52.3611 243.494 51.6424 243.657 50.6718 243.657C50.3451 243.657 49.9624 243.634 49.5238 243.587V242.299C49.8691 242.327 50.2144 242.341 50.5598 242.341C51.1011 242.341 51.5118 242.262 51.7918 242.103C52.0718 241.945 52.3191 241.637 52.5338 241.179L52.7578 240.689H52.0578L48.0118 233.353H49.8598L53.3178 240.003L56.1458 233.353ZM68.4648 240.689H66.1968L62.5988 237.651H61.0028V240.689H59.3228V233.353H61.0028V236.321H62.6408L66.0988 233.353H68.2128L63.8868 236.853L68.4648 240.689ZM68.849 234.739V233.353H77.515V234.739H74.029V240.689H72.349V234.739H68.849ZM83.4783 235.985C85.8583 235.985 87.0483 236.769 87.0483 238.337C87.0483 239.905 85.8583 240.689 83.4783 240.689H79.7263H78.9283V233.353H80.6083V235.985H83.4783ZM88.5463 233.353H90.2263V240.689H88.5463V233.353ZM83.3523 239.471C84.6963 239.471 85.3683 239.089 85.3683 238.323C85.3683 237.558 84.6963 237.175 83.3523 237.175H80.6083V239.471H83.3523Z" fill="#878FA6" fill-opacity="0.8"/>
<rect width="404" height="367" rx="15" fill="white"/>
<rect x="26.6909" y="88.4336" width="345.766" height="150.337" rx="15" fill="#E1E3EB"/>
<path d="M39.0488 262.188V274.984H36.7021V264.156H32.6152V274.984H30.2686V262.188H39.0488ZM43.4346 267.303V278.641H41.1846V265.475H43.2588L43.4346 267.303ZM48.4619 269.878V270.572C48.4619 271.316 48.3945 271.973 48.2598 272.541C48.1309 273.109 47.9375 273.59 47.6797 273.982C47.4219 274.375 47.1025 274.671 46.7217 274.87C46.3408 275.063 45.8955 275.16 45.3857 275.16C44.9053 275.16 44.4922 275.052 44.1465 274.835C43.8008 274.618 43.5078 274.313 43.2676 273.921C43.0273 273.528 42.8369 273.068 42.6963 272.541C42.5557 272.014 42.4502 271.442 42.3799 270.827V269.755C42.4443 269.099 42.5439 268.498 42.6787 267.953C42.8193 267.408 43.0098 266.937 43.25 266.538C43.4902 266.14 43.7832 265.835 44.1289 265.624C44.4805 265.407 44.8936 265.299 45.3682 265.299C45.8838 265.299 46.335 265.393 46.7217 265.58C47.1084 265.762 47.4307 266.04 47.6885 266.415C47.9463 266.79 48.1396 267.268 48.2686 267.848C48.3975 268.422 48.4619 269.099 48.4619 269.878ZM46.2031 270.572V269.878C46.2031 269.409 46.1738 269.005 46.1152 268.665C46.0625 268.325 45.9746 268.047 45.8516 267.83C45.7344 267.613 45.5791 267.455 45.3857 267.355C45.1982 267.25 44.9697 267.197 44.7002 267.197C44.4424 267.197 44.2168 267.25 44.0234 267.355C43.8301 267.455 43.6719 267.599 43.5488 267.786C43.4258 267.974 43.3262 268.199 43.25 268.463C43.1797 268.721 43.1387 269.008 43.127 269.324V271.267C43.1562 271.642 43.2236 271.981 43.3291 272.286C43.4404 272.591 43.6074 272.834 43.8301 273.016C44.0527 273.191 44.3486 273.279 44.7178 273.279C44.9932 273.279 45.2246 273.224 45.4121 273.112C45.5996 273.001 45.752 272.834 45.8691 272.611C45.9922 272.389 46.0771 272.107 46.124 271.768C46.1768 271.428 46.2031 271.029 46.2031 270.572ZM49.7979 270.581V269.887C49.7979 269.143 49.8887 268.486 50.0703 267.918C50.252 267.344 50.5098 266.863 50.8438 266.477C51.1777 266.09 51.5762 265.797 52.0391 265.598C52.5078 265.398 53.0264 265.299 53.5947 265.299C54.1748 265.299 54.6963 265.398 55.1592 265.598C55.6279 265.797 56.0293 266.09 56.3633 266.477C56.7031 266.863 56.9609 267.344 57.1367 267.918C57.3184 268.486 57.4092 269.143 57.4092 269.887V270.581C57.4092 271.325 57.3184 271.981 57.1367 272.55C56.9609 273.118 56.7031 273.599 56.3633 273.991C56.0293 274.378 55.6279 274.671 55.1592 274.87C54.6963 275.063 54.1807 275.16 53.6123 275.16C53.0439 275.16 52.5254 275.063 52.0566 274.87C51.5938 274.671 51.1924 274.378 50.8525 273.991C50.5127 273.599 50.252 273.118 50.0703 272.55C49.8887 271.981 49.7979 271.325 49.7979 270.581ZM52.0566 269.887V270.581C52.0566 271.044 52.0918 271.445 52.1621 271.785C52.2324 272.119 52.335 272.397 52.4697 272.62C52.6104 272.843 52.7744 273.01 52.9619 273.121C53.1553 273.227 53.3721 273.279 53.6123 273.279C53.8701 273.279 54.0957 273.227 54.2891 273.121C54.4824 273.01 54.6436 272.843 54.7725 272.62C54.9014 272.397 54.998 272.119 55.0625 271.785C55.127 271.445 55.1592 271.044 55.1592 270.581V269.887C55.1592 269.436 55.1211 269.04 55.0449 268.7C54.9746 268.36 54.8721 268.079 54.7373 267.856C54.6025 267.634 54.4385 267.467 54.2451 267.355C54.0518 267.238 53.835 267.18 53.5947 267.18C53.3604 267.18 53.1494 267.238 52.9619 267.355C52.7744 267.467 52.6104 267.634 52.4697 267.856C52.335 268.079 52.2324 268.36 52.1621 268.7C52.0918 269.04 52.0566 269.436 52.0566 269.887ZM59.8965 265.475H62.1465L62.085 268.718C62.0674 269.72 61.9678 270.581 61.7861 271.302C61.6104 272.022 61.376 272.629 61.083 273.121C60.79 273.607 60.4502 274 60.0635 274.299C59.6826 274.598 59.2783 274.826 58.8506 274.984H58.3408L58.332 273.121L58.5781 273.104C58.8359 272.805 59.0439 272.512 59.2021 272.225C59.3604 271.938 59.4834 271.63 59.5713 271.302C59.6592 270.974 59.7207 270.602 59.7559 270.186C59.7969 269.77 59.8232 269.28 59.835 268.718L59.8965 265.475ZM60.4766 265.475H65.873V274.984H63.623V267.435H60.4766V265.475ZM57.8926 273.104H67.0859V277.832H64.8359V274.984H60.1865V277.832H57.8838L57.8926 273.104ZM70.8301 273.921L72.8428 265.475H75.1982L72.0693 276.417C71.999 276.657 71.9023 276.915 71.7793 277.19C71.6562 277.466 71.4951 277.727 71.2959 277.973C71.0967 278.225 70.8477 278.43 70.5488 278.588C70.25 278.746 69.8926 278.825 69.4766 278.825C69.2891 278.825 69.125 278.811 68.9844 278.781C68.8438 278.752 68.6885 278.714 68.5186 278.667L68.5098 276.883C68.5625 276.889 68.6152 276.892 68.668 276.892C68.7207 276.897 68.7705 276.9 68.8174 276.9C69.0986 276.9 69.3271 276.859 69.5029 276.777C69.6846 276.701 69.8311 276.578 69.9424 276.408C70.0537 276.244 70.1504 276.027 70.2324 275.758L70.8301 273.921ZM70.127 265.475L71.6914 272.427L72.043 274.958L70.5049 275.222L67.7012 265.475H70.127ZM78.8193 265.475V274.984H76.5518V265.475H78.8193ZM84.0049 265.475L80.4717 271.346H78.3535L78.0547 269.148H79.4609L81.1836 265.475H84.0049ZM81.2451 274.984L79.3291 270.933L81.21 269.702L84.207 274.984H81.2451ZM89.5332 265.475V274.984H87.2744V265.475H89.5332ZM92.0205 265.475V267.338H84.8135V265.475H92.0205ZM102.752 262.152V274.984H100.493V264.947L97.9971 265.94V264.024L102.488 262.152H102.752Z" fill="#010552"/>
<path d="M301.264 260.626V273.458H299.005V263.421L296.509 264.414V262.498L301 260.626H301.264ZM312.611 268.756V270.637H304.797L304.709 269.187L309.156 260.661H310.941L309.121 264.142L306.968 268.756H312.611ZM311.45 260.661V273.458H309.192V260.661H311.45ZM316.249 267.587L314.447 267.13L315.071 260.661H321.101V262.639H316.926L316.671 265.548C316.823 265.448 317.034 265.343 317.304 265.231C317.573 265.114 317.878 265.056 318.218 265.056C318.739 265.056 319.202 265.155 319.607 265.354C320.017 265.548 320.36 265.829 320.635 266.198C320.916 266.567 321.13 267.019 321.277 267.552C321.423 268.085 321.496 268.686 321.496 269.354C321.496 269.934 321.42 270.481 321.268 270.997C321.121 271.507 320.893 271.961 320.582 272.359C320.272 272.758 319.885 273.071 319.422 273.3C318.965 273.522 318.426 273.634 317.805 273.634C317.342 273.634 316.897 273.555 316.469 273.396C316.041 273.232 315.657 272.992 315.318 272.676C314.978 272.359 314.702 271.973 314.491 271.516C314.286 271.059 314.178 270.534 314.166 269.942H316.381C316.416 270.323 316.492 270.648 316.61 270.918C316.733 271.188 316.894 271.396 317.093 271.542C317.298 271.683 317.532 271.753 317.796 271.753C318.054 271.753 318.274 271.691 318.455 271.568C318.637 271.439 318.783 271.264 318.895 271.041C319.012 270.818 319.097 270.555 319.15 270.25C319.208 269.939 319.237 269.605 319.237 269.248C319.237 268.891 319.205 268.568 319.141 268.281C319.076 267.988 318.974 267.736 318.833 267.525C318.698 267.309 318.529 267.145 318.323 267.033C318.118 266.922 317.875 266.866 317.594 266.866C317.219 266.866 316.938 266.939 316.75 267.086C316.563 267.232 316.396 267.399 316.249 267.587ZM332.746 268.835H326.954V266.866H332.685C333.112 266.866 333.455 266.781 333.713 266.611C333.971 266.436 334.158 266.192 334.276 265.882C334.393 265.565 334.451 265.202 334.451 264.792C334.451 264.411 334.39 264.057 334.267 263.729C334.15 263.4 333.965 263.137 333.713 262.938C333.461 262.732 333.139 262.63 332.746 262.63H330.795V273.458H328.457V260.661H332.746C333.596 260.661 334.322 260.837 334.926 261.188C335.535 261.54 336.001 262.029 336.323 262.656C336.652 263.277 336.816 263.983 336.816 264.774C336.816 265.624 336.649 266.354 336.315 266.963C335.987 267.566 335.518 268.029 334.908 268.352C334.299 268.674 333.578 268.835 332.746 268.835ZM333.071 269.617V271.586H326.954V269.617H333.071ZM347.415 260.661L343.416 274.557H341.72L345.728 260.661H347.415ZM355.343 263.948V273.458H353.075V263.948H355.343ZM360.529 263.948L356.995 269.819H354.877L354.578 267.622H355.985L357.707 263.948H360.529ZM357.769 273.458L355.853 269.406L357.734 268.176L360.731 273.458H357.769ZM367.384 263.948V265.838H364.176V273.458H361.926V263.948H367.384Z" fill="#010552"/>
<rect x="26.6909" y="298.906" width="345.766" height="47.7542" rx="15" fill="#364146"/>
<path d="M170.79 321.68H168.436L168.428 320.116H170.474C170.79 320.116 171.053 320.058 171.264 319.943C171.48 319.822 171.64 319.648 171.745 319.421C171.856 319.195 171.911 318.918 171.911 318.592C171.911 318.223 171.861 317.928 171.761 317.707C171.666 317.481 171.514 317.315 171.303 317.21C171.092 317.104 170.819 317.052 170.482 317.052H169.115V326.783H166.998V315.282H170.482C171.035 315.282 171.53 315.345 171.967 315.472C172.409 315.593 172.783 315.782 173.088 316.041C173.394 316.299 173.625 316.625 173.783 317.02C173.947 317.41 174.028 317.873 174.028 318.41C174.028 318.884 173.931 319.319 173.736 319.714C173.541 320.109 173.244 320.432 172.843 320.685C172.448 320.938 171.946 321.083 171.335 321.12L170.79 321.68ZM170.711 326.783H167.796L168.696 325.022H170.711C171.037 325.022 171.3 324.953 171.501 324.816C171.706 324.679 171.859 324.49 171.959 324.248C172.059 324 172.109 323.716 172.109 323.395C172.109 323.047 172.064 322.744 171.975 322.486C171.89 322.228 171.751 322.031 171.556 321.894C171.366 321.752 171.111 321.68 170.79 321.68H168.831L168.846 320.116H171.287L171.785 320.725C172.364 320.719 172.833 320.846 173.191 321.104C173.549 321.362 173.81 321.696 173.973 322.107C174.136 322.512 174.218 322.95 174.218 323.418C174.218 324.15 174.081 324.766 173.807 325.267C173.533 325.767 173.136 326.146 172.614 326.404C172.093 326.657 171.458 326.783 170.711 326.783ZM181.801 318.236V326.783H179.763V318.236H181.801ZM186.461 318.236L183.286 323.513H181.382L181.114 321.538H182.378L183.926 318.236H186.461ZM183.981 326.783L182.259 323.142L183.949 322.036L186.643 326.783H183.981ZM187.03 322.826V322.202C187.03 321.533 187.112 320.943 187.275 320.432C187.438 319.916 187.67 319.484 187.97 319.137C188.27 318.789 188.628 318.526 189.044 318.347C189.466 318.168 189.932 318.078 190.442 318.078C190.964 318.078 191.432 318.168 191.848 318.347C192.27 318.526 192.63 318.789 192.931 319.137C193.236 319.484 193.468 319.916 193.626 320.432C193.789 320.943 193.871 321.533 193.871 322.202V322.826C193.871 323.495 193.789 324.084 193.626 324.595C193.468 325.106 193.236 325.538 192.931 325.891C192.63 326.238 192.27 326.501 191.848 326.681C191.432 326.854 190.969 326.941 190.458 326.941C189.947 326.941 189.481 326.854 189.06 326.681C188.644 326.501 188.283 326.238 187.978 325.891C187.673 325.538 187.438 325.106 187.275 324.595C187.112 324.084 187.03 323.495 187.03 322.826ZM189.06 322.202V322.826C189.06 323.242 189.092 323.603 189.155 323.908C189.218 324.208 189.31 324.458 189.431 324.658C189.558 324.858 189.705 325.009 189.874 325.109C190.047 325.203 190.242 325.251 190.458 325.251C190.69 325.251 190.893 325.203 191.066 325.109C191.24 325.009 191.385 324.858 191.501 324.658C191.617 324.458 191.704 324.208 191.762 323.908C191.82 323.603 191.848 323.242 191.848 322.826V322.202C191.848 321.796 191.814 321.441 191.746 321.135C191.683 320.83 191.59 320.577 191.469 320.377C191.348 320.177 191.201 320.027 191.027 319.927C190.853 319.822 190.658 319.769 190.442 319.769C190.232 319.769 190.042 319.822 189.874 319.927C189.705 320.027 189.558 320.177 189.431 320.377C189.31 320.577 189.218 320.83 189.155 321.135C189.092 321.441 189.06 321.796 189.06 322.202ZM197.394 319.879V330.069H195.371V318.236H197.236L197.394 319.879ZM201.912 322.194V322.818C201.912 323.487 201.851 324.076 201.73 324.587C201.614 325.098 201.441 325.53 201.209 325.883C200.977 326.236 200.69 326.501 200.348 326.681C200.006 326.854 199.605 326.941 199.147 326.941C198.715 326.941 198.344 326.844 198.033 326.649C197.723 326.454 197.459 326.18 197.244 325.827C197.028 325.475 196.856 325.061 196.73 324.587C196.604 324.113 196.509 323.6 196.446 323.047V322.083C196.504 321.493 196.593 320.954 196.714 320.464C196.841 319.974 197.012 319.55 197.228 319.192C197.444 318.834 197.707 318.56 198.018 318.371C198.334 318.176 198.705 318.078 199.131 318.078C199.595 318.078 200 318.163 200.348 318.331C200.695 318.494 200.985 318.745 201.217 319.082C201.448 319.419 201.622 319.848 201.738 320.369C201.854 320.885 201.912 321.493 201.912 322.194ZM199.882 322.818V322.194C199.882 321.773 199.855 321.409 199.803 321.104C199.755 320.798 199.676 320.548 199.566 320.353C199.461 320.159 199.321 320.016 199.147 319.927C198.979 319.832 198.773 319.785 198.531 319.785C198.299 319.785 198.097 319.832 197.923 319.927C197.749 320.016 197.607 320.145 197.496 320.314C197.386 320.482 197.296 320.685 197.228 320.922C197.165 321.154 197.128 321.412 197.117 321.696V323.442C197.143 323.779 197.204 324.084 197.299 324.358C197.399 324.632 197.549 324.851 197.749 325.014C197.949 325.172 198.215 325.251 198.547 325.251C198.794 325.251 199.002 325.201 199.171 325.101C199.339 325.001 199.476 324.851 199.582 324.65C199.692 324.45 199.769 324.198 199.811 323.892C199.858 323.587 199.882 323.229 199.882 322.818ZM206.604 322.707H205.119V321.704H206.225C206.43 321.704 206.593 321.662 206.714 321.578C206.841 321.493 206.93 321.378 206.983 321.23C207.036 321.083 207.062 320.909 207.062 320.709C207.062 320.54 207.036 320.377 206.983 320.219C206.936 320.061 206.851 319.932 206.73 319.832C206.609 319.732 206.435 319.682 206.209 319.682C206.014 319.682 205.843 319.724 205.695 319.808C205.548 319.887 205.435 320.001 205.356 320.148C205.277 320.295 205.237 320.472 205.237 320.677H203.215C203.215 320.135 203.344 319.671 203.602 319.287C203.866 318.903 204.218 318.608 204.661 318.402C205.103 318.192 205.59 318.086 206.122 318.086C206.575 318.086 206.983 318.142 207.346 318.252C207.71 318.358 208.02 318.516 208.278 318.726C208.542 318.937 208.742 319.198 208.879 319.508C209.016 319.814 209.084 320.169 209.084 320.575C209.084 320.864 209.026 321.138 208.91 321.396C208.795 321.654 208.629 321.883 208.413 322.083C208.197 322.278 207.936 322.431 207.631 322.541C207.325 322.652 206.983 322.707 206.604 322.707ZM205.119 322.139H206.604C207.025 322.139 207.396 322.189 207.718 322.289C208.044 322.383 208.318 322.526 208.539 322.715C208.766 322.905 208.934 323.139 209.045 323.418C209.161 323.692 209.218 324.008 209.218 324.366C209.218 324.772 209.142 325.135 208.989 325.456C208.842 325.772 208.629 326.041 208.35 326.262C208.07 326.483 207.744 326.652 207.37 326.767C206.996 326.883 206.58 326.941 206.122 326.941C205.622 326.941 205.143 326.846 204.684 326.657C204.226 326.467 203.847 326.175 203.547 325.78C203.252 325.38 203.105 324.869 203.105 324.248H205.127C205.127 324.437 205.166 324.616 205.245 324.785C205.329 324.953 205.451 325.09 205.609 325.195C205.772 325.296 205.975 325.346 206.217 325.346C206.454 325.346 206.641 325.293 206.778 325.188C206.92 325.082 207.023 324.945 207.086 324.777C207.154 324.603 207.188 324.421 207.188 324.232C207.188 323.974 207.152 323.763 207.078 323.6C207.009 323.431 206.904 323.31 206.762 323.237C206.62 323.163 206.441 323.126 206.225 323.126H205.119V322.139ZM212.71 323.284L215.056 318.236H217.023V326.783H215.016V321.752L212.678 326.783H210.703V318.236H212.71V323.284ZM223.705 321.728V323.41H220.238V321.728H223.705ZM220.854 318.236V326.783H218.824V318.236H220.854ZM225.127 318.236V326.783H223.097V318.236H225.127ZM229.029 325.827L230.838 318.236H232.955L230.143 328.071C230.08 328.287 229.993 328.518 229.882 328.766C229.772 329.013 229.627 329.248 229.448 329.469C229.269 329.695 229.045 329.88 228.776 330.022C228.508 330.164 228.187 330.235 227.813 330.235C227.644 330.235 227.497 330.222 227.37 330.196C227.244 330.169 227.104 330.135 226.952 330.093L226.944 328.489C226.991 328.495 227.039 328.497 227.086 328.497C227.133 328.503 227.178 328.505 227.22 328.505C227.473 328.505 227.678 328.468 227.836 328.395C228 328.326 228.131 328.216 228.231 328.063C228.331 327.915 228.418 327.721 228.492 327.478L229.029 325.827ZM228.397 318.236L229.803 324.485L230.119 326.76L228.737 326.996L226.217 318.236H228.397Z" fill="#F3F7FA"/>
<rect x="26.6914" y="15.918" width="345.766" height="56.5976" rx="15" fill="#E1E3EB"/>
<g clip-path="url(#clip0_846_3838)">
<path d="M63.7054 47.952L67.5005 51.7462L66.2467 53L62.4524 49.2049C61.0407 50.3366 59.2847 50.9522 57.4753 50.9496C53.0732 50.9496 49.5005 47.3769 49.5005 42.9748C49.5005 38.5727 53.0732 35 57.4753 35C61.8774 35 65.4501 38.5727 65.4501 42.9748C65.4527 44.7842 64.8371 46.5402 63.7054 47.952ZM61.9279 47.2945C63.0524 46.138 63.6804 44.5879 63.6779 42.9748C63.6779 39.5474 60.9018 36.7722 57.4753 36.7722C54.0479 36.7722 51.2727 39.5474 51.2727 42.9748C51.2727 46.4013 54.0479 49.1774 57.4753 49.1774C59.0883 49.18 60.6385 48.5519 61.795 47.4274L61.9279 47.2945Z" fill="#878FA6" fill-opacity="0.6"/>
</g>
<path d="M89.2017 43.835V45.3594H85.0659V43.835H89.2017ZM85.5444 39.7471V49.7002H83.7124V39.7471H85.5444ZM90.5757 39.7471V49.7002H88.7573V39.7471H90.5757ZM95.5591 48.1006V44.5459C95.5591 44.3044 95.5272 44.113 95.4634 43.9717C95.4041 43.8304 95.3153 43.7279 95.1968 43.6641C95.0783 43.5957 94.9325 43.5615 94.7593 43.5615C94.5724 43.5615 94.4152 43.6003 94.2876 43.6777C94.16 43.7507 94.0643 43.8577 94.0005 43.999C93.9412 44.1357 93.9116 44.2975 93.9116 44.4844H92.1548C92.1548 44.1745 92.2163 43.8805 92.3394 43.6025C92.4624 43.3245 92.6401 43.0785 92.8726 42.8643C93.105 42.6455 93.3853 42.4746 93.7134 42.3516C94.0415 42.2285 94.4084 42.167 94.814 42.167C95.297 42.167 95.7254 42.249 96.0991 42.4131C96.4774 42.5726 96.7736 42.8301 96.9878 43.1855C97.2065 43.5365 97.3159 43.9967 97.3159 44.5664V47.9434C97.3159 48.3216 97.3364 48.6429 97.3774 48.9072C97.423 49.1715 97.4891 49.3971 97.5757 49.584V49.7002H95.7983C95.7209 49.5088 95.6616 49.2673 95.6206 48.9756C95.5796 48.6794 95.5591 48.3877 95.5591 48.1006ZM95.7847 45.1885L95.7915 46.2822H95.0532C94.8481 46.2822 94.6659 46.3118 94.5063 46.3711C94.3514 46.4303 94.2192 46.5146 94.1099 46.624C94.0005 46.7334 93.9185 46.8633 93.8638 47.0137C93.8091 47.1641 93.7817 47.3281 93.7817 47.5059C93.7817 47.7109 93.8114 47.8818 93.8706 48.0186C93.9299 48.1507 94.0164 48.251 94.1304 48.3193C94.2443 48.3831 94.3833 48.415 94.5474 48.415C94.7798 48.415 94.9803 48.3649 95.1489 48.2646C95.3221 48.1644 95.452 48.0459 95.5386 47.9092C95.6297 47.7679 95.6639 47.6357 95.6411 47.5127L96.0376 48.2236C95.992 48.3923 95.9214 48.57 95.8257 48.7568C95.73 48.9437 95.6069 49.1191 95.4565 49.2832C95.3107 49.4473 95.1307 49.5817 94.9165 49.6865C94.7069 49.7868 94.4585 49.8369 94.1714 49.8369C93.7658 49.8369 93.3989 49.748 93.0708 49.5703C92.7472 49.3926 92.492 49.1419 92.3052 48.8184C92.1183 48.4902 92.0249 48.0983 92.0249 47.6426C92.0249 47.2689 92.0864 46.9316 92.2095 46.6309C92.3325 46.3301 92.5125 46.0726 92.7495 45.8584C92.991 45.6442 93.2964 45.4801 93.6655 45.3662C94.0347 45.2477 94.4676 45.1885 94.9644 45.1885H95.7847ZM100.604 46.6719L102.634 42.3037H104.336V49.7002H102.6V45.3457L100.577 49.7002H98.8677V42.3037H100.604V46.6719ZM102.607 39.3711H103.926C103.926 39.763 103.833 40.1071 103.646 40.4033C103.459 40.6995 103.195 40.932 102.853 41.1006C102.516 41.2692 102.112 41.3535 101.643 41.3535C100.937 41.3535 100.376 41.1689 99.9614 40.7998C99.5513 40.4307 99.3462 39.9544 99.3462 39.3711H100.659C100.659 39.6172 100.732 39.8337 100.877 40.0205C101.028 40.2074 101.283 40.3008 101.643 40.3008C101.994 40.3008 102.242 40.2074 102.388 40.0205C102.534 39.8337 102.607 39.6172 102.607 39.3711ZM109.108 42.3037V49.7002H107.351V42.3037H109.108ZM111.042 42.3037V43.7529H105.437V42.3037H111.042ZM113.893 46.6719L115.923 42.3037H117.625V49.7002H115.889V45.3457L113.866 49.7002H112.157V42.3037H113.893V46.6719ZM126.533 42.3037V43.7734H123.737V42.3037H126.533ZM124.167 42.3037V49.7002H122.411V42.3037H124.167ZM127.879 42.3037V49.7002H126.116V42.3037H127.879ZM131.167 43.7256V52.5439H129.417V42.3037H131.031L131.167 43.7256ZM135.078 45.7285V46.2686C135.078 46.8473 135.025 47.3577 134.92 47.7998C134.82 48.2419 134.67 48.6156 134.469 48.9209C134.269 49.2262 134.02 49.4564 133.724 49.6113C133.428 49.7617 133.082 49.8369 132.685 49.8369C132.311 49.8369 131.99 49.7526 131.721 49.584C131.452 49.4154 131.224 49.1784 131.038 48.873C130.851 48.5677 130.703 48.21 130.593 47.7998C130.484 47.3896 130.402 46.9453 130.347 46.4668V45.6328C130.397 45.1224 130.475 44.6553 130.58 44.2314C130.689 43.8076 130.837 43.4408 131.024 43.1309C131.211 42.821 131.439 42.584 131.708 42.4199C131.981 42.2513 132.302 42.167 132.671 42.167C133.072 42.167 133.423 42.2399 133.724 42.3857C134.025 42.527 134.276 42.7435 134.476 43.0352C134.677 43.3268 134.827 43.6982 134.927 44.1494C135.028 44.596 135.078 45.1224 135.078 45.7285ZM133.321 46.2686V45.7285C133.321 45.3639 133.298 45.0495 133.252 44.7852C133.211 44.5208 133.143 44.3044 133.047 44.1357C132.956 43.9671 132.835 43.8441 132.685 43.7666C132.539 43.6846 132.361 43.6436 132.152 43.6436C131.951 43.6436 131.776 43.6846 131.625 43.7666C131.475 43.8441 131.352 43.9557 131.256 44.1016C131.161 44.2474 131.083 44.4229 131.024 44.6279C130.969 44.8285 130.937 45.0518 130.928 45.2979V46.8086C130.951 47.1003 131.003 47.3646 131.085 47.6016C131.172 47.8385 131.302 48.0277 131.475 48.1689C131.648 48.3057 131.878 48.374 132.166 48.374C132.38 48.374 132.56 48.3307 132.706 48.2441C132.851 48.1576 132.97 48.0277 133.061 47.8545C133.157 47.6813 133.223 47.4626 133.259 47.1982C133.3 46.9339 133.321 46.624 133.321 46.2686ZM136.117 46.2754V45.7354C136.117 45.1566 136.187 44.6462 136.329 44.2041C136.47 43.7575 136.67 43.3838 136.93 43.083C137.19 42.7822 137.5 42.5544 137.86 42.3994C138.224 42.2445 138.628 42.167 139.07 42.167C139.521 42.167 139.927 42.2445 140.287 42.3994C140.651 42.5544 140.963 42.7822 141.223 43.083C141.487 43.3838 141.688 43.7575 141.825 44.2041C141.966 44.6462 142.037 45.1566 142.037 45.7354V46.2754C142.037 46.8542 141.966 47.3646 141.825 47.8066C141.688 48.2487 141.487 48.6224 141.223 48.9277C140.963 49.2285 140.651 49.4564 140.287 49.6113C139.927 49.7617 139.526 49.8369 139.083 49.8369C138.641 49.8369 138.238 49.7617 137.874 49.6113C137.514 49.4564 137.201 49.2285 136.937 48.9277C136.673 48.6224 136.47 48.2487 136.329 47.8066C136.187 47.3646 136.117 46.8542 136.117 46.2754ZM137.874 45.7354V46.2754C137.874 46.6354 137.901 46.9476 137.956 47.2119C138.01 47.4717 138.09 47.6882 138.195 47.8613C138.304 48.0345 138.432 48.1644 138.578 48.251C138.728 48.333 138.897 48.374 139.083 48.374C139.284 48.374 139.459 48.333 139.61 48.251C139.76 48.1644 139.886 48.0345 139.986 47.8613C140.086 47.6882 140.161 47.4717 140.211 47.2119C140.262 46.9476 140.287 46.6354 140.287 46.2754V45.7354C140.287 45.3844 140.257 45.0768 140.198 44.8125C140.143 44.5482 140.063 44.3294 139.958 44.1562C139.854 43.9831 139.726 43.8532 139.576 43.7666C139.425 43.6755 139.257 43.6299 139.07 43.6299C138.888 43.6299 138.723 43.6755 138.578 43.7666C138.432 43.8532 138.304 43.9831 138.195 44.1562C138.09 44.3294 138.01 44.5482 137.956 44.8125C137.901 45.0768 137.874 45.3844 137.874 45.7354ZM143.971 42.3037H145.721L145.673 44.8262C145.66 45.6055 145.582 46.2754 145.441 46.8359C145.304 47.3965 145.122 47.8682 144.894 48.251C144.666 48.6292 144.402 48.9346 144.101 49.167C143.805 49.3994 143.49 49.5771 143.158 49.7002H142.761L142.754 48.251L142.946 48.2373C143.146 48.0049 143.308 47.777 143.431 47.5537C143.554 47.3304 143.65 47.0911 143.718 46.8359C143.787 46.5807 143.834 46.2913 143.862 45.9678C143.894 45.6442 143.914 45.2637 143.923 44.8262L143.971 42.3037ZM144.422 42.3037H148.62V49.7002H146.87V43.8281H144.422V42.3037ZM142.413 48.2373H149.563V51.915H147.813V49.7002H144.197V51.915H142.406L142.413 48.2373ZM152.475 48.873L154.041 42.3037H155.873L153.439 50.8145C153.384 51.0013 153.309 51.2018 153.213 51.416C153.118 51.6302 152.992 51.833 152.837 52.0244C152.682 52.2204 152.489 52.3799 152.256 52.5029C152.024 52.626 151.746 52.6875 151.422 52.6875C151.277 52.6875 151.149 52.6761 151.04 52.6533C150.93 52.6305 150.809 52.6009 150.677 52.5645L150.67 51.1768C150.711 51.1813 150.752 51.1836 150.793 51.1836C150.834 51.1882 150.873 51.1904 150.91 51.1904C151.128 51.1904 151.306 51.1585 151.443 51.0947C151.584 51.0355 151.698 50.9398 151.785 50.8076C151.871 50.68 151.946 50.5114 152.01 50.3018L152.475 48.873ZM151.928 42.3037L153.145 47.7109L153.418 49.6797L152.222 49.8848L150.042 42.3037H151.928ZM158.689 42.3037V49.7002H156.925V42.3037H158.689ZM162.722 42.3037L159.974 46.8701H158.327L158.094 45.1611H159.188L160.528 42.3037H162.722ZM160.576 49.7002L159.085 46.5488L160.548 45.5918L162.879 49.7002H160.576ZM167.022 42.3037V49.7002H165.265V42.3037H167.022ZM168.957 42.3037V43.7529H163.351V42.3037H168.957Z" fill="#878FA6" fill-opacity="0.6"/>
<g clip-path="url(#clip1_846_3838)">
<path d="M339.7 49.5222H344.553V47.7535H339.7V49.5222ZM331.208 38.9102V40.6788H353.045V38.9102H331.208ZM334.847 45.1005H349.406V43.3318H334.847V45.1005Z" fill="#364146"/>
</g>
<defs>
<clipPath id="clip0_846_3838">
<rect width="29.1171" height="21.2241" fill="white" transform="translate(47.3159 33.6045)"/>
</clipPath>
<clipPath id="clip1_846_3838">
<rect width="29.1171" height="21.2241" fill="white" transform="translate(327.568 33.6045)"/>
</clipPath>
</defs>
</svg>
