<svg width="284" height="70" viewBox="0 0 284 70" fill="none" xmlns="http://www.w3.org/2000/svg">
<path d="M258.122 5.05278e-05L77.5894 8.83255e-05C62.9232 8.70433e-05 61.5 17.9501 61.5 17.9501L61.4375 11.3827C61.3775 5.07879 56.2534 7.67183e-05 49.9492 6.64253e-05L32.2017 3.32127e-05L14.4542 0C9.16515 -1.02042e-05 4.89283 4.28762 4.89283 9.57666L4.89282 45.3294C4.89282 50.6185 9.18042 54.9061 14.4695 54.9061H49.8371C56.184 54.9061 61.3291 49.7609 61.3291 43.4141V36.2521C61.3291 36.2521 63.0773 54.9061 77.5894 54.9061L216.661 54.808C219.389 54.8061 221.614 56.99 221.664 59.7169L221.751 64.4949C221.802 67.2753 224.068 69.5042 226.848 69.5094L252.937 69.5581C255.761 69.5634 258.054 67.2751 258.054 64.4506V59.5367C258.054 56.7791 260.455 54.7464 262.849 53.3782C265.546 51.8373 266.964 48.9029 266.974 45.3683C266.974 45.347 266.992 45.3295 267.013 45.3295C267.047 45.3295 267.074 45.3019 267.074 45.2679V10.2767C267.074 10.2427 267.047 10.2151 267.013 10.2151C266.992 10.2151 266.974 10.1978 266.974 10.1765C266.96 4.93489 263.949 4.52877e-05 258.122 5.05278e-05Z" fill="url(#paint0_linear_846_3894)"/>
<path d="M30.6671 13.7438C28.4143 11.9653 25.7398 10.5544 22.7963 9.59189C17.8426 7.97196 13.5121 12.359 13.5121 17.5709L13.5121 37.0036C13.5121 42.2155 17.8426 46.6025 22.7963 44.9826C25.7398 44.0201 28.4143 42.6092 30.6671 40.8307C32.9199 39.0521 34.707 36.9407 35.9262 34.6169C37.1454 32.2931 37.773 29.8025 37.773 27.2873C37.773 24.772 37.1454 22.2814 35.9262 19.9576C34.707 17.6338 32.9199 15.5224 30.6671 13.7438Z" fill="#64B6FF"/>
<path d="M35.2193 14.0453C37.4128 12.2075 40.5514 10.6344 43.4174 9.63975C48.2212 7.97259 52.4573 12.2553 52.4573 17.3403L52.4573 37.2432C52.4573 42.3223 48.2322 46.5989 43.4174 44.9819C40.5514 44.0193 37.9472 42.6085 35.7537 40.8299C33.5602 39.0514 31.8201 36.9399 30.633 34.6162C29.4459 32.2924 28.8348 29.8018 28.8349 27.2865C29.1541 21.0682 33.0257 15.8832 35.2193 14.0453Z" fill="#FF6B21"/>
<mask id="mask0_846_3894" style="mask-type:alpha" maskUnits="userSpaceOnUse" x="28" y="16" width="10" height="23">
<path d="M37.0264 22.3575C36.5772 20.7947 35.9188 19.3747 35.0888 18.1785C34.5353 17.3808 33.9127 16.6931 33.2377 16.1315C27.1725 24.4139 27.4917 31.756 33.2377 38.4424C33.9127 37.8807 34.5353 37.193 35.0888 36.3953C35.9188 35.1992 36.5772 33.7792 37.0264 32.2163C37.4756 30.6535 37.7068 28.9785 37.7068 27.2869C37.7068 25.5953 37.4756 23.9203 37.0264 22.3575Z" fill="#D9D9D9"/>
</mask>
<g mask="url(#mask0_846_3894)">
<path d="M13.5126 17.5699C13.5126 12.358 17.8431 7.97099 22.7968 9.59092C25.7403 10.5535 28.4148 11.9643 30.6676 13.7428C32.9204 15.5214 34.7075 17.6328 35.9267 19.9566C37.1459 22.2804 37.7734 24.771 37.7734 27.2863L13.5126 27.2863L13.5126 17.5699Z" fill="#FEBC4E"/>
<path d="M13.5126 37.0026C13.5126 42.2145 17.843 46.6016 22.7968 44.9816C25.7403 44.0191 28.4148 42.6083 30.6676 40.8297C32.9204 39.0512 34.7075 36.9397 35.9267 34.6159C37.1459 32.2921 37.7734 29.8015 37.7734 27.2863L13.5126 27.2863L13.5126 37.0026Z" fill="#FEBC4E"/>
</g>
<path d="M90.1198 32.8098L95.9622 32.8098C95.8495 35.3528 95.3345 37.5175 94.4171 39.3041C93.4997 41.0745 92.1799 42.4264 90.4578 43.3599C88.7517 44.2934 86.6675 44.7602 84.205 44.7602C82.338 44.7602 80.6641 44.4222 79.1834 43.7462C77.7188 43.0702 76.4714 42.0965 75.4414 40.825C74.4113 39.5374 73.6227 37.9682 73.0755 36.1173C72.5443 34.2664 72.2788 32.166 72.2788 29.8162L72.2788 23.5875C72.2788 21.2377 72.5524 19.1373 73.0996 17.2864C73.6629 15.4355 74.4677 13.8663 75.5138 12.5787C76.56 11.2911 77.8315 10.3174 79.3283 9.65752C80.8412 8.98154 82.5472 8.64355 84.4464 8.64355C86.8767 8.64355 88.9207 9.1103 90.5785 10.0438C92.2363 10.9773 93.5158 12.3453 94.4171 14.148C95.3184 15.9506 95.8415 18.1475 95.9863 20.7388L90.1439 20.7388C90.0635 18.9844 89.822 17.5842 89.4197 16.538C89.0334 15.4758 88.4379 14.7113 87.6332 14.2445C86.8445 13.7778 85.7823 13.5444 84.4464 13.5444C83.3359 13.5444 82.3782 13.7536 81.5735 14.1721C80.7848 14.5906 80.133 15.2183 79.618 16.0552C79.119 16.876 78.7408 17.9141 78.4833 19.1695C78.2419 20.4088 78.1212 21.8654 78.1212 23.5392L78.1212 29.8162C78.1212 31.4257 78.2258 32.8501 78.435 34.0894C78.6442 35.3287 78.9822 36.3829 79.449 37.252C79.9157 38.105 80.5354 38.7568 81.3079 39.2075C82.0805 39.6421 83.0462 39.8593 84.205 39.8593C85.5891 39.8593 86.6916 39.6421 87.5125 39.2075C88.3494 38.7729 88.969 38.0406 89.3714 37.0106C89.7738 35.9805 90.0232 34.5803 90.1198 32.8098ZM103.577 9.1264L103.577 44.2773L97.7107 44.2773L97.7107 9.1264L103.577 9.1264ZM121.129 9.1264L109.396 29.2368L101.911 29.2368L101.042 23.829L106.112 23.829L113.983 9.1264L121.129 9.1264ZM115.021 44.2773L106.281 28.2711L110.047 23.5393L122.046 44.2773L115.021 44.2773ZM127.561 33.5824L139.801 9.1264L145.474 9.1264L145.474 44.2774L139.728 44.2773L139.728 19.9662L127.561 44.2773L121.839 44.2773L121.839 9.1264L127.561 9.1264L127.561 33.5824ZM168.202 9.1264L168.202 14.0514L154.369 14.0514L154.369 9.1264L168.202 9.1264ZM172.765 9.1264L172.765 44.2774L166.923 44.2774L166.923 9.1264L172.765 9.1264ZM153.234 9.1264L159.052 9.1264L158.376 26.6294C158.296 29.1885 158.111 31.4418 157.821 33.3892C157.548 35.3206 157.169 36.9784 156.686 38.3625C156.204 39.7467 155.584 40.8733 154.828 41.7424C154.087 42.6115 153.202 43.2553 152.172 43.6738C151.158 44.0762 149.983 44.2774 148.647 44.2774L147.199 44.2774L147.199 39.3765L148.044 39.2799C148.72 39.2155 149.307 39.0144 149.806 38.6764C150.321 38.3384 150.747 37.8234 151.085 37.1313C151.44 36.4392 151.729 35.554 151.955 34.4756C152.18 33.3812 152.357 32.0534 152.486 30.4922C152.614 28.931 152.703 27.1042 152.751 25.0119L153.234 9.1264ZM195.517 9.1264L195.517 14.0514L181.684 14.0514L181.684 9.1264L195.517 9.1264ZM200.08 9.1264L200.08 44.2774L194.238 44.2774L194.238 9.1264L200.08 9.1264ZM180.549 9.1264L186.367 9.1264L185.691 26.6295C185.611 29.1885 185.426 31.4418 185.136 33.3893C184.863 35.3206 184.484 36.9784 184.002 38.3625C183.519 39.7467 182.899 40.8733 182.143 41.7424C181.402 42.6115 180.517 43.2553 179.487 43.6738C178.473 44.0762 177.298 44.2774 175.962 44.2774L174.514 44.2774L174.514 39.3765L175.359 39.2799C176.035 39.2156 176.622 39.0144 177.121 38.6764C177.636 38.3384 178.063 37.8234 178.401 37.1313C178.755 36.4392 179.044 35.554 179.27 34.4756C179.495 33.3812 179.672 32.0534 179.801 30.4922C179.93 28.931 180.018 27.1042 180.066 25.0119L180.549 9.1264ZM212.306 31.989L219.404 9.12641L225.85 9.12641L215.976 37.8555C215.622 38.7569 215.236 39.626 214.817 40.4629C214.415 41.2998 213.924 42.0482 213.345 42.7081C212.765 43.3519 212.057 43.8589 211.22 44.2291C210.399 44.5993 209.393 44.7843 208.202 44.7843C207.864 44.7843 207.47 44.7682 207.019 44.7361C206.585 44.7039 206.263 44.6797 206.054 44.6636L206.029 39.7869C206.19 39.803 206.472 39.8272 206.874 39.8593C207.293 39.8754 207.583 39.8835 207.744 39.8835C208.484 39.8835 209.047 39.7306 209.433 39.4248C209.836 39.1029 210.15 38.6764 210.375 38.1453C210.6 37.6141 210.802 37.0267 210.979 36.3829L212.306 31.989ZM207.985 9.1264L214.552 28.3435L216.169 34.8861L211.63 35.0551L201.611 9.1264L207.985 9.1264ZM228.927 9.12641L234.262 9.12641L242.35 35.2723L250.413 9.12641L255.362 9.12641L244.546 44.2774L240.128 44.2774L228.927 9.12641ZM226.923 9.12641L231.848 9.12641L232.644 31.5062L232.644 44.2774L226.923 44.2774L226.923 9.12641ZM252.803 9.12641L257.752 9.12641L257.752 44.2774L252.031 44.2774L252.031 31.5062L252.803 9.12641Z" fill="#F4F5FC"/>
<path d="M233.185 52.5497V54.0139L229.266 54.0139V63H227.529L227.529 52.5497H233.185ZM228.771 56.5332H230.938C231.613 56.5332 232.192 56.6671 232.675 56.9351C233.158 57.2031 233.527 57.5763 233.78 58.0548C234.039 58.5333 234.168 59.0931 234.168 59.7343C234.168 60.2176 234.094 60.6578 233.945 61.0549C233.802 61.4521 233.589 61.7966 233.307 62.0885C233.029 62.3804 232.692 62.6052 232.295 62.7631C231.897 62.921 231.445 63 230.938 63H227.529L227.529 52.5497H229.273V61.543H230.938C231.283 61.543 231.563 61.4593 231.778 61.2918C231.998 61.1195 232.161 60.897 232.266 60.6243C232.376 60.3468 232.431 60.0453 232.431 59.7199C232.431 59.4041 232.376 59.117 232.266 58.8586C232.161 58.5955 231.998 58.3873 231.778 58.2342C231.563 58.0763 231.283 57.9974 230.938 57.9974L228.771 57.9974V56.5332ZM240.372 61.543V63L235.836 63V61.543L240.372 61.543ZM236.295 52.5497L236.295 63H234.551V52.5497H236.295ZM239.762 56.8992V58.3347L235.836 58.3347V56.8992L239.762 56.8992ZM240.329 52.5497V54.0139L235.836 54.0139V52.5497H240.329ZM244.703 52.5497V63H242.966L242.966 52.5497H244.703ZM247.366 52.5497V54.0139L240.332 54.0139V52.5497L247.366 52.5497ZM250.563 53.9852L248.037 63L246.214 63L249.53 52.5497H250.664L250.563 53.9852ZM252.58 63L250.046 53.9852L249.924 52.5497H251.08L254.41 63H252.58ZM252.623 59.117V60.5812L247.757 60.5812V59.117L252.623 59.117Z" fill="#FF6B21"/>
<defs>
<linearGradient id="paint0_linear_846_3894" x1="63.5745" y1="7.99999" x2="131.074" y2="116.5" gradientUnits="userSpaceOnUse">
<stop stop-color="#2A3337"/>
<stop offset="1" stop-color="#37302A"/>
</linearGradient>
</defs>
</svg>
