<svg width="105" height="76" viewBox="0 0 105 76" fill="none" xmlns="http://www.w3.org/2000/svg">
<path d="M17.2254 8.87437C16.757 8.87497 16.2946 8.88151 15.8749 8.91397C15.4677 8.9374 15.0736 9.0397 15.0673 9.06181C15.1669 8.97053 14.9572 9.17581 14.8284 9.49972C14.6868 9.81841 14.553 10.2204 14.4296 10.6326C14.1819 11.466 13.9601 12.3628 13.7302 13.2664C13.2744 15.0759 12.792 16.9186 12.2451 18.7534C12.1867 18.9496 12.1337 19.1357 12.1063 19.2648C12.0693 19.3893 12.1161 19.4613 12.0579 19.211C12.0256 19.0919 11.9205 18.9335 11.8426 18.8678C11.7642 18.7977 11.7312 18.79 11.7402 18.7934C11.7595 18.8051 11.8992 18.8497 12.0559 18.8801C14.4235 19.2355 17.3869 19.1724 20.1027 19.2394C23.9055 19.2977 27.6799 19.3516 31.3503 19.4296C32.7917 19.4606 32.6949 19.5448 33.0977 19.5632C34.0657 19.6077 34.6966 19.5476 35.3785 19.5488C35.4785 19.549 35.5787 19.5504 35.6804 19.5536C38.8083 19.6547 41.7702 19.7523 44.809 19.9427C45.1913 19.9802 45.6858 19.9497 46.3517 20.2645C47.0336 20.5991 47.3927 21.2509 47.5635 21.6978C48.2351 23.9875 47.9739 24.3934 47.9783 24.6408C47.9252 24.8429 47.845 24.736 47.871 25.4284C47.9323 28.1529 48.0971 25.8212 48.2266 26.8859C48.265 27.7707 48.2886 28.6546 48.306 29.5434C48.348 31.7685 48.3531 33.981 48.3508 36.199C48.3175 35.4429 48.2828 34.6862 48.2472 33.929C48.2595 35.2785 48.235 37.2029 48.1343 34.9508C48.1197 35.4429 48.1012 35.9209 48.0866 36.4255C48.1932 36.5671 48.22 38.9459 48.2803 39.1671C48.3416 39.3825 48.3203 38.0443 48.3254 38.0517C48.405 38.1378 48.3196 43.6386 48.3098 44.0344C48.2892 45.0822 48.1692 44.1645 48.178 45.056C48.1932 46.5886 48.4287 45.5665 48.114 47.6434C48.2152 48.4673 48.1621 48.5421 48.1541 49.5855C48.153 49.7236 48.2107 49.6162 48.2121 49.677C48.2507 51.2588 48.1476 50.0437 48.1415 50.052C48.0435 50.1958 48.0849 51.8902 48.0746 52.2517C47.9737 55.9321 47.9029 58.8111 47.8623 62.3383C47.8535 63.1049 47.8461 63.9093 47.8402 64.758C47.8337 65.7818 47.8572 68.8983 47.8415 69.8918C47.8267 70.8666 47.7749 70.3484 47.7489 70.8536C47.8749 71.6718 47.8817 72.4674 47.7991 74.2938C47.8416 74.6493 47.8451 74.7968 47.84 75.0158C47.8375 75.1388 47.8328 75.2768 47.8296 75.4469C47.8296 75.4478 47.8295 75.4485 47.8295 75.449C47.8295 75.4492 47.8295 75.4494 47.8295 75.4495C47.8295 75.4495 47.8295 75.4495 47.8295 75.4495C47.8295 75.4496 47.8295 75.4496 47.8295 75.4496C47.8295 75.4496 47.8295 75.4496 47.8295 75.4496C47.8295 75.4496 47.8295 75.4496 47.8295 75.4496C47.8295 75.4496 47.8295 75.4496 47.8295 75.4496C47.8295 75.4496 47.8295 75.4496 47.8295 75.4496C47.8295 75.4496 47.8295 75.4496 47.8295 75.4496C47.8295 75.4496 47.8295 75.4496 47.8295 75.4496C47.8295 75.4496 47.8295 75.4496 47.8295 75.4496C47.8295 75.4496 47.8295 75.4496 47.8295 75.4496C47.8295 75.4496 47.8295 75.4496 47.8295 75.4496C47.7388 75.4496 48.1318 75.4496 47.5574 75.4496C47.5574 75.4496 47.5574 75.4496 47.5574 75.4496C47.5574 75.4496 47.5574 75.4496 47.5574 75.4496C47.5574 75.4496 47.5574 75.4496 47.5574 75.4496C47.5574 75.4496 47.5574 75.4496 47.5574 75.4496C47.5574 75.4496 47.5574 75.4496 47.5574 75.4495C47.5574 75.4494 47.5575 75.4482 47.5575 75.446C47.5575 75.444 47.5576 75.4244 47.5576 75.4271C47.5577 75.4236 47.5578 75.4197 47.5579 75.4153C47.5581 75.4065 47.5583 75.3959 47.5585 75.3831C47.5588 75.3607 47.5591 75.3124 47.5594 75.2985C47.56 75.2543 47.5604 75.1972 47.5606 75.121C47.561 75.0233 47.5606 74.835 47.559 74.6991C47.5465 73.6051 47.4612 71.6933 47.5446 70.491C47.5327 71.9002 47.5708 71.7167 47.5914 73.2843C47.5931 73.4269 47.5937 73.8589 47.5952 74.4155C47.596 74.7307 47.5969 74.9988 47.5983 75.3611C47.5984 75.3856 47.5985 75.405 47.5985 75.4193C47.5986 75.424 47.5986 75.4221 47.5986 75.4326C47.5986 75.4414 47.5986 75.4467 47.5987 75.4487C47.5987 75.4492 47.5987 75.4495 47.5987 75.4495C47.5987 75.4495 47.5987 75.4496 47.5987 75.4496C47.5987 75.4496 47.5987 75.4496 47.5987 75.4496C47.5987 75.4496 47.5987 75.4496 47.5987 75.4496C47.5987 75.4496 47.5987 75.4496 47.5987 75.4496C47.5987 75.4496 47.5987 75.4496 47.5987 75.4496C47.5987 75.4496 47.5987 75.4496 47.5987 75.4496C47.5987 75.4496 47.5987 75.4496 47.5987 75.4496C47.6619 75.4496 47.388 75.4496 47.7883 75.4496C47.7883 75.4496 47.7883 75.4496 47.7883 75.4496C47.7883 75.4496 47.7883 75.4496 47.7883 75.4496C47.7883 75.4496 47.7883 75.4496 47.7883 75.4496C47.7883 75.4496 47.7883 75.4496 47.7883 75.4496C47.7883 75.4496 47.7883 75.4496 47.7883 75.4496C47.7883 75.4496 47.7883 75.4496 47.7883 75.4496C47.7883 75.4496 47.7883 75.4495 47.7883 75.4495C47.7883 75.4494 47.7882 75.4493 47.7882 75.4492C47.7882 75.4486 47.7882 75.4467 47.7882 75.445C47.7882 75.4408 47.7881 75.4338 47.7881 75.4239C47.7879 75.3658 47.7877 75.3425 47.7875 75.2964C47.7871 75.1867 47.7867 75.1375 47.7862 75.0366C47.7852 74.8724 47.7841 74.682 47.7829 74.5258C47.7729 73.1649 47.7507 71.9059 47.7043 72.1142C47.6563 72.3332 47.7004 74.0964 47.6915 74.1805C47.6424 74.5801 47.5797 73.5757 47.5996 72.7003C47.6103 72.9135 47.6211 73.1916 47.6315 73.4204C47.694 71.444 47.4464 72.8027 47.6628 71.2958C47.6898 71.1095 47.7179 71.1813 47.7471 70.8708C47.7351 70.806 47.7054 71.1863 47.7002 70.8601C47.6946 70.5365 47.7521 69.9026 47.7039 69.8115C47.6334 69.6734 47.6621 71.0329 47.658 71.1436C47.6584 71.1447 47.6589 71.1458 47.6593 71.1469C47.6238 72.0571 47.6175 70.156 47.6106 70.0633C47.5659 69.4802 47.5332 69.8697 47.4939 68.9944C47.4712 68.4897 47.479 67.2064 47.4704 66.7339C47.4614 66.2634 47.4293 66.9953 47.4205 66.6788C47.4115 66.3617 47.4366 65.9681 47.4263 65.5966C47.4217 65.4377 47.3819 65.4456 47.3802 65.3686C47.3607 64.5424 47.4467 65.0865 47.4387 64.3357C47.434 63.8525 47.346 62.2232 47.3279 63.3451C47.3209 63.0102 47.3147 62.6671 47.3086 62.3383C47.3051 62.1472 47.3016 61.9515 47.298 61.75C47.2918 61.9486 47.2871 62.1468 47.2818 62.3383C47.278 62.4801 47.2738 62.6219 47.2686 62.7611C47.2706 62.6072 47.2706 62.4672 47.2692 62.3383C47.2612 61.6213 47.2058 61.209 47.1973 60.6666C47.187 60.0412 47.2725 59.4703 47.2242 58.7724C47.1197 57.292 47.1903 60.9625 47.1771 61.4219C47.1723 61.5984 47.0987 60.9218 47.0957 60.8103C47.083 60.3501 47.1279 59.7855 47.1228 59.4323C47.1042 58.1438 47.0297 57.346 47.0034 56.1202C46.9153 51.9316 46.8069 46.7425 46.7204 42.7782C46.6881 41.3006 46.7629 40.4154 46.7481 39.7499C46.7121 38.1999 46.6261 38.0118 46.5905 36.6603C46.5375 34.6584 46.5311 31.8142 46.481 30.1441C46.4755 29.9579 46.4676 29.778 46.4581 29.6068C46.4075 28.6733 46.3046 27.8977 46.2884 27.6479C46.2068 26.4188 46.118 25.1138 45.9219 23.8633C45.8278 23.2678 45.6742 22.6134 45.4972 22.3219C45.3981 22.1748 45.4293 22.2227 45.3656 22.1933C45.2909 22.1647 45.0185 22.1388 44.6964 22.1277C42.9259 22.0528 41.2407 22.0144 39.8244 21.9865C38.1926 21.9563 37.4154 21.8415 37.0791 21.8396C35.8901 21.8353 35.9351 21.9006 35.3415 21.9122C35.2127 21.9149 35.0501 21.9151 34.8378 21.9116C34.2006 21.9013 34.0849 21.8114 33.9985 21.8072C33.2487 21.7719 33.0995 21.8881 32.5133 21.8886C29.1473 21.8925 25.9029 21.8088 22.5649 21.7848C22.3224 21.783 22.3464 21.7285 22.188 21.7307C21.5157 21.7415 21.8264 21.8288 21.1222 21.8323C20.7775 21.8342 20.4256 21.8343 20.0776 21.8331C18.9433 21.8292 17.7856 21.8126 16.5922 21.7872C16.4385 21.7838 16.369 21.7113 16.0151 21.7049C15.6603 21.698 15.39 21.7614 14.8271 21.741C13.7744 21.6931 12.7675 21.6379 11.5576 21.3982C11.3009 21.3402 11.0345 21.2806 10.6849 21.1238C10.5109 21.0423 10.3058 20.9319 10.0909 20.7295C9.87432 20.5308 9.67727 20.2105 9.60041 19.915C9.43019 19.2166 9.50915 18.759 9.60668 18.34C9.63704 18.2275 9.6694 18.117 9.70283 18.0063C10.0411 16.8955 10.4998 15.4403 10.7314 14.5381C11.0574 13.2816 11.3388 12.0636 11.6533 10.8247C11.8119 10.2101 11.9753 9.58841 12.2063 8.93576C12.4774 8.30056 12.6184 7.52142 13.7043 6.77075C14.8609 6.16618 15.6085 6.26468 16.3757 6.20209C17.167 6.17703 17.8297 6.27271 18.2223 6.2771C19.1002 6.29098 18.4436 6.20266 19.3294 6.21387C21.2114 6.24108 23.0789 6.26149 24.9597 6.24978C30.3199 6.21947 35.7099 6.2109 41.1286 6.20739C44.0007 6.20575 47.5011 6.1318 50.2838 6.1904C50.2876 6.19047 50.2914 6.19055 50.2952 6.19063C50.63 6.1977 50.8805 6.21257 51.0885 6.2304C51.6309 6.27601 51.8884 6.33973 52.488 6.35212C53.9505 6.38438 54.2211 6.24272 55.7658 6.27734C56.9977 6.3067 58.4117 6.51417 59.6946 6.57805C60.9742 6.64343 61.5871 6.54065 63.0596 6.64055C63.9353 6.69914 65.0557 6.838 66.0575 6.91339C66.4474 6.94204 66.8411 6.96365 67.2004 6.97626C70.4079 7.08003 73.6435 7.11012 76.8666 7.15847C81.3681 7.2349 85.8282 7.21023 90.444 7.52805C91.3122 7.64007 92.0634 7.5487 93.3795 8.18327C93.7129 8.36686 94.0967 8.70508 94.3223 9.10396C94.5518 9.50008 94.6328 9.8672 94.6804 10.1568C94.7656 10.7395 94.7518 11.154 94.7591 11.5695C94.7798 12.801 94.8822 14.2454 94.7046 15.7239C94.5178 17.1267 94.1094 19.1356 92.1494 20.1282C92.0206 20.1903 91.8907 20.2443 91.7549 20.2925C87.4747 21.732 82.7511 22.0297 78.3825 22.0773C77.963 22.0779 78.5983 21.9423 77.2575 22.0017C76.5375 22.0313 75.5312 22.1535 73.8676 22.1558C68.8108 22.1787 62.2569 21.7739 58.4275 21.8071C56.0702 25.1494 57.4326 30.4448 57.7695 34.9406C57.9068 36.3161 58.0233 37.7101 58.0517 39.1214C58.1433 49.5481 58.1281 60.1042 57.824 69.7451C57.8276 70.0928 57.5881 70.3626 57.4308 70.4652C57.2735 70.5739 57.1415 70.6216 57.0122 70.6636C56.7709 70.7371 56.5627 70.7658 56.3518 70.7896C55.9422 70.8321 55.5556 70.8367 55.172 70.8334C54.4047 70.8239 53.6665 70.7741 52.9321 70.7173C51.4671 70.6029 50.0389 70.4434 48.6459 70.3451C48.0149 70.3055 48.3554 70.1814 48.7391 70.1523C49.0931 70.1877 49.4195 70.2325 49.7877 70.2802C50.2616 70.1342 50.1777 70.1714 51.9084 70.2759C52.9745 70.3372 52.1253 70.2212 52.6954 70.225C53.4402 70.2866 56.8717 70.0839 56.2221 70.2039C56.4335 70.1542 56.6222 70.1001 56.8031 70.0162C56.9639 69.962 57.1324 69.8592 57.1218 69.7451C57.099 67.449 57.0722 65.1825 57.0359 62.9113C57.0291 62.491 56.9834 62.469 56.9762 62.0291C56.9563 60.8558 56.9875 59.9249 56.9837 58.712C56.9815 58.0574 56.9252 57.961 56.9286 57.1025C56.9319 56.2394 57.0109 56.2614 56.9252 55.0858C56.8266 55.8506 56.8957 52.4381 56.8885 51.2251C56.8879 51.0513 56.7907 49.6009 56.7991 48.8381C56.8075 48.0621 56.8675 46.9 56.8275 45.7083C56.8086 45.1403 56.7289 44.8177 56.721 44.2049C56.7154 43.7889 56.783 43.2681 56.7827 42.7393C56.7828 42.1941 56.7146 41.0542 56.7111 40.8276C56.6996 40.0728 56.759 40.9053 56.7563 40.3871C56.754 39.9717 56.7514 39.5485 56.7478 39.1398C56.713 36.9643 56.4294 34.5825 56.1505 32.5033C56.1096 32.1986 56.0958 32.6283 56.0889 32.588C55.7637 30.523 55.9795 31.6179 55.9732 31.0515C55.9277 30.5121 55.6324 26.4744 55.5853 26.4226C55.7286 26.3029 55.6537 25.376 55.6783 25.1345C55.7648 24.1924 55.8592 24.3966 56.0145 23.4842C56.0828 23.1453 55.8379 23.7781 55.9279 23.417C56.1568 22.5636 56.5464 21.8179 57.2759 20.899C57.3559 20.7997 57.4429 20.7371 57.5261 20.6886C57.9549 20.4864 58.0095 20.4387 58.5566 20.36C59.083 20.2757 61.1502 20.3304 60.1923 20.2095C61.4474 20.299 61.6853 20.2447 63.13 20.264C63.4873 20.2698 63.9619 20.3849 64.7343 20.3664C65.0014 20.3603 64.9951 20.2558 65.3836 20.2623C66.2924 20.2773 67.1307 20.4035 68.2695 20.4274C70.4076 20.4726 72.6662 20.4146 74.8859 20.4136C75.4896 20.4127 75.3386 20.5271 76.2158 20.5115C76.3454 20.5096 77.397 20.3866 78.0014 20.3718C78.3657 20.3683 80.2529 20.3441 80.6296 20.3204C81.2603 20.2882 81.3629 20.1688 81.7056 20.1643C82.6998 20.1445 81.9261 20.3775 83.0902 20.045C83.4941 20.1309 84.1889 20.041 84.425 20.1661C84.8135 19.9496 85.3492 20.0465 86.1254 19.869C86.894 19.6925 87.4638 19.2436 87.7151 19.5545C88.0625 19.4525 89.5627 19.0154 89.804 18.9273C90.5195 18.6994 90.1734 18.9084 90.7165 18.7178C90.7991 18.6869 90.7198 18.6619 91.1087 18.5135C91.1523 18.4964 91.2016 18.4765 91.2566 18.4521C91.4164 18.3991 92.0221 18.0301 92.3262 17.3139C92.6487 16.6254 92.7392 15.8033 92.7582 15.7202C93.0581 13.647 92.768 16.8888 92.5235 17.2445C92.4765 17.3067 92.4289 17.3652 92.3771 17.4274C91.9343 18.1246 92.3097 17.8275 92.5278 17.4791C92.751 17.1357 92.8806 16.3596 92.9778 16.0202C93.0272 15.8495 93.2109 15.9894 93.0733 16.5151C93.2517 15.9597 93.143 16.7498 93.2445 16.5368C93.4507 16.3098 93.6017 13.6327 93.4545 13.6235C93.4591 14.1198 93.4524 14.736 93.4063 15.2353C93.1836 15.8415 92.731 13.9279 92.8489 12.0981C92.9274 11.3046 93.0348 11.7384 93.0588 11.5948C93.0677 11.5431 93.069 11.4219 93.0533 11.1561C93.0273 10.9111 93.0374 10.4193 92.8097 10.0213C92.9568 10.314 92.9545 10.7269 92.9632 11.1447C92.8286 11.1985 92.9635 10.4847 92.8312 10.238C92.7896 10.1093 92.8577 10.9453 92.6812 10.2594C92.7389 9.7407 92.096 9.68605 90.81 9.57093C91.1791 9.57297 91.5368 9.58207 91.8791 9.62321C89.7808 9.09547 94.7598 9.96422 90.5583 9.1722C91.0895 9.21398 91.6157 9.2681 92.1111 9.39028C91.8838 9.25639 92.338 9.158 92.1211 9.05478C91.6549 8.84009 90.9778 8.79226 90.3479 8.75208C90.1829 8.74158 90.0129 8.73092 89.8551 8.71826C89.5265 8.69264 89.7344 8.64878 89.7064 8.64659C89.2551 8.61262 89.352 8.70264 88.9584 8.68718C88.4602 8.66569 87.0356 8.53112 86.8019 8.53446C86.2018 8.53946 87.1954 8.73758 87.1368 8.7485C86.7512 8.81575 85.9737 8.72685 86.0109 8.83387C87.2177 8.81204 89.8775 8.95337 90.3228 9.07044C90.4102 9.09006 90.4173 9.10496 90.3195 9.11307C90.1353 9.13016 89.5554 9.12004 88.3942 9.11072C89.7285 9.3475 89.3317 9.54808 87.4021 9.49607C85.803 9.46129 86.8378 9.39913 86.0065 9.27184C85.8989 9.25393 83.7538 9.15732 83.6415 9.23054C83.7314 9.06234 83.0333 8.89863 83.5071 8.73222C83.5765 8.70756 84.4587 8.73593 84.1539 8.58881C84.0014 8.51482 83.5622 8.35176 83.6352 8.26311C83.4519 8.32202 83.2611 8.38881 83.0754 8.45075C81.7516 8.44452 81.5647 8.37464 80.8429 8.24494C80.8751 8.2946 81.5403 8.51137 80.5262 8.43235C80.4742 8.42777 80.4304 8.35304 79.9151 8.30803C78.8738 8.21775 78.6567 8.19092 79.46 7.98628C78.2663 8.03535 77.5907 7.98062 76.8534 7.92635C76.2561 7.8824 75.6144 7.83935 74.6258 7.85206C74.9776 8.08806 75.559 8.09608 76.8507 8.08117C77.1482 8.0777 77.4857 8.07287 77.8667 8.06915C77.9535 8.13739 77.9936 8.20414 78.0834 8.27305C77.5137 8.23168 77.1224 8.20025 76.849 8.17781C75.8243 8.09388 76.3973 8.13654 75.1907 8.22159C74.8168 8.24847 72.8238 8.17325 73.4847 8.37662C73.641 8.42471 74.8807 8.44303 74.7365 8.51069C74.7079 8.52378 73.203 8.52921 73.0694 8.50797C71.4076 8.24598 74.3869 8.16104 69.7994 8.13146C69.6749 8.13046 69.6246 8.21183 69.3796 8.21637C68.9149 8.22439 68.9113 8.12838 68.4967 8.13725C68.0815 8.14586 67.5014 8.25523 66.8843 8.10822C65.7584 7.84019 68.4405 7.83586 69.6352 7.97666C69.8747 7.84415 68.028 7.73865 66.0179 7.59188C63.8446 7.39638 61.3517 7.18417 61.0777 7.19045C58.7473 7.14738 62.6168 7.33494 62.8101 7.44137C62.8896 7.48162 62.8122 7.89906 63.8114 7.70603C64.1062 7.6487 62.9119 7.44193 63.6326 7.45651C64.3569 7.47198 64.0602 7.57243 64.112 7.58548C64.2893 7.63055 65.0526 7.64717 65.15 7.67176C65.5556 7.77654 65.8389 7.87776 65.9966 7.9573C66.1963 8.05797 66.196 8.12648 65.9873 8.11557C65.7539 8.10344 65.2625 7.9885 64.5102 7.69515C63.6217 7.7576 65.6207 8.13837 64.5203 8.14057C63.1809 8.13961 62.2289 7.87263 62.0598 7.85205C60.0607 7.6098 62.3551 8.04338 59.9094 7.79971C58.5481 7.67252 61.967 7.72622 58.844 7.57194C56.2332 7.46543 57.6367 7.63158 57.4391 7.84555C57.3841 7.89581 55.9641 7.9009 57.9059 7.95951C57.9642 7.90372 58.0726 7.83163 58.1977 7.78359C58.6764 7.848 59.4467 8.18093 59.7051 8.20615C60.9295 8.32605 60.8891 8.17463 61.6017 8.40184C61.0959 8.17118 61.934 8.34693 62.2537 8.33043C63.445 8.27163 61.8993 8.08871 64.535 8.50155C64.1971 8.38237 63.8911 8.26668 63.5642 8.14848C63.8826 8.17162 64.2021 8.19535 64.5194 8.21834C64.9741 8.4619 66.6799 8.55113 65.1247 8.64501C65.428 8.67757 65.7028 8.70312 65.952 8.72146C67.2151 8.81035 67.7948 8.77075 68.1381 8.6539C68.2157 8.62679 68.4928 8.62421 68.8199 8.63125C68.7609 8.5857 68.6844 8.44805 68.737 8.4331C69.2003 8.30189 69.9054 8.57257 69.6597 8.66199C69.8863 8.67272 70.0694 8.68279 70.1314 8.68671C70.5343 8.71186 69.741 8.77848 70.0679 8.81661C70.1745 8.82945 71.315 8.83758 71.3351 8.87294C71.467 9.10057 69.5984 8.90133 73.3571 9.10849C73.4505 8.90563 71.7047 8.91531 72.1573 8.70623C72.645 8.48242 73.6177 8.81564 73.8396 8.53269C73.9179 8.58138 73.9523 8.62138 74.02 8.67636C75.5434 8.57987 75.5586 8.81808 76.0231 8.87876C76.1979 8.90173 76.4954 8.92228 76.8359 8.93844C78.2398 9.00475 80.3493 8.99412 77.3512 8.78208C77.8968 8.77039 78.4523 8.76942 78.9947 8.75955C79.1118 9.18648 78.7849 9.01193 81.3934 9.11578C81.9681 9.13905 82.1513 9.32759 82.7189 9.11653C82.6378 9.33094 84.3393 9.23105 84.497 9.26151C85.5089 9.44972 81.733 9.61862 81.2541 9.2312C80.614 9.37107 80.6195 9.17369 79.907 9.18953C78.8775 9.21247 78.7346 9.24974 77.5144 9.08445C76.3093 9.27404 82.2199 9.24318 78.6338 9.46566C78.2323 9.49057 77.6136 9.51108 76.8258 9.5264C74.3687 9.56324 70.3007 9.61681 65.9085 9.46603C60.2772 9.03418 54.431 8.89772 51.0487 8.88827C50.7684 8.88647 50.5009 8.88506 50.2501 8.88397C49.9166 8.88263 49.6033 8.88163 49.353 8.88118C40.5504 8.88269 35.9172 8.95665 27.9989 8.95795C27.6512 8.95837 26.2698 8.96579 24.9743 8.95266C23.353 8.93719 21.8466 8.86301 22.5323 8.73948C22.708 8.70986 25.2562 8.62691 23.0733 8.43202C23.5215 8.54541 22.2273 8.60817 22.1229 8.61756C19.6543 8.85153 21.0458 8.91776 17.2254 8.87437ZM10.9834 15.672C12.2858 10.8049 11.2181 14.3555 11.1398 13.2539C10.9828 13.8819 10.825 14.5044 10.662 15.1268C10.7258 14.9676 10.7874 14.8155 10.8513 14.6539C10.8515 14.6532 10.8517 14.6525 10.8519 14.6518C10.8971 14.9925 10.94 15.3362 10.9834 15.672ZM47.2136 64.2158C47.1876 64.0189 47.1613 63.8241 47.1353 63.609C47.1366 63.1863 47.138 62.7567 47.1396 62.3383C47.1404 62.1023 47.1414 61.8594 47.1423 61.6097C47.1603 61.6914 47.1784 61.7697 47.1963 61.8501C47.1973 62.016 47.1983 62.1787 47.1994 62.3383C47.2033 62.9583 47.2077 63.5891 47.2136 64.2158ZM70.3431 7.94296C71.284 8.09977 71.205 7.86064 72.458 7.99653C72.3082 7.81829 72.1405 7.6433 71.9825 7.46626C71.0266 7.46968 70.8098 7.53153 69.774 7.46014C69.8913 7.51989 70.0157 7.58007 70.1312 7.63993C70.3031 7.63245 70.488 7.62351 70.6553 7.61705C70.9174 7.78187 69.2594 7.76167 70.3398 7.94323C70.3409 7.94314 70.342 7.94305 70.3431 7.94296ZM80.0345 8.06182C80.543 8.09239 82.5587 8.21144 82.8353 8.14614C83.7727 7.92046 78.078 7.97276 82.2769 7.83225C82.2583 7.79796 82.2781 7.76508 82.2787 7.73149C81.5132 7.70504 80.7503 7.68147 79.9802 7.6587C80.0193 7.79378 79.9898 7.92599 80.0345 8.06182ZM24.0245 6.81873C24.2113 6.82284 24.5495 6.81904 24.9627 6.80718C26.2806 6.76874 28.2485 6.66183 27.316 6.54879C27.0077 6.51129 25.7116 6.68156 24.9623 6.7235C24.8467 6.72987 24.7452 6.73318 24.6621 6.73235C24.2539 6.72784 24.7168 6.60558 23.9065 6.65202C23.9419 6.70532 23.9637 6.76444 24.0267 6.81837C24.0259 6.81849 24.0252 6.81861 24.0245 6.81873ZM22.5609 7.51837C23.3573 7.50266 24.1634 7.47662 24.9662 7.44941C24.9784 7.44899 24.9905 7.44857 25.0027 7.44815C24.9908 7.44539 24.9786 7.44272 24.9661 7.44015C24.3592 7.31818 23.2341 7.39748 23.1724 7.2069C23.3893 7.19293 23.617 7.17869 23.8358 7.16394C24.0038 7.20633 24.1727 7.24858 24.3429 7.2906C24.7312 7.2299 24.7709 7.18677 24.9647 7.16535C25.1071 7.1488 25.3536 7.14485 25.9156 7.1549C25.5564 7.02042 25.3167 6.91482 24.9631 6.87127C24.5401 6.8206 23.9529 6.85416 22.7597 7.00748C23.1802 6.84969 22.7865 6.33413 21.5576 6.69232C21.326 6.75875 22.2876 6.81326 22.2966 6.82378C22.4422 6.96068 21.9127 7.04322 22.0686 7.17264C22.1348 7.2314 22.7286 7.23465 22.8126 7.31548C22.8535 7.3552 22.2933 7.46366 22.5609 7.51837ZM20.9573 6.81487C21.2077 6.73584 20.3587 6.53113 19.6154 6.55948C18.4589 6.60352 20.2765 6.81585 20.9573 6.81487ZM47.2138 64.2202C47.2137 64.2187 47.2137 64.2172 47.2136 64.2158C47.2137 64.2165 47.2138 64.2172 47.2139 64.218C47.2139 64.2187 47.2138 64.2194 47.2138 64.2202ZM77.4126 7.92258C78.0126 7.863 78.9004 7.88804 78.8361 7.77562C79.1273 7.80243 79.4216 7.82888 79.713 7.8556C79.7108 7.82214 79.7058 7.78855 79.7036 7.75542C78.8261 7.71975 77.953 7.68417 77.0762 7.64677C77.1844 7.73859 77.2858 7.83057 77.4126 7.92258ZM86.9784 8.19733C88.0856 8.24774 87.1617 8.06566 87.4076 8.00253C87.6516 7.93841 88.6383 8.04018 88.5285 7.93285C87.8723 7.89787 87.1945 7.86873 86.5325 7.84388C86.7052 7.96193 86.8195 8.08023 86.9806 8.19741C86.9799 8.19738 86.9791 8.19736 86.9784 8.19733ZM27.2288 21.3573C26.4808 21.3242 26.7876 21.2221 25.309 21.3356C25.3101 21.3357 25.3112 21.3357 25.3123 21.3357C26.7171 21.428 28.5259 21.5102 30.0771 21.439C29.1299 21.326 28.4053 21.4089 27.2288 21.3573ZM67.7461 7.5167C67.4271 7.59872 68.8917 7.72838 69.216 7.65013C69.7425 7.52639 68.2297 7.39537 67.7461 7.5167ZM47.4919 32.3844C47.7069 33.4396 47.8939 31.6328 47.7775 29.5616C47.7685 29.404 47.7579 29.2478 47.7456 29.0941C47.7381 29.0024 47.7301 29.2796 47.7174 29.5636C47.7028 29.8583 47.6827 30.157 47.6541 29.9301C47.6518 29.9114 47.6469 29.7521 47.639 29.5663C47.6281 29.305 47.6116 29.0002 47.5906 28.8914C47.5536 28.6994 47.4922 28.9073 47.4502 28.5792C47.3787 28.0192 47.4091 26.7251 47.311 26.3009C47.2989 26.2412 47.2533 27.0496 47.2513 27.0955C47.2398 27.9169 47.3915 28.6969 47.3974 28.8313C47.4256 29.4707 47.3271 29.386 47.311 29.5532C47.3102 29.5612 47.3095 29.5693 47.3089 29.5776C47.283 29.8802 47.3395 30.415 47.3374 30.4484C47.3012 31.1232 47.27 30.2691 47.2356 29.5801C47.2195 29.2505 47.2034 28.9693 47.189 28.8768C47.0593 28.0531 47.0179 28.815 46.8573 26.8634C46.8425 26.6697 46.6978 24.4544 46.7732 27.2592C46.2773 22.9443 46.6591 27.156 46.7712 29.5961C46.8069 30.2275 46.8362 30.7502 46.8525 30.9374C46.8884 31.3572 46.9569 30.7183 47.0052 30.9718C47.1156 31.5471 47.1572 32.5314 47.2825 32.4385C47.547 32.2525 47.3384 30.949 47.3542 30.0611C47.4166 30.1534 47.4756 30.1872 47.5389 30.3629C47.4542 30.0915 47.4762 32.3063 47.4913 32.3844C47.4915 32.3844 47.4917 32.3844 47.4919 32.3844ZM43.3926 21.2742C42.1533 21.1376 42.236 21.3303 41.0984 21.1882C40.0882 21.331 42.0712 21.3741 42.3013 21.393C43.351 21.4714 43.3214 21.6519 44.3972 21.6413C44.0341 21.5176 43.7374 21.3963 43.3926 21.2742ZM47.0121 29.1924C46.9263 28.6169 46.9319 29.1693 46.9369 29.5904C46.9386 29.7547 46.9404 29.8951 46.9361 29.9129C46.895 30.0903 46.856 29.8984 46.8269 29.5941C46.7468 28.7368 46.732 26.9536 47.0121 29.1924ZM28.8789 7.25731C29.303 7.26326 29.0368 7.15224 29.4073 7.11731C29.7797 7.08197 31.0634 7.17268 31.0282 7.10287C30.9946 7.03254 28.6532 6.86181 31.003 6.81138C30.9235 6.77235 30.9502 6.74284 30.9117 6.70743C30.2626 6.70943 29.6127 6.71101 28.9647 6.71348C29.3254 6.82462 29.6812 6.9419 30.0278 7.04976C29.6617 7.14154 29.4591 7.02696 29.4398 7.02707C29.4398 7.02719 29.4398 7.02731 29.4398 7.02743C28.7602 7.03985 27.9334 7.24423 28.8789 7.25731ZM16.7666 21.0843C16.8965 20.8279 15.8923 21.0998 15.4777 21.1208C15.0638 21.1431 14.5 21.0263 14.7098 21.1459C15.3768 21.2484 16.751 21.1133 16.7666 21.084C16.7666 21.0841 16.7666 21.0842 16.7666 21.0843ZM36.6331 21.1008C35.9254 21.1283 35.776 21.1674 35.3532 21.1622C35.1542 21.1598 34.8918 21.1474 34.4774 21.1194C34.5265 21.1778 34.5754 21.2375 34.6242 21.2949C34.9541 21.2991 35.1729 21.2842 35.3516 21.2649C35.7278 21.2255 35.9508 21.1677 36.7416 21.225C36.9341 21.2392 36.5193 21.3647 37.3871 21.3363C37.1378 21.2617 36.8833 21.1791 36.6331 21.1008ZM31.4573 21.2562C32.6562 21.2563 33.6125 20.7943 31.402 20.9858C31.0732 21.0146 30.5558 21.2561 31.4573 21.2562ZM17.8207 7.23099C19.86 7.27118 17.5458 7.14877 17.0058 7.0768C21.7717 7.05499 16.4952 7.05214 15.9629 6.85643C15.3557 6.95221 14.2246 7.36112 15.5077 7.19954C16.0274 7.1706 15.8351 7.11019 15.8654 7.10655C16.815 7.07763 16.7038 7.2218 17.8207 7.23099ZM45.493 21.3993C45.4281 21.3897 45.5139 21.4795 45.3078 21.4612C45.1808 21.4508 44.9309 21.4186 44.7336 21.4063C44.6128 21.3983 44.5153 21.3969 44.4942 21.414C44.4757 21.4282 44.577 21.4468 44.7306 21.4651C45.0807 21.4967 45.5682 21.5662 45.6808 21.6224C45.7814 21.6533 45.8517 21.6584 45.8528 21.6111C45.8503 21.5682 45.7789 21.4532 45.493 21.3993ZM37.7424 20.9128C36.7215 20.9506 38.3828 21.2743 38.6035 21.2774C40.5486 21.3033 37.683 21.0036 37.7424 20.9128ZM13.9279 8.92918C14.2023 8.2239 14.4288 8.07204 14.4219 7.97688C14.4213 7.96313 14.415 7.95262 14.4031 7.94534C14.3403 7.89708 14.043 7.98646 13.7595 8.29386C13.4727 8.59361 13.211 9.05317 13.0018 9.49717C12.9698 9.70373 12.9403 9.91901 12.9172 10.1221C12.9375 9.64959 13.0652 8.9853 13.045 8.89491C13.03 8.80045 12.7568 9.30705 12.3933 11.0851C12.9735 9.17707 12.5807 10.8063 12.5926 10.8174C12.8822 11.1227 13.6416 8.28132 13.9271 8.93099C13.9273 8.93039 13.9276 8.92978 13.9279 8.92918ZM46.6333 23.8942C46.8046 24.918 47.0119 27.6962 47.0732 26.3919C46.952 25.5544 46.8164 24.704 46.6333 23.8942ZM53.3383 7.92629C54.2096 8.05254 55.0102 8.07195 56.0879 8.10216C55.1273 7.91555 55.7564 7.91862 56.0897 7.89241C56.5883 7.8528 55.3878 7.81612 55.3832 7.80636C55.4115 7.66139 56.1771 7.65973 54.4291 7.61245C54.8693 7.5734 55.291 7.53462 55.7253 7.49829C54.3985 7.44904 54.0781 7.34713 53.2423 7.21046C54.0527 7.51523 52.9811 7.3094 51.9945 7.43408C51.5091 7.49637 52.886 7.8607 53.3416 7.92636C53.3405 7.92634 53.3394 7.92631 53.3383 7.92629ZM15.6639 7.92312C15.8978 7.8512 16.1208 7.77234 16.3614 7.70715C16.6222 7.69275 16.8878 7.68437 17.1545 7.67783C17.1889 7.72159 17.2141 7.76745 17.2522 7.80962C17.6023 7.82248 17.4663 7.76152 17.5691 7.75603C17.5691 7.75626 17.5691 7.7565 17.5691 7.75673C19.063 7.68763 19.6815 7.71551 20.8506 7.86823C20.8524 7.73272 20.8543 7.59722 20.8562 7.46171C20.5942 7.47102 20.3231 7.47951 20.0631 7.48796C19.9185 7.55839 19.7786 7.62884 19.6384 7.69916C19.3295 7.65394 19.0321 7.60918 18.7258 7.56459C18.4822 7.587 18.1905 7.61056 17.9752 7.63387C16.7616 7.24528 19.5265 7.53147 19.5541 7.37884C19.5735 7.27718 16.7782 7.23746 16.3761 7.34111C16.3176 7.35571 16.9282 7.60435 15.9072 7.50819C15.7591 7.52085 15.5969 6.81207 14.5725 7.60576C14.4628 7.72157 15.0648 7.87439 15.6639 7.92312ZM25.7512 8.13296C24.183 7.74589 29.9687 8.13801 27.4708 7.82382C28.1833 7.63942 28.0548 7.64205 27.3315 7.48457C27.2675 7.47046 27.7657 7.41821 27.724 7.41208C27.048 7.32656 26.2444 7.37791 26.2368 7.21687C26.053 7.22648 25.8822 7.23507 25.7031 7.24466C26.376 7.37634 25.4896 7.47703 24.967 7.58968C24.9022 7.60324 24.8431 7.61694 24.7928 7.63087C24.5791 7.68968 25.0717 7.70536 24.8915 7.75686C24.8211 7.77599 24.1473 7.74074 24.1156 7.79345C24.0663 7.89896 24.3873 8.0379 24.9699 8.12735C25.0455 8.13935 25.126 8.1505 25.2112 8.1606C25.2112 8.16072 25.2112 8.16084 25.2112 8.16096C25.3902 8.1523 25.5748 8.14194 25.7512 8.13296ZM20.0862 20.3128C20.0882 20.3142 20.0902 20.3157 20.0923 20.3172C20.3225 20.4857 21.11 20.5586 20.0893 20.6243C19.9058 20.6358 19.6709 20.6472 19.3634 20.6587C19.4639 20.6989 19.5686 20.7389 19.6712 20.7791C19.8095 20.7789 19.9476 20.7788 20.0878 20.7787C20.2888 20.7784 20.4972 20.7783 20.7046 20.7782C21.766 20.2046 23.6894 20.8777 22.4573 20.4553C22.3245 20.4095 21.4994 20.4516 22.3137 20.3378C22.3126 20.3377 22.3115 20.3375 22.3104 20.3374C21.1782 20.3636 21.0325 20.4327 20.0923 20.3135C20.0903 20.3133 20.0882 20.313 20.0862 20.3128ZM12.5206 20.209C11.208 20.2277 12.0764 20.4665 13.1884 20.5384C14.293 20.6116 15.5879 20.56 15.0712 20.4905C14.9782 20.4953 12.2916 20.4262 12.5206 20.209ZM33.4751 20.241C32.3035 20.2164 32.223 20.43 32.3404 20.5082C32.4573 20.5867 33.2698 20.5193 33.3748 20.533C33.7147 20.5774 32.992 20.5942 33.4336 20.6546C33.5447 20.6694 34.7476 20.7322 35.3595 20.7596C35.5565 20.7683 35.6906 20.7731 35.7131 20.7713C36.2334 20.7298 35.4772 20.5439 35.6262 20.5265C36.1118 20.4699 36.7667 20.5724 36.9093 20.4838C37.2155 20.2946 35.9866 20.4749 35.7779 20.4753C35.5908 20.4748 35.4631 20.4645 35.3644 20.4494C35.1419 20.4147 35.0663 20.3547 34.7427 20.3337C34.2739 20.3037 33.9705 20.3371 33.5562 20.3231C33.4198 20.3184 33.5342 20.2426 33.4751 20.241ZM29.5952 20.6468C30.8209 20.4957 27.8424 20.2858 27.4886 20.3207C26.4477 20.4263 29.0088 20.7199 29.5952 20.6468ZM21.8211 7.53471C20.7021 7.6575 23.3101 7.79511 24.0547 7.73599C23.9228 7.6815 22.2037 7.49415 21.8211 7.53471ZM13.6803 9.52585C14.0061 8.58856 13.2202 9.7001 13.0082 10.5484C13.062 11.0858 13.1447 10.6183 13.3151 10.0882C13.4906 9.56785 13.458 10.2718 13.6803 9.52585ZM46.2652 21.1443C46.2226 21.1083 46.0166 20.9541 45.7173 20.882C45.4212 20.806 45.0752 20.8033 44.7647 20.8024C43.9318 20.8022 43.2558 20.8318 44.4323 20.9181C44.4635 20.9205 44.5841 20.9261 44.7579 20.934C45.1046 20.961 45.766 20.9249 46.2062 21.3151C46.6275 21.6989 46.7412 22.176 46.7836 22.2344C46.9309 22.6096 46.8421 21.6181 46.2652 21.1443ZM12.6716 14.3237C12.646 13.7516 12.7785 13.2321 12.4653 13.6712C12.4651 13.6719 12.4649 13.6726 12.4647 13.6733C12.7424 12.3236 13.1485 12.3619 13.2137 12.0726C13.4433 11.0652 12.9187 11.9404 12.9915 11.2892C12.6972 12.777 12.6216 12.3101 12.3282 13.4227C12.2624 13.6761 12.1185 14.706 12.1491 14.8689C12.1801 15.034 12.5215 14.5723 12.6716 14.3237ZM47.5216 26.15C47.4928 24.9251 47.1563 23.8541 47.2752 25.5237C47.322 26.3423 47.5348 26.8823 47.5216 26.15ZM81.7605 9.07255C81.5774 8.99656 81.389 8.92076 81.1921 8.84517C81.6373 8.83446 82.0843 8.82369 82.5294 8.81341C82.1773 8.8304 81.8244 8.84735 81.469 8.8645C82.3043 8.90349 82.6847 9.04261 81.7627 9.07259C81.762 9.07258 81.7613 9.07257 81.7605 9.07255ZM83.3681 20.2135C82.9921 20.1884 82.283 20.4503 82.3754 20.4573C83.0837 20.5143 83.8934 20.2487 83.3681 20.2135ZM23.4732 8.21104C24.8681 8.24371 23.9122 7.8875 23.0568 7.85925C23.5771 7.92973 22.6878 8.19021 23.4732 8.21104ZM92.5235 17.2445C92.5938 17.1508 92.6606 17.0543 92.7289 16.9383C92.5592 17.3131 92.4946 17.3537 92.5235 17.2445ZM45.7213 20.6055C45.6034 20.5569 45.1708 20.4893 44.7818 20.4703C44.2899 20.4373 43.7523 20.4135 43.6322 20.4234C43.2587 20.456 44.0733 20.6132 44.7722 20.6573C44.9006 20.6653 45.0247 20.6696 45.142 20.6719C45.2067 20.6509 45.9641 20.6808 45.7172 20.6045C45.7186 20.6048 45.7199 20.6052 45.7213 20.6055ZM83.638 9.24004C83.6356 9.23662 83.637 9.23342 83.6415 9.23054C83.6398 9.23365 83.6402 9.23692 83.638 9.24004ZM55.5727 26.4349C55.577 26.4261 55.5812 26.4214 55.5853 26.4226C55.5813 26.4259 55.577 26.4327 55.5727 26.4349ZM34.5444 19.919C34.0246 19.6173 32.8174 19.7513 33.7682 19.9129C33.8211 19.9213 34.418 19.916 34.5444 19.919Z" fill="#F1F7FB"/>
<path d="M52.9025 73.9804C52.8815 73.5636 52.8849 73.0094 52.8961 72.5941C52.8996 72.4679 52.9273 72.5316 52.9309 72.4421C52.9377 72.2576 52.9218 72.1067 52.9306 71.9248C52.9336 71.8647 52.977 71.9387 52.9793 71.8755C52.9916 71.5509 52.975 71.2376 52.9773 70.8929C52.9898 69.2409 52.9745 67.6142 52.9614 65.9323C52.9572 65.3838 52.9826 64.7172 52.9548 64.1326C52.9515 64.0679 52.9154 64.1072 52.9122 64.0949C52.862 63.9017 52.9376 63.9648 52.945 63.8366C52.9582 63.6071 52.9638 63.3611 52.9638 63.1102C52.9641 62.8218 52.956 62.5268 52.9429 62.2496C52.9326 62.0345 52.8636 62.2522 52.9005 62.0337C52.903 62.0185 52.9431 62.0728 52.9462 62.0132C52.9531 61.8834 52.9414 61.6398 52.9426 61.5378C52.945 61.3423 52.944 61.3097 52.9409 61.1222C52.9368 60.8604 52.9506 60.5674 52.9366 60.296C52.9335 60.2382 52.8948 60.3157 52.8862 60.2233C52.8777 60.1311 52.8763 59.8841 52.8842 59.7997C52.892 59.7155 52.9242 59.7507 52.9312 59.7357C52.9897 59.6083 52.9 59.3338 52.8972 59.297C52.8489 58.6373 52.886 58.0591 52.8739 57.4374C52.8644 56.9541 52.839 56.4599 52.8325 56.0047C52.8247 55.4563 52.8379 55.016 52.824 54.4881C52.8226 54.4326 52.7767 54.4985 52.7748 54.4307C52.7555 53.7132 52.7469 53.0038 52.765 52.2922C52.7669 52.2212 52.8101 52.3118 52.8144 52.2408C52.8401 51.8083 52.9081 51.1029 52.723 50.8537C52.7243 50.5597 52.7246 50.2003 52.7557 49.9335C52.7758 49.7615 52.8241 49.9274 52.8008 49.7167C52.7956 49.6691 52.7573 49.7319 52.7524 49.6605C52.7322 49.3615 52.7387 49.0388 52.7125 48.7432C52.7071 48.6832 52.672 48.7003 52.6653 48.6833C52.6109 48.5412 52.6916 48.3004 52.6968 48.2481C52.7352 47.8477 52.7115 47.5657 52.7054 47.1963C52.704 47.1108 52.6584 47.2128 52.6554 47.1305C52.6402 46.7036 52.6356 46.2597 52.6485 45.8437C52.6515 45.7508 52.6937 45.8353 52.6972 45.7909C52.7121 45.595 52.6348 45.5531 52.6476 45.3648C52.6502 45.3251 52.6853 45.3468 52.689 45.3395C52.7465 45.2251 52.6599 45.1283 52.6575 45.0992C52.6246 44.7296 52.7085 44.4959 52.689 44.1409C52.6865 44.0985 52.6445 44.1951 52.6404 44.0758C52.6126 43.2788 52.608 42.4395 52.6274 41.6494C52.6304 41.5266 52.6651 41.6135 52.669 41.6057C52.73 41.4785 52.6433 41.3995 52.6393 41.3595C52.61 41.0454 52.6755 40.7498 52.5699 40.5378C52.5785 39.2027 52.4949 37.8753 52.559 36.5515C52.5597 36.5346 52.6022 36.564 52.6034 36.5303C52.6188 36.1251 52.5552 36.2042 52.4702 35.9383C52.4488 35.8713 52.5408 35.6645 52.5475 35.6462C52.5721 35.5797 52.6358 35.6469 52.6404 35.6247C52.6762 35.441 52.4707 35.4749 52.4656 35.2284C52.4658 35.2207 52.5044 35.2523 52.5078 35.2315C52.5183 35.167 52.5019 35.1036 52.5137 35.0405C52.541 34.8963 52.6401 34.842 52.5773 34.6227C52.5692 34.5949 52.4532 34.6398 52.4542 34.419C52.4547 34.3309 52.4447 33.942 52.4501 33.8331C52.4554 33.7242 52.4946 33.7981 52.4961 33.7903C52.5399 33.4965 52.5628 33.6071 52.6336 33.459C52.7041 33.311 52.5297 33.3555 52.5089 33.2957C52.4882 33.2358 52.5248 33.0191 52.538 32.9659C52.5512 32.9126 52.5765 32.9782 52.5836 32.9309C52.6301 32.6177 52.4939 32.7957 52.4639 32.6935C52.3931 32.4526 52.5192 32.2617 52.5274 32.0406C52.5296 31.9808 52.501 32.0301 52.4971 31.977C52.4822 31.7669 52.5201 31.6387 52.478 31.3978C52.4711 31.3584 52.389 31.165 52.4437 31.0379C52.4516 31.0199 52.485 31.0699 52.4904 30.9796C52.4985 30.8447 52.5006 30.6024 52.4867 30.4585C52.4765 30.3523 52.4257 30.4753 52.4395 30.3411C52.4457 30.2815 52.4792 30.391 52.4881 30.2791C52.4972 30.1689 52.4898 29.8811 52.4864 29.7722C52.4831 29.6633 52.4438 29.7238 52.4409 29.715C52.4242 29.6621 52.4003 29.4539 52.4 29.4356C52.3758 28.5123 52.4259 27.6494 52.3842 26.7497C52.381 26.6784 52.3393 26.7268 52.3384 26.716C52.3153 26.4723 52.4329 26.6622 52.4673 26.4912C52.3812 26.5176 52.3947 26.4167 52.3816 26.2459C52.3752 26.1636 52.3426 26.2092 52.339 26.2018C52.2855 26.0807 52.3495 25.9946 52.3624 25.9725C52.4102 25.8908 52.3499 25.8046 52.3818 25.7492C52.4135 25.6939 52.4649 25.8185 52.4608 25.6558C52.4288 25.6109 52.3503 25.7333 52.3346 25.6102C52.2748 25.1396 52.3195 24.2615 52.318 23.8865C52.3163 23.5055 52.308 23.3843 52.3144 23.1646C52.326 22.769 52.2691 22.9151 52.2362 22.6718C52.2034 22.4289 52.3538 22.5432 52.3849 22.5074C52.4159 22.4714 52.3823 22.4335 52.3988 22.3892C52.4153 22.3451 52.439 22.4393 52.4433 22.3363C52.4476 22.2331 52.3849 21.9548 52.3509 21.9197C52.2788 21.845 52.2076 21.9716 52.2277 21.7024C52.2289 21.6869 52.2689 21.7361 52.2715 21.677C52.2912 21.2131 52.2819 20.7137 52.2979 20.2461C52.3002 20.1818 52.3447 20.2382 52.3465 20.2008C52.3655 19.8115 52.2957 19.954 52.2098 19.7419C52.3188 19.7888 52.382 19.6651 52.3758 19.3652C52.3722 19.1853 52.3258 19.2175 52.2899 19.1025C52.2791 19.068 52.3086 18.9412 52.2859 18.919C52.2118 18.8458 52.1335 18.9651 52.1588 18.6615C52.16 18.6482 52.2006 18.6895 52.202 18.6436C52.211 18.3513 52.1342 18.3052 52.1175 17.9807C52.1043 17.7207 52.1404 17.2877 52.1408 16.9849C52.2622 16.9879 52.2279 16.7116 52.1416 16.6031C52.1406 16.415 52.1311 16.2146 52.1384 16.0371C52.1387 16.0313 52.1392 16.0264 52.14 16.0223C52.1474 15.981 52.1773 16.0142 52.1806 16.0068C52.2371 15.8809 52.1537 15.7998 52.1496 15.7587C52.1077 15.3085 52.1613 14.9755 52.0902 14.5401C52.0877 14.5251 52.0028 14.5025 52.0615 14.3885C52.0656 14.3811 52.1074 14.519 52.1054 14.3213C52.1035 14.1231 52.1395 13.7604 52.0933 13.478C52.0822 13.411 52.0095 13.2444 52.0595 13.1103C52.0663 13.0924 52.091 13.1111 52.1038 13.0852C52.1445 13.0017 52.0582 12.959 52.128 12.8614C52.1979 12.763 52.2465 12.5467 52.1893 12.2736C52.1877 12.2648 52.1185 12.2014 52.1173 12.1157C52.1155 11.9808 52.1243 11.7833 52.1199 11.6344C52.1177 11.5641 52.0771 11.6102 52.076 11.598C52.04 11.1334 52.0681 10.7946 52.0704 10.301C52.0711 10.2171 52.0062 9.94271 52.0463 9.76592C52.0901 9.57038 52.3016 9.76472 52.2396 9.32193C52.2145 9.13489 51.9471 8.9195 52.0724 8.59191C52.0198 7.9631 52.0703 7.37407 52.0012 6.75007C51.9981 6.72076 51.9222 6.63141 51.9209 6.56466C51.919 6.46548 51.9512 6.41121 51.951 6.34253C51.9507 6.03959 51.9119 5.77696 51.9055 5.48778C51.903 5.38003 51.9399 5.42269 51.9366 5.28821C51.9333 5.15409 51.8838 5.07455 51.8991 4.89899C51.9104 4.75808 52.0002 4.63686 52.0033 4.45164C51.9094 4.44605 51.9067 4.33461 51.8719 4.11507C51.8652 4.07367 51.8348 4.11977 51.8299 4.10029C51.8094 4.01952 51.8333 3.95447 51.8112 3.87437C51.8059 3.85569 51.774 3.85636 51.7679 3.84133C51.7149 3.71678 51.7757 3.50215 51.7863 3.46703C51.8266 3.33088 51.7812 3.26178 51.794 3.15921C51.8063 3.04889 51.8391 3.21004 51.8431 3.08305C51.8515 2.82593 51.8244 2.49716 51.8032 2.2386C51.7945 2.13451 51.7582 2.20928 51.756 2.19442C51.7389 2.0716 51.739 1.94704 51.7244 1.84182C51.7138 1.76438 51.6954 1.6982 51.6555 1.65074C51.8627 1.48497 51.6223 1.52325 51.6475 1.21269C51.6497 1.1883 51.7515 1.15207 51.7721 1.24343C51.7926 1.33439 51.7697 1.4765 51.8038 1.60234C51.8116 1.63238 51.9235 1.79633 51.9318 1.81932C51.9321 1.82033 51.9325 1.82134 51.9328 1.82234C51.9934 1.99906 51.8434 2.04112 51.8359 2.05184C51.7552 2.17186 51.8776 2.37852 51.8887 2.43094C51.9418 2.68791 51.9337 2.90971 51.9697 3.1205C51.9932 3.26202 52.095 3.26458 52.0983 3.38149C52.1076 3.75147 51.9716 3.87778 52.1105 4.22578C52.1399 4.29734 52.2475 4.21448 52.172 4.48789C52.1674 4.51005 52.0957 4.7012 52.1509 4.81682C52.1579 4.83117 52.1902 4.82937 52.1937 4.84866C52.2168 4.98249 52.1939 5.05513 52.2118 5.19657C52.2299 5.3424 52.2542 5.49488 52.2493 5.65764C52.2464 5.75728 52.1905 5.87776 52.1774 5.92274C52.1395 6.04995 52.2142 6.18807 52.1656 6.2729C52.1167 6.35313 52.0328 6.20321 52.0066 6.40859C52.0908 6.41327 52.1777 6.4278 52.2626 6.43719C52.276 6.90675 52.2635 7.35363 52.2818 7.81404C52.2842 7.87234 52.3275 7.81117 52.3312 7.87383C52.3468 8.13954 52.3211 8.35116 52.3424 8.63103C52.3587 8.83633 52.4132 9.05704 52.4318 9.28084C52.3398 9.42525 52.3813 9.72894 52.3794 9.97143C52.3788 10.0553 52.3529 10.0505 52.3463 10.1108C52.3215 10.332 52.4035 10.225 52.4186 10.2845C52.4828 10.5376 52.2911 10.5642 52.3044 10.8754C52.3051 10.8935 52.4131 11.0884 52.4201 11.1135C52.4664 11.2821 52.3852 11.1424 52.3805 11.2493C52.372 11.4454 52.3513 11.5839 52.3877 11.8216C52.3985 11.8934 52.4664 12.0449 52.4205 12.1775C52.4145 12.1948 52.3803 12.1862 52.3787 12.2001C52.3522 12.4514 52.4589 12.4565 52.4987 12.6015C52.5387 12.7503 52.4708 12.9702 52.4508 13.0149C52.399 13.1327 52.4251 12.9264 52.4195 12.9205C52.3536 12.8488 52.3687 13.0062 52.3665 13.1291C52.2625 13.1493 52.2732 13.3217 52.3645 13.2568C52.3745 13.2494 52.3623 13.1538 52.3665 13.1291C52.4717 13.234 52.4896 13.4234 52.3993 13.6406C52.357 13.7401 52.3025 13.6559 52.329 13.9482C52.341 14.081 52.4116 14.0276 52.4341 14.1454C52.4855 14.4109 52.4278 14.7887 52.445 15.0599C52.4513 15.1604 52.4882 15.0614 52.4939 15.1301C52.509 15.3127 52.4835 15.4769 52.5031 15.6652C52.505 15.6823 52.5451 15.6394 52.5471 15.6982C52.5508 15.8047 52.5527 15.9089 52.5535 16.0124C52.5557 16.3243 52.5475 16.628 52.5553 16.9829C52.5605 17.2161 52.5921 17.5954 52.5929 17.8285C52.5945 18.2302 52.5459 18.722 52.5681 19.0591C52.5825 19.2809 52.6226 19.2316 52.6528 19.3265C52.7115 19.5094 52.6215 19.844 52.6073 19.8838C52.6068 19.8851 52.5929 19.6976 52.574 19.7982C52.5312 19.8574 52.607 19.8817 52.6073 19.8838C52.5982 19.9119 52.5973 20.2901 52.6069 20.3661C52.6121 20.4071 52.6506 20.3833 52.6526 20.4047C52.6991 20.9176 52.7203 21.4262 52.7134 21.9437C52.7129 21.9528 52.6689 21.94 52.668 21.9615C52.6552 22.261 52.7131 22.4619 52.7501 22.7017C52.7871 22.9455 52.7808 23.1413 52.709 23.2893C52.7225 23.4756 52.6952 23.7457 52.6785 23.9021C52.6617 24.0584 52.7471 24.0752 52.7491 24.0892C52.8119 24.5064 52.7685 24.7512 52.7704 25.1926C52.7713 25.4057 52.7923 25.8125 52.8064 26.0381C52.8177 26.2158 52.8 26.3238 52.8163 26.4883C52.8185 26.5106 52.8558 26.4872 52.8574 26.494C52.9066 26.6772 52.8122 26.5907 52.7965 26.6291C52.7393 26.7677 52.7092 26.8568 52.7424 27.089C52.75 27.1426 52.8865 27.2964 52.8964 27.3946C52.909 27.5223 52.8602 27.475 52.8746 27.6088C52.8758 27.6203 52.9052 27.6173 52.9057 27.7002C52.9081 28.0841 52.8999 28.5113 52.9112 28.9065C52.9126 28.9609 52.9579 28.8902 52.9607 28.9688C52.9739 29.3379 52.9807 29.7452 52.9664 30.109C52.9627 30.1974 52.9288 30.1428 52.9195 30.1621C52.8632 30.281 52.9521 30.4465 52.9543 30.4741C53.009 31.1312 52.9422 31.6452 52.9928 32.3141C52.9957 32.3506 53.0931 32.6308 53.0172 32.7586C53.0121 32.7674 52.9343 32.8938 52.9915 33.0032C52.9951 33.01 53.0349 32.9312 53.0334 33.0672C53.032 33.2035 53.0641 33.421 53.0224 33.6074C53.0093 33.6665 52.932 33.8072 52.9995 33.9816C53.0042 33.9929 53.1542 34.2614 53.0565 34.3605C53.0404 34.3766 52.9346 34.3622 52.993 34.5713C53.0043 34.6113 53.0263 34.5379 53.0432 34.6435C53.0691 34.8053 53.0452 35.0208 53.0962 35.2182C53.1053 35.2526 53.1798 35.3987 53.1279 35.5182C53.1198 35.5369 53.0838 35.5024 53.0812 35.565C53.0683 35.8628 53.0982 36.1741 53.0799 36.4773C53.0735 36.5846 53.0155 36.5312 53.0025 36.6429C52.9895 36.7546 52.9794 36.9795 53.0077 37.0957C53.0361 37.2119 53.1243 37.0825 53.135 37.2573C53.1819 38.0171 53.1438 38.7719 53.1512 39.5312C53.1523 39.6439 53.1829 39.5499 53.1868 39.7158C53.2015 40.3286 53.2529 41.3824 53.1945 41.9163C53.1477 42.3432 53.095 41.8082 53.079 42.134C53.0714 42.2912 53.1802 42.4587 53.1843 42.4965C53.2253 42.8658 53.1836 43.1219 53.2046 43.4563C53.2089 43.5251 53.2503 43.4567 53.2536 43.5153C53.2649 43.7155 53.25 43.9261 53.2572 44.1169C53.2606 44.2024 53.2929 44.186 53.292 44.2648C53.29 44.4534 53.2796 44.6197 53.2526 44.8039C53.2501 44.8208 53.2073 44.708 53.2085 44.8483C53.2107 45.0753 53.186 45.357 53.2223 45.6162C53.2332 45.6931 53.3079 45.6948 53.2596 45.8613C53.2495 45.8962 53.159 45.8537 53.2402 46.0448C53.2537 46.0774 53.3645 46.3966 53.3003 46.5593C53.2834 46.6019 53.2122 46.711 53.2256 46.8038C53.2277 46.8164 53.2668 46.765 53.2722 46.842C53.2906 47.1134 53.2918 47.3972 53.3098 47.674C53.3147 47.748 53.354 47.637 53.36 47.7471C53.3763 48.0473 53.3733 48.4347 53.3661 48.7316C53.3634 48.8415 53.3276 48.7662 53.324 48.7743C53.2657 48.9039 53.3492 48.9781 53.3548 49.0205C53.3887 49.2854 53.3539 49.4824 53.369 49.7306C53.373 49.7985 53.4112 49.7496 53.415 49.763C53.4518 49.9025 53.3795 49.7995 53.3735 49.8883C53.3563 50.137 53.3648 50.4124 53.3747 50.661C53.3783 50.7523 53.4217 50.6487 53.4245 50.7307C53.4416 51.2095 53.4474 51.7298 53.4315 52.2008C53.4284 52.2899 53.3924 52.2346 53.3847 52.2533C53.3314 52.3823 53.4112 52.5674 53.4192 52.6102C53.4562 52.8091 53.4268 52.8868 53.436 53.0618C53.4811 53.9102 53.481 54.9646 53.4837 55.7651C53.4877 56.815 53.47 57.6253 53.4977 58.6241C53.4995 58.6881 53.5447 58.6227 53.5468 58.6778C53.5715 59.3795 53.5669 60.0884 53.5936 60.7802C53.5957 60.8377 53.6381 60.7525 53.6431 60.8476C53.6535 61.0432 53.6558 61.2878 53.6454 61.4804C53.6404 61.5743 53.6002 61.4493 53.5959 61.5437C53.586 61.7645 53.5872 61.9908 53.5987 62.2266C53.6037 62.3246 53.646 62.1759 53.6489 62.3032C53.6555 62.5744 53.6623 62.8386 53.6671 63.0968C53.6784 63.6978 53.6803 64.2639 53.6517 64.8617C53.6488 64.92 53.5582 64.9731 53.5781 65.095C53.6037 65.1037 53.6336 65.1026 53.6608 65.1061C53.6992 66.3474 53.6911 67.5873 53.71 68.8357C53.7108 68.8881 53.7577 68.7968 53.7595 68.8979C53.77 69.486 53.7943 70.057 53.7577 70.663C53.7541 70.7222 53.6681 70.6952 53.6843 70.8657C53.6872 70.8921 53.7039 71.1697 53.7236 71.2338C53.7266 71.2428 53.7655 71.1946 53.7683 71.2785C53.7839 71.778 53.7847 72.2973 53.7698 72.794C53.7673 72.873 53.7233 72.79 53.7211 72.8459C53.7063 73.2491 53.747 73.6932 53.7158 74.0759C53.6948 74.3356 53.6195 74.2383 53.55 74.3808C53.5401 74.3948 53.5416 74.5614 53.4997 74.569C53.3945 74.5922 53.2773 74.5174 53.1653 74.5504C53.1413 74.5636 53.171 74.7579 53.1103 74.6456C53.1062 74.6375 53.0838 74.481 53.0632 74.4444C53.0489 74.4166 53.0071 74.4662 52.9885 74.4123C52.9699 74.3597 53.0046 74.3016 52.9821 74.207C52.9596 74.1246 52.9115 74.1522 52.9025 73.9804ZM52.6035 24.5935C52.5657 24.7367 52.7157 24.7545 52.6766 24.6013C52.6745 24.5939 52.6053 24.5861 52.6035 24.5935ZM52.1505 7.35694C52.0906 7.5424 52.1915 7.66406 52.2383 7.53327C52.285 7.40481 52.1686 7.29808 52.1505 7.35694ZM52.0345 5.42513C51.9906 5.64108 52.2039 5.66805 52.1523 5.43897C52.1493 5.42581 52.037 5.41266 52.0345 5.42513ZM53.5173 73.7432C53.5154 73.7465 53.5156 73.8615 53.5176 73.8629C53.5663 73.9229 53.5657 73.694 53.5173 73.7432ZM51.8979 3.51043C51.8729 3.5818 51.9156 3.77359 51.9471 3.68883C51.9726 3.62289 51.929 3.42254 51.8979 3.51043ZM52.6002 32.0331C52.5981 32.0354 52.5977 32.1178 52.6103 32.1159C52.6508 32.1095 52.6369 31.9951 52.6002 32.0331ZM51.6997 0.264488C51.6958 0.743717 51.5324 1.04353 51.5391 0.515687C51.541 0.420368 51.5989 0.720029 51.6123 0.598417C51.6368 0.376795 51.5264 0.230378 51.5844 0.00436518C51.5951 -0.0365019 51.7002 0.237216 51.7 0.265339C51.6999 0.265055 51.6998 0.264771 51.6997 0.264488ZM52.4256 24.6793C52.4237 24.6822 52.4243 24.7966 52.4263 24.7993C52.4751 24.8603 52.474 24.6297 52.4256 24.6793ZM52.606 36.8565C52.602 36.8629 52.6034 37.1282 52.6074 37.1368C52.6878 37.2736 52.6852 36.7372 52.606 36.8565ZM52.1439 16.9802C52.0932 16.8545 52.084 16.7044 52.1416 16.6037C52.1414 16.7277 52.1439 16.8535 52.1439 16.9802Z" fill="#F1F7FB"/>
<path d="M1.00347 14.9799C1.59403 14.9648 2.35241 14.9762 2.93845 14.9934C3.12476 14.9987 3.03297 15.0255 3.16084 15.0304C3.39058 15.0399 3.65009 15.0261 3.87666 15.0376C3.95646 15.0416 3.85708 15.0839 3.94108 15.087C4.41942 15.104 4.85808 15.0919 5.31615 15.0994C7.63026 15.136 9.93647 15.1446 12.2631 15.1564C13.0567 15.1602 13.9882 15.1954 14.7794 15.1763C14.8718 15.174 14.8166 15.1373 14.8342 15.1342C15.111 15.0869 15.0192 15.1616 15.2019 15.1709C15.926 15.2061 16.6422 15.2085 17.3495 15.194C17.3768 15.1934 17.4039 15.1928 17.4309 15.1922C17.7195 15.1851 17.4292 15.1128 17.7213 15.153C17.7417 15.1557 17.668 15.1951 17.7478 15.199C17.9283 15.2078 18.2766 15.1997 18.4209 15.2024C18.6986 15.2077 18.745 15.2072 19.0118 15.2068C19.3576 15.2067 19.775 15.2248 20.1596 15.2148C20.2416 15.2125 20.1328 15.1727 20.2638 15.1655C20.3932 15.1583 20.7498 15.1606 20.8608 15.1697C20.974 15.1788 20.9259 15.2105 20.946 15.2177C21.1107 15.2782 21.5039 15.1925 21.5553 15.1902C22.4975 15.1517 23.2796 15.1974 24.1648 15.1945C24.8479 15.1922 25.5249 15.1743 26.1708 15.1744C26.9424 15.1748 27.5482 15.1947 28.2934 15.1887C28.3715 15.1881 28.2798 15.1412 28.3752 15.1404C29.3779 15.1318 30.3722 15.1339 31.3692 15.1627C31.4681 15.1656 31.3408 15.2074 31.4396 15.2128C32.0421 15.245 33.0242 15.3237 33.387 15.1423C33.7951 15.1481 34.2958 15.1538 34.6679 15.189C34.908 15.2117 34.6748 15.2575 34.9701 15.2373C35.0368 15.2329 34.9499 15.1936 35.05 15.1899C35.4747 15.1741 35.9281 15.1855 36.3379 15.1639C36.4215 15.1594 36.3986 15.124 36.4223 15.1176C36.6212 15.0654 36.955 15.1497 37.028 15.1556C37.5807 15.2002 38.0017 15.1807 38.5058 15.1803C38.6244 15.1802 38.484 15.1331 38.5982 15.1313C39.1905 15.1227 39.8106 15.1248 40.4024 15.1441C40.5341 15.1485 40.4132 15.1894 40.4761 15.1936C40.7533 15.2115 40.8085 15.1348 41.0702 15.1506C41.1252 15.1538 41.0944 15.1886 41.1044 15.1923C41.2616 15.2516 41.3982 15.1665 41.4387 15.1645C41.9514 15.1374 42.2817 15.2248 42.7831 15.2107C42.8432 15.209 42.7076 15.1655 42.8764 15.1632C43.986 15.1477 45.17 15.1561 46.2712 15.1878C46.4415 15.1927 46.3201 15.226 46.3308 15.2301C46.5056 15.293 46.6187 15.2076 46.6743 15.2042C47.1135 15.1798 47.5267 15.2499 47.8278 15.1477C49.6966 15.1771 51.5559 15.1145 53.4089 15.1996C53.4326 15.2006 53.3903 15.2426 53.4375 15.2444C54.0059 15.2661 53.9004 15.2014 54.2726 15.1206C54.366 15.1003 54.6513 15.1956 54.6767 15.2025C54.7687 15.2282 54.6735 15.2909 54.7043 15.2958C54.9595 15.3345 54.9171 15.1285 55.262 15.1274C55.2728 15.1277 55.2276 15.1658 55.2566 15.1695C55.3466 15.181 55.4358 15.1657 55.5241 15.1785C55.7261 15.2081 55.7983 15.308 56.1074 15.2488C56.1466 15.2411 56.0862 15.1243 56.3964 15.1289C56.5192 15.1308 57.0712 15.1272 57.2196 15.1343C57.371 15.1414 57.2672 15.1794 57.278 15.181C57.6864 15.2295 57.5317 15.2507 57.7368 15.3238C57.942 15.3966 57.8846 15.2216 57.9682 15.2017C58.0519 15.182 58.3528 15.2222 58.4269 15.2362C58.5009 15.2503 58.4087 15.2745 58.4746 15.2824C58.9112 15.3339 58.6659 15.1948 58.8097 15.1666C59.1491 15.0997 59.4147 15.2288 59.7271 15.2406C59.8117 15.2438 59.7426 15.2144 59.8179 15.2114C60.1157 15.1999 60.2898 15.2399 60.6256 15.2017C60.6804 15.1955 60.9515 15.1165 61.1277 15.1733C61.1526 15.1815 61.0819 15.2141 61.2079 15.221C61.3962 15.2313 61.736 15.2374 61.9392 15.2259C62.0892 15.2174 61.917 15.1646 62.106 15.1806C62.19 15.1877 62.0344 15.2194 62.1922 15.2303C62.3492 15.2411 62.7513 15.2385 62.9047 15.2369C63.056 15.2354 62.973 15.1951 62.9852 15.1924C63.0589 15.1765 63.3486 15.1561 63.3743 15.1561C64.6646 15.1472 65.8793 15.2117 67.1342 15.1853C67.2333 15.1833 67.1671 15.1408 67.1823 15.14C67.5217 15.1211 67.2543 15.2354 67.4918 15.2727C67.4572 15.1862 67.5973 15.2014 67.837 15.1912C67.9525 15.1862 67.8895 15.1528 67.9 15.1494C68.0712 15.0979 68.1909 15.1633 68.2218 15.1767C68.3355 15.2259 68.4592 15.167 68.5367 15.1999C68.6142 15.2325 68.4362 15.2817 68.6668 15.2804C68.7315 15.2492 68.5599 15.1687 68.7351 15.155C69.3942 15.1033 70.6148 15.1632 71.1466 15.1681C71.6755 15.1731 71.8478 15.1669 72.156 15.1771C72.7087 15.1957 72.506 15.1362 72.8496 15.1076C73.1945 15.0791 73.0273 15.2275 73.077 15.2592C73.1258 15.2908 73.1789 15.2579 73.2395 15.2752C73.3 15.2925 73.1693 15.3145 73.3114 15.3206C73.4536 15.3267 73.8428 15.269 73.8932 15.2356C73.9998 15.1648 73.8239 15.0914 74.2013 15.1162C74.2231 15.1177 74.1527 15.1568 74.2359 15.1605C74.8974 15.1884 75.5825 15.1882 76.2384 15.2127C76.3288 15.2161 76.2481 15.2596 76.3007 15.2621C76.8488 15.2881 76.6527 15.2157 76.9531 15.1338C76.886 15.2418 77.0523 15.3073 77.4695 15.3067C77.7203 15.3063 77.677 15.2594 77.8393 15.2257C77.888 15.2155 78.0658 15.2473 78.098 15.2251C78.2039 15.1523 78.0366 15.0717 78.4671 15.1027C78.4859 15.1042 78.4263 15.144 78.4911 15.1462C78.9102 15.1607 78.9601 15.0847 79.4139 15.0742C79.7697 15.0659 80.4039 15.1102 80.8107 15.1164C80.8025 15.2377 81.1868 15.2088 81.3427 15.1247C81.608 15.1273 81.8904 15.1217 82.1445 15.1325C82.2319 15.1362 82.1746 15.1714 82.1857 15.1752C82.3548 15.2342 82.4689 15.1525 82.5256 15.1491C83.1407 15.1163 83.6432 15.1764 84.2325 15.1143C84.2534 15.1121 84.287 15.0277 84.4449 15.0888C84.4551 15.093 84.2604 15.1319 84.5379 15.134C84.8169 15.1361 85.3354 15.1797 85.7192 15.1395C85.8119 15.1298 86.0466 15.0607 86.2353 15.1136C86.2605 15.1207 86.2331 15.145 86.2694 15.1583C86.3868 15.2008 86.4505 15.1155 86.5887 15.1874C86.7268 15.2593 87.0139 15.3126 87.4019 15.2615C87.4142 15.26 87.5059 15.1922 87.628 15.1929C87.8227 15.1941 88.1008 15.2073 88.3025 15.2062C88.3995 15.2057 88.3373 15.164 88.3541 15.1632C89.0061 15.1377 89.4711 15.1736 90.1719 15.1877C90.3004 15.1904 90.6696 15.1321 90.9188 15.1765C91.1922 15.2251 90.9128 15.4317 91.5399 15.3808C91.7922 15.3604 92.1111 15.0984 92.5658 15.2323C93.4462 15.1961 94.2662 15.2628 95.1483 15.2122C95.188 15.21 95.3133 15.1368 95.4067 15.1375C95.5454 15.1387 95.6216 15.1725 95.7206 15.1744C96.1356 15.1834 96.5155 15.1531 96.9161 15.1564C97.0683 15.1576 97.0152 15.193 97.1966 15.1944C97.378 15.1958 97.4988 15.149 97.7448 15.1707C97.9308 15.1872 98.1162 15.2814 98.362 15.2916C98.3711 15.1982 98.5399 15.1996 98.84 15.174C98.8977 15.169 98.8357 15.1367 98.863 15.1326C98.9741 15.1155 99.077 15.1422 99.1824 15.1236C99.2081 15.1192 99.2092 15.0872 99.2302 15.0818C99.4085 15.0342 99.7028 15.1051 99.7534 15.1175C99.9472 15.1644 100.038 15.1226 100.186 15.1408C100.335 15.159 100.113 15.1831 100.286 15.1939C100.645 15.2163 101.108 15.2097 101.472 15.2101C101.617 15.21 101.518 15.1677 101.539 15.1667C101.839 15.155 102.143 15.1994 102.31 15.114C102.519 15.3328 102.491 15.0922 102.921 15.1348C102.955 15.1382 102.998 15.2419 102.868 15.2575C102.738 15.2731 102.541 15.2413 102.361 15.2656C102.318 15.2713 102.074 15.3693 102.041 15.3753C101.779 15.4221 101.742 15.2671 101.728 15.2587C101.571 15.1672 101.273 15.2729 101.194 15.2804C100.833 15.3146 100.526 15.2938 100.225 15.3184C100.028 15.3343 100.009 15.4359 99.8541 15.4333C99.3396 15.4246 99.1597 15.2834 98.6757 15.4078C98.5719 15.4343 98.6754 15.545 98.3031 15.4588C98.2796 15.4534 98.0039 15.3744 97.8436 15.4254C97.8235 15.4318 97.8242 15.4642 97.7977 15.467C97.6201 15.4851 97.5016 15.4597 97.3082 15.4726C97.1148 15.4855 96.8823 15.5047 96.6616 15.4944C96.5286 15.4882 96.3578 15.4284 96.2942 15.4139C96.1144 15.3719 95.922 15.4422 95.8106 15.3911C95.6983 15.3397 95.9173 15.2604 95.6231 15.2279C95.6125 15.312 95.5877 15.3983 95.5704 15.4829C94.9266 15.4819 94.2911 15.4567 93.643 15.4624C93.5627 15.4632 93.6449 15.5081 93.5588 15.5101C93.1956 15.5184 92.8785 15.4872 92.5025 15.5011C92.2114 15.5121 91.8926 15.561 91.5886 15.5739C91.4037 15.4783 90.9494 15.5124 90.6207 15.5046C90.5055 15.5019 90.5131 15.4762 90.4312 15.4681C90.1221 15.438 90.2672 15.5226 90.1825 15.5362C89.8195 15.5944 89.7878 15.4021 89.36 15.4082C89.3374 15.4084 89.0608 15.5118 89.0227 15.5183C88.7806 15.5607 88.9825 15.4827 88.8309 15.4756C88.5541 15.4626 88.3624 15.4387 88.0375 15.4698C87.9424 15.4789 87.7144 15.5436 87.5298 15.4947C87.5054 15.4883 87.5188 15.4543 87.4992 15.4524C87.1455 15.4204 87.1366 15.5269 86.9348 15.5636C86.733 15.6003 86.4212 15.5277 86.3578 15.5067C86.1918 15.4524 86.4848 15.4829 86.4938 15.4775C86.5991 15.4132 86.3719 15.4249 86.1984 15.42C86.1729 15.3157 85.9304 15.3227 86.0185 15.4154C86.0286 15.4255 86.1635 15.4154 86.1984 15.42C86.0464 15.523 85.7799 15.5369 85.4855 15.442C85.3477 15.3976 85.4776 15.3449 85.0598 15.3653C84.87 15.3745 84.9443 15.4462 84.776 15.4663C84.3912 15.5122 83.8917 15.4467 83.4962 15.4584C83.3526 15.4627 83.4926 15.5016 83.3945 15.5059C83.1342 15.5174 82.9048 15.4886 82.6439 15.5045C82.6202 15.506 82.6781 15.547 82.597 15.5478C81.9823 15.5545 81.4471 15.5297 80.8012 15.5309C80.4897 15.5316 79.9338 15.556 79.6123 15.5524C79.0543 15.5464 78.3728 15.4886 77.8922 15.5046C77.5804 15.5149 77.6489 15.5559 77.5155 15.5844C77.258 15.6396 76.8025 15.5435 76.7412 15.5286C76.7394 15.5281 77.0069 15.5176 76.8641 15.4968C76.7809 15.453 76.7443 15.5284 76.7412 15.5286C76.7009 15.519 76.1671 15.5112 76.0613 15.5194C76.0038 15.5239 76.0361 15.5629 76.0062 15.5645C75.2966 15.6016 74.5743 15.6137 73.8496 15.5977C73.8368 15.5969 73.8559 15.5532 73.8259 15.552C73.4061 15.5338 73.138 15.5881 72.7931 15.6209C72.4477 15.6536 72.1771 15.6438 71.9698 15.5695C71.7073 15.5797 71.3313 15.5477 71.1153 15.5283C70.8993 15.5088 70.8695 15.5939 70.8505 15.5957C70.2587 15.6513 69.9171 15.6037 69.3062 15.598C69.0188 15.5951 68.4331 15.6092 68.1174 15.6195C67.8672 15.6277 67.7165 15.6083 67.4864 15.6217C67.4553 15.6235 67.4869 15.6613 67.4774 15.6628C67.2208 15.7088 67.344 15.6159 67.2909 15.5995C67.0987 15.54 66.98 15.5084 66.6524 15.5377C66.5768 15.5444 66.3573 15.6783 66.2198 15.6865C66.041 15.6969 66.1088 15.649 65.9211 15.6611C65.905 15.6621 65.9084 15.6916 65.7915 15.6906C65.2489 15.6866 64.6595 15.6713 64.1001 15.676C64.0238 15.6765 64.1218 15.7229 64.0115 15.7244C63.4926 15.7316 62.9321 15.7316 62.4202 15.7113C62.2952 15.7061 62.3734 15.6731 62.3463 15.6635C62.1795 15.6052 61.9439 15.6914 61.905 15.6931C60.9745 15.737 60.2829 15.6618 59.3291 15.7015C59.2774 15.7039 58.881 15.7967 58.7043 15.7187C58.6922 15.7135 58.5173 15.6337 58.3633 15.6891C58.3537 15.6925 58.4625 15.7336 58.2729 15.7299C58.0834 15.7263 57.779 15.7549 57.5195 15.7102C57.4373 15.6961 57.2435 15.6166 56.9989 15.6812C56.9826 15.6857 56.5999 15.8314 56.4633 15.7321C56.4411 15.7158 56.4638 15.6102 56.1688 15.6652C56.1125 15.6759 56.2148 15.6991 56.0664 15.7142C55.8391 15.7376 55.5383 15.7102 55.2604 15.7581C55.2119 15.7665 55.0057 15.8388 54.8404 15.7849C54.8145 15.7765 54.8636 15.7411 54.7763 15.7375C54.3629 15.7198 53.9268 15.7447 53.4999 15.7217C53.3493 15.7136 53.4261 15.6564 53.2692 15.6416C53.1122 15.6268 52.7969 15.6131 52.6336 15.6397C52.4704 15.6662 52.649 15.7564 52.4045 15.7644C51.351 15.7991 50.2781 15.7492 49.2223 15.7446C49.0655 15.744 49.1955 15.776 48.9646 15.7774C48.1128 15.7824 46.6183 15.8174 45.8878 15.7507C45.2881 15.6972 46.0439 15.6529 45.5842 15.6318C45.3623 15.6217 45.1236 15.728 45.0703 15.7314C44.5498 15.7668 44.1903 15.7211 43.7271 15.7369C43.6315 15.7402 43.7254 15.7826 43.6441 15.7849C43.367 15.7932 43.0747 15.775 42.803 15.7793C42.6819 15.7814 42.7043 15.814 42.5931 15.8118C42.327 15.8069 42.0926 15.7939 41.835 15.7641C41.8116 15.7614 41.9696 15.7203 41.7743 15.7194C41.4582 15.718 41.0676 15.689 40.7082 15.7213C40.6018 15.731 40.5974 15.8057 40.3623 15.7548C40.3131 15.7442 40.3754 15.6544 40.1027 15.7327C40.0567 15.7457 39.5999 15.8515 39.377 15.7849C39.3181 15.7674 39.1678 15.6945 39.0384 15.7064C39.0209 15.7083 39.0913 15.7482 38.9841 15.7524C38.6038 15.7667 38.221 15.7636 37.8223 15.7774C37.7171 15.7811 37.8739 15.8221 37.7172 15.8264C37.2861 15.8382 36.7525 15.8293 36.3383 15.8176C36.1856 15.8132 36.2911 15.7785 36.2799 15.7748C36.1011 15.7145 35.9962 15.7969 35.9372 15.8019C35.5754 15.8317 35.2794 15.794 34.9369 15.8053C34.8418 15.8083 34.9094 15.8472 34.8904 15.8507C34.6945 15.8855 34.8403 15.8147 34.7163 15.8073C34.3691 15.7865 33.9849 15.7908 33.6392 15.7969C33.5122 15.7991 33.655 15.8441 33.5411 15.8456C32.8634 15.8555 32.1371 15.8534 31.4806 15.8304C31.3565 15.826 31.4345 15.7908 31.4086 15.7829C31.2293 15.7276 30.9736 15.8046 30.9087 15.812C30.6281 15.846 30.5196 15.8154 30.2739 15.822C29.0878 15.8543 27.6018 15.8384 26.4928 15.8292C25.0138 15.8175 23.8756 15.7878 22.4921 15.8007C22.4015 15.8014 22.4929 15.8477 22.4149 15.8489C21.4122 15.8632 20.4488 15.848 19.4586 15.8645C19.3785 15.8658 19.494 15.9095 19.3656 15.913C19.108 15.9205 18.7593 15.9192 18.4855 15.906C18.3522 15.8996 18.5308 15.8613 18.3967 15.8556C18.0848 15.8424 17.7562 15.8403 17.447 15.8483C17.3178 15.8518 17.5071 15.8948 17.3517 15.8972C17.3488 15.8973 17.3458 15.8973 17.3427 15.8973C16.1179 15.9056 14.9703 15.9169 13.7494 15.8624C13.666 15.8586 13.5924 15.7672 13.4176 15.7853C13.4046 15.8108 13.4054 15.8407 13.3997 15.8679C11.6551 15.888 9.93978 15.8616 8.19111 15.8622C8.11536 15.8622 8.24621 15.9104 8.09991 15.9107C7.28243 15.9125 6.46426 15.9286 5.63244 15.883C5.54615 15.8785 5.5876 15.793 5.33839 15.8067C5.28942 15.8092 4.94043 15.8217 4.83053 15.8406C4.81718 15.8435 4.8868 15.8831 4.76393 15.8847C4.07665 15.8929 3.34037 15.8862 2.64861 15.8642C2.53072 15.8605 2.65576 15.8177 2.57233 15.8147C2.0043 15.7941 1.39165 15.8284 0.846728 15.7918C0.485571 15.7672 0.615993 15.6934 0.429526 15.6219C0.394228 15.6118 0.179755 15.6111 0.164208 15.5692C0.13323 15.4637 0.244385 15.3474 0.196929 15.235C0.197824 15.2101 -0.134644 15.2403 0.0645571 15.179C0.076558 15.1749 0.295542 15.1544 0.347563 15.1343C0.384626 15.1204 0.31626 15.0779 0.394117 15.06C0.469668 15.0421 0.557455 15.0776 0.679402 15.0564C0.816583 15.035 0.743929 14.9866 1.00347 14.9799ZM70.1443 15.4413C69.9449 15.4011 69.916 15.5508 70.1313 15.5143C70.1417 15.5124 70.1545 15.4433 70.1443 15.4413ZM94.2944 15.3439C94.0328 15.2787 93.8543 15.3762 94.0388 15.4266C94.2233 15.477 94.3741 15.3636 94.2944 15.3439ZM96.9992 15.2875C96.6939 15.2364 96.6465 15.4486 96.9732 15.4047C96.9922 15.4022 97.0171 15.2904 96.9992 15.2875ZM1.31801 15.598C1.31508 15.596 1.15909 15.5947 1.1514 15.5967C1.06619 15.6445 1.38673 15.6472 1.31801 15.598ZM99.6839 15.2268C99.5886 15.1984 99.3146 15.2324 99.433 15.2677C99.5283 15.2961 99.8025 15.2621 99.6839 15.2268ZM59.7358 15.3136C59.7326 15.3114 59.6161 15.3097 59.6185 15.3223C59.6265 15.3629 59.7886 15.3509 59.7358 15.3136ZM104.248 15.2104C103.573 15.2045 103.164 15.0306 103.898 15.0481C104.031 15.0513 103.612 15.1048 103.781 15.1201C104.091 15.1479 104.297 15.0373 104.613 15.0953C104.67 15.1059 104.286 15.2112 104.247 15.2107C104.247 15.2106 104.248 15.2105 104.248 15.2104ZM70.029 15.2621C70.025 15.2601 69.8652 15.2587 69.8614 15.2607C69.775 15.3084 70.0969 15.3112 70.029 15.2621ZM52.979 15.2418C52.97 15.2376 52.5981 15.2348 52.5861 15.2387C52.3924 15.317 53.1442 15.3229 52.979 15.2418ZM80.8172 15.1196C80.9922 15.0713 81.2018 15.0651 81.3419 15.1246C81.1675 15.122 80.9922 15.122 80.8172 15.1196Z" fill="#F1F7FB"/>
</svg>
