<svg width="186" height="231" viewBox="0 0 186 231" fill="none" xmlns="http://www.w3.org/2000/svg">
<path d="M0 14.99C0 6.71126 6.71125 0 14.99 0H171.01C179.289 0 186 6.71125 186 14.99V216.01C186 224.289 179.289 231 171.01 231H14.99C6.71126 231 0 224.289 0 216.01V14.99Z" fill="white"/>
<path d="M13.3807 15.0938H14.5312C15.071 15.0938 15.5504 15.2145 15.9695 15.456C16.3885 15.6974 16.7176 16.0336 16.9567 16.4645C17.1958 16.8954 17.3153 17.3949 17.3153 17.9631C17.3153 18.5312 17.1958 19.032 16.9567 19.4652C16.7176 19.8984 16.3885 20.237 15.9695 20.4808C15.5504 20.7247 15.071 20.8466 14.5312 20.8466H13.3807C12.8409 20.8466 12.3615 20.7259 11.9425 20.4844C11.5234 20.2429 11.1944 19.9067 10.9553 19.4759C10.7161 19.045 10.5966 18.5455 10.5966 17.9773C10.5966 17.4091 10.7161 16.9084 10.9553 16.4751C11.1944 16.0419 11.5234 15.7034 11.9425 15.4595C12.3615 15.2157 12.8409 15.0938 13.3807 15.0938ZM13.3807 15.875C12.9688 15.875 12.6207 15.9614 12.3366 16.1342C12.0549 16.3071 11.8407 16.5509 11.6939 16.8658C11.5495 17.1806 11.4773 17.5511 11.4773 17.9773C11.4773 18.3987 11.5495 18.7656 11.6939 19.0781C11.8407 19.3906 12.0549 19.6333 12.3366 19.8061C12.6207 19.9789 12.9688 20.0653 13.3807 20.0653H14.5312C14.9432 20.0653 15.29 19.9789 15.5717 19.8061C15.8558 19.6333 16.0701 19.3894 16.2145 19.0746C16.3613 18.7597 16.4347 18.3892 16.4347 17.9631C16.4347 17.5417 16.3613 17.1747 16.2145 16.8622C16.0701 16.5497 15.8558 16.3071 15.5717 16.1342C15.29 15.9614 14.9432 15.875 14.5312 15.875H13.3807ZM14.4034 14.0994V21.7983H13.5227V14.0994H14.4034ZM20.7631 21.6136C20.2707 21.6136 19.8386 21.4964 19.4669 21.2621C19.0976 21.0277 18.8088 20.6998 18.6005 20.2784C18.3945 19.857 18.2915 19.3646 18.2915 18.8011C18.2915 18.233 18.3945 17.737 18.6005 17.3132C18.8088 16.8894 19.0976 16.5604 19.4669 16.326C19.8386 16.0916 20.2707 15.9744 20.7631 15.9744C21.2555 15.9744 21.6864 16.0916 22.0557 16.326C22.4274 16.5604 22.7162 16.8894 22.9222 17.3132C23.1305 17.737 23.2347 18.233 23.2347 18.8011C23.2347 19.3646 23.1305 19.857 22.9222 20.2784C22.7162 20.6998 22.4274 21.0277 22.0557 21.2621C21.6864 21.4964 21.2555 21.6136 20.7631 21.6136ZM20.7631 20.8608C21.1372 20.8608 21.4449 20.7649 21.6864 20.5732C21.9279 20.3814 22.1066 20.1293 22.2226 19.8168C22.3386 19.5043 22.3966 19.1657 22.3966 18.8011C22.3966 18.4366 22.3386 18.0968 22.2226 17.782C22.1066 17.4671 21.9279 17.2126 21.6864 17.0185C21.4449 16.8243 21.1372 16.7273 20.7631 16.7273C20.3891 16.7273 20.0813 16.8243 19.8398 17.0185C19.5983 17.2126 19.4196 17.4671 19.3036 17.782C19.1876 18.0968 19.1296 18.4366 19.1296 18.8011C19.1296 19.1657 19.1876 19.5043 19.3036 19.8168C19.4196 20.1293 19.5983 20.3814 19.8398 20.5732C20.0813 20.7649 20.3891 20.8608 20.7631 20.8608ZM24.384 23.5455V16.0455H25.1937V16.9119H25.2931C25.3546 16.8172 25.4399 16.6965 25.5488 16.5497C25.66 16.4006 25.8187 16.268 26.0246 16.152C26.233 16.0336 26.5147 15.9744 26.8698 15.9744C27.3291 15.9744 27.7339 16.0893 28.0843 16.3189C28.4347 16.5485 28.7081 16.8741 28.9046 17.2955C29.1011 17.7169 29.1993 18.214 29.1993 18.7869C29.1993 19.3646 29.1011 19.8653 28.9046 20.2891C28.7081 20.7105 28.4358 21.0372 28.0878 21.2692C27.7398 21.4988 27.3385 21.6136 26.884 21.6136C26.5336 21.6136 26.2531 21.5556 26.0424 21.4396C25.8317 21.3213 25.6695 21.1875 25.5559 21.0384C25.4422 20.8868 25.3546 20.7614 25.2931 20.6619H25.2221V23.5455H24.384ZM25.2079 18.7727C25.2079 19.1847 25.2682 19.5481 25.389 19.8629C25.5097 20.1754 25.6861 20.4205 25.9181 20.598C26.1501 20.7732 26.4342 20.8608 26.7704 20.8608C27.1207 20.8608 27.4131 20.7685 27.6475 20.5838C27.8842 20.3968 28.0618 20.1458 28.1802 19.831C28.3009 19.5137 28.3613 19.161 28.3613 18.7727C28.3613 18.3892 28.3021 18.0436 28.1837 17.7358C28.0677 17.4257 27.8913 17.1806 27.6546 17.0007C27.4202 16.8184 27.1255 16.7273 26.7704 16.7273C26.4295 16.7273 26.143 16.8137 25.911 16.9865C25.679 17.157 25.5038 17.3961 25.3854 17.7038C25.267 18.0092 25.2079 18.3655 25.2079 18.7727ZM33.3307 20.3636L35.2341 16.0455H36.0296L33.6716 21.5H32.9898L30.6745 16.0455H31.4557L33.3307 20.3636ZM31.1858 16.0455V21.5H30.3477V16.0455H31.1858ZM35.4756 21.5V16.0455H36.3137V21.5H35.4756ZM39.3229 21.6278C38.9772 21.6278 38.6635 21.5627 38.3818 21.4325C38.1001 21.3 37.8764 21.1094 37.7106 20.8608C37.5449 20.6098 37.4621 20.3068 37.4621 19.9517C37.4621 19.6392 37.5236 19.3859 37.6467 19.1918C37.7698 18.9953 37.9344 18.8414 38.1403 18.7301C38.3463 18.6188 38.5736 18.536 38.8222 18.4815C39.0731 18.4247 39.3252 18.3797 39.5785 18.3466C39.91 18.304 40.1787 18.272 40.3847 18.2507C40.593 18.227 40.7445 18.188 40.8392 18.1335C40.9363 18.0791 40.9848 17.9844 40.9848 17.8494V17.821C40.9848 17.4706 40.8889 17.1984 40.6972 17.0043C40.5078 16.8101 40.2201 16.7131 39.8342 16.7131C39.4341 16.7131 39.1204 16.8007 38.8932 16.9759C38.6659 17.151 38.5061 17.3381 38.4138 17.5369L37.6183 17.2528C37.7604 16.9214 37.9498 16.6634 38.1865 16.4787C38.4256 16.2917 38.686 16.1615 38.9677 16.0881C39.2518 16.0123 39.5312 15.9744 39.8058 15.9744C39.981 15.9744 40.1822 15.9957 40.4095 16.0384C40.6391 16.0786 40.8605 16.1626 41.0736 16.2905C41.289 16.4183 41.4677 16.6113 41.6098 16.8693C41.7518 17.1274 41.8229 17.473 41.8229 17.9062V21.5H40.9848V20.7614H40.9422C40.8854 20.8797 40.7907 21.0064 40.6581 21.1413C40.5255 21.2763 40.3491 21.3911 40.129 21.4858C39.9088 21.5805 39.6401 21.6278 39.3229 21.6278ZM39.4507 20.875C39.7821 20.875 40.0615 20.8099 40.2888 20.6797C40.5184 20.5495 40.6912 20.3814 40.8072 20.1754C40.9256 19.9695 40.9848 19.7528 40.9848 19.5256V18.7585C40.9493 18.8011 40.8712 18.8402 40.7504 18.8757C40.632 18.9089 40.4947 18.9384 40.3385 18.9645C40.1846 18.9882 40.0343 19.0095 39.8875 19.0284C39.7431 19.045 39.6259 19.0592 39.5359 19.071C39.3181 19.0994 39.1145 19.1456 38.9251 19.2095C38.7381 19.2711 38.5866 19.3646 38.4706 19.4901C38.357 19.6132 38.3001 19.7812 38.3001 19.9943C38.3001 20.2855 38.4079 20.5057 38.6233 20.6548C38.8411 20.8016 39.1169 20.875 39.4507 20.875ZM45.905 23.5455V16.0455H46.7147V16.9119H46.8141C46.8757 16.8172 46.9609 16.6965 47.0698 16.5497C47.1811 16.4006 47.3397 16.268 47.5456 16.152C47.754 16.0336 48.0357 15.9744 48.3908 15.9744C48.8501 15.9744 49.2549 16.0893 49.6053 16.3189C49.9557 16.5485 50.2291 16.8741 50.4256 17.2955C50.6221 17.7169 50.7204 18.214 50.7204 18.7869C50.7204 19.3646 50.6221 19.8653 50.4256 20.2891C50.2291 20.7105 49.9569 21.0372 49.6089 21.2692C49.2608 21.4988 48.8596 21.6136 48.405 21.6136C48.0546 21.6136 47.7741 21.5556 47.5634 21.4396C47.3527 21.3213 47.1905 21.1875 47.0769 21.0384C46.9633 20.8868 46.8757 20.7614 46.8141 20.6619H46.7431V23.5455H45.905ZM46.7289 18.7727C46.7289 19.1847 46.7892 19.5481 46.91 19.8629C47.0307 20.1754 47.2071 20.4205 47.4391 20.598C47.6711 20.7732 47.9552 20.8608 48.2914 20.8608C48.6418 20.8608 48.9341 20.7685 49.1685 20.5838C49.4053 20.3968 49.5828 20.1458 49.7012 19.831C49.8219 19.5137 49.8823 19.161 49.8823 18.7727C49.8823 18.3892 49.8231 18.0436 49.7047 17.7358C49.5887 17.4257 49.4124 17.1806 49.1756 17.0007C48.9412 16.8184 48.6465 16.7273 48.2914 16.7273C47.9505 16.7273 47.664 16.8137 47.432 16.9865C47.2 17.157 47.0248 17.3961 46.9064 17.7038C46.7881 18.0092 46.7289 18.3655 46.7289 18.7727ZM54.1557 21.6136C53.6301 21.6136 53.1768 21.4976 52.7956 21.2656C52.4168 21.0312 52.1244 20.7045 51.9185 20.2855C51.7149 19.8641 51.6131 19.3741 51.6131 18.8153C51.6131 18.2566 51.7149 17.7642 51.9185 17.3381C52.1244 16.9096 52.4109 16.5758 52.7779 16.3366C53.1472 16.0952 53.578 15.9744 54.0705 15.9744C54.3546 15.9744 54.6351 16.0218 54.9121 16.1165C55.1891 16.2112 55.4412 16.3651 55.6685 16.5781C55.8958 16.7888 56.0769 17.0682 56.2118 17.4162C56.3467 17.7642 56.4142 18.1927 56.4142 18.7017V19.0568H52.2097V18.3324H55.5619C55.5619 18.0246 55.5004 17.75 55.3773 17.5085C55.2565 17.267 55.0837 17.0765 54.8588 16.9368C54.6363 16.7971 54.3735 16.7273 54.0705 16.7273C53.7367 16.7273 53.4478 16.8101 53.204 16.9759C52.9625 17.1392 52.7767 17.3523 52.6465 17.6151C52.5163 17.8778 52.4512 18.1596 52.4512 18.4602V18.9432C52.4512 19.3551 52.5222 19.7043 52.6642 19.9908C52.8086 20.2749 53.0087 20.4915 53.2644 20.6406C53.52 20.7874 53.8172 20.8608 54.1557 20.8608C54.3759 20.8608 54.5747 20.83 54.7523 20.7685C54.9322 20.7045 55.0873 20.6098 55.2175 20.4844C55.3477 20.3565 55.4483 20.1979 55.5193 20.0085L56.329 20.2358C56.2438 20.5104 56.1005 20.7519 55.8993 20.9602C55.6981 21.1662 55.4495 21.3272 55.1536 21.4432C54.8576 21.5568 54.525 21.6136 54.1557 21.6136ZM60.9256 16.0455V16.8267H58.3971V21.5H57.5591V16.0455H60.9256ZM62.857 20.2642L65.4848 16.0455H66.4507V21.5H65.6127V17.2812L62.999 21.5H62.0189V16.0455H62.857V20.2642ZM70.0716 21.6136C69.5603 21.6136 69.1199 21.4929 68.7506 21.2514C68.3813 21.0099 68.0972 20.6773 67.8983 20.2536C67.6995 19.8298 67.6 19.3456 67.6 18.8011C67.6 18.2472 67.7018 17.7583 67.9054 17.3345C68.1114 16.9084 68.3979 16.5758 68.7648 16.3366C69.1341 16.0952 69.565 15.9744 70.0574 15.9744C70.4409 15.9744 70.7866 16.0455 71.0944 16.1875C71.4021 16.3295 71.6543 16.5284 71.8507 16.7841C72.0472 17.0398 72.1692 17.3381 72.2165 17.679H71.3784C71.3145 17.4304 71.1725 17.2102 70.9523 17.0185C70.7345 16.8243 70.4409 16.7273 70.0716 16.7273C69.7449 16.7273 69.4585 16.8125 69.2123 16.983C68.9684 17.151 68.7778 17.389 68.6405 17.6967C68.5056 18.0021 68.4381 18.3608 68.4381 18.7727C68.4381 19.1941 68.5044 19.5611 68.637 19.8736C68.7719 20.1861 68.9613 20.4287 69.2051 20.6016C69.4514 20.7744 69.7402 20.8608 70.0716 20.8608C70.2894 20.8608 70.4871 20.8229 70.6647 20.7472C70.8422 20.6714 70.9926 20.5625 71.1157 20.4205C71.2388 20.2784 71.3264 20.108 71.3784 19.9091H72.2165C72.1692 20.2311 72.052 20.5211 71.865 20.7791C71.6803 21.0348 71.4353 21.2384 71.1299 21.3899C70.8268 21.5391 70.4741 21.6136 70.0716 21.6136ZM72.882 16.8267V16.0455H77.3138V16.8267H75.524V21.5H74.6859V16.8267H72.882ZM78.4063 23.5455V16.0455H79.2159V16.9119H79.3154C79.3769 16.8172 79.4621 16.6965 79.571 16.5497C79.6823 16.4006 79.8409 16.268 80.0469 16.152C80.2552 16.0336 80.5369 15.9744 80.8921 15.9744C81.3513 15.9744 81.7562 16.0893 82.1066 16.3189C82.4569 16.5485 82.7304 16.8741 82.9269 17.2955C83.1234 17.7169 83.2216 18.214 83.2216 18.7869C83.2216 19.3646 83.1234 19.8653 82.9269 20.2891C82.7304 20.7105 82.4581 21.0372 82.1101 21.2692C81.7621 21.4988 81.3608 21.6136 80.9063 21.6136C80.5559 21.6136 80.2753 21.5556 80.0646 21.4396C79.8539 21.3213 79.6918 21.1875 79.5781 21.0384C79.4645 20.8868 79.3769 20.7614 79.3154 20.6619H79.2443V23.5455H78.4063ZM79.2301 18.7727C79.2301 19.1847 79.2905 19.5481 79.4112 19.8629C79.532 20.1754 79.7083 20.4205 79.9404 20.598C80.1724 20.7732 80.4565 20.8608 80.7926 20.8608C81.143 20.8608 81.4354 20.7685 81.6698 20.5838C81.9065 20.3968 82.0841 20.1458 82.2024 19.831C82.3232 19.5137 82.3835 19.161 82.3835 18.7727C82.3835 18.3892 82.3244 18.0436 82.206 17.7358C82.09 17.4257 81.9136 17.1806 81.6769 17.0007C81.4425 16.8184 81.1477 16.7273 80.7926 16.7273C80.4517 16.7273 80.1653 16.8137 79.9333 16.9865C79.7012 17.157 79.5261 17.3961 79.4077 17.7038C79.2893 18.0092 79.2301 18.3655 79.2301 18.7727ZM85.9751 21.6278C85.6295 21.6278 85.3158 21.5627 85.0341 21.4325C84.7524 21.3 84.5286 21.1094 84.3629 20.8608C84.1972 20.6098 84.1143 20.3068 84.1143 19.9517C84.1143 19.6392 84.1759 19.3859 84.299 19.1918C84.4221 18.9953 84.5866 18.8414 84.7926 18.7301C84.9986 18.6188 85.2258 18.536 85.4744 18.4815C85.7254 18.4247 85.9775 18.3797 86.2308 18.3466C86.5622 18.304 86.8309 18.272 87.0369 18.2507C87.2452 18.227 87.3968 18.188 87.4915 18.1335C87.5885 18.0791 87.6371 17.9844 87.6371 17.8494V17.821C87.6371 17.4706 87.5412 17.1984 87.3494 17.0043C87.16 16.8101 86.8724 16.7131 86.4865 16.7131C86.0864 16.7131 85.7727 16.8007 85.5454 16.9759C85.3182 17.151 85.1584 17.3381 85.066 17.5369L84.2706 17.2528C84.4126 16.9214 84.602 16.6634 84.8388 16.4787C85.0779 16.2917 85.3383 16.1615 85.62 16.0881C85.9041 16.0123 86.1835 15.9744 86.4581 15.9744C86.6333 15.9744 86.8345 15.9957 87.0618 16.0384C87.2914 16.0786 87.5128 16.1626 87.7258 16.2905C87.9413 16.4183 88.12 16.6113 88.2621 16.8693C88.4041 17.1274 88.4751 17.473 88.4751 17.9062V21.5H87.6371V20.7614H87.5944C87.5376 20.8797 87.4429 21.0064 87.3104 21.1413C87.1778 21.2763 87.0014 21.3911 86.7812 21.4858C86.5611 21.5805 86.2924 21.6278 85.9751 21.6278ZM86.103 20.875C86.4344 20.875 86.7138 20.8099 86.941 20.6797C87.1707 20.5495 87.3435 20.3814 87.4595 20.1754C87.5779 19.9695 87.6371 19.7528 87.6371 19.5256V18.7585C87.6015 18.8011 87.5234 18.8402 87.4027 18.8757C87.2843 18.9089 87.147 18.9384 86.9908 18.9645C86.8369 18.9882 86.6865 19.0095 86.5398 19.0284C86.3953 19.045 86.2782 19.0592 86.1882 19.071C85.9704 19.0994 85.7668 19.1456 85.5774 19.2095C85.3904 19.2711 85.2389 19.3646 85.1229 19.4901C85.0092 19.6132 84.9524 19.7812 84.9524 19.9943C84.9524 20.2855 85.0601 20.5057 85.2756 20.6548C85.4934 20.8016 85.7692 20.875 86.103 20.875ZM94.1646 16.0455V20.7188H94.9316V23.2614H94.0935V21.5H89.8748V16.0455H90.7128V20.7188H93.3265V16.0455H94.1646ZM96.9305 20.2642L99.5583 16.0455H100.524V21.5H99.6862V17.2812L97.0726 21.5H96.0924V16.0455H96.9305V20.2642ZM102.767 20.2642L105.395 16.0455H106.361V21.5H105.523V17.2812L102.909 21.5H101.929V16.0455H102.767V20.2642Z" fill="#101828"/>
<path d="M10.6165 43V37.9091H13.6889V38.456H11.233V40.1761H13.5298V40.723H11.233V42.4531H13.7287V43H10.6165ZM14.6305 43V39.1818H15.1973V39.7784H15.247C15.3265 39.5746 15.455 39.4163 15.6323 39.3036C15.8096 39.1893 16.0226 39.1321 16.2712 39.1321C16.523 39.1321 16.7327 39.1893 16.9001 39.3036C17.0691 39.4163 17.2008 39.5746 17.2953 39.7784H17.3351C17.4328 39.5812 17.5795 39.4246 17.7751 39.3086C17.9706 39.1909 18.2051 39.1321 18.4785 39.1321C18.8199 39.1321 19.0992 39.239 19.3162 39.4528C19.5333 39.6649 19.6419 39.9955 19.6419 40.4446V43H19.0552V40.4446C19.0552 40.1629 18.9782 39.9615 18.8241 39.8406C18.6699 39.7196 18.4885 39.6591 18.2797 39.6591C18.0112 39.6591 17.8032 39.7403 17.6557 39.9027C17.5082 40.0634 17.4345 40.2673 17.4345 40.5142V43H16.8379V40.3849C16.8379 40.1679 16.7675 39.993 16.6266 39.8604C16.4858 39.7262 16.3043 39.6591 16.0822 39.6591C15.9298 39.6591 15.7872 39.6997 15.6547 39.7809C15.5238 39.8621 15.4177 39.9748 15.3365 40.119C15.2569 40.2615 15.2172 40.4264 15.2172 40.6136V43H14.6305ZM21.7481 43.0895C21.5061 43.0895 21.2866 43.0439 21.0894 42.9528C20.8921 42.86 20.7355 42.7266 20.6195 42.5526C20.5035 42.3769 20.4455 42.1648 20.4455 41.9162C20.4455 41.6974 20.4886 41.5201 20.5748 41.3842C20.661 41.2467 20.7761 41.139 20.9203 41.0611C21.0645 40.9832 21.2236 40.9252 21.3976 40.8871C21.5733 40.8473 21.7497 40.8158 21.9271 40.7926C22.1591 40.7628 22.3472 40.7404 22.4913 40.7255C22.6372 40.7089 22.7432 40.6816 22.8095 40.6435C22.8775 40.6054 22.9114 40.5391 22.9114 40.4446V40.4247C22.9114 40.1795 22.8443 39.9889 22.7101 39.853C22.5775 39.7171 22.3762 39.6491 22.106 39.6491C21.826 39.6491 21.6064 39.7105 21.4473 39.8331C21.2882 39.9557 21.1764 40.0866 21.1117 40.2259L20.5549 40.027C20.6543 39.795 20.7869 39.6143 20.9526 39.4851C21.12 39.3542 21.3023 39.263 21.4995 39.2116C21.6984 39.1586 21.8939 39.1321 22.0862 39.1321C22.2088 39.1321 22.3497 39.147 22.5087 39.1768C22.6695 39.205 22.8244 39.2638 22.9736 39.3533C23.1244 39.4428 23.2495 39.5779 23.3489 39.7585C23.4484 39.9392 23.4981 40.1811 23.4981 40.4844V43H22.9114V42.483H22.8816C22.8418 42.5658 22.7756 42.6545 22.6827 42.7489C22.5899 42.8434 22.4665 42.9238 22.3124 42.9901C22.1582 43.0563 21.9702 43.0895 21.7481 43.0895ZM21.8376 42.5625C22.0696 42.5625 22.2651 42.5169 22.4242 42.4258C22.585 42.3346 22.7059 42.217 22.7872 42.0728C22.87 41.9286 22.9114 41.777 22.9114 41.6179V41.081C22.8866 41.1108 22.8319 41.1381 22.7474 41.163C22.6645 41.1862 22.5684 41.2069 22.459 41.2251C22.3513 41.2417 22.2461 41.2566 22.1433 41.2699C22.0422 41.2815 21.9602 41.2914 21.8972 41.2997C21.7448 41.3196 21.6023 41.3519 21.4697 41.3967C21.3388 41.4397 21.2327 41.5052 21.1515 41.593C21.072 41.6792 21.0322 41.7969 21.0322 41.946C21.0322 42.1499 21.1076 42.304 21.2584 42.4084C21.4108 42.5111 21.6039 42.5625 21.8376 42.5625ZM24.4788 43V39.1818H25.0655V43H24.4788ZM24.7771 38.5455C24.6628 38.5455 24.5642 38.5065 24.4813 38.4286C24.4001 38.3507 24.3595 38.2571 24.3595 38.1477C24.3595 38.0384 24.4001 37.9447 24.4813 37.8668C24.5642 37.7889 24.6628 37.75 24.7771 37.75C24.8915 37.75 24.9893 37.7889 25.0705 37.8668C25.1533 37.9447 25.1948 38.0384 25.1948 38.1477C25.1948 38.2571 25.1533 38.3507 25.0705 38.4286C24.9893 38.5065 24.8915 38.5455 24.7771 38.5455ZM26.6366 37.9091V43H26.05V37.9091H26.6366Z" fill="#101828"/>
<path d="M10 55.5C10 52.1863 12.6863 49.5 16 49.5H170C173.314 49.5 176 52.1863 176 55.5V66C176 69.3137 173.314 72 170 72H16C12.6863 72 10 69.3137 10 66V55.5Z" fill="#F7F8FC"/>
<path d="M24.1378 63.5795C23.7699 63.5795 23.4525 63.4983 23.1857 63.3359C22.9206 63.1719 22.7159 62.9432 22.5717 62.6499C22.4292 62.3549 22.358 62.0118 22.358 61.6207C22.358 61.2296 22.4292 60.8849 22.5717 60.5866C22.7159 60.2867 22.9164 60.053 23.1733 59.8857C23.4318 59.7166 23.7334 59.6321 24.0781 59.6321C24.277 59.6321 24.4734 59.6652 24.6673 59.7315C24.8612 59.7978 25.0376 59.9055 25.1967 60.0547C25.3558 60.2022 25.4826 60.3977 25.5771 60.6413C25.6715 60.8849 25.7188 61.1849 25.7188 61.5412V61.7898H22.7756V61.2827H25.1222C25.1222 61.0672 25.0791 60.875 24.9929 60.706C24.9084 60.5369 24.7874 60.4035 24.63 60.3058C24.4742 60.208 24.2902 60.1591 24.0781 60.1591C23.8445 60.1591 23.6423 60.2171 23.4716 60.3331C23.3026 60.4474 23.1725 60.5966 23.0813 60.7805C22.9902 60.9645 22.9446 61.1617 22.9446 61.3722V61.7102C22.9446 61.9986 22.9943 62.243 23.0938 62.4435C23.1948 62.6424 23.3349 62.794 23.5138 62.8984C23.6928 63.0012 23.9008 63.0526 24.1378 63.0526C24.2919 63.0526 24.4311 63.031 24.5554 62.9879C24.6813 62.9432 24.7899 62.8769 24.881 62.7891C24.9722 62.6996 25.0426 62.5885 25.0923 62.456L25.6591 62.6151C25.5994 62.8073 25.4992 62.9763 25.3583 63.1222C25.2174 63.2663 25.0434 63.379 24.8363 63.4602C24.6291 63.5398 24.3963 63.5795 24.1378 63.5795ZM26.5212 63.5V59.6818H27.0879V60.2784H27.1376C27.2172 60.0746 27.3456 59.9163 27.5229 59.8036C27.7002 59.6893 27.9132 59.6321 28.1618 59.6321C28.4137 59.6321 28.6233 59.6893 28.7907 59.8036C28.9597 59.9163 29.0915 60.0746 29.1859 60.2784H29.2257C29.3235 60.0812 29.4701 59.9246 29.6657 59.8086C29.8612 59.6909 30.0957 59.6321 30.3692 59.6321C30.7105 59.6321 30.9898 59.739 31.2069 59.9528C31.424 60.1649 31.5325 60.4955 31.5325 60.9446V63.5H30.9459V60.9446C30.9459 60.6629 30.8688 60.4615 30.7147 60.3406C30.5606 60.2196 30.3791 60.1591 30.1703 60.1591C29.9018 60.1591 29.6939 60.2403 29.5464 60.4027C29.3989 60.5634 29.3251 60.7673 29.3251 61.0142V63.5H28.7285V60.8849C28.7285 60.6679 28.6581 60.493 28.5172 60.3604C28.3764 60.2262 28.1949 60.1591 27.9729 60.1591C27.8204 60.1591 27.6779 60.1997 27.5453 60.2809C27.4144 60.3621 27.3083 60.4748 27.2271 60.619C27.1476 60.7615 27.1078 60.9264 27.1078 61.1136V63.5H26.5212ZM33.6387 63.5895C33.3968 63.5895 33.1772 63.5439 32.98 63.4528C32.7828 63.36 32.6262 63.2266 32.5102 63.0526C32.3942 62.8769 32.3362 62.6648 32.3362 62.4162C32.3362 62.1974 32.3792 62.0201 32.4654 61.8842C32.5516 61.7467 32.6668 61.639 32.8109 61.5611C32.9551 61.4832 33.1142 61.4252 33.2882 61.3871C33.4639 61.3473 33.6404 61.3158 33.8177 61.2926C34.0497 61.2628 34.2378 61.2404 34.382 61.2255C34.5278 61.2089 34.6339 61.1816 34.7001 61.1435C34.7681 61.1054 34.8021 61.0391 34.8021 60.9446V60.9247C34.8021 60.6795 34.735 60.4889 34.6007 60.353C34.4681 60.2171 34.2668 60.1491 33.9967 60.1491C33.7166 60.1491 33.497 60.2105 33.3379 60.3331C33.1788 60.4557 33.067 60.5866 33.0024 60.7259L32.4455 60.527C32.545 60.295 32.6775 60.1143 32.8433 59.9851C33.0106 59.8542 33.1929 59.763 33.3901 59.7116C33.589 59.6586 33.7845 59.6321 33.9768 59.6321C34.0994 59.6321 34.2403 59.647 34.3994 59.6768C34.5601 59.705 34.7151 59.7638 34.8642 59.8533C35.015 59.9428 35.1401 60.0779 35.2396 60.2585C35.339 60.4392 35.3887 60.6811 35.3887 60.9844V63.5H34.8021V62.983H34.7722C34.7325 63.0658 34.6662 63.1545 34.5734 63.2489C34.4806 63.3434 34.3571 63.4238 34.203 63.4901C34.0489 63.5563 33.8608 63.5895 33.6387 63.5895ZM33.7282 63.0625C33.9602 63.0625 34.1558 63.0169 34.3149 62.9258C34.4756 62.8346 34.5966 62.717 34.6778 62.5728C34.7606 62.4286 34.8021 62.277 34.8021 62.1179V61.581C34.7772 61.6108 34.7225 61.6381 34.638 61.663C34.5551 61.6862 34.459 61.7069 34.3497 61.7251C34.2419 61.7417 34.1367 61.7566 34.034 61.7699C33.9329 61.7815 33.8508 61.7914 33.7879 61.7997C33.6354 61.8196 33.4929 61.8519 33.3603 61.8967C33.2294 61.9397 33.1233 62.0052 33.0421 62.093C32.9626 62.1792 32.9228 62.2969 32.9228 62.446C32.9228 62.6499 32.9982 62.804 33.149 62.9084C33.3015 63.0111 33.4945 63.0625 33.7282 63.0625ZM36.3695 63.5V59.6818H36.9561V63.5H36.3695ZM36.6678 59.0455C36.5534 59.0455 36.4548 59.0065 36.372 58.9286C36.2908 58.8507 36.2502 58.7571 36.2502 58.6477C36.2502 58.5384 36.2908 58.4447 36.372 58.3668C36.4548 58.2889 36.5534 58.25 36.6678 58.25C36.7821 58.25 36.8799 58.2889 36.9611 58.3668C37.0439 58.4447 37.0854 58.5384 37.0854 58.6477C37.0854 58.7571 37.0439 58.8507 36.9611 58.9286C36.8799 59.0065 36.7821 59.0455 36.6678 59.0455ZM38.5273 58.4091V63.5H37.9406V58.4091H38.5273ZM42.445 64.8423C41.9379 64.8423 41.4896 64.7727 41.1002 64.6335C40.7107 64.496 40.3834 64.293 40.1183 64.0245C39.8531 63.756 39.6526 63.4271 39.5167 63.0376C39.3808 62.6482 39.3129 62.2024 39.3129 61.7003C39.3129 61.2147 39.3816 60.7805 39.5192 60.3977C39.6584 60.0149 39.8597 59.6901 40.1232 59.4233C40.3884 59.1548 40.7099 58.9502 41.0877 58.8093C41.4672 58.6684 41.8964 58.598 42.3754 58.598C42.841 58.598 43.2487 58.6742 43.5984 58.8267C43.9497 58.9775 44.243 59.1822 44.4784 59.4407C44.7153 59.6976 44.8927 59.9867 45.0103 60.3082C45.1296 60.6297 45.1893 60.9612 45.1893 61.3026C45.1893 61.5429 45.1777 61.7865 45.1545 62.0334C45.1313 62.2803 45.0824 62.5073 45.0078 62.7145C44.9333 62.92 44.8181 63.0857 44.6623 63.2116C44.5082 63.3376 44.2994 63.4006 44.0359 63.4006C43.9199 63.4006 43.7923 63.3823 43.6531 63.3459C43.5139 63.3094 43.3904 63.2489 43.2827 63.1644C43.175 63.0799 43.1112 62.9664 43.0913 62.8239H43.0615C43.0217 62.92 42.9604 63.0111 42.8775 63.0973C42.7963 63.1835 42.6894 63.2522 42.5568 63.3036C42.4259 63.355 42.266 63.3774 42.0771 63.3707C41.8616 63.3625 41.6719 63.3144 41.5078 63.2266C41.3438 63.1371 41.2062 63.0161 41.0952 62.8636C40.9858 62.7095 40.903 62.5314 40.8466 62.3292C40.7919 62.1254 40.7646 61.9058 40.7646 61.6705C40.7646 61.4467 40.7977 61.2421 40.864 61.0565C40.9303 60.8709 41.0223 60.7085 41.1399 60.5692C41.2592 60.43 41.3985 60.319 41.5575 60.2362C41.7183 60.1516 41.8915 60.0994 42.0771 60.0795C42.2428 60.063 42.3936 60.0704 42.5295 60.1019C42.6654 60.1317 42.7772 60.1773 42.8651 60.2386C42.9529 60.2983 43.0084 60.3646 43.0316 60.4375H43.0615V60.1591H43.5884V62.4062C43.5884 62.5455 43.6274 62.6681 43.7053 62.7741C43.7832 62.8802 43.8967 62.9332 44.0458 62.9332C44.2149 62.9332 44.3441 62.8752 44.4336 62.7592C44.5248 62.6432 44.5869 62.4643 44.62 62.2223C44.6548 61.9804 44.6722 61.6705 44.6722 61.2926C44.6722 61.0705 44.6416 60.8518 44.5803 60.6364C44.5206 60.4193 44.4295 60.2163 44.3068 60.0273C44.1859 59.8384 44.0326 59.6719 43.847 59.5277C43.6614 59.3835 43.4434 59.2708 43.1932 59.1896C42.9446 59.1068 42.6621 59.0653 42.3455 59.0653C41.9561 59.0653 41.6073 59.1258 41.299 59.2468C40.9924 59.3661 40.7314 59.541 40.516 59.7713C40.3022 60 40.139 60.2784 40.0263 60.6065C39.9153 60.933 39.8597 61.3042 39.8597 61.7202C39.8597 62.1428 39.9153 62.5181 40.0263 62.8462C40.139 63.1744 40.3047 63.4511 40.5235 63.6765C40.7439 63.9019 41.0165 64.0726 41.3413 64.1886C41.6661 64.3062 42.0406 64.3651 42.4649 64.3651C42.6472 64.3651 42.827 64.3477 43.0043 64.3129C43.1816 64.2781 43.3382 64.2399 43.4741 64.1985C43.61 64.1571 43.7078 64.1264 43.7674 64.1065L43.9066 64.5639C43.8039 64.607 43.6696 64.6501 43.5039 64.6932C43.3399 64.7363 43.1642 64.7719 42.9769 64.8001C42.7913 64.8282 42.614 64.8423 42.445 64.8423ZM42.1566 62.8636C42.3787 62.8636 42.5585 62.8189 42.696 62.7294C42.8336 62.6399 42.9338 62.5049 42.9968 62.3242C43.0598 62.1436 43.0913 61.9157 43.0913 61.6406C43.0913 61.3622 43.0565 61.1451 42.9869 60.9893C42.9173 60.8336 42.8145 60.7242 42.6786 60.6612C42.5427 60.5982 42.3754 60.5668 42.1765 60.5668C41.9876 60.5668 41.826 60.6165 41.6918 60.7159C41.5592 60.8137 41.4573 60.9446 41.386 61.1087C41.3164 61.2711 41.2816 61.4484 41.2816 61.6406C41.2816 61.8527 41.3098 62.0524 41.3661 62.2397C41.4225 62.4253 41.5145 62.5761 41.6421 62.6921C41.7697 62.8065 41.9412 62.8636 42.1566 62.8636ZM47.5783 63.5795C47.2104 63.5795 46.893 63.4983 46.6262 63.3359C46.361 63.1719 46.1564 62.9432 46.0122 62.6499C45.8697 62.3549 45.7984 62.0118 45.7984 61.6207C45.7984 61.2296 45.8697 60.8849 46.0122 60.5866C46.1564 60.2867 46.3569 60.053 46.6138 59.8857C46.8723 59.7166 47.1739 59.6321 47.5186 59.6321C47.7175 59.6321 47.9138 59.6652 48.1077 59.7315C48.3016 59.7978 48.4781 59.9055 48.6372 60.0547C48.7963 60.2022 48.9231 60.3977 49.0175 60.6413C49.112 60.8849 49.1592 61.1849 49.1592 61.5412V61.7898H46.216V61.2827H48.5626C48.5626 61.0672 48.5195 60.875 48.4334 60.706C48.3488 60.5369 48.2279 60.4035 48.0704 60.3058C47.9147 60.208 47.7307 60.1591 47.5186 60.1591C47.2849 60.1591 47.0828 60.2171 46.9121 60.3331C46.743 60.4474 46.6129 60.5966 46.5218 60.7805C46.4306 60.9645 46.3851 61.1617 46.3851 61.3722V61.7102C46.3851 61.9986 46.4348 62.243 46.5342 62.4435C46.6353 62.6424 46.7753 62.794 46.9543 62.8984C47.1333 63.0012 47.3413 63.0526 47.5783 63.0526C47.7324 63.0526 47.8716 63.031 47.9959 62.9879C48.1218 62.9432 48.2304 62.8769 48.3215 62.7891C48.4127 62.6996 48.4831 62.5885 48.5328 62.456L49.0996 62.6151C49.0399 62.8073 48.9396 62.9763 48.7988 63.1222C48.6579 63.2663 48.4839 63.379 48.2768 63.4602C48.0696 63.5398 47.8368 63.5795 47.5783 63.5795ZM50.2966 59.6818L51.2114 61.2429L52.1261 59.6818H52.8023L51.5693 61.5909L52.8023 63.5H52.1261L51.2114 62.0185L50.2966 63.5H49.6204L50.8335 61.5909L49.6204 59.6818H50.2966ZM54.6729 63.5895C54.431 63.5895 54.2114 63.5439 54.0142 63.4528C53.817 63.36 53.6604 63.2266 53.5444 63.0526C53.4284 62.8769 53.3704 62.6648 53.3704 62.4162C53.3704 62.1974 53.4135 62.0201 53.4996 61.8842C53.5858 61.7467 53.701 61.639 53.8452 61.5611C53.9893 61.4832 54.1484 61.4252 54.3224 61.3871C54.4981 61.3473 54.6746 61.3158 54.8519 61.2926C55.0839 61.2628 55.272 61.2404 55.4162 61.2255C55.562 61.2089 55.6681 61.1816 55.7344 61.1435C55.8023 61.1054 55.8363 61.0391 55.8363 60.9446V60.9247C55.8363 60.6795 55.7692 60.4889 55.6349 60.353C55.5024 60.2171 55.301 60.1491 55.0309 60.1491C54.7508 60.1491 54.5312 60.2105 54.3722 60.3331C54.2131 60.4557 54.1012 60.5866 54.0366 60.7259L53.4798 60.527C53.5792 60.295 53.7118 60.1143 53.8775 59.9851C54.0449 59.8542 54.2271 59.763 54.4244 59.7116C54.6232 59.6586 54.8188 59.6321 55.011 59.6321C55.1336 59.6321 55.2745 59.647 55.4336 59.6768C55.5943 59.705 55.7493 59.7638 55.8984 59.8533C56.0492 59.9428 56.1744 60.0779 56.2738 60.2585C56.3732 60.4392 56.4229 60.6811 56.4229 60.9844V63.5H55.8363V62.983H55.8065C55.7667 63.0658 55.7004 63.1545 55.6076 63.2489C55.5148 63.3434 55.3913 63.4238 55.2372 63.4901C55.0831 63.5563 54.895 63.5895 54.6729 63.5895ZM54.7624 63.0625C54.9944 63.0625 55.19 63.0169 55.3491 62.9258C55.5098 62.8346 55.6308 62.717 55.712 62.5728C55.7949 62.4286 55.8363 62.277 55.8363 62.1179V61.581C55.8114 61.6108 55.7567 61.6381 55.6722 61.663C55.5894 61.6862 55.4932 61.7069 55.3839 61.7251C55.2762 61.7417 55.1709 61.7566 55.0682 61.7699C54.9671 61.7815 54.8851 61.7914 54.8221 61.7997C54.6696 61.8196 54.5271 61.8519 54.3945 61.8967C54.2636 61.9397 54.1575 62.0052 54.0763 62.093C53.9968 62.1792 53.957 62.2969 53.957 62.446C53.957 62.6499 54.0324 62.804 54.1832 62.9084C54.3357 63.0111 54.5288 63.0625 54.7624 63.0625ZM57.4037 63.5V59.6818H57.9704V60.2784H58.0202C58.0997 60.0746 58.2281 59.9163 58.4055 59.8036C58.5828 59.6893 58.7957 59.6321 59.0443 59.6321C59.2962 59.6321 59.5058 59.6893 59.6732 59.8036C59.8423 59.9163 59.974 60.0746 60.0685 60.2784H60.1082C60.206 60.0812 60.3527 59.9246 60.5482 59.8086C60.7438 59.6909 60.9783 59.6321 61.2517 59.6321C61.5931 59.6321 61.8723 59.739 62.0894 59.9528C62.3065 60.1649 62.4151 60.4955 62.4151 60.9446V63.5H61.8284V60.9446C61.8284 60.6629 61.7513 60.4615 61.5972 60.3406C61.4431 60.2196 61.2616 60.1591 61.0528 60.1591C60.7844 60.1591 60.5764 60.2403 60.4289 60.4027C60.2814 60.5634 60.2077 60.7673 60.2077 61.0142V63.5H59.6111V60.8849C59.6111 60.6679 59.5406 60.493 59.3998 60.3604C59.2589 60.2262 59.0775 60.1591 58.8554 60.1591C58.7029 60.1591 58.5604 60.1997 58.4278 60.2809C58.2969 60.3621 58.1909 60.4748 58.1097 60.619C58.0301 60.7615 57.9903 60.9264 57.9903 61.1136V63.5H57.4037ZM63.3977 64.9318V59.6818H63.9644V60.2884H64.034C64.0771 60.2221 64.1368 60.1375 64.213 60.0348C64.2909 59.9304 64.4019 59.8376 64.5461 59.7564C64.6919 59.6735 64.8891 59.6321 65.1377 59.6321C65.4592 59.6321 65.7426 59.7125 65.9879 59.8732C66.2331 60.034 66.4245 60.2618 66.5621 60.5568C66.6996 60.8518 66.7684 61.1998 66.7684 61.6009C66.7684 62.0052 66.6996 62.3557 66.5621 62.6523C66.4245 62.9473 66.234 63.176 65.9904 63.3384C65.7467 63.4992 65.4659 63.5795 65.1477 63.5795C64.9024 63.5795 64.706 63.5389 64.5585 63.4577C64.411 63.3749 64.2975 63.2812 64.218 63.1768C64.1384 63.0708 64.0771 62.983 64.034 62.9134H63.9843V64.9318H63.3977ZM63.9744 61.5909C63.9744 61.8793 64.0166 62.1336 64.1012 62.354C64.1857 62.5728 64.3091 62.7443 64.4715 62.8686C64.6339 62.9912 64.8328 63.0526 65.0681 63.0526C65.3134 63.0526 65.5181 62.9879 65.6821 62.8587C65.8478 62.7277 65.9721 62.5521 66.055 62.3317C66.1395 62.1096 66.1818 61.8627 66.1818 61.5909C66.1818 61.3224 66.1403 61.0805 66.0575 60.8651C65.9763 60.648 65.8528 60.4764 65.6871 60.3505C65.523 60.2229 65.3167 60.1591 65.0681 60.1591C64.8295 60.1591 64.629 60.2196 64.4666 60.3406C64.3042 60.4599 64.1815 60.6272 64.0987 60.8427C64.0158 61.0565 63.9744 61.3059 63.9744 61.5909ZM68.1599 58.4091V63.5H67.5733V58.4091H68.1599ZM70.7453 63.5795C70.3774 63.5795 70.06 63.4983 69.7932 63.3359C69.5281 63.1719 69.3234 62.9432 69.1792 62.6499C69.0367 62.3549 68.9655 62.0118 68.9655 61.6207C68.9655 61.2296 69.0367 60.8849 69.1792 60.5866C69.3234 60.2867 69.5239 60.053 69.7808 59.8857C70.0393 59.7166 70.3409 59.6321 70.6856 59.6321C70.8845 59.6321 71.0809 59.6652 71.2748 59.7315C71.4686 59.7978 71.6451 59.9055 71.8042 60.0547C71.9633 60.2022 72.0901 60.3977 72.1846 60.6413C72.279 60.8849 72.3262 61.1849 72.3262 61.5412V61.7898H69.3831V61.2827H71.7297C71.7297 61.0672 71.6866 60.875 71.6004 60.706C71.5159 60.5369 71.3949 60.4035 71.2375 60.3058C71.0817 60.208 70.8977 60.1591 70.6856 60.1591C70.452 60.1591 70.2498 60.2171 70.0791 60.3331C69.9101 60.4474 69.78 60.5966 69.6888 60.7805C69.5977 60.9645 69.5521 61.1617 69.5521 61.3722V61.7102C69.5521 61.9986 69.6018 62.243 69.7012 62.4435C69.8023 62.6424 69.9424 62.794 70.1213 62.8984C70.3003 63.0012 70.5083 63.0526 70.7453 63.0526C70.8994 63.0526 71.0386 63.031 71.1629 62.9879C71.2888 62.9432 71.3974 62.8769 71.4885 62.7891C71.5797 62.6996 71.6501 62.5885 71.6998 62.456L72.2666 62.6151C72.2069 62.8073 72.1067 62.9763 71.9658 63.1222C71.8249 63.2663 71.6509 63.379 71.4438 63.4602C71.2366 63.5398 71.0038 63.5795 70.7453 63.5795ZM73.5562 63.5398C73.4336 63.5398 73.3283 63.4959 73.2405 63.408C73.1527 63.3202 73.1088 63.215 73.1088 63.0923C73.1088 62.9697 73.1527 62.8645 73.2405 62.7766C73.3283 62.6888 73.4336 62.6449 73.5562 62.6449C73.6788 62.6449 73.7841 62.6888 73.8719 62.7766C73.9597 62.8645 74.0037 62.9697 74.0037 63.0923C74.0037 63.1735 73.9829 63.2481 73.9415 63.3161C73.9017 63.384 73.8479 63.4387 73.7799 63.4801C73.7136 63.5199 73.6391 63.5398 73.5562 63.5398ZM76.5175 63.5795C76.1596 63.5795 75.8513 63.495 75.5928 63.326C75.3343 63.157 75.1354 62.9241 74.9962 62.6275C74.857 62.3308 74.7874 61.992 74.7874 61.6108C74.7874 61.223 74.8587 60.8808 75.0012 60.5842C75.1454 60.2859 75.3459 60.053 75.6028 59.8857C75.8613 59.7166 76.1629 59.6321 76.5076 59.6321C76.776 59.6321 77.018 59.6818 77.2334 59.7812C77.4489 59.8807 77.6254 60.0199 77.7629 60.1989C77.9005 60.3778 77.9858 60.5866 78.0189 60.8253H77.4323C77.3876 60.6513 77.2881 60.4972 77.134 60.3629C76.9815 60.227 76.776 60.1591 76.5175 60.1591C76.2888 60.1591 76.0883 60.2187 75.916 60.3381C75.7453 60.4557 75.6119 60.6223 75.5157 60.8377C75.4213 61.0515 75.3741 61.3026 75.3741 61.5909C75.3741 61.8859 75.4205 62.1428 75.5133 62.3615C75.6077 62.5803 75.7403 62.7501 75.911 62.8711C76.0833 62.9921 76.2855 63.0526 76.5175 63.0526C76.67 63.0526 76.8084 63.026 76.9327 62.973C77.0569 62.92 77.1622 62.8438 77.2483 62.7443C77.3345 62.6449 77.3958 62.5256 77.4323 62.3864H78.0189C77.9858 62.6117 77.9038 62.8147 77.7728 62.9954C77.6436 63.1744 77.4721 63.3169 77.2583 63.4229C77.0462 63.5273 76.7992 63.5795 76.5175 63.5795ZM80.3377 63.5795C79.993 63.5795 79.6905 63.4975 79.4304 63.3335C79.1718 63.1694 78.9697 62.9399 78.8238 62.6449C78.6797 62.3499 78.6076 62.0052 78.6076 61.6108C78.6076 61.2131 78.6797 60.8659 78.8238 60.5692C78.9697 60.2726 79.1718 60.0423 79.4304 59.8782C79.6905 59.7141 79.993 59.6321 80.3377 59.6321C80.6824 59.6321 80.984 59.7141 81.2425 59.8782C81.5027 60.0423 81.7049 60.2726 81.849 60.5692C81.9949 60.8659 82.0678 61.2131 82.0678 61.6108C82.0678 62.0052 81.9949 62.3499 81.849 62.6449C81.7049 62.9399 81.5027 63.1694 81.2425 63.3335C80.984 63.4975 80.6824 63.5795 80.3377 63.5795ZM80.3377 63.0526C80.5995 63.0526 80.815 62.9854 80.984 62.8512C81.153 62.717 81.2781 62.5405 81.3593 62.3217C81.4405 62.103 81.4811 61.866 81.4811 61.6108C81.4811 61.3556 81.4405 61.1178 81.3593 60.8974C81.2781 60.677 81.153 60.4988 80.984 60.3629C80.815 60.227 80.5995 60.1591 80.3377 60.1591C80.0758 60.1591 79.8604 60.227 79.6914 60.3629C79.5223 60.4988 79.3972 60.677 79.316 60.8974C79.2348 61.1178 79.1942 61.3556 79.1942 61.6108C79.1942 61.866 79.2348 62.103 79.316 62.3217C79.3972 62.5405 79.5223 62.717 79.6914 62.8512C79.8604 62.9854 80.0758 63.0526 80.3377 63.0526ZM82.8733 63.5V59.6818H83.4401V60.2784H83.4898C83.5693 60.0746 83.6978 59.9163 83.8751 59.8036C84.0524 59.6893 84.2653 59.6321 84.5139 59.6321C84.7658 59.6321 84.9755 59.6893 85.1428 59.8036C85.3119 59.9163 85.4436 60.0746 85.5381 60.2784H85.5778C85.6756 60.0812 85.8223 59.9246 86.0178 59.8086C86.2134 59.6909 86.4479 59.6321 86.7213 59.6321C87.0627 59.6321 87.3419 59.739 87.559 59.9528C87.7761 60.1649 87.8847 60.4955 87.8847 60.9446V63.5H87.298V60.9446C87.298 60.6629 87.221 60.4615 87.0668 60.3406C86.9127 60.2196 86.7313 60.1591 86.5224 60.1591C86.254 60.1591 86.046 60.2403 85.8985 60.4027C85.751 60.5634 85.6773 60.7673 85.6773 61.0142V63.5H85.0807V60.8849C85.0807 60.6679 85.0103 60.493 84.8694 60.3604C84.7285 60.2262 84.5471 60.1591 84.325 60.1591C84.1725 60.1591 84.03 60.1997 83.8974 60.2809C83.7665 60.3621 83.6605 60.4748 83.5793 60.619C83.4997 60.7615 83.4599 60.9264 83.4599 61.1136V63.5H82.8733Z" fill="#8E9199"/>
<path d="M10.179 89.233V87.4531H10.5071C10.6198 87.3504 10.7259 87.2054 10.8253 87.0181C10.9264 86.8292 11.0117 86.5773 11.0813 86.2624C11.1526 85.9459 11.1998 85.544 11.223 85.0568L11.3324 82.9091H14.3551V87.4531H14.9418V89.223H14.3551V88H10.7656V89.233H10.179ZM11.2429 87.4531H13.7685V83.456H11.8892L11.8097 85.0568C11.7898 85.428 11.755 85.7644 11.7053 86.0661C11.6555 86.366 11.5917 86.632 11.5138 86.864C11.436 87.0943 11.3456 87.2907 11.2429 87.4531ZM17.2549 88.0795C16.9102 88.0795 16.6078 87.9975 16.3476 87.8335C16.0891 87.6694 15.8869 87.4399 15.7411 87.1449C15.5969 86.8499 15.5248 86.5052 15.5248 86.1108C15.5248 85.7131 15.5969 85.3659 15.7411 85.0692C15.8869 84.7726 16.0891 84.5423 16.3476 84.3782C16.6078 84.2141 16.9102 84.1321 17.2549 84.1321C17.5996 84.1321 17.9012 84.2141 18.1597 84.3782C18.4199 84.5423 18.6221 84.7726 18.7663 85.0692C18.9121 85.3659 18.985 85.7131 18.985 86.1108C18.985 86.5052 18.9121 86.8499 18.7663 87.1449C18.6221 87.4399 18.4199 87.6694 18.1597 87.8335C17.9012 87.9975 17.5996 88.0795 17.2549 88.0795ZM17.2549 87.5526C17.5167 87.5526 17.7322 87.4854 17.9012 87.3512C18.0702 87.217 18.1954 87.0405 18.2766 86.8217C18.3578 86.603 18.3984 86.366 18.3984 86.1108C18.3984 85.8556 18.3578 85.6178 18.2766 85.3974C18.1954 85.177 18.0702 84.9988 17.9012 84.8629C17.7322 84.727 17.5167 84.6591 17.2549 84.6591C16.9931 84.6591 16.7776 84.727 16.6086 84.8629C16.4396 84.9988 16.3144 85.177 16.2332 85.3974C16.152 85.6178 16.1114 85.8556 16.1114 86.1108C16.1114 86.366 16.152 86.603 16.2332 86.8217C16.3144 87.0405 16.4396 87.217 16.6086 87.3512C16.7776 87.4854 16.9931 87.5526 17.2549 87.5526ZM19.7905 88V84.1818H22.7934V88H22.2067V84.7287H20.3772V88H19.7905ZM25.3259 88.0795C24.9812 88.0795 24.6787 87.9975 24.4186 87.8335C24.16 87.6694 23.9579 87.4399 23.812 87.1449C23.6679 86.8499 23.5958 86.5052 23.5958 86.1108C23.5958 85.7131 23.6679 85.3659 23.812 85.0692C23.9579 84.7726 24.16 84.5423 24.4186 84.3782C24.6787 84.2141 24.9812 84.1321 25.3259 84.1321C25.6706 84.1321 25.9722 84.2141 26.2307 84.3782C26.4909 84.5423 26.6931 84.7726 26.8372 85.0692C26.9831 85.3659 27.056 85.7131 27.056 86.1108C27.056 86.5052 26.9831 86.8499 26.8372 87.1449C26.6931 87.4399 26.4909 87.6694 26.2307 87.8335C25.9722 87.9975 25.6706 88.0795 25.3259 88.0795ZM25.3259 87.5526C25.5877 87.5526 25.8032 87.4854 25.9722 87.3512C26.1412 87.217 26.2663 87.0405 26.3475 86.8217C26.4287 86.603 26.4693 86.366 26.4693 86.1108C26.4693 85.8556 26.4287 85.6178 26.3475 85.3974C26.2663 85.177 26.1412 84.9988 25.9722 84.8629C25.8032 84.727 25.5877 84.6591 25.3259 84.6591C25.064 84.6591 24.8486 84.727 24.6796 84.8629C24.5105 84.9988 24.3854 85.177 24.3042 85.3974C24.223 85.6178 24.1824 85.8556 24.1824 86.1108C24.1824 86.366 24.223 86.603 24.3042 86.8217C24.3854 87.0405 24.5105 87.217 24.6796 87.3512C24.8486 87.4854 25.064 87.5526 25.3259 87.5526ZM27.5234 88V87.4531H27.6626C27.777 87.4531 27.8723 87.4308 27.9485 87.386C28.0247 87.3396 28.0861 87.2592 28.1325 87.1449C28.1805 87.0289 28.217 86.8681 28.2418 86.6626C28.2683 86.4555 28.2874 86.192 28.299 85.8722L28.3686 84.1818H30.9141V88H30.3274V84.7287H28.9254L28.8658 86.0909C28.8525 86.4041 28.8243 86.68 28.7812 86.9187C28.7398 87.1557 28.676 87.3545 28.5898 87.5153C28.5053 87.676 28.3926 87.797 28.2518 87.8782C28.1109 87.9594 27.9344 88 27.7223 88H27.5234ZM34.4558 85.8224V86.3693H32.3479V85.8224H34.4558ZM32.4871 84.1818V88H31.9004V84.1818H32.4871ZM34.9032 84.1818V88H34.3166V84.1818H34.9032ZM36.4713 87.1349L38.3108 84.1818H38.9869V88H38.4003V85.0469L36.5707 88H35.8846V84.1818H36.4713V87.1349ZM39.4519 84.7287V84.1818H42.5541V84.7287H41.3013V88H40.7146V84.7287H39.4519ZM44.7225 88.0795C44.3546 88.0795 44.0372 87.9983 43.7704 87.8359C43.5053 87.6719 43.3006 87.4432 43.1564 87.1499C43.0139 86.8549 42.9426 86.5118 42.9426 86.1207C42.9426 85.7296 43.0139 85.3849 43.1564 85.0866C43.3006 84.7867 43.5011 84.553 43.758 84.3857C44.0165 84.2166 44.3181 84.1321 44.6628 84.1321C44.8617 84.1321 45.0581 84.1652 45.2519 84.2315C45.4458 84.2978 45.6223 84.4055 45.7814 84.5547C45.9405 84.7022 46.0673 84.8977 46.1617 85.1413C46.2562 85.3849 46.3034 85.6849 46.3034 86.0412V86.2898H43.3603V85.7827H45.7068C45.7068 85.5672 45.6638 85.375 45.5776 85.206C45.4931 85.0369 45.3721 84.9035 45.2147 84.8058C45.0589 84.708 44.8749 84.6591 44.6628 84.6591C44.4291 84.6591 44.227 84.7171 44.0563 84.8331C43.8872 84.9474 43.7572 85.0966 43.666 85.2805C43.5749 85.4645 43.5293 85.6617 43.5293 85.8722V86.2102C43.5293 86.4986 43.579 86.743 43.6784 86.9435C43.7795 87.1424 43.9196 87.294 44.0985 87.3984C44.2775 87.5012 44.4855 87.5526 44.7225 87.5526C44.8766 87.5526 45.0158 87.531 45.1401 87.4879C45.266 87.4432 45.3746 87.3769 45.4657 87.2891C45.5569 87.1996 45.6273 87.0885 45.677 86.956L46.2438 87.1151C46.1841 87.3073 46.0839 87.4763 45.943 87.6222C45.8021 87.7663 45.6281 87.879 45.421 87.9602C45.2138 88.0398 44.981 88.0795 44.7225 88.0795ZM46.7678 88V87.4531H46.907C47.0213 87.4531 47.1166 87.4308 47.1928 87.386C47.2691 87.3396 47.3304 87.2592 47.3768 87.1449C47.4248 87.0289 47.4613 86.8681 47.4862 86.6626C47.5127 86.4555 47.5317 86.192 47.5433 85.8722L47.6129 84.1818H50.1584V88H49.5717V84.7287H48.1698L48.1101 86.0909C48.0968 86.4041 48.0687 86.68 48.0256 86.9187C47.9842 87.1557 47.9203 87.3545 47.8342 87.5153C47.7497 87.676 47.637 87.797 47.4961 87.8782C47.3552 87.9594 47.1788 88 46.9666 88H46.7678ZM51.6518 85.5639H52.7456C53.193 85.5639 53.5352 85.6774 53.7722 85.9045C54.0092 86.1315 54.1277 86.419 54.1277 86.767C54.1277 86.9957 54.0747 87.2037 53.9686 87.391C53.8625 87.5766 53.7068 87.7249 53.5013 87.8359C53.2958 87.9453 53.0439 88 52.7456 88H51.1447V84.1818H51.7314V87.4531H52.7456C52.9776 87.4531 53.1682 87.3918 53.3173 87.2692C53.4665 87.1465 53.541 86.9891 53.541 86.7969C53.541 86.5947 53.4665 86.4298 53.3173 86.3022C53.1682 86.1746 52.9776 86.1108 52.7456 86.1108H51.6518V85.5639ZM57.4861 85.8224V86.3693H55.3782V85.8224H57.4861ZM55.5174 84.1818V88H54.9307V84.1818H55.5174ZM57.9336 84.1818V88H57.3469V84.1818H57.9336ZM60.0385 88.0895C59.7966 88.0895 59.577 88.0439 59.3798 87.9528C59.1826 87.86 59.026 87.7266 58.91 87.5526C58.794 87.3769 58.736 87.1648 58.736 86.9162C58.736 86.6974 58.779 86.5201 58.8652 86.3842C58.9514 86.2467 59.0666 86.139 59.2107 86.0611C59.3549 85.9832 59.514 85.9252 59.688 85.8871C59.8637 85.8473 60.0402 85.8158 60.2175 85.7926C60.4495 85.7628 60.6376 85.7404 60.7818 85.7255C60.9276 85.7089 61.0337 85.6816 61.1 85.6435C61.1679 85.6054 61.2019 85.5391 61.2019 85.4446V85.4247C61.2019 85.1795 61.1348 84.9889 61.0005 84.853C60.8679 84.7171 60.6666 84.6491 60.3965 84.6491C60.1164 84.6491 59.8968 84.7105 59.7377 84.8331C59.5786 84.9557 59.4668 85.0866 59.4022 85.2259L58.8453 85.027C58.9448 84.795 59.0773 84.6143 59.2431 84.4851C59.4104 84.3542 59.5927 84.263 59.7899 84.2116C59.9888 84.1586 60.1844 84.1321 60.3766 84.1321C60.4992 84.1321 60.6401 84.147 60.7992 84.1768C60.9599 84.205 61.1149 84.2638 61.264 84.3533C61.4148 84.4428 61.5399 84.5779 61.6394 84.7585C61.7388 84.9392 61.7885 85.1811 61.7885 85.4844V88H61.2019V87.483H61.172C61.1323 87.5658 61.066 87.6545 60.9732 87.7489C60.8804 87.8434 60.7569 87.9238 60.6028 87.9901C60.4487 88.0563 60.2606 88.0895 60.0385 88.0895ZM60.128 87.5625C60.36 87.5625 60.5556 87.5169 60.7147 87.4258C60.8754 87.3346 60.9964 87.217 61.0776 87.0728C61.1604 86.9286 61.2019 86.777 61.2019 86.6179V86.081C61.177 86.1108 61.1223 86.1381 61.0378 86.163C60.9549 86.1862 60.8588 86.2069 60.7495 86.2251C60.6417 86.2417 60.5365 86.2566 60.4338 86.2699C60.3327 86.2815 60.2506 86.2914 60.1877 86.2997C60.0352 86.3196 59.8927 86.3519 59.7601 86.3967C59.6292 86.4397 59.5231 86.5052 59.4419 86.593C59.3624 86.6792 59.3226 86.7969 59.3226 86.946C59.3226 87.1499 59.398 87.304 59.5488 87.4084C59.7013 87.5111 59.8943 87.5625 60.128 87.5625ZM65.0662 88V84.7188H64.0519C63.8233 84.7188 63.6434 84.7718 63.5125 84.8778C63.3816 84.9839 63.3162 85.1297 63.3162 85.3153C63.3162 85.4976 63.375 85.641 63.4926 85.7454C63.612 85.8498 63.7752 85.902 63.9823 85.902H65.2153V86.4489H63.9823C63.7238 86.4489 63.5009 86.4033 63.3137 86.3121C63.1264 86.221 62.9822 86.0909 62.8811 85.9219C62.78 85.7512 62.7295 85.549 62.7295 85.3153C62.7295 85.08 62.7825 84.8778 62.8886 84.7088C62.9947 84.5398 63.1463 84.4097 63.3435 84.3185C63.5424 84.2274 63.7785 84.1818 64.0519 84.1818H65.623V88H65.0662ZM62.5207 88L63.6045 86.1009H64.2409L63.1571 88H62.5207ZM69.0753 87.1349L70.9148 84.1818H71.591V88H71.0043V85.0469L69.1748 88H68.4887V84.1818H69.0753V87.1349ZM75.1308 85.8224V86.3693H73.0229V85.8224H75.1308ZM73.1621 84.1818V88H72.5754V84.1818H73.1621ZM75.5783 84.1818V88H74.9916V84.1818H75.5783ZM78.1108 89.3026V82.9091H78.6975V89.3026H78.1108ZM78.1108 88.0795C77.8523 88.0795 77.617 88.0331 77.4048 87.9403C77.1927 87.8459 77.0104 87.7125 76.858 87.5401C76.7055 87.3661 76.5878 87.1581 76.505 86.9162C76.4221 86.6742 76.3807 86.4058 76.3807 86.1108C76.3807 85.8125 76.4221 85.5424 76.505 85.3004C76.5878 85.0568 76.7055 84.848 76.858 84.674C77.0104 84.5 77.1927 84.3666 77.4048 84.2738C77.617 84.1793 77.8523 84.1321 78.1108 84.1321H78.2898V88.0795H78.1108ZM78.1108 87.5526H78.2102V84.6591H78.1108C77.9153 84.6591 77.7454 84.6989 77.6012 84.7784C77.457 84.8563 77.3377 84.9632 77.2433 85.0991C77.1505 85.2333 77.0809 85.3874 77.0345 85.5614C76.9897 85.7354 76.9673 85.9186 76.9673 86.1108C76.9673 86.366 77.0079 86.603 77.0891 86.8217C77.1703 87.0405 77.2955 87.217 77.4645 87.3512C77.6335 87.4854 77.849 87.5526 78.1108 87.5526ZM78.6975 88.0795H78.5185V84.1321H78.6975C78.956 84.1321 79.1913 84.1793 79.4034 84.2738C79.6155 84.3666 79.7978 84.5 79.9503 84.674C80.1028 84.848 80.2204 85.0568 80.3033 85.3004C80.3861 85.5424 80.4276 85.8125 80.4276 86.1108C80.4276 86.4058 80.3861 86.6742 80.3033 86.9162C80.2204 87.1581 80.1028 87.3661 79.9503 87.5401C79.7978 87.7125 79.6155 87.8459 79.4034 87.9403C79.1913 88.0331 78.956 88.0795 78.6975 88.0795ZM78.6975 87.5526C78.8947 87.5526 79.0645 87.5144 79.207 87.4382C79.3512 87.3603 79.4697 87.2543 79.5625 87.12C79.657 86.9841 79.7266 86.83 79.7713 86.6577C79.8177 86.4837 79.8409 86.3014 79.8409 86.1108C79.8409 85.8556 79.8003 85.6178 79.7191 85.3974C79.6379 85.177 79.5128 84.9988 79.3438 84.8629C79.1747 84.727 78.9593 84.6591 78.6975 84.6591H78.598V87.5526H78.6975ZM82.7854 88.0795C82.4408 88.0795 82.1383 87.9975 81.8781 87.8335C81.6196 87.6694 81.4174 87.4399 81.2716 87.1449C81.1274 86.8499 81.0553 86.5052 81.0553 86.1108C81.0553 85.7131 81.1274 85.3659 81.2716 85.0692C81.4174 84.7726 81.6196 84.5423 81.8781 84.3782C82.1383 84.2141 82.4408 84.1321 82.7854 84.1321C83.1301 84.1321 83.4318 84.2141 83.6903 84.3782C83.9505 84.5423 84.1526 84.7726 84.2968 85.0692C84.4426 85.3659 84.5156 85.7131 84.5156 86.1108C84.5156 86.5052 84.4426 86.8499 84.2968 87.1449C84.1526 87.4399 83.9505 87.6694 83.6903 87.8335C83.4318 87.9975 83.1301 88.0795 82.7854 88.0795ZM82.7854 87.5526C83.0473 87.5526 83.2627 87.4854 83.4318 87.3512C83.6008 87.217 83.7259 87.0405 83.8071 86.8217C83.8883 86.603 83.9289 86.366 83.9289 86.1108C83.9289 85.8556 83.8883 85.6178 83.8071 85.3974C83.7259 85.177 83.6008 84.9988 83.4318 84.8629C83.2627 84.727 83.0473 84.6591 82.7854 84.6591C82.5236 84.6591 82.3082 84.727 82.1391 84.8629C81.9701 84.9988 81.845 85.177 81.7638 85.3974C81.6826 85.6178 81.642 85.8556 81.642 86.1108C81.642 86.366 81.6826 86.603 81.7638 86.8217C81.845 87.0405 81.9701 87.217 82.1391 87.3512C82.3082 87.4854 82.5236 87.5526 82.7854 87.5526ZM85.3211 89.4318V84.1818H85.8878V84.7884H85.9574C86.0005 84.7221 86.0602 84.6375 86.1364 84.5348C86.2143 84.4304 86.3253 84.3376 86.4695 84.2564C86.6153 84.1735 86.8126 84.1321 87.0611 84.1321C87.3826 84.1321 87.666 84.2125 87.9113 84.3732C88.1565 84.534 88.3479 84.7618 88.4855 85.0568C88.623 85.3518 88.6918 85.6998 88.6918 86.1009C88.6918 86.5052 88.623 86.8557 88.4855 87.1523C88.3479 87.4473 88.1574 87.676 87.9138 87.8384C87.6702 87.9992 87.3893 88.0795 87.0711 88.0795C86.8258 88.0795 86.6294 88.0389 86.4819 87.9577C86.3344 87.8749 86.2209 87.7812 86.1414 87.6768C86.0618 87.5708 86.0005 87.483 85.9574 87.4134H85.9077V89.4318H85.3211ZM85.8978 86.0909C85.8978 86.3793 85.94 86.6336 86.0246 86.854C86.1091 87.0728 86.2325 87.2443 86.3949 87.3686C86.5573 87.4912 86.7562 87.5526 86.9915 87.5526C87.2368 87.5526 87.4415 87.4879 87.6055 87.3587C87.7712 87.2277 87.8955 87.0521 87.9784 86.8317C88.0629 86.6096 88.1052 86.3627 88.1052 86.0909C88.1052 85.8224 88.0637 85.5805 87.9809 85.3651C87.8997 85.148 87.7762 84.9764 87.6105 84.8505C87.4464 84.7229 87.2401 84.6591 86.9915 84.6591C86.7529 84.6591 86.5524 84.7196 86.39 84.8406C86.2276 84.9599 86.1049 85.1272 86.0221 85.3427C85.9392 85.5565 85.8978 85.8059 85.8978 86.0909ZM91.5848 87.2045L92.9171 84.1818H93.474L91.8234 88H91.3461L89.7254 84.1818H90.2723L91.5848 87.2045ZM90.0833 84.1818V88H89.4967V84.1818H90.0833ZM93.0862 88V84.1818H93.6728V88H93.0862ZM95.7803 88.0895C95.5383 88.0895 95.3187 88.0439 95.1215 87.9528C94.9243 87.86 94.7677 87.7266 94.6517 87.5526C94.5357 87.3769 94.4777 87.1648 94.4777 86.9162C94.4777 86.6974 94.5208 86.5201 94.607 86.3842C94.6932 86.2467 94.8083 86.139 94.9525 86.0611C95.0967 85.9832 95.2558 85.9252 95.4298 85.8871C95.6054 85.8473 95.7819 85.8158 95.9593 85.7926C96.1913 85.7628 96.3794 85.7404 96.5235 85.7255C96.6694 85.7089 96.7754 85.6816 96.8417 85.6435C96.9097 85.6054 96.9436 85.5391 96.9436 85.4446V85.4247C96.9436 85.1795 96.8765 84.9889 96.7423 84.853C96.6097 84.7171 96.4084 84.6491 96.1382 84.6491C95.8582 84.6491 95.6386 84.7105 95.4795 84.8331C95.3204 84.9557 95.2085 85.0866 95.1439 85.2259L94.5871 85.027C94.6865 84.795 94.8191 84.6143 94.9848 84.4851C95.1522 84.3542 95.3345 84.263 95.5317 84.2116C95.7306 84.1586 95.9261 84.1321 96.1183 84.1321C96.241 84.1321 96.3818 84.147 96.5409 84.1768C96.7017 84.205 96.8566 84.2638 97.0058 84.3533C97.1566 84.4428 97.2817 84.5779 97.3811 84.7585C97.4806 84.9392 97.5303 85.1811 97.5303 85.4844V88H96.9436V87.483H96.9138C96.874 87.5658 96.8077 87.6545 96.7149 87.7489C96.6221 87.8434 96.4987 87.9238 96.3446 87.9901C96.1904 88.0563 96.0023 88.0895 95.7803 88.0895ZM95.8698 87.5625C96.1018 87.5625 96.2973 87.5169 96.4564 87.4258C96.6172 87.3346 96.7381 87.217 96.8193 87.0728C96.9022 86.9286 96.9436 86.777 96.9436 86.6179V86.081C96.9188 86.1108 96.8641 86.1381 96.7796 86.163C96.6967 86.1862 96.6006 86.2069 96.4912 86.2251C96.3835 86.2417 96.2783 86.2566 96.1755 86.2699C96.0744 86.2815 95.9924 86.2914 95.9294 86.2997C95.777 86.3196 95.6344 86.3519 95.5019 86.3967C95.3709 86.4397 95.2649 86.5052 95.1837 86.593C95.1041 86.6792 95.0644 86.7969 95.0644 86.946C95.0644 87.1499 95.1398 87.304 95.2906 87.4084C95.443 87.5111 95.6361 87.5625 95.8698 87.5625ZM101.514 84.1818V87.4531H102.051V89.233H101.464V88H98.511V84.1818H99.0977V87.4531H100.927V84.1818H101.514ZM103.451 87.1349L105.291 84.1818H105.967V88H105.38V85.0469L103.55 88H102.864V84.1818H103.451V87.1349ZM109.248 88V84.7188H108.234C108.005 84.7188 107.825 84.7718 107.694 84.8778C107.563 84.9839 107.498 85.1297 107.498 85.3153C107.498 85.4976 107.557 85.641 107.675 85.7454C107.794 85.8498 107.957 85.902 108.164 85.902H109.397V86.4489H108.164C107.906 86.4489 107.683 86.4033 107.496 86.3121C107.308 86.221 107.164 86.0909 107.063 85.9219C106.962 85.7512 106.911 85.549 106.911 85.3153C106.911 85.08 106.964 84.8778 107.07 84.7088C107.177 84.5398 107.328 84.4097 107.525 84.3185C107.724 84.2274 107.96 84.1818 108.234 84.1818H109.805V88H109.248ZM106.703 88L107.786 86.1009H108.423L107.339 88H106.703ZM114.222 88.0795C113.877 88.0795 113.575 87.9975 113.314 87.8335C113.056 87.6694 112.854 87.4399 112.708 87.1449C112.564 86.8499 112.492 86.5052 112.492 86.1108C112.492 85.7131 112.564 85.3659 112.708 85.0692C112.854 84.7726 113.056 84.5423 113.314 84.3782C113.575 84.2141 113.877 84.1321 114.222 84.1321C114.566 84.1321 114.868 84.2141 115.127 84.3782C115.387 84.5423 115.589 84.7726 115.733 85.0692C115.879 85.3659 115.952 85.7131 115.952 86.1108C115.952 86.5052 115.879 86.8499 115.733 87.1449C115.589 87.4399 115.387 87.6694 115.127 87.8335C114.868 87.9975 114.566 88.0795 114.222 88.0795ZM114.222 87.5526C114.484 87.5526 114.699 87.4854 114.868 87.3512C115.037 87.217 115.162 87.0405 115.243 86.8217C115.325 86.603 115.365 86.366 115.365 86.1108C115.365 85.8556 115.325 85.6178 115.243 85.3974C115.162 85.177 115.037 84.9988 114.868 84.8629C114.699 84.727 114.484 84.6591 114.222 84.6591C113.96 84.6591 113.744 84.727 113.575 84.8629C113.406 84.9988 113.281 85.177 113.2 85.3974C113.119 85.6178 113.078 85.8556 113.078 86.1108C113.078 86.366 113.119 86.603 113.2 86.8217C113.281 87.0405 113.406 87.217 113.575 87.3512C113.744 87.4854 113.96 87.5526 114.222 87.5526ZM118.636 89.4318V84.1818H119.203V84.7884H119.272C119.316 84.7221 119.375 84.6375 119.451 84.5348C119.529 84.4304 119.64 84.3376 119.785 84.2564C119.93 84.1735 120.128 84.1321 120.376 84.1321C120.698 84.1321 120.981 84.2125 121.226 84.3732C121.472 84.534 121.663 84.7618 121.8 85.0568C121.938 85.3518 122.007 85.6998 122.007 86.1009C122.007 86.5052 121.938 86.8557 121.8 87.1523C121.663 87.4473 121.472 87.676 121.229 87.8384C120.985 87.9992 120.704 88.0795 120.386 88.0795C120.141 88.0795 119.944 88.0389 119.797 87.9577C119.649 87.8749 119.536 87.7812 119.456 87.6768C119.377 87.5708 119.316 87.483 119.272 87.4134H119.223V89.4318H118.636ZM119.213 86.0909C119.213 86.3793 119.255 86.6336 119.34 86.854C119.424 87.0728 119.548 87.2443 119.71 87.3686C119.872 87.4912 120.071 87.5526 120.307 87.5526C120.552 87.5526 120.756 87.4879 120.921 87.3587C121.086 87.2277 121.211 87.0521 121.293 86.8317C121.378 86.6096 121.42 86.3627 121.42 86.0909C121.42 85.8224 121.379 85.5805 121.296 85.3651C121.215 85.148 121.091 84.9764 120.925 84.8505C120.761 84.7229 120.555 84.6591 120.307 84.6591C120.068 84.6591 119.867 84.7196 119.705 84.8406C119.543 84.9599 119.42 85.1272 119.337 85.3427C119.254 85.5565 119.213 85.8059 119.213 86.0909ZM124.413 88.0795C124.045 88.0795 123.727 87.9983 123.46 87.8359C123.195 87.6719 122.991 87.4432 122.846 87.1499C122.704 86.8549 122.633 86.5118 122.633 86.1207C122.633 85.7296 122.704 85.3849 122.846 85.0866C122.991 84.7867 123.191 84.553 123.448 84.3857C123.707 84.2166 124.008 84.1321 124.353 84.1321C124.552 84.1321 124.748 84.1652 124.942 84.2315C125.136 84.2978 125.312 84.4055 125.471 84.5547C125.631 84.7022 125.757 84.8977 125.852 85.1413C125.946 85.3849 125.994 85.6849 125.994 86.0412V86.2898H123.05V85.7827H125.397C125.397 85.5672 125.354 85.375 125.268 85.206C125.183 85.0369 125.062 84.9035 124.905 84.8058C124.749 84.708 124.565 84.6591 124.353 84.6591C124.119 84.6591 123.917 84.7171 123.746 84.8331C123.577 84.9474 123.447 85.0966 123.356 85.2805C123.265 85.4645 123.219 85.6617 123.219 85.8722V86.2102C123.219 86.4986 123.269 86.743 123.369 86.9435C123.47 87.1424 123.61 87.294 123.789 87.3984C123.968 87.5012 124.176 87.5526 124.413 87.5526C124.567 87.5526 124.706 87.531 124.83 87.4879C124.956 87.4432 125.065 87.3769 125.156 87.2891C125.247 87.1996 125.317 87.0885 125.367 86.956L125.934 87.1151C125.874 87.3073 125.774 87.4763 125.633 87.6222C125.492 87.7663 125.318 87.879 125.111 87.9602C124.904 88.0398 124.671 88.0795 124.413 88.0795ZM129.152 84.1818V84.7287H127.383V88H126.796V84.1818H129.152ZM130.505 87.1349L132.345 84.1818H133.021V88H132.434V85.0469L130.605 88H129.919V84.1818H130.505V87.1349ZM135.557 88.0795C135.199 88.0795 134.891 87.995 134.632 87.826C134.373 87.657 134.175 87.4241 134.035 87.1275C133.896 86.8308 133.827 86.492 133.827 86.1108C133.827 85.723 133.898 85.3808 134.04 85.0842C134.185 84.7859 134.385 84.553 134.642 84.3857C134.9 84.2166 135.202 84.1321 135.547 84.1321C135.815 84.1321 136.057 84.1818 136.273 84.2812C136.488 84.3807 136.665 84.5199 136.802 84.6989C136.94 84.8778 137.025 85.0866 137.058 85.3253H136.471C136.427 85.1513 136.327 84.9972 136.173 84.8629C136.021 84.727 135.815 84.6591 135.557 84.6591C135.328 84.6591 135.127 84.7187 134.955 84.8381C134.784 84.9557 134.651 85.1223 134.555 85.3377C134.46 85.5515 134.413 85.8026 134.413 86.0909C134.413 86.3859 134.46 86.6428 134.552 86.8615C134.647 87.0803 134.779 87.2501 134.95 87.3711C135.123 87.4921 135.325 87.5526 135.557 87.5526C135.709 87.5526 135.848 87.526 135.972 87.473C136.096 87.42 136.201 87.3438 136.288 87.2443C136.374 87.1449 136.435 87.0256 136.471 86.8864H137.058C137.025 87.1117 136.943 87.3147 136.812 87.4954C136.683 87.6744 136.511 87.8169 136.297 87.9229C136.085 88.0273 135.838 88.0795 135.557 88.0795ZM137.525 84.7287V84.1818H140.627V84.7287H139.374V88H138.788V84.7287H137.525ZM141.393 89.4318V84.1818H141.96V84.7884H142.029C142.072 84.7221 142.132 84.6375 142.208 84.5348C142.286 84.4304 142.397 84.3376 142.541 84.2564C142.687 84.1735 142.884 84.1321 143.133 84.1321C143.455 84.1321 143.738 84.2125 143.983 84.3732C144.228 84.534 144.42 84.7618 144.557 85.0568C144.695 85.3518 144.764 85.6998 144.764 86.1009C144.764 86.5052 144.695 86.8557 144.557 87.1523C144.42 87.4473 144.229 87.676 143.986 87.8384C143.742 87.9992 143.461 88.0795 143.143 88.0795C142.898 88.0795 142.701 88.0389 142.554 87.9577C142.406 87.8749 142.293 87.7812 142.213 87.6768C142.134 87.5708 142.072 87.483 142.029 87.4134H141.98V89.4318H141.393ZM141.97 86.0909C141.97 86.3793 142.012 86.6336 142.096 86.854C142.181 87.0728 142.304 87.2443 142.467 87.3686C142.629 87.4912 142.828 87.5526 143.063 87.5526C143.309 87.5526 143.513 87.4879 143.677 87.3587C143.843 87.2277 143.967 87.0521 144.05 86.8317C144.135 86.6096 144.177 86.3627 144.177 86.0909C144.177 85.8224 144.136 85.5805 144.053 85.3651C143.972 85.148 143.848 84.9764 143.682 84.8505C143.518 84.7229 143.312 84.6591 143.063 84.6591C142.825 84.6591 142.624 84.7196 142.462 84.8406C142.299 84.9599 142.177 85.1272 142.094 85.3427C142.011 85.5565 141.97 85.8059 141.97 86.0909ZM146.692 88.0895C146.45 88.0895 146.231 88.0439 146.033 87.9528C145.836 87.86 145.68 87.7266 145.564 87.5526C145.448 87.3769 145.39 87.1648 145.39 86.9162C145.39 86.6974 145.433 86.5201 145.519 86.3842C145.605 86.2467 145.72 86.139 145.864 86.0611C146.009 85.9832 146.168 85.9252 146.342 85.8871C146.517 85.8473 146.694 85.8158 146.871 85.7926C147.103 85.7628 147.291 85.7404 147.435 85.7255C147.581 85.7089 147.687 85.6816 147.754 85.6435C147.822 85.6054 147.856 85.5391 147.856 85.4446V85.4247C147.856 85.1795 147.788 84.9889 147.654 84.853C147.522 84.7171 147.32 84.6491 147.05 84.6491C146.77 84.6491 146.55 84.7105 146.391 84.8331C146.232 84.9557 146.12 85.0866 146.056 85.2259L145.499 85.027C145.598 84.795 145.731 84.6143 145.897 84.4851C146.064 84.3542 146.246 84.263 146.444 84.2116C146.642 84.1586 146.838 84.1321 147.03 84.1321C147.153 84.1321 147.294 84.147 147.453 84.1768C147.614 84.205 147.769 84.2638 147.918 84.3533C148.068 84.4428 148.194 84.5779 148.293 84.7585C148.392 84.9392 148.442 85.1811 148.442 85.4844V88H147.856V87.483H147.826C147.786 87.5658 147.72 87.6545 147.627 87.7489C147.534 87.8434 147.411 87.9238 147.256 87.9901C147.102 88.0563 146.914 88.0895 146.692 88.0895ZM146.782 87.5625C147.014 87.5625 147.209 87.5169 147.368 87.4258C147.529 87.3346 147.65 87.217 147.731 87.0728C147.814 86.9286 147.856 86.777 147.856 86.6179V86.081C147.831 86.1108 147.776 86.1381 147.691 86.163C147.609 86.1862 147.512 86.2069 147.403 86.2251C147.295 86.2417 147.19 86.2566 147.087 86.2699C146.986 86.2815 146.904 86.2914 146.841 86.2997C146.689 86.3196 146.546 86.3519 146.414 86.3967C146.283 86.4397 146.177 86.5052 146.096 86.593C146.016 86.6792 145.976 86.7969 145.976 86.946C145.976 87.1499 146.052 87.304 146.202 87.4084C146.355 87.5111 146.548 87.5625 146.782 87.5625ZM152.426 84.1818V87.4531H152.963V89.233H152.376V88H149.423V84.1818H150.01V87.4531H151.839V84.1818H152.426ZM154.363 87.1349L156.202 84.1818H156.879V88H156.292V85.0469L154.462 88H153.776V84.1818H154.363V87.1349ZM158.45 87.1349L160.289 84.1818H160.965V88H160.379V85.0469L158.549 88H157.863V84.1818H158.45V87.1349Z" fill="#364146"/>
<path d="M10 200C10 196.686 12.6863 194 16 194H170C173.314 194 176 196.686 176 200V208.5C176 211.814 173.314 214.5 170 214.5H16C12.6863 214.5 10 211.814 10 208.5V200Z" fill="#D3E4FF"/>
<path d="M60.7055 207.07C60.3774 207.07 60.0849 207.013 59.828 206.901C59.5728 206.788 59.3698 206.631 59.219 206.431C59.0699 206.229 58.9887 205.994 58.9754 205.727H59.6018C59.6151 205.891 59.6714 206.033 59.7709 206.152C59.8703 206.27 60.0004 206.361 60.1611 206.426C60.3219 206.49 60.5 206.523 60.6956 206.523C60.9143 206.523 61.1082 206.485 61.2773 206.408C61.4463 206.332 61.5789 206.226 61.675 206.09C61.7711 205.954 61.8192 205.797 61.8192 205.618C61.8192 205.431 61.7728 205.266 61.6799 205.123C61.5871 204.979 61.4513 204.866 61.2723 204.785C61.0933 204.704 60.8746 204.663 60.616 204.663H60.2084V204.116H60.616C60.8182 204.116 60.9955 204.08 61.148 204.007C61.3021 203.934 61.4223 203.831 61.5084 203.699C61.5963 203.566 61.6402 203.411 61.6402 203.232C61.6402 203.059 61.6021 202.909 61.5258 202.782C61.4496 202.654 61.3419 202.555 61.2027 202.483C61.0651 202.412 60.9027 202.376 60.7155 202.376C60.5398 202.376 60.3741 202.409 60.2183 202.473C60.0642 202.536 59.9382 202.628 59.8405 202.749C59.7427 202.869 59.6897 203.013 59.6814 203.182H59.0848C59.0947 202.915 59.1751 202.681 59.3259 202.481C59.4767 202.279 59.6739 202.121 59.9175 202.009C60.1628 201.896 60.4321 201.839 60.7254 201.839C61.0403 201.839 61.3104 201.903 61.5358 202.031C61.7612 202.157 61.9343 202.323 62.0553 202.531C62.1763 202.738 62.2368 202.961 62.2368 203.202C62.2368 203.488 62.1614 203.733 62.0106 203.935C61.8614 204.137 61.6584 204.277 61.4015 204.355V204.395C61.723 204.448 61.9741 204.585 62.1547 204.805C62.3354 205.024 62.4257 205.295 62.4257 205.618C62.4257 205.895 62.3503 206.143 62.1995 206.364C62.0503 206.582 61.8465 206.755 61.588 206.881C61.3295 207.007 61.0353 207.07 60.7055 207.07ZM64.4859 207.089C64.244 207.089 64.0244 207.044 63.8272 206.953C63.63 206.86 63.4734 206.727 63.3574 206.553C63.2413 206.377 63.1833 206.165 63.1833 205.916C63.1833 205.697 63.2264 205.52 63.3126 205.384C63.3988 205.247 63.514 205.139 63.6581 205.061C63.8023 204.983 63.9614 204.925 64.1354 204.887C64.3111 204.847 64.4876 204.816 64.6649 204.793C64.8969 204.763 65.085 204.74 65.2292 204.725C65.375 204.709 65.481 204.682 65.5473 204.643C65.6153 204.605 65.6493 204.539 65.6493 204.445V204.425C65.6493 204.179 65.5821 203.989 65.4479 203.853C65.3153 203.717 65.114 203.649 64.8439 203.649C64.5638 203.649 64.3442 203.71 64.1851 203.833C64.026 203.956 63.9142 204.087 63.8495 204.226L63.2927 204.027C63.3922 203.795 63.5247 203.614 63.6904 203.485C63.8578 203.354 64.0401 203.263 64.2373 203.212C64.4362 203.159 64.6317 203.132 64.824 203.132C64.9466 203.132 65.0875 203.147 65.2466 203.177C65.4073 203.205 65.5623 203.264 65.7114 203.353C65.8622 203.443 65.9873 203.578 66.0868 203.759C66.1862 203.939 66.2359 204.181 66.2359 204.484V207H65.6493V206.483H65.6194C65.5797 206.566 65.5134 206.654 65.4206 206.749C65.3278 206.843 65.2043 206.924 65.0502 206.99C64.8961 207.056 64.708 207.089 64.4859 207.089ZM64.5754 206.562C64.8074 206.562 65.0029 206.517 65.162 206.426C65.3228 206.335 65.4438 206.217 65.525 206.073C65.6078 205.929 65.6493 205.777 65.6493 205.618V205.081C65.6244 205.111 65.5697 205.138 65.4852 205.163C65.4023 205.186 65.3062 205.207 65.1968 205.225C65.0891 205.242 64.9839 205.257 64.8811 205.27C64.7801 205.281 64.698 205.291 64.635 205.3C64.4826 205.32 64.3401 205.352 64.2075 205.397C64.0766 205.44 63.9705 205.505 63.8893 205.593C63.8098 205.679 63.77 205.797 63.77 205.946C63.77 206.15 63.8454 206.304 63.9962 206.408C64.1487 206.511 64.3417 206.562 64.5754 206.562ZM67.2167 208.432V203.182H67.7834V203.788H67.853C67.8961 203.722 67.9558 203.638 68.032 203.535C68.1099 203.43 68.2209 203.338 68.3651 203.256C68.5109 203.174 68.7081 203.132 68.9567 203.132C69.2782 203.132 69.5616 203.212 69.8069 203.373C70.0521 203.534 70.2435 203.762 70.3811 204.057C70.5186 204.352 70.5874 204.7 70.5874 205.101C70.5874 205.505 70.5186 205.856 70.3811 206.152C70.2435 206.447 70.053 206.676 69.8093 206.838C69.5657 206.999 69.2848 207.08 68.9667 207.08C68.7214 207.08 68.525 207.039 68.3775 206.958C68.23 206.875 68.1165 206.781 68.037 206.677C67.9574 206.571 67.8961 206.483 67.853 206.413H67.8033V208.432H67.2167ZM67.7934 205.091C67.7934 205.379 67.8356 205.634 67.9201 205.854C68.0047 206.073 68.1281 206.244 68.2905 206.369C68.4529 206.491 68.6518 206.553 68.8871 206.553C69.1324 206.553 69.337 206.488 69.5011 206.359C69.6668 206.228 69.7911 206.052 69.874 205.832C69.9585 205.61 70.0007 205.363 70.0007 205.091C70.0007 204.822 69.9593 204.58 69.8765 204.365C69.7953 204.148 69.6718 203.976 69.5061 203.85C69.342 203.723 69.1357 203.659 68.8871 203.659C68.6485 203.659 68.448 203.72 68.2855 203.841C68.1231 203.96 68.0005 204.127 67.9177 204.343C67.8348 204.556 67.7934 204.806 67.7934 205.091ZM72.9931 207.08C72.6252 207.08 72.3079 206.998 72.0411 206.836C71.7759 206.672 71.5713 206.443 71.4271 206.15C71.2846 205.855 71.2133 205.512 71.2133 205.121C71.2133 204.73 71.2846 204.385 71.4271 204.087C71.5713 203.787 71.7718 203.553 72.0286 203.386C72.2872 203.217 72.5888 203.132 72.9335 203.132C73.1323 203.132 73.3287 203.165 73.5226 203.232C73.7165 203.298 73.893 203.406 74.0521 203.555C74.2112 203.702 74.338 203.898 74.4324 204.141C74.5269 204.385 74.5741 204.685 74.5741 205.041V205.29H71.6309V204.783H73.9775C73.9775 204.567 73.9344 204.375 73.8482 204.206C73.7637 204.037 73.6428 203.904 73.4853 203.806C73.3295 203.708 73.1456 203.659 72.9335 203.659C72.6998 203.659 72.4976 203.717 72.3269 203.833C72.1579 203.947 72.0278 204.097 71.9367 204.281C71.8455 204.464 71.8 204.662 71.8 204.872V205.21C71.8 205.499 71.8497 205.743 71.9491 205.944C72.0502 206.142 72.1902 206.294 72.3692 206.398C72.5482 206.501 72.7562 206.553 72.9931 206.553C73.1473 206.553 73.2865 206.531 73.4107 206.488C73.5367 206.443 73.6452 206.377 73.7364 206.289C73.8275 206.2 73.898 206.089 73.9477 205.956L74.5144 206.115C74.4548 206.307 74.3545 206.476 74.2137 206.622C74.0728 206.766 73.8988 206.879 73.6916 206.96C73.4845 207.04 73.2517 207.08 72.9931 207.08ZM77.733 203.182V203.729H75.9631V207H75.3765V203.182H77.733ZM79.086 206.135L80.9255 203.182H81.6017V207H81.015V204.047L79.1855 207H78.4994V203.182H79.086V206.135ZM84.1373 207.08C83.7793 207.08 83.4711 206.995 83.2126 206.826C82.954 206.657 82.7552 206.424 82.616 206.127C82.4768 205.831 82.4072 205.492 82.4072 205.111C82.4072 204.723 82.4784 204.381 82.621 204.084C82.7651 203.786 82.9656 203.553 83.2225 203.386C83.481 203.217 83.7826 203.132 84.1273 203.132C84.3958 203.132 84.6378 203.182 84.8532 203.281C85.0686 203.381 85.2451 203.52 85.3827 203.699C85.5202 203.878 85.6056 204.087 85.6387 204.325H85.0521C85.0073 204.151 84.9079 203.997 84.7538 203.863C84.6013 203.727 84.3958 203.659 84.1373 203.659C83.9086 203.659 83.7081 203.719 83.5357 203.838C83.365 203.956 83.2316 204.122 83.1355 204.338C83.041 204.551 82.9938 204.803 82.9938 205.091C82.9938 205.386 83.0402 205.643 83.133 205.862C83.2275 206.08 83.3601 206.25 83.5308 206.371C83.7031 206.492 83.9053 206.553 84.1373 206.553C84.2897 206.553 84.4281 206.526 84.5524 206.473C84.6767 206.42 84.7819 206.344 84.8681 206.244C84.9543 206.145 85.0156 206.026 85.0521 205.886H85.6387C85.6056 206.112 85.5235 206.315 85.3926 206.495C85.2634 206.674 85.0918 206.817 84.8781 206.923C84.6659 207.027 84.419 207.08 84.1373 207.08ZM86.1055 203.729V203.182H89.2078V203.729H87.955V207H87.3683V203.729H86.1055ZM89.9735 208.432V203.182H90.5403V203.788H90.6099C90.653 203.722 90.7126 203.638 90.7889 203.535C90.8668 203.43 90.9778 203.338 91.122 203.256C91.2678 203.174 91.465 203.132 91.7136 203.132C92.0351 203.132 92.3185 203.212 92.5637 203.373C92.809 203.534 93.0004 203.762 93.138 204.057C93.2755 204.352 93.3443 204.7 93.3443 205.101C93.3443 205.505 93.2755 205.856 93.138 206.152C93.0004 206.447 92.8098 206.676 92.5662 206.838C92.3226 206.999 92.0417 207.08 91.7235 207.08C91.4783 207.08 91.2819 207.039 91.1344 206.958C90.9869 206.875 90.8734 206.781 90.7938 206.677C90.7143 206.571 90.653 206.483 90.6099 206.413H90.5602V208.432H89.9735ZM90.5502 205.091C90.5502 205.379 90.5925 205.634 90.677 205.854C90.7615 206.073 90.885 206.244 91.0474 206.369C91.2098 206.491 91.4087 206.553 91.644 206.553C91.8893 206.553 92.0939 206.488 92.258 206.359C92.4237 206.228 92.548 206.052 92.6308 205.832C92.7154 205.61 92.7576 205.363 92.7576 205.091C92.7576 204.822 92.7162 204.58 92.6333 204.365C92.5521 204.148 92.4287 203.976 92.263 203.85C92.0989 203.723 91.8926 203.659 91.644 203.659C91.4054 203.659 91.2048 203.72 91.0424 203.841C90.88 203.96 90.7574 204.127 90.6745 204.343C90.5917 204.556 90.5502 204.806 90.5502 205.091ZM94.7358 206.135L96.5753 203.182H97.2514V207H96.6648V204.047L94.8352 207H94.1492V203.182H94.7358V206.135ZM98.2359 208.432V203.182H98.8027V203.788H98.8723C98.9154 203.722 98.975 203.638 99.0513 203.535C99.1291 203.43 99.2402 203.338 99.3844 203.256C99.5302 203.174 99.7274 203.132 99.976 203.132C100.297 203.132 100.581 203.212 100.826 203.373C101.071 203.534 101.263 203.762 101.4 204.057C101.538 204.352 101.607 204.7 101.607 205.101C101.607 205.505 101.538 205.856 101.4 206.152C101.263 206.447 101.072 206.676 100.829 206.838C100.585 206.999 100.304 207.08 99.9859 207.08C99.7406 207.08 99.5443 207.039 99.3968 206.958C99.2493 206.875 99.1358 206.781 99.0562 206.677C98.9767 206.571 98.9154 206.483 98.8723 206.413H98.8226V208.432H98.2359ZM98.8126 205.091C98.8126 205.379 98.8549 205.634 98.9394 205.854C99.0239 206.073 99.1474 206.244 99.3098 206.369C99.4722 206.491 99.671 206.553 99.9064 206.553C100.152 206.553 100.356 206.488 100.52 206.359C100.686 206.228 100.81 206.052 100.893 205.832C100.978 205.61 101.02 205.363 101.02 205.091C101.02 204.822 100.979 204.58 100.896 204.365C100.815 204.148 100.691 203.976 100.525 203.85C100.361 203.723 100.155 203.659 99.9064 203.659C99.6677 203.659 99.4672 203.72 99.3048 203.841C99.1424 203.96 99.0198 204.127 98.9369 204.343C98.854 204.556 98.8126 204.806 98.8126 205.091ZM103.963 207.08C103.618 207.08 103.316 206.998 103.055 206.833C102.797 206.669 102.595 206.44 102.449 206.145C102.305 205.85 102.233 205.505 102.233 205.111C102.233 204.713 102.305 204.366 102.449 204.069C102.595 203.773 102.797 203.542 103.055 203.378C103.316 203.214 103.618 203.132 103.963 203.132C104.307 203.132 104.609 203.214 104.868 203.378C105.128 203.542 105.33 203.773 105.474 204.069C105.62 204.366 105.693 204.713 105.693 205.111C105.693 205.505 105.62 205.85 105.474 206.145C105.33 206.44 105.128 206.669 104.868 206.833C104.609 206.998 104.307 207.08 103.963 207.08ZM103.963 206.553C104.225 206.553 104.44 206.485 104.609 206.351C104.778 206.217 104.903 206.04 104.984 205.822C105.066 205.603 105.106 205.366 105.106 205.111C105.106 204.856 105.066 204.618 104.984 204.397C104.903 204.177 104.778 203.999 104.609 203.863C104.44 203.727 104.225 203.659 103.963 203.659C103.701 203.659 103.485 203.727 103.316 203.863C103.147 203.999 103.022 204.177 102.941 204.397C102.86 204.618 102.819 204.856 102.819 205.111C102.819 205.366 102.86 205.603 102.941 205.822C103.022 206.04 103.147 206.217 103.316 206.351C103.485 206.485 103.701 206.553 103.963 206.553ZM106.498 207V203.182H108.059C108.47 203.182 108.797 203.275 109.039 203.46C109.281 203.646 109.402 203.891 109.402 204.196C109.402 204.428 109.333 204.608 109.195 204.735C109.058 204.861 108.881 204.947 108.666 204.991C108.807 205.011 108.943 205.061 109.076 205.141C109.21 205.22 109.321 205.33 109.409 205.469C109.497 205.606 109.541 205.775 109.541 205.976C109.541 206.171 109.491 206.346 109.392 206.5C109.292 206.654 109.15 206.776 108.964 206.866C108.779 206.955 108.557 207 108.298 207H106.498ZM107.055 206.463H108.298C108.5 206.463 108.658 206.415 108.773 206.319C108.887 206.223 108.944 206.092 108.944 205.926C108.944 205.729 108.887 205.574 108.773 205.461C108.658 205.347 108.5 205.29 108.298 205.29H107.055V206.463ZM107.055 204.783H108.059C108.217 204.783 108.352 204.761 108.465 204.718C108.577 204.673 108.663 204.61 108.723 204.529C108.784 204.446 108.815 204.348 108.815 204.236C108.815 204.075 108.748 203.949 108.614 203.858C108.479 203.765 108.295 203.719 108.059 203.719H107.055V204.783ZM111.463 207.089C111.221 207.089 111.001 207.044 110.804 206.953C110.607 206.86 110.45 206.727 110.334 206.553C110.218 206.377 110.16 206.165 110.16 205.916C110.16 205.697 110.203 205.52 110.289 205.384C110.375 205.247 110.491 205.139 110.635 205.061C110.779 204.983 110.938 204.925 111.112 204.887C111.288 204.847 111.464 204.816 111.642 204.793C111.874 204.763 112.062 204.74 112.206 204.725C112.352 204.709 112.458 204.682 112.524 204.643C112.592 204.605 112.626 204.539 112.626 204.445V204.425C112.626 204.179 112.559 203.989 112.425 203.853C112.292 203.717 112.091 203.649 111.82 203.649C111.54 203.649 111.321 203.71 111.162 203.833C111.003 203.956 110.891 204.087 110.826 204.226L110.269 204.027C110.369 203.795 110.501 203.614 110.667 203.485C110.834 203.354 111.017 203.263 111.214 203.212C111.413 203.159 111.608 203.132 111.801 203.132C111.923 203.132 112.064 203.147 112.223 203.177C112.384 203.205 112.539 203.264 112.688 203.353C112.839 203.443 112.964 203.578 113.063 203.759C113.163 203.939 113.213 204.181 113.213 204.484V207H112.626V206.483H112.596C112.556 206.566 112.49 206.654 112.397 206.749C112.304 206.843 112.181 206.924 112.027 206.99C111.873 207.056 111.685 207.089 111.463 207.089ZM111.552 206.562C111.784 206.562 111.98 206.517 112.139 206.426C112.299 206.335 112.42 206.217 112.502 206.073C112.584 205.929 112.626 205.777 112.626 205.618V205.081C112.601 205.111 112.546 205.138 112.462 205.163C112.379 205.186 112.283 205.207 112.173 205.225C112.066 205.242 111.961 205.257 111.858 205.27C111.757 205.281 111.675 205.291 111.612 205.3C111.459 205.32 111.317 205.352 111.184 205.397C111.053 205.44 110.947 205.505 110.866 205.593C110.786 205.679 110.747 205.797 110.747 205.946C110.747 206.15 110.822 206.304 110.973 206.408C111.125 206.511 111.318 206.562 111.552 206.562ZM113.674 203.729V203.182H116.776V203.729H115.523V207H114.937V203.729H113.674ZM118.049 204.564H119.143C119.59 204.564 119.932 204.677 120.169 204.904C120.406 205.132 120.525 205.419 120.525 205.767C120.525 205.996 120.472 206.204 120.366 206.391C120.26 206.577 120.104 206.725 119.898 206.836C119.693 206.945 119.441 207 119.143 207H117.542V203.182H118.128V206.453H119.143C119.375 206.453 119.565 206.392 119.714 206.269C119.864 206.147 119.938 205.989 119.938 205.797C119.938 205.595 119.864 205.43 119.714 205.302C119.565 205.175 119.375 205.111 119.143 205.111H118.049V204.564ZM122.879 207.08C122.521 207.08 122.213 206.995 121.954 206.826C121.696 206.657 121.497 206.424 121.358 206.127C121.218 205.831 121.149 205.492 121.149 205.111C121.149 204.723 121.22 204.381 121.363 204.084C121.507 203.786 121.707 203.553 121.964 203.386C122.223 203.217 122.524 203.132 122.869 203.132C123.137 203.132 123.379 203.182 123.595 203.281C123.81 203.381 123.987 203.52 124.124 203.699C124.262 203.878 124.347 204.087 124.38 204.325H123.794C123.749 204.151 123.649 203.997 123.495 203.863C123.343 203.727 123.137 203.659 122.879 203.659C122.65 203.659 122.45 203.719 122.277 203.838C122.107 203.956 121.973 204.122 121.877 204.338C121.783 204.551 121.735 204.803 121.735 205.091C121.735 205.386 121.782 205.643 121.875 205.862C121.969 206.08 122.102 206.25 122.272 206.371C122.445 206.492 122.647 206.553 122.879 206.553C123.031 206.553 123.17 206.526 123.294 206.473C123.418 206.42 123.524 206.344 123.61 206.244C123.696 206.145 123.757 206.026 123.794 205.886H124.38C124.347 206.112 124.265 206.315 124.134 206.495C124.005 206.674 123.833 206.817 123.62 206.923C123.408 207.027 123.161 207.08 122.879 207.08ZM127.445 207V203.719H126.431C126.202 203.719 126.022 203.772 125.891 203.878C125.76 203.984 125.695 204.13 125.695 204.315C125.695 204.498 125.754 204.641 125.871 204.745C125.991 204.85 126.154 204.902 126.361 204.902H127.594V205.449H126.361C126.102 205.449 125.88 205.403 125.692 205.312C125.505 205.221 125.361 205.091 125.26 204.922C125.159 204.751 125.108 204.549 125.108 204.315C125.108 204.08 125.161 203.878 125.267 203.709C125.373 203.54 125.525 203.41 125.722 203.319C125.921 203.227 126.157 203.182 126.431 203.182H128.002V207H127.445ZM124.899 207L125.983 205.101H126.619L125.536 207H124.899Z" fill="#8E9199"/>
</svg>
