<svg width="186" height="231" viewBox="0 0 186 231" fill="none" xmlns="http://www.w3.org/2000/svg">
<path d="M0 14.99C0 6.71126 6.71125 0 14.99 0H171.01C179.289 0 186 6.71125 186 14.99V216.01C186 224.289 179.289 231 171.01 231H14.99C6.71126 231 0 224.289 0 216.01V14.99Z" fill="white"/>
<path d="M13.3807 15.0938H14.5312C15.071 15.0938 15.5504 15.2145 15.9695 15.456C16.3885 15.6974 16.7176 16.0336 16.9567 16.4645C17.1958 16.8954 17.3153 17.3949 17.3153 17.9631C17.3153 18.5312 17.1958 19.032 16.9567 19.4652C16.7176 19.8984 16.3885 20.237 15.9695 20.4808C15.5504 20.7247 15.071 20.8466 14.5312 20.8466H13.3807C12.8409 20.8466 12.3615 20.7259 11.9425 20.4844C11.5234 20.2429 11.1944 19.9067 10.9553 19.4759C10.7161 19.045 10.5966 18.5455 10.5966 17.9773C10.5966 17.4091 10.7161 16.9084 10.9553 16.4751C11.1944 16.0419 11.5234 15.7034 11.9425 15.4595C12.3615 15.2157 12.8409 15.0938 13.3807 15.0938ZM13.3807 15.875C12.9688 15.875 12.6207 15.9614 12.3366 16.1342C12.0549 16.3071 11.8407 16.5509 11.6939 16.8658C11.5495 17.1806 11.4773 17.5511 11.4773 17.9773C11.4773 18.3987 11.5495 18.7656 11.6939 19.0781C11.8407 19.3906 12.0549 19.6333 12.3366 19.8061C12.6207 19.9789 12.9688 20.0653 13.3807 20.0653H14.5312C14.9432 20.0653 15.29 19.9789 15.5717 19.8061C15.8558 19.6333 16.0701 19.3894 16.2145 19.0746C16.3613 18.7597 16.4347 18.3892 16.4347 17.9631C16.4347 17.5417 16.3613 17.1747 16.2145 16.8622C16.0701 16.5497 15.8558 16.3071 15.5717 16.1342C15.29 15.9614 14.9432 15.875 14.5312 15.875H13.3807ZM14.4034 14.0994V21.7983H13.5227V14.0994H14.4034ZM20.7631 21.6136C20.2707 21.6136 19.8386 21.4964 19.4669 21.2621C19.0976 21.0277 18.8088 20.6998 18.6005 20.2784C18.3945 19.857 18.2915 19.3646 18.2915 18.8011C18.2915 18.233 18.3945 17.737 18.6005 17.3132C18.8088 16.8894 19.0976 16.5604 19.4669 16.326C19.8386 16.0916 20.2707 15.9744 20.7631 15.9744C21.2555 15.9744 21.6864 16.0916 22.0557 16.326C22.4274 16.5604 22.7162 16.8894 22.9222 17.3132C23.1305 17.737 23.2347 18.233 23.2347 18.8011C23.2347 19.3646 23.1305 19.857 22.9222 20.2784C22.7162 20.6998 22.4274 21.0277 22.0557 21.2621C21.6864 21.4964 21.2555 21.6136 20.7631 21.6136ZM20.7631 20.8608C21.1372 20.8608 21.4449 20.7649 21.6864 20.5732C21.9279 20.3814 22.1066 20.1293 22.2226 19.8168C22.3386 19.5043 22.3966 19.1657 22.3966 18.8011C22.3966 18.4366 22.3386 18.0968 22.2226 17.782C22.1066 17.4671 21.9279 17.2126 21.6864 17.0185C21.4449 16.8243 21.1372 16.7273 20.7631 16.7273C20.3891 16.7273 20.0813 16.8243 19.8398 17.0185C19.5983 17.2126 19.4196 17.4671 19.3036 17.782C19.1876 18.0968 19.1296 18.4366 19.1296 18.8011C19.1296 19.1657 19.1876 19.5043 19.3036 19.8168C19.4196 20.1293 19.5983 20.3814 19.8398 20.5732C20.0813 20.7649 20.3891 20.8608 20.7631 20.8608ZM24.384 23.5455V16.0455H25.1937V16.9119H25.2931C25.3546 16.8172 25.4399 16.6965 25.5488 16.5497C25.66 16.4006 25.8187 16.268 26.0246 16.152C26.233 16.0336 26.5147 15.9744 26.8698 15.9744C27.3291 15.9744 27.7339 16.0893 28.0843 16.3189C28.4347 16.5485 28.7081 16.8741 28.9046 17.2955C29.1011 17.7169 29.1993 18.214 29.1993 18.7869C29.1993 19.3646 29.1011 19.8653 28.9046 20.2891C28.7081 20.7105 28.4358 21.0372 28.0878 21.2692C27.7398 21.4988 27.3385 21.6136 26.884 21.6136C26.5336 21.6136 26.2531 21.5556 26.0424 21.4396C25.8317 21.3213 25.6695 21.1875 25.5559 21.0384C25.4422 20.8868 25.3546 20.7614 25.2931 20.6619H25.2221V23.5455H24.384ZM25.2079 18.7727C25.2079 19.1847 25.2682 19.5481 25.389 19.8629C25.5097 20.1754 25.6861 20.4205 25.9181 20.598C26.1501 20.7732 26.4342 20.8608 26.7704 20.8608C27.1207 20.8608 27.4131 20.7685 27.6475 20.5838C27.8842 20.3968 28.0618 20.1458 28.1802 19.831C28.3009 19.5137 28.3613 19.161 28.3613 18.7727C28.3613 18.3892 28.3021 18.0436 28.1837 17.7358C28.0677 17.4257 27.8913 17.1806 27.6546 17.0007C27.4202 16.8184 27.1255 16.7273 26.7704 16.7273C26.4295 16.7273 26.143 16.8137 25.911 16.9865C25.679 17.157 25.5038 17.3961 25.3854 17.7038C25.267 18.0092 25.2079 18.3655 25.2079 18.7727ZM33.3307 20.3636L35.2341 16.0455H36.0296L33.6716 21.5H32.9898L30.6745 16.0455H31.4557L33.3307 20.3636ZM31.1858 16.0455V21.5H30.3477V16.0455H31.1858ZM35.4756 21.5V16.0455H36.3137V21.5H35.4756ZM39.3229 21.6278C38.9772 21.6278 38.6635 21.5627 38.3818 21.4325C38.1001 21.3 37.8764 21.1094 37.7106 20.8608C37.5449 20.6098 37.4621 20.3068 37.4621 19.9517C37.4621 19.6392 37.5236 19.3859 37.6467 19.1918C37.7698 18.9953 37.9344 18.8414 38.1403 18.7301C38.3463 18.6188 38.5736 18.536 38.8222 18.4815C39.0731 18.4247 39.3252 18.3797 39.5785 18.3466C39.91 18.304 40.1787 18.272 40.3847 18.2507C40.593 18.227 40.7445 18.188 40.8392 18.1335C40.9363 18.0791 40.9848 17.9844 40.9848 17.8494V17.821C40.9848 17.4706 40.8889 17.1984 40.6972 17.0043C40.5078 16.8101 40.2201 16.7131 39.8342 16.7131C39.4341 16.7131 39.1204 16.8007 38.8932 16.9759C38.6659 17.151 38.5061 17.3381 38.4138 17.5369L37.6183 17.2528C37.7604 16.9214 37.9498 16.6634 38.1865 16.4787C38.4256 16.2917 38.686 16.1615 38.9677 16.0881C39.2518 16.0123 39.5312 15.9744 39.8058 15.9744C39.981 15.9744 40.1822 15.9957 40.4095 16.0384C40.6391 16.0786 40.8605 16.1626 41.0736 16.2905C41.289 16.4183 41.4677 16.6113 41.6098 16.8693C41.7518 17.1274 41.8229 17.473 41.8229 17.9062V21.5H40.9848V20.7614H40.9422C40.8854 20.8797 40.7907 21.0064 40.6581 21.1413C40.5255 21.2763 40.3491 21.3911 40.129 21.4858C39.9088 21.5805 39.6401 21.6278 39.3229 21.6278ZM39.4507 20.875C39.7821 20.875 40.0615 20.8099 40.2888 20.6797C40.5184 20.5495 40.6912 20.3814 40.8072 20.1754C40.9256 19.9695 40.9848 19.7528 40.9848 19.5256V18.7585C40.9493 18.8011 40.8712 18.8402 40.7504 18.8757C40.632 18.9089 40.4947 18.9384 40.3385 18.9645C40.1846 18.9882 40.0343 19.0095 39.8875 19.0284C39.7431 19.045 39.6259 19.0592 39.5359 19.071C39.3181 19.0994 39.1145 19.1456 38.9251 19.2095C38.7381 19.2711 38.5866 19.3646 38.4706 19.4901C38.357 19.6132 38.3001 19.7812 38.3001 19.9943C38.3001 20.2855 38.4079 20.5057 38.6233 20.6548C38.8411 20.8016 39.1169 20.875 39.4507 20.875ZM45.905 23.5455V16.0455H46.7147V16.9119H46.8141C46.8757 16.8172 46.9609 16.6965 47.0698 16.5497C47.1811 16.4006 47.3397 16.268 47.5456 16.152C47.754 16.0336 48.0357 15.9744 48.3908 15.9744C48.8501 15.9744 49.2549 16.0893 49.6053 16.3189C49.9557 16.5485 50.2291 16.8741 50.4256 17.2955C50.6221 17.7169 50.7204 18.214 50.7204 18.7869C50.7204 19.3646 50.6221 19.8653 50.4256 20.2891C50.2291 20.7105 49.9569 21.0372 49.6089 21.2692C49.2608 21.4988 48.8596 21.6136 48.405 21.6136C48.0546 21.6136 47.7741 21.5556 47.5634 21.4396C47.3527 21.3213 47.1905 21.1875 47.0769 21.0384C46.9633 20.8868 46.8757 20.7614 46.8141 20.6619H46.7431V23.5455H45.905ZM46.7289 18.7727C46.7289 19.1847 46.7892 19.5481 46.91 19.8629C47.0307 20.1754 47.2071 20.4205 47.4391 20.598C47.6711 20.7732 47.9552 20.8608 48.2914 20.8608C48.6418 20.8608 48.9341 20.7685 49.1685 20.5838C49.4053 20.3968 49.5828 20.1458 49.7012 19.831C49.8219 19.5137 49.8823 19.161 49.8823 18.7727C49.8823 18.3892 49.8231 18.0436 49.7047 17.7358C49.5887 17.4257 49.4124 17.1806 49.1756 17.0007C48.9412 16.8184 48.6465 16.7273 48.2914 16.7273C47.9505 16.7273 47.664 16.8137 47.432 16.9865C47.2 17.157 47.0248 17.3961 46.9064 17.7038C46.7881 18.0092 46.7289 18.3655 46.7289 18.7727ZM54.1557 21.6136C53.6301 21.6136 53.1768 21.4976 52.7956 21.2656C52.4168 21.0312 52.1244 20.7045 51.9185 20.2855C51.7149 19.8641 51.6131 19.3741 51.6131 18.8153C51.6131 18.2566 51.7149 17.7642 51.9185 17.3381C52.1244 16.9096 52.4109 16.5758 52.7779 16.3366C53.1472 16.0952 53.578 15.9744 54.0705 15.9744C54.3546 15.9744 54.6351 16.0218 54.9121 16.1165C55.1891 16.2112 55.4412 16.3651 55.6685 16.5781C55.8958 16.7888 56.0769 17.0682 56.2118 17.4162C56.3467 17.7642 56.4142 18.1927 56.4142 18.7017V19.0568H52.2097V18.3324H55.5619C55.5619 18.0246 55.5004 17.75 55.3773 17.5085C55.2565 17.267 55.0837 17.0765 54.8588 16.9368C54.6363 16.7971 54.3735 16.7273 54.0705 16.7273C53.7367 16.7273 53.4478 16.8101 53.204 16.9759C52.9625 17.1392 52.7767 17.3523 52.6465 17.6151C52.5163 17.8778 52.4512 18.1596 52.4512 18.4602V18.9432C52.4512 19.3551 52.5222 19.7043 52.6642 19.9908C52.8086 20.2749 53.0087 20.4915 53.2644 20.6406C53.52 20.7874 53.8172 20.8608 54.1557 20.8608C54.3759 20.8608 54.5747 20.83 54.7523 20.7685C54.9322 20.7045 55.0873 20.6098 55.2175 20.4844C55.3477 20.3565 55.4483 20.1979 55.5193 20.0085L56.329 20.2358C56.2438 20.5104 56.1005 20.7519 55.8993 20.9602C55.6981 21.1662 55.4495 21.3272 55.1536 21.4432C54.8576 21.5568 54.525 21.6136 54.1557 21.6136ZM60.9256 16.0455V16.8267H58.3971V21.5H57.5591V16.0455H60.9256ZM62.857 20.2642L65.4848 16.0455H66.4507V21.5H65.6127V17.2812L62.999 21.5H62.0189V16.0455H62.857V20.2642ZM70.0716 21.6136C69.5603 21.6136 69.1199 21.4929 68.7506 21.2514C68.3813 21.0099 68.0972 20.6773 67.8983 20.2536C67.6995 19.8298 67.6 19.3456 67.6 18.8011C67.6 18.2472 67.7018 17.7583 67.9054 17.3345C68.1114 16.9084 68.3979 16.5758 68.7648 16.3366C69.1341 16.0952 69.565 15.9744 70.0574 15.9744C70.4409 15.9744 70.7866 16.0455 71.0944 16.1875C71.4021 16.3295 71.6543 16.5284 71.8507 16.7841C72.0472 17.0398 72.1692 17.3381 72.2165 17.679H71.3784C71.3145 17.4304 71.1725 17.2102 70.9523 17.0185C70.7345 16.8243 70.4409 16.7273 70.0716 16.7273C69.7449 16.7273 69.4585 16.8125 69.2123 16.983C68.9684 17.151 68.7778 17.389 68.6405 17.6967C68.5056 18.0021 68.4381 18.3608 68.4381 18.7727C68.4381 19.1941 68.5044 19.5611 68.637 19.8736C68.7719 20.1861 68.9613 20.4287 69.2051 20.6016C69.4514 20.7744 69.7402 20.8608 70.0716 20.8608C70.2894 20.8608 70.4871 20.8229 70.6647 20.7472C70.8422 20.6714 70.9926 20.5625 71.1157 20.4205C71.2388 20.2784 71.3264 20.108 71.3784 19.9091H72.2165C72.1692 20.2311 72.052 20.5211 71.865 20.7791C71.6803 21.0348 71.4353 21.2384 71.1299 21.3899C70.8268 21.5391 70.4741 21.6136 70.0716 21.6136ZM72.882 16.8267V16.0455H77.3138V16.8267H75.524V21.5H74.6859V16.8267H72.882ZM78.4063 23.5455V16.0455H79.2159V16.9119H79.3154C79.3769 16.8172 79.4621 16.6965 79.571 16.5497C79.6823 16.4006 79.8409 16.268 80.0469 16.152C80.2552 16.0336 80.5369 15.9744 80.8921 15.9744C81.3513 15.9744 81.7562 16.0893 82.1066 16.3189C82.4569 16.5485 82.7304 16.8741 82.9269 17.2955C83.1234 17.7169 83.2216 18.214 83.2216 18.7869C83.2216 19.3646 83.1234 19.8653 82.9269 20.2891C82.7304 20.7105 82.4581 21.0372 82.1101 21.2692C81.7621 21.4988 81.3608 21.6136 80.9063 21.6136C80.5559 21.6136 80.2753 21.5556 80.0646 21.4396C79.8539 21.3213 79.6918 21.1875 79.5781 21.0384C79.4645 20.8868 79.3769 20.7614 79.3154 20.6619H79.2443V23.5455H78.4063ZM79.2301 18.7727C79.2301 19.1847 79.2905 19.5481 79.4112 19.8629C79.532 20.1754 79.7083 20.4205 79.9404 20.598C80.1724 20.7732 80.4565 20.8608 80.7926 20.8608C81.143 20.8608 81.4354 20.7685 81.6698 20.5838C81.9065 20.3968 82.0841 20.1458 82.2024 19.831C82.3232 19.5137 82.3835 19.161 82.3835 18.7727C82.3835 18.3892 82.3244 18.0436 82.206 17.7358C82.09 17.4257 81.9136 17.1806 81.6769 17.0007C81.4425 16.8184 81.1477 16.7273 80.7926 16.7273C80.4517 16.7273 80.1653 16.8137 79.9333 16.9865C79.7012 17.157 79.5261 17.3961 79.4077 17.7038C79.2893 18.0092 79.2301 18.3655 79.2301 18.7727ZM85.9751 21.6278C85.6295 21.6278 85.3158 21.5627 85.0341 21.4325C84.7524 21.3 84.5286 21.1094 84.3629 20.8608C84.1972 20.6098 84.1143 20.3068 84.1143 19.9517C84.1143 19.6392 84.1759 19.3859 84.299 19.1918C84.4221 18.9953 84.5866 18.8414 84.7926 18.7301C84.9986 18.6188 85.2258 18.536 85.4744 18.4815C85.7254 18.4247 85.9775 18.3797 86.2308 18.3466C86.5622 18.304 86.8309 18.272 87.0369 18.2507C87.2452 18.227 87.3968 18.188 87.4915 18.1335C87.5885 18.0791 87.6371 17.9844 87.6371 17.8494V17.821C87.6371 17.4706 87.5412 17.1984 87.3494 17.0043C87.16 16.8101 86.8724 16.7131 86.4865 16.7131C86.0864 16.7131 85.7727 16.8007 85.5454 16.9759C85.3182 17.151 85.1584 17.3381 85.066 17.5369L84.2706 17.2528C84.4126 16.9214 84.602 16.6634 84.8388 16.4787C85.0779 16.2917 85.3383 16.1615 85.62 16.0881C85.9041 16.0123 86.1835 15.9744 86.4581 15.9744C86.6333 15.9744 86.8345 15.9957 87.0618 16.0384C87.2914 16.0786 87.5128 16.1626 87.7258 16.2905C87.9413 16.4183 88.12 16.6113 88.2621 16.8693C88.4041 17.1274 88.4751 17.473 88.4751 17.9062V21.5H87.6371V20.7614H87.5944C87.5376 20.8797 87.4429 21.0064 87.3104 21.1413C87.1778 21.2763 87.0014 21.3911 86.7812 21.4858C86.5611 21.5805 86.2924 21.6278 85.9751 21.6278ZM86.103 20.875C86.4344 20.875 86.7138 20.8099 86.941 20.6797C87.1707 20.5495 87.3435 20.3814 87.4595 20.1754C87.5779 19.9695 87.6371 19.7528 87.6371 19.5256V18.7585C87.6015 18.8011 87.5234 18.8402 87.4027 18.8757C87.2843 18.9089 87.147 18.9384 86.9908 18.9645C86.8369 18.9882 86.6865 19.0095 86.5398 19.0284C86.3953 19.045 86.2782 19.0592 86.1882 19.071C85.9704 19.0994 85.7668 19.1456 85.5774 19.2095C85.3904 19.2711 85.2389 19.3646 85.1229 19.4901C85.0092 19.6132 84.9524 19.7812 84.9524 19.9943C84.9524 20.2855 85.0601 20.5057 85.2756 20.6548C85.4934 20.8016 85.7692 20.875 86.103 20.875ZM94.1646 16.0455V20.7188H94.9316V23.2614H94.0935V21.5H89.8748V16.0455H90.7128V20.7188H93.3265V16.0455H94.1646ZM96.9305 20.2642L99.5583 16.0455H100.524V21.5H99.6862V17.2812L97.0726 21.5H96.0924V16.0455H96.9305V20.2642ZM102.767 20.2642L105.395 16.0455H106.361V21.5H105.523V17.2812L102.909 21.5H101.929V16.0455H102.767V20.2642Z" fill="#101828"/>
<path d="M10.6165 43V37.9091H13.6889V38.456H11.233V40.1761H13.5298V40.723H11.233V42.4531H13.7287V43H10.6165ZM14.6305 43V39.1818H15.1973V39.7784H15.247C15.3265 39.5746 15.455 39.4163 15.6323 39.3036C15.8096 39.1893 16.0226 39.1321 16.2712 39.1321C16.523 39.1321 16.7327 39.1893 16.9001 39.3036C17.0691 39.4163 17.2008 39.5746 17.2953 39.7784H17.3351C17.4328 39.5812 17.5795 39.4246 17.7751 39.3086C17.9706 39.1909 18.2051 39.1321 18.4785 39.1321C18.8199 39.1321 19.0992 39.239 19.3162 39.4528C19.5333 39.6649 19.6419 39.9955 19.6419 40.4446V43H19.0552V40.4446C19.0552 40.1629 18.9782 39.9615 18.8241 39.8406C18.6699 39.7196 18.4885 39.6591 18.2797 39.6591C18.0112 39.6591 17.8032 39.7403 17.6557 39.9027C17.5082 40.0634 17.4345 40.2673 17.4345 40.5142V43H16.8379V40.3849C16.8379 40.1679 16.7675 39.993 16.6266 39.8604C16.4858 39.7262 16.3043 39.6591 16.0822 39.6591C15.9298 39.6591 15.7872 39.6997 15.6547 39.7809C15.5238 39.8621 15.4177 39.9748 15.3365 40.119C15.2569 40.2615 15.2172 40.4264 15.2172 40.6136V43H14.6305ZM21.7481 43.0895C21.5061 43.0895 21.2866 43.0439 21.0894 42.9528C20.8921 42.86 20.7355 42.7266 20.6195 42.5526C20.5035 42.3769 20.4455 42.1648 20.4455 41.9162C20.4455 41.6974 20.4886 41.5201 20.5748 41.3842C20.661 41.2467 20.7761 41.139 20.9203 41.0611C21.0645 40.9832 21.2236 40.9252 21.3976 40.8871C21.5733 40.8473 21.7497 40.8158 21.9271 40.7926C22.1591 40.7628 22.3472 40.7404 22.4913 40.7255C22.6372 40.7089 22.7432 40.6816 22.8095 40.6435C22.8775 40.6054 22.9114 40.5391 22.9114 40.4446V40.4247C22.9114 40.1795 22.8443 39.9889 22.7101 39.853C22.5775 39.7171 22.3762 39.6491 22.106 39.6491C21.826 39.6491 21.6064 39.7105 21.4473 39.8331C21.2882 39.9557 21.1764 40.0866 21.1117 40.2259L20.5549 40.027C20.6543 39.795 20.7869 39.6143 20.9526 39.4851C21.12 39.3542 21.3023 39.263 21.4995 39.2116C21.6984 39.1586 21.8939 39.1321 22.0862 39.1321C22.2088 39.1321 22.3497 39.147 22.5087 39.1768C22.6695 39.205 22.8244 39.2638 22.9736 39.3533C23.1244 39.4428 23.2495 39.5779 23.3489 39.7585C23.4484 39.9392 23.4981 40.1811 23.4981 40.4844V43H22.9114V42.483H22.8816C22.8418 42.5658 22.7756 42.6545 22.6827 42.7489C22.5899 42.8434 22.4665 42.9238 22.3124 42.9901C22.1582 43.0563 21.9702 43.0895 21.7481 43.0895ZM21.8376 42.5625C22.0696 42.5625 22.2651 42.5169 22.4242 42.4258C22.585 42.3346 22.7059 42.217 22.7872 42.0728C22.87 41.9286 22.9114 41.777 22.9114 41.6179V41.081C22.8866 41.1108 22.8319 41.1381 22.7474 41.163C22.6645 41.1862 22.5684 41.2069 22.459 41.2251C22.3513 41.2417 22.2461 41.2566 22.1433 41.2699C22.0422 41.2815 21.9602 41.2914 21.8972 41.2997C21.7448 41.3196 21.6023 41.3519 21.4697 41.3967C21.3388 41.4397 21.2327 41.5052 21.1515 41.593C21.072 41.6792 21.0322 41.7969 21.0322 41.946C21.0322 42.1499 21.1076 42.304 21.2584 42.4084C21.4108 42.5111 21.6039 42.5625 21.8376 42.5625ZM24.4788 43V39.1818H25.0655V43H24.4788ZM24.7771 38.5455C24.6628 38.5455 24.5642 38.5065 24.4813 38.4286C24.4001 38.3507 24.3595 38.2571 24.3595 38.1477C24.3595 38.0384 24.4001 37.9447 24.4813 37.8668C24.5642 37.7889 24.6628 37.75 24.7771 37.75C24.8915 37.75 24.9893 37.7889 25.0705 37.8668C25.1533 37.9447 25.1948 38.0384 25.1948 38.1477C25.1948 38.2571 25.1533 38.3507 25.0705 38.4286C24.9893 38.5065 24.8915 38.5455 24.7771 38.5455ZM26.6366 37.9091V43H26.05V37.9091H26.6366Z" fill="#101828"/>
<path d="M10 55.5C10 52.1863 12.6863 49.5 16 49.5H170C173.314 49.5 176 52.1863 176 55.5V66C176 69.3137 173.314 72 170 72H16C12.6863 72 10 69.3137 10 66V55.5Z" fill="#F7F8FC"/>
<path d="M24.1378 63.5795C23.7699 63.5795 23.4525 63.4983 23.1857 63.3359C22.9206 63.1719 22.7159 62.9432 22.5717 62.6499C22.4292 62.3549 22.358 62.0118 22.358 61.6207C22.358 61.2296 22.4292 60.8849 22.5717 60.5866C22.7159 60.2867 22.9164 60.053 23.1733 59.8857C23.4318 59.7166 23.7334 59.6321 24.0781 59.6321C24.277 59.6321 24.4734 59.6652 24.6673 59.7315C24.8612 59.7978 25.0376 59.9055 25.1967 60.0547C25.3558 60.2022 25.4826 60.3977 25.5771 60.6413C25.6715 60.8849 25.7188 61.1849 25.7188 61.5412V61.7898H22.7756V61.2827H25.1222C25.1222 61.0672 25.0791 60.875 24.9929 60.706C24.9084 60.5369 24.7874 60.4035 24.63 60.3058C24.4742 60.208 24.2902 60.1591 24.0781 60.1591C23.8445 60.1591 23.6423 60.2171 23.4716 60.3331C23.3026 60.4474 23.1725 60.5966 23.0813 60.7805C22.9902 60.9645 22.9446 61.1617 22.9446 61.3722V61.7102C22.9446 61.9986 22.9943 62.243 23.0938 62.4435C23.1948 62.6424 23.3349 62.794 23.5138 62.8984C23.6928 63.0012 23.9008 63.0526 24.1378 63.0526C24.2919 63.0526 24.4311 63.031 24.5554 62.9879C24.6813 62.9432 24.7899 62.8769 24.881 62.7891C24.9722 62.6996 25.0426 62.5885 25.0923 62.456L25.6591 62.6151C25.5994 62.8073 25.4992 62.9763 25.3583 63.1222C25.2174 63.2663 25.0434 63.379 24.8363 63.4602C24.6291 63.5398 24.3963 63.5795 24.1378 63.5795ZM26.5212 63.5V59.6818H27.0879V60.2784H27.1376C27.2172 60.0746 27.3456 59.9163 27.5229 59.8036C27.7002 59.6893 27.9132 59.6321 28.1618 59.6321C28.4137 59.6321 28.6233 59.6893 28.7907 59.8036C28.9597 59.9163 29.0915 60.0746 29.1859 60.2784H29.2257C29.3235 60.0812 29.4701 59.9246 29.6657 59.8086C29.8612 59.6909 30.0957 59.6321 30.3692 59.6321C30.7105 59.6321 30.9898 59.739 31.2069 59.9528C31.424 60.1649 31.5325 60.4955 31.5325 60.9446V63.5H30.9459V60.9446C30.9459 60.6629 30.8688 60.4615 30.7147 60.3406C30.5606 60.2196 30.3791 60.1591 30.1703 60.1591C29.9018 60.1591 29.6939 60.2403 29.5464 60.4027C29.3989 60.5634 29.3251 60.7673 29.3251 61.0142V63.5H28.7285V60.8849C28.7285 60.6679 28.6581 60.493 28.5172 60.3604C28.3764 60.2262 28.1949 60.1591 27.9729 60.1591C27.8204 60.1591 27.6779 60.1997 27.5453 60.2809C27.4144 60.3621 27.3083 60.4748 27.2271 60.619C27.1476 60.7615 27.1078 60.9264 27.1078 61.1136V63.5H26.5212ZM33.6387 63.5895C33.3968 63.5895 33.1772 63.5439 32.98 63.4528C32.7828 63.36 32.6262 63.2266 32.5102 63.0526C32.3942 62.8769 32.3362 62.6648 32.3362 62.4162C32.3362 62.1974 32.3792 62.0201 32.4654 61.8842C32.5516 61.7467 32.6668 61.639 32.8109 61.5611C32.9551 61.4832 33.1142 61.4252 33.2882 61.3871C33.4639 61.3473 33.6404 61.3158 33.8177 61.2926C34.0497 61.2628 34.2378 61.2404 34.382 61.2255C34.5278 61.2089 34.6339 61.1816 34.7001 61.1435C34.7681 61.1054 34.8021 61.0391 34.8021 60.9446V60.9247C34.8021 60.6795 34.735 60.4889 34.6007 60.353C34.4681 60.2171 34.2668 60.1491 33.9967 60.1491C33.7166 60.1491 33.497 60.2105 33.3379 60.3331C33.1788 60.4557 33.067 60.5866 33.0024 60.7259L32.4455 60.527C32.545 60.295 32.6775 60.1143 32.8433 59.9851C33.0106 59.8542 33.1929 59.763 33.3901 59.7116C33.589 59.6586 33.7845 59.6321 33.9768 59.6321C34.0994 59.6321 34.2403 59.647 34.3994 59.6768C34.5601 59.705 34.7151 59.7638 34.8642 59.8533C35.015 59.9428 35.1401 60.0779 35.2396 60.2585C35.339 60.4392 35.3887 60.6811 35.3887 60.9844V63.5H34.8021V62.983H34.7722C34.7325 63.0658 34.6662 63.1545 34.5734 63.2489C34.4806 63.3434 34.3571 63.4238 34.203 63.4901C34.0489 63.5563 33.8608 63.5895 33.6387 63.5895ZM33.7282 63.0625C33.9602 63.0625 34.1558 63.0169 34.3149 62.9258C34.4756 62.8346 34.5966 62.717 34.6778 62.5728C34.7606 62.4286 34.8021 62.277 34.8021 62.1179V61.581C34.7772 61.6108 34.7225 61.6381 34.638 61.663C34.5551 61.6862 34.459 61.7069 34.3497 61.7251C34.2419 61.7417 34.1367 61.7566 34.034 61.7699C33.9329 61.7815 33.8508 61.7914 33.7879 61.7997C33.6354 61.8196 33.4929 61.8519 33.3603 61.8967C33.2294 61.9397 33.1233 62.0052 33.0421 62.093C32.9626 62.1792 32.9228 62.2969 32.9228 62.446C32.9228 62.6499 32.9982 62.804 33.149 62.9084C33.3015 63.0111 33.4945 63.0625 33.7282 63.0625ZM36.3695 63.5V59.6818H36.9561V63.5H36.3695ZM36.6678 59.0455C36.5534 59.0455 36.4548 59.0065 36.372 58.9286C36.2908 58.8507 36.2502 58.7571 36.2502 58.6477C36.2502 58.5384 36.2908 58.4447 36.372 58.3668C36.4548 58.2889 36.5534 58.25 36.6678 58.25C36.7821 58.25 36.8799 58.2889 36.9611 58.3668C37.0439 58.4447 37.0854 58.5384 37.0854 58.6477C37.0854 58.7571 37.0439 58.8507 36.9611 58.9286C36.8799 59.0065 36.7821 59.0455 36.6678 59.0455ZM38.5273 58.4091V63.5H37.9406V58.4091H38.5273ZM42.445 64.8423C41.9379 64.8423 41.4896 64.7727 41.1002 64.6335C40.7107 64.496 40.3834 64.293 40.1183 64.0245C39.8531 63.756 39.6526 63.4271 39.5167 63.0376C39.3808 62.6482 39.3129 62.2024 39.3129 61.7003C39.3129 61.2147 39.3816 60.7805 39.5192 60.3977C39.6584 60.0149 39.8597 59.6901 40.1232 59.4233C40.3884 59.1548 40.7099 58.9502 41.0877 58.8093C41.4672 58.6684 41.8964 58.598 42.3754 58.598C42.841 58.598 43.2487 58.6742 43.5984 58.8267C43.9497 58.9775 44.243 59.1822 44.4784 59.4407C44.7153 59.6976 44.8927 59.9867 45.0103 60.3082C45.1296 60.6297 45.1893 60.9612 45.1893 61.3026C45.1893 61.5429 45.1777 61.7865 45.1545 62.0334C45.1313 62.2803 45.0824 62.5073 45.0078 62.7145C44.9333 62.92 44.8181 63.0857 44.6623 63.2116C44.5082 63.3376 44.2994 63.4006 44.0359 63.4006C43.9199 63.4006 43.7923 63.3823 43.6531 63.3459C43.5139 63.3094 43.3904 63.2489 43.2827 63.1644C43.175 63.0799 43.1112 62.9664 43.0913 62.8239H43.0615C43.0217 62.92 42.9604 63.0111 42.8775 63.0973C42.7963 63.1835 42.6894 63.2522 42.5568 63.3036C42.4259 63.355 42.266 63.3774 42.0771 63.3707C41.8616 63.3625 41.6719 63.3144 41.5078 63.2266C41.3438 63.1371 41.2062 63.0161 41.0952 62.8636C40.9858 62.7095 40.903 62.5314 40.8466 62.3292C40.7919 62.1254 40.7646 61.9058 40.7646 61.6705C40.7646 61.4467 40.7977 61.2421 40.864 61.0565C40.9303 60.8709 41.0223 60.7085 41.1399 60.5692C41.2592 60.43 41.3985 60.319 41.5575 60.2362C41.7183 60.1516 41.8915 60.0994 42.0771 60.0795C42.2428 60.063 42.3936 60.0704 42.5295 60.1019C42.6654 60.1317 42.7772 60.1773 42.8651 60.2386C42.9529 60.2983 43.0084 60.3646 43.0316 60.4375H43.0615V60.1591H43.5884V62.4062C43.5884 62.5455 43.6274 62.6681 43.7053 62.7741C43.7832 62.8802 43.8967 62.9332 44.0458 62.9332C44.2149 62.9332 44.3441 62.8752 44.4336 62.7592C44.5248 62.6432 44.5869 62.4643 44.62 62.2223C44.6548 61.9804 44.6722 61.6705 44.6722 61.2926C44.6722 61.0705 44.6416 60.8518 44.5803 60.6364C44.5206 60.4193 44.4295 60.2163 44.3068 60.0273C44.1859 59.8384 44.0326 59.6719 43.847 59.5277C43.6614 59.3835 43.4434 59.2708 43.1932 59.1896C42.9446 59.1068 42.6621 59.0653 42.3455 59.0653C41.9561 59.0653 41.6073 59.1258 41.299 59.2468C40.9924 59.3661 40.7314 59.541 40.516 59.7713C40.3022 60 40.139 60.2784 40.0263 60.6065C39.9153 60.933 39.8597 61.3042 39.8597 61.7202C39.8597 62.1428 39.9153 62.5181 40.0263 62.8462C40.139 63.1744 40.3047 63.4511 40.5235 63.6765C40.7439 63.9019 41.0165 64.0726 41.3413 64.1886C41.6661 64.3062 42.0406 64.3651 42.4649 64.3651C42.6472 64.3651 42.827 64.3477 43.0043 64.3129C43.1816 64.2781 43.3382 64.2399 43.4741 64.1985C43.61 64.1571 43.7078 64.1264 43.7674 64.1065L43.9066 64.5639C43.8039 64.607 43.6696 64.6501 43.5039 64.6932C43.3399 64.7363 43.1642 64.7719 42.9769 64.8001C42.7913 64.8282 42.614 64.8423 42.445 64.8423ZM42.1566 62.8636C42.3787 62.8636 42.5585 62.8189 42.696 62.7294C42.8336 62.6399 42.9338 62.5049 42.9968 62.3242C43.0598 62.1436 43.0913 61.9157 43.0913 61.6406C43.0913 61.3622 43.0565 61.1451 42.9869 60.9893C42.9173 60.8336 42.8145 60.7242 42.6786 60.6612C42.5427 60.5982 42.3754 60.5668 42.1765 60.5668C41.9876 60.5668 41.826 60.6165 41.6918 60.7159C41.5592 60.8137 41.4573 60.9446 41.386 61.1087C41.3164 61.2711 41.2816 61.4484 41.2816 61.6406C41.2816 61.8527 41.3098 62.0524 41.3661 62.2397C41.4225 62.4253 41.5145 62.5761 41.6421 62.6921C41.7697 62.8065 41.9412 62.8636 42.1566 62.8636ZM47.5783 63.5795C47.2104 63.5795 46.893 63.4983 46.6262 63.3359C46.361 63.1719 46.1564 62.9432 46.0122 62.6499C45.8697 62.3549 45.7984 62.0118 45.7984 61.6207C45.7984 61.2296 45.8697 60.8849 46.0122 60.5866C46.1564 60.2867 46.3569 60.053 46.6138 59.8857C46.8723 59.7166 47.1739 59.6321 47.5186 59.6321C47.7175 59.6321 47.9138 59.6652 48.1077 59.7315C48.3016 59.7978 48.4781 59.9055 48.6372 60.0547C48.7963 60.2022 48.9231 60.3977 49.0175 60.6413C49.112 60.8849 49.1592 61.1849 49.1592 61.5412V61.7898H46.216V61.2827H48.5626C48.5626 61.0672 48.5195 60.875 48.4334 60.706C48.3488 60.5369 48.2279 60.4035 48.0704 60.3058C47.9147 60.208 47.7307 60.1591 47.5186 60.1591C47.2849 60.1591 47.0828 60.2171 46.9121 60.3331C46.743 60.4474 46.6129 60.5966 46.5218 60.7805C46.4306 60.9645 46.3851 61.1617 46.3851 61.3722V61.7102C46.3851 61.9986 46.4348 62.243 46.5342 62.4435C46.6353 62.6424 46.7753 62.794 46.9543 62.8984C47.1333 63.0012 47.3413 63.0526 47.5783 63.0526C47.7324 63.0526 47.8716 63.031 47.9959 62.9879C48.1218 62.9432 48.2304 62.8769 48.3215 62.7891C48.4127 62.6996 48.4831 62.5885 48.5328 62.456L49.0996 62.6151C49.0399 62.8073 48.9396 62.9763 48.7988 63.1222C48.6579 63.2663 48.4839 63.379 48.2768 63.4602C48.0696 63.5398 47.8368 63.5795 47.5783 63.5795ZM50.2966 59.6818L51.2114 61.2429L52.1261 59.6818H52.8023L51.5693 61.5909L52.8023 63.5H52.1261L51.2114 62.0185L50.2966 63.5H49.6204L50.8335 61.5909L49.6204 59.6818H50.2966ZM54.6729 63.5895C54.431 63.5895 54.2114 63.5439 54.0142 63.4528C53.817 63.36 53.6604 63.2266 53.5444 63.0526C53.4284 62.8769 53.3704 62.6648 53.3704 62.4162C53.3704 62.1974 53.4135 62.0201 53.4996 61.8842C53.5858 61.7467 53.701 61.639 53.8452 61.5611C53.9893 61.4832 54.1484 61.4252 54.3224 61.3871C54.4981 61.3473 54.6746 61.3158 54.8519 61.2926C55.0839 61.2628 55.272 61.2404 55.4162 61.2255C55.562 61.2089 55.6681 61.1816 55.7344 61.1435C55.8023 61.1054 55.8363 61.0391 55.8363 60.9446V60.9247C55.8363 60.6795 55.7692 60.4889 55.6349 60.353C55.5024 60.2171 55.301 60.1491 55.0309 60.1491C54.7508 60.1491 54.5312 60.2105 54.3722 60.3331C54.2131 60.4557 54.1012 60.5866 54.0366 60.7259L53.4798 60.527C53.5792 60.295 53.7118 60.1143 53.8775 59.9851C54.0449 59.8542 54.2271 59.763 54.4244 59.7116C54.6232 59.6586 54.8188 59.6321 55.011 59.6321C55.1336 59.6321 55.2745 59.647 55.4336 59.6768C55.5943 59.705 55.7493 59.7638 55.8984 59.8533C56.0492 59.9428 56.1744 60.0779 56.2738 60.2585C56.3732 60.4392 56.4229 60.6811 56.4229 60.9844V63.5H55.8363V62.983H55.8065C55.7667 63.0658 55.7004 63.1545 55.6076 63.2489C55.5148 63.3434 55.3913 63.4238 55.2372 63.4901C55.0831 63.5563 54.895 63.5895 54.6729 63.5895ZM54.7624 63.0625C54.9944 63.0625 55.19 63.0169 55.3491 62.9258C55.5098 62.8346 55.6308 62.717 55.712 62.5728C55.7949 62.4286 55.8363 62.277 55.8363 62.1179V61.581C55.8114 61.6108 55.7567 61.6381 55.6722 61.663C55.5894 61.6862 55.4932 61.7069 55.3839 61.7251C55.2762 61.7417 55.1709 61.7566 55.0682 61.7699C54.9671 61.7815 54.8851 61.7914 54.8221 61.7997C54.6696 61.8196 54.5271 61.8519 54.3945 61.8967C54.2636 61.9397 54.1575 62.0052 54.0763 62.093C53.9968 62.1792 53.957 62.2969 53.957 62.446C53.957 62.6499 54.0324 62.804 54.1832 62.9084C54.3357 63.0111 54.5288 63.0625 54.7624 63.0625ZM57.4037 63.5V59.6818H57.9704V60.2784H58.0202C58.0997 60.0746 58.2281 59.9163 58.4055 59.8036C58.5828 59.6893 58.7957 59.6321 59.0443 59.6321C59.2962 59.6321 59.5058 59.6893 59.6732 59.8036C59.8423 59.9163 59.974 60.0746 60.0685 60.2784H60.1082C60.206 60.0812 60.3527 59.9246 60.5482 59.8086C60.7438 59.6909 60.9783 59.6321 61.2517 59.6321C61.5931 59.6321 61.8723 59.739 62.0894 59.9528C62.3065 60.1649 62.4151 60.4955 62.4151 60.9446V63.5H61.8284V60.9446C61.8284 60.6629 61.7513 60.4615 61.5972 60.3406C61.4431 60.2196 61.2616 60.1591 61.0528 60.1591C60.7844 60.1591 60.5764 60.2403 60.4289 60.4027C60.2814 60.5634 60.2077 60.7673 60.2077 61.0142V63.5H59.6111V60.8849C59.6111 60.6679 59.5406 60.493 59.3998 60.3604C59.2589 60.2262 59.0775 60.1591 58.8554 60.1591C58.7029 60.1591 58.5604 60.1997 58.4278 60.2809C58.2969 60.3621 58.1909 60.4748 58.1097 60.619C58.0301 60.7615 57.9903 60.9264 57.9903 61.1136V63.5H57.4037ZM63.3977 64.9318V59.6818H63.9644V60.2884H64.034C64.0771 60.2221 64.1368 60.1375 64.213 60.0348C64.2909 59.9304 64.4019 59.8376 64.5461 59.7564C64.6919 59.6735 64.8891 59.6321 65.1377 59.6321C65.4592 59.6321 65.7426 59.7125 65.9879 59.8732C66.2331 60.034 66.4245 60.2618 66.5621 60.5568C66.6996 60.8518 66.7684 61.1998 66.7684 61.6009C66.7684 62.0052 66.6996 62.3557 66.5621 62.6523C66.4245 62.9473 66.234 63.176 65.9904 63.3384C65.7467 63.4992 65.4659 63.5795 65.1477 63.5795C64.9024 63.5795 64.706 63.5389 64.5585 63.4577C64.411 63.3749 64.2975 63.2812 64.218 63.1768C64.1384 63.0708 64.0771 62.983 64.034 62.9134H63.9843V64.9318H63.3977ZM63.9744 61.5909C63.9744 61.8793 64.0166 62.1336 64.1012 62.354C64.1857 62.5728 64.3091 62.7443 64.4715 62.8686C64.6339 62.9912 64.8328 63.0526 65.0681 63.0526C65.3134 63.0526 65.5181 62.9879 65.6821 62.8587C65.8478 62.7277 65.9721 62.5521 66.055 62.3317C66.1395 62.1096 66.1818 61.8627 66.1818 61.5909C66.1818 61.3224 66.1403 61.0805 66.0575 60.8651C65.9763 60.648 65.8528 60.4764 65.6871 60.3505C65.523 60.2229 65.3167 60.1591 65.0681 60.1591C64.8295 60.1591 64.629 60.2196 64.4666 60.3406C64.3042 60.4599 64.1815 60.6272 64.0987 60.8427C64.0158 61.0565 63.9744 61.3059 63.9744 61.5909ZM68.1599 58.4091V63.5H67.5733V58.4091H68.1599ZM70.7453 63.5795C70.3774 63.5795 70.06 63.4983 69.7932 63.3359C69.5281 63.1719 69.3234 62.9432 69.1792 62.6499C69.0367 62.3549 68.9655 62.0118 68.9655 61.6207C68.9655 61.2296 69.0367 60.8849 69.1792 60.5866C69.3234 60.2867 69.5239 60.053 69.7808 59.8857C70.0393 59.7166 70.3409 59.6321 70.6856 59.6321C70.8845 59.6321 71.0809 59.6652 71.2748 59.7315C71.4686 59.7978 71.6451 59.9055 71.8042 60.0547C71.9633 60.2022 72.0901 60.3977 72.1846 60.6413C72.279 60.8849 72.3262 61.1849 72.3262 61.5412V61.7898H69.3831V61.2827H71.7297C71.7297 61.0672 71.6866 60.875 71.6004 60.706C71.5159 60.5369 71.3949 60.4035 71.2375 60.3058C71.0817 60.208 70.8977 60.1591 70.6856 60.1591C70.452 60.1591 70.2498 60.2171 70.0791 60.3331C69.9101 60.4474 69.78 60.5966 69.6888 60.7805C69.5977 60.9645 69.5521 61.1617 69.5521 61.3722V61.7102C69.5521 61.9986 69.6018 62.243 69.7012 62.4435C69.8023 62.6424 69.9424 62.794 70.1213 62.8984C70.3003 63.0012 70.5083 63.0526 70.7453 63.0526C70.8994 63.0526 71.0386 63.031 71.1629 62.9879C71.2888 62.9432 71.3974 62.8769 71.4885 62.7891C71.5797 62.6996 71.6501 62.5885 71.6998 62.456L72.2666 62.6151C72.2069 62.8073 72.1067 62.9763 71.9658 63.1222C71.8249 63.2663 71.6509 63.379 71.4438 63.4602C71.2366 63.5398 71.0038 63.5795 70.7453 63.5795ZM73.5562 63.5398C73.4336 63.5398 73.3283 63.4959 73.2405 63.408C73.1527 63.3202 73.1088 63.215 73.1088 63.0923C73.1088 62.9697 73.1527 62.8645 73.2405 62.7766C73.3283 62.6888 73.4336 62.6449 73.5562 62.6449C73.6788 62.6449 73.7841 62.6888 73.8719 62.7766C73.9597 62.8645 74.0037 62.9697 74.0037 63.0923C74.0037 63.1735 73.9829 63.2481 73.9415 63.3161C73.9017 63.384 73.8479 63.4387 73.7799 63.4801C73.7136 63.5199 73.6391 63.5398 73.5562 63.5398ZM76.5175 63.5795C76.1596 63.5795 75.8513 63.495 75.5928 63.326C75.3343 63.157 75.1354 62.9241 74.9962 62.6275C74.857 62.3308 74.7874 61.992 74.7874 61.6108C74.7874 61.223 74.8587 60.8808 75.0012 60.5842C75.1454 60.2859 75.3459 60.053 75.6028 59.8857C75.8613 59.7166 76.1629 59.6321 76.5076 59.6321C76.776 59.6321 77.018 59.6818 77.2334 59.7812C77.4489 59.8807 77.6254 60.0199 77.7629 60.1989C77.9005 60.3778 77.9858 60.5866 78.0189 60.8253H77.4323C77.3876 60.6513 77.2881 60.4972 77.134 60.3629C76.9815 60.227 76.776 60.1591 76.5175 60.1591C76.2888 60.1591 76.0883 60.2187 75.916 60.3381C75.7453 60.4557 75.6119 60.6223 75.5157 60.8377C75.4213 61.0515 75.3741 61.3026 75.3741 61.5909C75.3741 61.8859 75.4205 62.1428 75.5133 62.3615C75.6077 62.5803 75.7403 62.7501 75.911 62.8711C76.0833 62.9921 76.2855 63.0526 76.5175 63.0526C76.67 63.0526 76.8084 63.026 76.9327 62.973C77.0569 62.92 77.1622 62.8438 77.2483 62.7443C77.3345 62.6449 77.3958 62.5256 77.4323 62.3864H78.0189C77.9858 62.6117 77.9038 62.8147 77.7728 62.9954C77.6436 63.1744 77.4721 63.3169 77.2583 63.4229C77.0462 63.5273 76.7992 63.5795 76.5175 63.5795ZM80.3377 63.5795C79.993 63.5795 79.6905 63.4975 79.4304 63.3335C79.1718 63.1694 78.9697 62.9399 78.8238 62.6449C78.6797 62.3499 78.6076 62.0052 78.6076 61.6108C78.6076 61.2131 78.6797 60.8659 78.8238 60.5692C78.9697 60.2726 79.1718 60.0423 79.4304 59.8782C79.6905 59.7141 79.993 59.6321 80.3377 59.6321C80.6824 59.6321 80.984 59.7141 81.2425 59.8782C81.5027 60.0423 81.7049 60.2726 81.849 60.5692C81.9949 60.8659 82.0678 61.2131 82.0678 61.6108C82.0678 62.0052 81.9949 62.3499 81.849 62.6449C81.7049 62.9399 81.5027 63.1694 81.2425 63.3335C80.984 63.4975 80.6824 63.5795 80.3377 63.5795ZM80.3377 63.0526C80.5995 63.0526 80.815 62.9854 80.984 62.8512C81.153 62.717 81.2781 62.5405 81.3593 62.3217C81.4405 62.103 81.4811 61.866 81.4811 61.6108C81.4811 61.3556 81.4405 61.1178 81.3593 60.8974C81.2781 60.677 81.153 60.4988 80.984 60.3629C80.815 60.227 80.5995 60.1591 80.3377 60.1591C80.0758 60.1591 79.8604 60.227 79.6914 60.3629C79.5223 60.4988 79.3972 60.677 79.316 60.8974C79.2348 61.1178 79.1942 61.3556 79.1942 61.6108C79.1942 61.866 79.2348 62.103 79.316 62.3217C79.3972 62.5405 79.5223 62.717 79.6914 62.8512C79.8604 62.9854 80.0758 63.0526 80.3377 63.0526ZM82.8733 63.5V59.6818H83.4401V60.2784H83.4898C83.5693 60.0746 83.6978 59.9163 83.8751 59.8036C84.0524 59.6893 84.2653 59.6321 84.5139 59.6321C84.7658 59.6321 84.9755 59.6893 85.1428 59.8036C85.3119 59.9163 85.4436 60.0746 85.5381 60.2784H85.5778C85.6756 60.0812 85.8223 59.9246 86.0178 59.8086C86.2134 59.6909 86.4479 59.6321 86.7213 59.6321C87.0627 59.6321 87.3419 59.739 87.559 59.9528C87.7761 60.1649 87.8847 60.4955 87.8847 60.9446V63.5H87.298V60.9446C87.298 60.6629 87.221 60.4615 87.0668 60.3406C86.9127 60.2196 86.7313 60.1591 86.5224 60.1591C86.254 60.1591 86.046 60.2403 85.8985 60.4027C85.751 60.5634 85.6773 60.7673 85.6773 61.0142V63.5H85.0807V60.8849C85.0807 60.6679 85.0103 60.493 84.8694 60.3604C84.7285 60.2262 84.5471 60.1591 84.325 60.1591C84.1725 60.1591 84.03 60.1997 83.8974 60.2809C83.7665 60.3621 83.6605 60.4748 83.5793 60.619C83.4997 60.7615 83.4599 60.9264 83.4599 61.1136V63.5H82.8733Z" fill="#8E9199"/>
<path d="M10.1534 87.5568V86.0312H10.4347C10.5313 85.9432 10.6222 85.8189 10.7074 85.6584C10.794 85.4964 10.8672 85.2805 10.9268 85.0107C10.9879 84.7393 11.0284 84.3949 11.0483 83.9773L11.142 82.1364H13.733V86.0312H14.2358V87.5483H13.733V86.5H10.6562V87.5568H10.1534ZM11.0653 86.0312H13.2301V82.6051H11.6193L11.5511 83.9773C11.5341 84.2955 11.5043 84.5838 11.4616 84.8423C11.419 85.0994 11.3643 85.3274 11.2976 85.5263C11.2308 85.7237 11.1534 85.892 11.0653 86.0312ZM16.2156 86.5682C15.9202 86.5682 15.6609 86.4979 15.4379 86.3572C15.2163 86.2166 15.043 86.0199 14.918 85.767C14.7945 85.5142 14.7327 85.2187 14.7327 84.8807C14.7327 84.5398 14.7945 84.2422 14.918 83.9879C15.043 83.7337 15.2163 83.5362 15.4379 83.3956C15.6609 83.255 15.9202 83.1847 16.2156 83.1847C16.5111 83.1847 16.7696 83.255 16.9912 83.3956C17.2142 83.5362 17.3875 83.7337 17.5111 83.9879C17.6361 84.2422 17.6986 84.5398 17.6986 84.8807C17.6986 85.2187 17.6361 85.5142 17.5111 85.767C17.3875 86.0199 17.2142 86.2166 16.9912 86.3572C16.7696 86.4979 16.5111 86.5682 16.2156 86.5682ZM16.2156 86.1165C16.4401 86.1165 16.6247 86.0589 16.7696 85.9439C16.9145 85.8288 17.0217 85.6776 17.0913 85.4901C17.1609 85.3026 17.1957 85.0994 17.1957 84.8807C17.1957 84.6619 17.1609 84.4581 17.0913 84.2692C17.0217 84.0803 16.9145 83.9276 16.7696 83.8111C16.6247 83.6946 16.4401 83.6364 16.2156 83.6364C15.9912 83.6364 15.8065 83.6946 15.6617 83.8111C15.5168 83.9276 15.4095 84.0803 15.3399 84.2692C15.2703 84.4581 15.2355 84.6619 15.2355 84.8807C15.2355 85.0994 15.2703 85.3026 15.3399 85.4901C15.4095 85.6776 15.5168 85.8288 15.6617 85.9439C15.8065 86.0589 15.9912 86.1165 16.2156 86.1165ZM18.3862 86.5V83.2273H20.96V86.5H20.4572V83.696H18.889V86.5H18.3862ZM23.1279 86.5682C22.8324 86.5682 22.5732 86.4979 22.3502 86.3572C22.1286 86.2166 21.9553 86.0199 21.8303 85.767C21.7067 85.5142 21.6449 85.2187 21.6449 84.8807C21.6449 84.5398 21.7067 84.2422 21.8303 83.9879C21.9553 83.7337 22.1286 83.5362 22.3502 83.3956C22.5732 83.255 22.8324 83.1847 23.1279 83.1847C23.4234 83.1847 23.6819 83.255 23.9035 83.3956C24.1265 83.5362 24.2998 83.7337 24.4234 83.9879C24.5484 84.2422 24.6109 84.5398 24.6109 84.8807C24.6109 85.2187 24.5484 85.5142 24.4234 85.767C24.2998 86.0199 24.1265 86.2166 23.9035 86.3572C23.6819 86.4979 23.4234 86.5682 23.1279 86.5682ZM23.1279 86.1165C23.3523 86.1165 23.537 86.0589 23.6819 85.9439C23.8268 85.8288 23.934 85.6776 24.0036 85.4901C24.0732 85.3026 24.108 85.0994 24.108 84.8807C24.108 84.6619 24.0732 84.4581 24.0036 84.2692C23.934 84.0803 23.8268 83.9276 23.6819 83.8111C23.537 83.6946 23.3523 83.6364 23.1279 83.6364C22.9035 83.6364 22.7188 83.6946 22.5739 83.8111C22.429 83.9276 22.3218 84.0803 22.2522 84.2692C22.1826 84.4581 22.1478 84.6619 22.1478 84.8807C22.1478 85.0994 22.1826 85.3026 22.2522 85.4901C22.3218 85.6776 22.429 85.8288 22.5739 85.9439C22.7188 86.0589 22.9035 86.1165 23.1279 86.1165ZM25.0087 86.5V86.0312H25.128C25.226 86.0312 25.3077 86.0121 25.373 85.9737C25.4383 85.9339 25.4909 85.8651 25.5307 85.767C25.5719 85.6676 25.6031 85.5298 25.6244 85.3537C25.6472 85.1761 25.6635 84.9503 25.6734 84.6761L25.7331 83.2273H27.9149V86.5H27.4121V83.696H26.2104L26.1592 84.8636C26.1479 85.1321 26.1237 85.3686 26.0868 85.5732C26.0513 85.7763 25.9966 85.9467 25.9227 86.0845C25.8503 86.2223 25.7537 86.326 25.6329 86.3956C25.5122 86.4652 25.3609 86.5 25.1791 86.5H25.0087ZM30.9478 84.6335V85.1023H29.141V84.6335H30.9478ZM29.2603 83.2273V86.5H28.7575V83.2273H29.2603ZM31.3314 83.2273V86.5H30.8285V83.2273H31.3314ZM32.6725 85.7585L34.2492 83.2273H34.8288V86.5H34.3259V83.9688L32.7577 86.5H32.1697V83.2273H32.6725V85.7585ZM35.2244 83.696V83.2273H37.8835V83.696H36.8097V86.5H36.3068V83.696H35.2244ZM39.7393 86.5682C39.4239 86.5682 39.1519 86.4986 38.9232 86.3594C38.6959 86.2188 38.5205 86.0227 38.3969 85.7713C38.2748 85.5185 38.2137 85.2244 38.2137 84.8892C38.2137 84.554 38.2748 84.2585 38.3969 84.0028C38.5205 83.7457 38.6924 83.5455 38.9126 83.402C39.1341 83.2571 39.3927 83.1847 39.6881 83.1847C39.8586 83.1847 40.0269 83.2131 40.1931 83.2699C40.3593 83.3267 40.5106 83.419 40.6469 83.5469C40.7833 83.6733 40.892 83.8409 40.9729 84.0497C41.0539 84.2585 41.0944 84.5156 41.0944 84.821V85.0341H38.5716V84.5994H40.583C40.583 84.4148 40.5461 84.25 40.4722 84.1051C40.3998 83.9602 40.2961 83.8459 40.1611 83.7621C40.0276 83.6783 39.8699 83.6364 39.6881 83.6364C39.4878 83.6364 39.3145 83.6861 39.1682 83.7855C39.0234 83.8835 38.9118 84.0114 38.8337 84.169C38.7556 84.3267 38.7165 84.4957 38.7165 84.6761V84.9659C38.7165 85.2131 38.7591 85.4226 38.8444 85.5945C38.931 85.7649 39.0511 85.8949 39.2045 85.9844C39.3579 86.0724 39.5361 86.1165 39.7393 86.1165C39.8714 86.1165 39.9907 86.098 40.0972 86.0611C40.2052 86.0227 40.2982 85.9659 40.3763 85.8906C40.4545 85.8139 40.5148 85.7187 40.5574 85.6051L41.0432 85.7415C40.9921 85.9062 40.9062 86.0511 40.7854 86.1761C40.6647 86.2997 40.5155 86.3963 40.338 86.4659C40.1604 86.5341 39.9609 86.5682 39.7393 86.5682ZM41.4895 86.5V86.0312H41.6088C41.7068 86.0312 41.7885 86.0121 41.8539 85.9737C41.9192 85.9339 41.9718 85.8651 42.0115 85.767C42.0527 85.6676 42.084 85.5298 42.1053 85.3537C42.128 85.1761 42.1443 84.9503 42.1543 84.6761L42.2139 83.2273H44.3958V86.5H43.8929V83.696H42.6912L42.6401 84.8636C42.6287 85.1321 42.6046 85.3686 42.5676 85.5732C42.5321 85.7763 42.4774 85.9467 42.4036 86.0845C42.3311 86.2223 42.2345 86.326 42.1138 86.3956C41.9931 86.4652 41.8418 86.5 41.66 86.5H41.4895ZM45.673 84.4119H46.6105C46.994 84.4119 47.2874 84.5092 47.4905 84.7038C47.6936 84.8984 47.7952 85.1449 47.7952 85.4432C47.7952 85.6392 47.7497 85.8175 47.6588 85.978C47.5679 86.1371 47.4344 86.2642 47.2582 86.3594C47.0821 86.4531 46.8662 86.5 46.6105 86.5H45.2384V83.2273H45.7412V86.0312H46.6105C46.8094 86.0312 46.9727 85.9787 47.1006 85.8736C47.2284 85.7685 47.2923 85.6335 47.2923 85.4688C47.2923 85.2955 47.2284 85.1541 47.1006 85.0447C46.9727 84.9354 46.8094 84.8807 46.6105 84.8807H45.673V84.4119ZM50.671 84.6335V85.1023H48.8641V84.6335H50.671ZM48.9835 83.2273V86.5H48.4806V83.2273H48.9835ZM51.0545 83.2273V86.5H50.5516V83.2273H51.0545ZM52.8559 86.5767C52.6485 86.5767 52.4603 86.5376 52.2912 86.4595C52.1222 86.38 51.988 86.2656 51.8885 86.1165C51.7891 85.9659 51.7394 85.7841 51.7394 85.571C51.7394 85.3835 51.7763 85.2315 51.8502 85.1151C51.9241 84.9972 52.0228 84.9048 52.1464 84.8381C52.2699 84.7713 52.4063 84.7216 52.5554 84.6889C52.706 84.6548 52.8573 84.6278 53.0093 84.608C53.2081 84.5824 53.3694 84.5632 53.4929 84.5504C53.6179 84.5362 53.7089 84.5128 53.7657 84.4801C53.8239 84.4474 53.853 84.3906 53.853 84.3097V84.2926C53.853 84.0824 53.7955 83.919 53.6804 83.8026C53.5668 83.6861 53.3942 83.6278 53.1627 83.6278C52.9226 83.6278 52.7344 83.6804 52.5981 83.7855C52.4617 83.8906 52.3658 84.0028 52.3104 84.1222L51.8331 83.9517C51.9184 83.7528 52.032 83.598 52.1741 83.4872C52.3175 83.375 52.4738 83.2969 52.6428 83.2528C52.8133 83.2074 52.9809 83.1847 53.1456 83.1847C53.2508 83.1847 53.3715 83.1974 53.5079 83.223C53.6456 83.2472 53.7785 83.2976 53.9063 83.3743C54.0356 83.451 54.1428 83.5668 54.228 83.7216C54.3133 83.8764 54.3559 84.0838 54.3559 84.3438V86.5H53.853V86.0568H53.8275C53.7934 86.1278 53.7366 86.2038 53.657 86.2848C53.5775 86.3658 53.4716 86.4347 53.3395 86.4915C53.2074 86.5483 53.0462 86.5767 52.8559 86.5767ZM52.9326 86.125C53.1314 86.125 53.2991 86.0859 53.4354 86.0078C53.5732 85.9297 53.6769 85.8288 53.7465 85.7053C53.8175 85.5817 53.853 85.4517 53.853 85.3153V84.8551C53.8317 84.8807 53.7849 84.9041 53.7124 84.9254C53.6414 84.9453 53.559 84.9631 53.4652 84.9787C53.3729 84.9929 53.2827 85.0057 53.1947 85.017C53.108 85.027 53.0377 85.0355 52.9837 85.0426C52.853 85.0597 52.7309 85.0874 52.6172 85.1257C52.505 85.1626 52.4141 85.2187 52.3445 85.294C52.2763 85.3679 52.2422 85.4687 52.2422 85.5966C52.2422 85.7713 52.3069 85.9034 52.4361 85.9929C52.5668 86.081 52.7323 86.125 52.9326 86.125ZM57.1624 86.5V83.6875H56.2931C56.0971 83.6875 55.943 83.733 55.8307 83.8239C55.7185 83.9148 55.6624 84.0398 55.6624 84.1989C55.6624 84.3551 55.7128 84.478 55.8137 84.5675C55.916 84.657 56.0559 84.7017 56.2334 84.7017H57.2903V85.1705H56.2334C56.0118 85.1705 55.8208 85.1314 55.6603 85.0533C55.4998 84.9751 55.3762 84.8636 55.2895 84.7188C55.2029 84.5724 55.1596 84.3991 55.1596 84.1989C55.1596 83.9972 55.205 83.8239 55.2959 83.679C55.3868 83.5341 55.5168 83.4226 55.6859 83.3445C55.8563 83.2663 56.0587 83.2273 56.2931 83.2273H57.6397V86.5H57.1624ZM54.9806 86.5L55.9096 84.8722H56.455L55.5261 86.5H54.9806ZM60.5931 85.7585L62.1699 83.2273H62.7494V86.5H62.2466V83.9688L60.6784 86.5H60.0903V83.2273H60.5931V85.7585ZM65.7807 84.6335V85.1023H63.9739V84.6335H65.7807ZM64.0932 83.2273V86.5H63.5904V83.2273H64.0932ZM66.1642 83.2273V86.5H65.6614V83.2273H66.1642ZM68.3321 87.6165V82.1364H68.835V87.6165H68.3321ZM68.3321 86.5682C68.1105 86.5682 67.9088 86.5284 67.727 86.4489C67.5452 86.3679 67.3889 86.2536 67.2583 86.1058C67.1276 85.9567 67.0267 85.7784 66.9557 85.571C66.8847 85.3636 66.8492 85.1335 66.8492 84.8807C66.8492 84.625 66.8847 84.3935 66.9557 84.1861C67.0267 83.9773 67.1276 83.7983 67.2583 83.6491C67.3889 83.5 67.5452 83.3857 67.727 83.3061C67.9088 83.2251 68.1105 83.1847 68.3321 83.1847H68.4855V86.5682H68.3321ZM68.3321 86.1165H68.4173V83.6364H68.3321C68.1645 83.6364 68.0189 83.6705 67.8953 83.7386C67.7717 83.8054 67.6695 83.897 67.5885 84.0135C67.509 84.1286 67.4493 84.2607 67.4095 84.4098C67.3712 84.5589 67.352 84.7159 67.352 84.8807C67.352 85.0994 67.3868 85.3026 67.4564 85.4901C67.526 85.6776 67.6333 85.8288 67.7781 85.9439C67.923 86.0589 68.1077 86.1165 68.3321 86.1165ZM68.835 86.5682H68.6815V83.1847H68.835C69.0565 83.1847 69.2583 83.2251 69.4401 83.3061C69.6219 83.3857 69.7781 83.5 69.9088 83.6491C70.0395 83.7983 70.1404 83.9773 70.2114 84.1861C70.2824 84.3935 70.3179 84.625 70.3179 84.8807C70.3179 85.1335 70.2824 85.3636 70.2114 85.571C70.1404 85.7784 70.0395 85.9567 69.9088 86.1058C69.7781 86.2536 69.6219 86.3679 69.4401 86.4489C69.2583 86.5284 69.0565 86.5682 68.835 86.5682ZM68.835 86.1165C69.004 86.1165 69.1496 86.0838 69.2717 86.0185C69.3953 85.9517 69.4969 85.8608 69.5764 85.7457C69.6574 85.6293 69.7171 85.4972 69.7554 85.3494C69.7952 85.2003 69.8151 85.044 69.8151 84.8807C69.8151 84.6619 69.7803 84.4581 69.7107 84.2692C69.6411 84.0803 69.5338 83.9276 69.3889 83.8111C69.244 83.6946 69.0594 83.6364 68.835 83.6364H68.7497V86.1165H68.835ZM72.3361 86.5682C72.0406 86.5682 71.7814 86.4979 71.5584 86.3572C71.3368 86.2166 71.1635 86.0199 71.0385 85.767C70.9149 85.5142 70.8531 85.2187 70.8531 84.8807C70.8531 84.5398 70.9149 84.2422 71.0385 83.9879C71.1635 83.7337 71.3368 83.5362 71.5584 83.3956C71.7814 83.255 72.0406 83.1847 72.3361 83.1847C72.6316 83.1847 72.8901 83.255 73.1117 83.3956C73.3347 83.5362 73.508 83.7337 73.6316 83.9879C73.7566 84.2422 73.8191 84.5398 73.8191 84.8807C73.8191 85.2187 73.7566 85.5142 73.6316 85.767C73.508 86.0199 73.3347 86.2166 73.1117 86.3572C72.8901 86.4979 72.6316 86.5682 72.3361 86.5682ZM72.3361 86.1165C72.5605 86.1165 72.7452 86.0589 72.8901 85.9439C73.035 85.8288 73.1422 85.6776 73.2118 85.4901C73.2814 85.3026 73.3162 85.0994 73.3162 84.8807C73.3162 84.6619 73.2814 84.4581 73.2118 84.2692C73.1422 84.0803 73.035 83.9276 72.8901 83.8111C72.7452 83.6946 72.5605 83.6364 72.3361 83.6364C72.1117 83.6364 71.927 83.6946 71.7821 83.8111C71.6372 83.9276 71.53 84.0803 71.4604 84.2692C71.3908 84.4581 71.356 84.6619 71.356 84.8807C71.356 85.0994 71.3908 85.3026 71.4604 85.4901C71.53 85.6776 71.6372 85.8288 71.7821 85.9439C71.927 86.0589 72.1117 86.1165 72.3361 86.1165ZM74.5066 87.7273V83.2273H74.9924V83.7472H75.0521C75.089 83.6903 75.1402 83.6179 75.2055 83.5298C75.2723 83.4403 75.3674 83.3608 75.491 83.2912C75.616 83.2202 75.785 83.1847 75.9981 83.1847C76.2737 83.1847 76.5166 83.2536 76.7268 83.3913C76.937 83.5291 77.1011 83.7244 77.219 83.9773C77.3369 84.2301 77.3958 84.5284 77.3958 84.8722C77.3958 85.2188 77.3369 85.5192 77.219 85.7734C77.1011 86.0263 76.9377 86.2223 76.7289 86.3615C76.5201 86.4993 76.2794 86.5682 76.0066 86.5682C75.7964 86.5682 75.6281 86.5334 75.5017 86.4638C75.3752 86.3928 75.2779 86.3125 75.2098 86.223C75.1416 86.1321 75.089 86.0568 75.0521 85.9972H75.0095V87.7273H74.5066ZM75.001 84.8636C75.001 85.1108 75.0372 85.3288 75.1096 85.5178C75.1821 85.7053 75.2879 85.8523 75.4271 85.9588C75.5663 86.0639 75.7368 86.1165 75.9385 86.1165C76.1487 86.1165 76.3241 86.0611 76.4647 85.9503C76.6068 85.8381 76.7133 85.6875 76.7843 85.4986C76.8568 85.3082 76.893 85.0966 76.893 84.8636C76.893 84.6335 76.8575 84.4261 76.7865 84.2415C76.7169 84.0554 76.611 83.9084 76.469 83.8004C76.3284 83.6911 76.1515 83.6364 75.9385 83.6364C75.7339 83.6364 75.562 83.6882 75.4228 83.7919C75.2836 83.8942 75.1785 84.0376 75.1075 84.2223C75.0365 84.4055 75.001 84.6193 75.001 84.8636ZM79.8727 85.8182L81.0147 83.2273H81.492L80.0772 86.5H79.6681L78.2789 83.2273H78.7477L79.8727 85.8182ZM78.5857 83.2273V86.5H78.0829V83.2273H78.5857ZM81.1596 86.5V83.2273H81.6624V86.5H81.1596ZM83.466 86.5767C83.2586 86.5767 83.0704 86.5376 82.9013 86.4595C82.7323 86.38 82.5981 86.2656 82.4986 86.1165C82.3992 85.9659 82.3495 85.7841 82.3495 85.571C82.3495 85.3835 82.3864 85.2315 82.4603 85.1151C82.5341 84.9972 82.6329 84.9048 82.7564 84.8381C82.88 84.7713 83.0164 84.7216 83.1655 84.6889C83.3161 84.6548 83.4674 84.6278 83.6194 84.608C83.8182 84.5824 83.9794 84.5632 84.103 84.5504C84.228 84.5362 84.3189 84.5128 84.3758 84.4801C84.434 84.4474 84.4631 84.3906 84.4631 84.3097V84.2926C84.4631 84.0824 84.4056 83.919 84.2905 83.8026C84.1769 83.6861 84.0043 83.6278 83.7728 83.6278C83.5327 83.6278 83.3445 83.6804 83.2081 83.7855C83.0718 83.8906 82.9759 84.0028 82.9205 84.1222L82.4432 83.9517C82.5285 83.7528 82.6421 83.598 82.7841 83.4872C82.9276 83.375 83.0838 83.2969 83.2529 83.2528C83.4233 83.2074 83.591 83.1847 83.7557 83.1847C83.8608 83.1847 83.9816 83.1974 84.1179 83.223C84.2557 83.2472 84.3885 83.2976 84.5164 83.3743C84.6456 83.451 84.7529 83.5668 84.8381 83.7216C84.9233 83.8764 84.966 84.0838 84.966 84.3438V86.5H84.4631V86.0568H84.4375C84.4035 86.1278 84.3466 86.2038 84.2671 86.2848C84.1875 86.3658 84.0817 86.4347 83.9496 86.4915C83.8175 86.5483 83.6563 86.5767 83.466 86.5767ZM83.5427 86.125C83.7415 86.125 83.9091 86.0859 84.0455 86.0078C84.1833 85.9297 84.287 85.8288 84.3566 85.7053C84.4276 85.5817 84.4631 85.4517 84.4631 85.3153V84.8551C84.4418 84.8807 84.3949 84.9041 84.3225 84.9254C84.2515 84.9453 84.1691 84.9631 84.0753 84.9787C83.983 84.9929 83.8928 85.0057 83.8047 85.017C83.7181 85.027 83.6478 85.0355 83.5938 85.0426C83.4631 85.0597 83.341 85.0874 83.2273 85.1257C83.1151 85.1626 83.0242 85.2187 82.9546 85.294C82.8864 85.3679 82.8523 85.4687 82.8523 85.5966C82.8523 85.7713 82.9169 85.9034 83.0462 85.9929C83.1769 86.081 83.3424 86.125 83.5427 86.125ZM88.3776 83.2273V86.0312H88.8378V87.5568H88.335V86.5H85.8037V83.2273H86.3066V86.0312H87.8748V83.2273H88.3776ZM90.0352 85.7585L91.6119 83.2273H92.1914V86.5H91.6886V83.9688L90.1204 86.5H89.5323V83.2273H90.0352V85.7585ZM95.0012 86.5V83.6875H94.1318C93.9358 83.6875 93.7817 83.733 93.6695 83.8239C93.5573 83.9148 93.5012 84.0398 93.5012 84.1989C93.5012 84.3551 93.5516 84.478 93.6524 84.5675C93.7547 84.657 93.8946 84.7017 94.0722 84.7017H95.129V85.1705H94.0722C93.8506 85.1705 93.6595 85.1314 93.499 85.0533C93.3385 84.9751 93.2149 84.8636 93.1283 84.7188C93.0416 84.5724 92.9983 84.3991 92.9983 84.1989C92.9983 83.9972 93.0438 83.8239 93.1347 83.679C93.2256 83.5341 93.3556 83.4226 93.5246 83.3445C93.6951 83.2663 93.8975 83.2273 94.1318 83.2273H95.4784V86.5H95.0012ZM92.8193 86.5L93.7483 84.8722H94.2938L93.3648 86.5H92.8193ZM99.2586 86.5682C98.9631 86.5682 98.7039 86.4979 98.4809 86.3572C98.2593 86.2166 98.086 86.0199 97.961 85.767C97.8374 85.5142 97.7756 85.2187 97.7756 84.8807C97.7756 84.5398 97.8374 84.2422 97.961 83.9879C98.086 83.7337 98.2593 83.5362 98.4809 83.3956C98.7039 83.255 98.9631 83.1847 99.2586 83.1847C99.5541 83.1847 99.8126 83.255 100.034 83.3956C100.257 83.5362 100.43 83.7337 100.554 83.9879C100.679 84.2422 100.742 84.5398 100.742 84.8807C100.742 85.2187 100.679 85.5142 100.554 85.767C100.43 86.0199 100.257 86.2166 100.034 86.3572C99.8126 86.4979 99.5541 86.5682 99.2586 86.5682ZM99.2586 86.1165C99.483 86.1165 99.6677 86.0589 99.8126 85.9439C99.9575 85.8288 100.065 85.6776 100.134 85.4901C100.204 85.3026 100.239 85.0994 100.239 84.8807C100.239 84.6619 100.204 84.4581 100.134 84.2692C100.065 84.0803 99.9575 83.9276 99.8126 83.8111C99.6677 83.6946 99.483 83.6364 99.2586 83.6364C99.0342 83.6364 98.8495 83.6946 98.7046 83.8111C98.5597 83.9276 98.4525 84.0803 98.3829 84.2692C98.3133 84.4581 98.2785 84.6619 98.2785 84.8807C98.2785 85.0994 98.3133 85.3026 98.3829 85.4901C98.4525 85.6776 98.5597 85.8288 98.7046 85.9439C98.8495 86.0589 99.0342 86.1165 99.2586 86.1165ZM103.037 87.7273V83.2273H103.522V83.7472H103.582C103.619 83.6903 103.67 83.6179 103.735 83.5298C103.802 83.4403 103.897 83.3608 104.021 83.2912C104.146 83.2202 104.315 83.1847 104.528 83.1847C104.804 83.1847 105.047 83.2536 105.257 83.3913C105.467 83.5291 105.631 83.7244 105.749 83.9773C105.867 84.2301 105.926 84.5284 105.926 84.8722C105.926 85.2188 105.867 85.5192 105.749 85.7734C105.631 86.0263 105.468 86.2223 105.259 86.3615C105.05 86.4993 104.809 86.5682 104.537 86.5682C104.326 86.5682 104.158 86.5334 104.032 86.4638C103.905 86.3928 103.808 86.3125 103.74 86.223C103.672 86.1321 103.619 86.0568 103.582 85.9972H103.539V87.7273H103.037ZM103.531 84.8636C103.531 85.1108 103.567 85.3288 103.64 85.5178C103.712 85.7053 103.818 85.8523 103.957 85.9588C104.096 86.0639 104.267 86.1165 104.468 86.1165C104.679 86.1165 104.854 86.0611 104.995 85.9503C105.137 85.8381 105.243 85.6875 105.314 85.4986C105.387 85.3082 105.423 85.0966 105.423 84.8636C105.423 84.6335 105.387 84.4261 105.316 84.2415C105.247 84.0554 105.141 83.9084 104.999 83.8004C104.858 83.6911 104.682 83.6364 104.468 83.6364C104.264 83.6364 104.092 83.6882 103.953 83.7919C103.814 83.8942 103.709 84.0376 103.637 84.2223C103.566 84.4055 103.531 84.6193 103.531 84.8636ZM107.985 86.5682C107.67 86.5682 107.398 86.4986 107.169 86.3594C106.942 86.2188 106.766 86.0227 106.643 85.7713C106.521 85.5185 106.459 85.2244 106.459 84.8892C106.459 84.554 106.521 84.2585 106.643 84.0028C106.766 83.7457 106.938 83.5455 107.158 83.402C107.38 83.2571 107.638 83.1847 107.934 83.1847C108.104 83.1847 108.273 83.2131 108.439 83.2699C108.605 83.3267 108.756 83.419 108.893 83.5469C109.029 83.6733 109.138 83.8409 109.219 84.0497C109.3 84.2585 109.34 84.5156 109.34 84.821V85.0341H106.817V84.5994H108.829C108.829 84.4148 108.792 84.25 108.718 84.1051C108.646 83.9602 108.542 83.8459 108.407 83.7621C108.273 83.6783 108.116 83.6364 107.934 83.6364C107.734 83.6364 107.56 83.6861 107.414 83.7855C107.269 83.8835 107.158 84.0114 107.08 84.169C107.001 84.3267 106.962 84.4957 106.962 84.6761V84.9659C106.962 85.2131 107.005 85.4226 107.09 85.5945C107.177 85.7649 107.297 85.8949 107.45 85.9844C107.604 86.0724 107.782 86.1165 107.985 86.1165C108.117 86.1165 108.236 86.098 108.343 86.0611C108.451 86.0227 108.544 85.9659 108.622 85.8906C108.7 85.8139 108.761 85.7187 108.803 85.6051L109.289 85.7415C109.238 85.9062 109.152 86.0511 109.031 86.1761C108.91 86.2997 108.761 86.3963 108.584 86.4659C108.406 86.5341 108.207 86.5682 107.985 86.5682ZM112.045 83.2273V83.696H110.528V86.5H110.025V83.2273H112.045ZM113.202 85.7585L114.779 83.2273H115.358V86.5H114.855V83.9688L113.287 86.5H112.699V83.2273H113.202V85.7585ZM117.529 86.5682C117.222 86.5682 116.958 86.4957 116.736 86.3509C116.514 86.206 116.344 86.0064 116.225 85.7521C116.105 85.4979 116.046 85.2074 116.046 84.8807C116.046 84.5483 116.107 84.255 116.229 84.0007C116.352 83.745 116.524 83.5455 116.745 83.402C116.966 83.2571 117.225 83.1847 117.52 83.1847C117.75 83.1847 117.958 83.2273 118.142 83.3125C118.327 83.3977 118.478 83.517 118.596 83.6705C118.714 83.8239 118.787 84.0028 118.816 84.2074H118.313C118.274 84.0582 118.189 83.9261 118.057 83.8111C117.926 83.6946 117.75 83.6364 117.529 83.6364C117.333 83.6364 117.161 83.6875 117.013 83.7898C116.867 83.8906 116.752 84.0334 116.67 84.218C116.589 84.4013 116.548 84.6165 116.548 84.8636C116.548 85.1165 116.588 85.3366 116.668 85.5241C116.749 85.7116 116.862 85.8572 117.009 85.9609C117.156 86.0646 117.33 86.1165 117.529 86.1165C117.659 86.1165 117.778 86.0938 117.884 86.0483C117.991 86.0028 118.081 85.9375 118.155 85.8523C118.229 85.767 118.281 85.6648 118.313 85.5455H118.816C118.787 85.7386 118.717 85.9126 118.605 86.0675C118.494 86.2209 118.347 86.343 118.164 86.4339C117.982 86.5234 117.77 86.5682 117.529 86.5682ZM119.213 83.696V83.2273H121.872V83.696H120.798V86.5H120.295V83.696H119.213ZM122.525 87.7273V83.2273H123.011V83.7472H123.071C123.108 83.6903 123.159 83.6179 123.224 83.5298C123.291 83.4403 123.386 83.3608 123.51 83.2912C123.635 83.2202 123.804 83.1847 124.017 83.1847C124.292 83.1847 124.535 83.2536 124.746 83.3913C124.956 83.5291 125.12 83.7244 125.238 83.9773C125.356 84.2301 125.415 84.5284 125.415 84.8722C125.415 85.2188 125.356 85.5192 125.238 85.7734C125.12 86.0263 124.956 86.2223 124.748 86.3615C124.539 86.4993 124.298 86.5682 124.025 86.5682C123.815 86.5682 123.647 86.5334 123.52 86.4638C123.394 86.3928 123.297 86.3125 123.229 86.223C123.16 86.1321 123.108 86.0568 123.071 85.9972H123.028V87.7273H122.525ZM123.02 84.8636C123.02 85.1108 123.056 85.3288 123.128 85.5178C123.201 85.7053 123.307 85.8523 123.446 85.9588C123.585 86.0639 123.755 86.1165 123.957 86.1165C124.167 86.1165 124.343 86.0611 124.483 85.9503C124.626 85.8381 124.732 85.6875 124.803 85.4986C124.876 85.3082 124.912 85.0966 124.912 84.8636C124.912 84.6335 124.876 84.4261 124.805 84.2415C124.736 84.0554 124.63 83.9084 124.488 83.8004C124.347 83.6911 124.17 83.6364 123.957 83.6364C123.753 83.6364 123.581 83.6882 123.442 83.7919C123.302 83.8942 123.197 84.0376 123.126 84.2223C123.055 84.4055 123.02 84.6193 123.02 84.8636ZM127.065 86.5767C126.857 86.5767 126.669 86.5376 126.5 86.4595C126.331 86.38 126.197 86.2656 126.097 86.1165C125.998 85.9659 125.948 85.7841 125.948 85.571C125.948 85.3835 125.985 85.2315 126.059 85.1151C126.133 84.9972 126.232 84.9048 126.355 84.8381C126.479 84.7713 126.615 84.7216 126.764 84.6889C126.915 84.6548 127.066 84.6278 127.218 84.608C127.417 84.5824 127.578 84.5632 127.702 84.5504C127.827 84.5362 127.918 84.5128 127.974 84.4801C128.033 84.4474 128.062 84.3906 128.062 84.3097V84.2926C128.062 84.0824 128.004 83.919 127.889 83.8026C127.776 83.6861 127.603 83.6278 127.372 83.6278C127.131 83.6278 126.943 83.6804 126.807 83.7855C126.671 83.8906 126.575 84.0028 126.519 84.1222L126.042 83.9517C126.127 83.7528 126.241 83.598 126.383 83.4872C126.526 83.375 126.683 83.2969 126.852 83.2528C127.022 83.2074 127.19 83.1847 127.354 83.1847C127.46 83.1847 127.58 83.1974 127.717 83.223C127.854 83.2472 127.987 83.2976 128.115 83.3743C128.244 83.451 128.352 83.5668 128.437 83.7216C128.522 83.8764 128.565 84.0838 128.565 84.3438V86.5H128.062V86.0568H128.036C128.002 86.1278 127.945 86.2038 127.866 86.2848C127.786 86.3658 127.68 86.4347 127.548 86.4915C127.416 86.5483 127.255 86.5767 127.065 86.5767ZM127.141 86.125C127.34 86.125 127.508 86.0859 127.644 86.0078C127.782 85.9297 127.886 85.8288 127.955 85.7053C128.026 85.5817 128.062 85.4517 128.062 85.3153V84.8551C128.041 84.8807 127.994 84.9041 127.921 84.9254C127.85 84.9453 127.768 84.9631 127.674 84.9787C127.582 84.9929 127.492 85.0057 127.403 85.017C127.317 85.027 127.247 85.0355 127.193 85.0426C127.062 85.0597 126.94 85.0874 126.826 85.1257C126.714 85.1626 126.623 85.2187 126.553 85.294C126.485 85.3679 126.451 85.4687 126.451 85.5966C126.451 85.7713 126.516 85.9034 126.645 85.9929C126.776 86.081 126.941 86.125 127.141 86.125ZM131.976 83.2273V86.0312H132.437V87.5568H131.934V86.5H129.402V83.2273H129.905V86.0312H131.474V83.2273H131.976ZM133.634 85.7585L135.211 83.2273H135.79V86.5H135.287V83.9688L133.719 86.5H133.131V83.2273H133.634V85.7585ZM137.134 85.7585L138.711 83.2273H139.29V86.5H138.787V83.9688L137.219 86.5H136.631V83.2273H137.134V85.7585Z" fill="#8E9199"/>
<path d="M10 192C10 188.686 12.6863 186 16 186H170C173.314 186 176 188.686 176 192V215C176 218.314 173.314 221 170 221H16C12.6863 221 10 218.314 10 215V192Z" fill="#3B82F6"/>
<path d="M46.6785 207.599C46.2098 207.599 45.7919 207.519 45.425 207.358C45.0604 207.197 44.7704 206.973 44.5549 206.687C44.3419 206.398 44.2259 206.063 44.2069 205.682H45.1018C45.1207 205.916 45.2012 206.119 45.3433 206.289C45.4853 206.457 45.6712 206.587 45.9008 206.68C46.1304 206.772 46.3849 206.818 46.6643 206.818C46.9768 206.818 47.2538 206.764 47.4953 206.655C47.7367 206.546 47.9261 206.394 48.0635 206.2C48.2008 206.006 48.2694 205.781 48.2694 205.526C48.2694 205.258 48.2031 205.022 48.0706 204.819C47.938 204.613 47.7438 204.452 47.4882 204.336C47.2325 204.22 46.92 204.162 46.5507 204.162H45.9683V203.381H46.5507C46.8395 203.381 47.0928 203.329 47.3106 203.224C47.5308 203.12 47.7024 202.973 47.8255 202.784C47.951 202.595 48.0137 202.372 48.0137 202.116C48.0137 201.87 47.9593 201.656 47.8504 201.474C47.7415 201.291 47.5876 201.149 47.3887 201.048C47.1922 200.946 46.9602 200.895 46.6927 200.895C46.4418 200.895 46.205 200.941 45.9825 201.033C45.7623 201.123 45.5824 201.255 45.4427 201.428C45.303 201.598 45.2273 201.804 45.2154 202.045H44.3632C44.3774 201.664 44.4922 201.33 44.7076 201.044C44.9231 200.755 45.2048 200.53 45.5528 200.369C45.9032 200.208 46.2879 200.128 46.7069 200.128C47.1567 200.128 47.5426 200.219 47.8646 200.401C48.1866 200.581 48.434 200.819 48.6068 201.115C48.7796 201.411 48.866 201.731 48.866 202.074C48.866 202.483 48.7583 202.833 48.5429 203.121C48.3298 203.41 48.0398 203.61 47.6728 203.722V203.778C48.1321 203.854 48.4908 204.049 48.7488 204.364C49.0069 204.677 49.1359 205.064 49.1359 205.526C49.1359 205.921 49.0282 206.276 48.8127 206.591C48.5997 206.903 48.3085 207.15 47.9392 207.33C47.5698 207.509 47.1496 207.599 46.6785 207.599ZM52.0776 207.628C51.732 207.628 51.4183 207.563 51.1366 207.433C50.8549 207.3 50.6311 207.109 50.4654 206.861C50.2997 206.61 50.2168 206.307 50.2168 205.952C50.2168 205.639 50.2784 205.386 50.4015 205.192C50.5246 204.995 50.6891 204.841 50.8951 204.73C51.1011 204.619 51.3283 204.536 51.5769 204.482C51.8279 204.425 52.08 204.38 52.3333 204.347C52.6647 204.304 52.9335 204.272 53.1394 204.251C53.3478 204.227 53.4993 204.188 53.594 204.134C53.691 204.079 53.7396 203.984 53.7396 203.849V203.821C53.7396 203.471 53.6437 203.198 53.4519 203.004C53.2625 202.81 52.9749 202.713 52.589 202.713C52.1889 202.713 51.8752 202.801 51.6479 202.976C51.4207 203.151 51.2609 203.338 51.1685 203.537L50.3731 203.253C50.5151 202.921 50.7045 202.663 50.9413 202.479C51.1804 202.292 51.4408 202.161 51.7225 202.088C52.0066 202.012 52.286 201.974 52.5606 201.974C52.7358 201.974 52.937 201.996 53.1643 202.038C53.3939 202.079 53.6153 202.163 53.8283 202.29C54.0438 202.418 54.2225 202.611 54.3646 202.869C54.5066 203.127 54.5776 203.473 54.5776 203.906V207.5H53.7396V206.761H53.6969C53.6401 206.88 53.5454 207.006 53.4129 207.141C53.2803 207.276 53.1039 207.391 52.8837 207.486C52.6636 207.58 52.3949 207.628 52.0776 207.628ZM52.2055 206.875C52.5369 206.875 52.8163 206.81 53.0435 206.68C53.2732 206.549 53.446 206.381 53.562 206.175C53.6804 205.969 53.7396 205.753 53.7396 205.526V204.759C53.704 204.801 53.6259 204.84 53.5052 204.876C53.3868 204.909 53.2495 204.938 53.0933 204.964C52.9394 204.988 52.789 205.009 52.6423 205.028C52.4978 205.045 52.3807 205.059 52.2907 205.071C52.0729 205.099 51.8693 205.146 51.6799 205.21C51.4929 205.271 51.3414 205.365 51.2254 205.49C51.1117 205.613 51.0549 205.781 51.0549 205.994C51.0549 206.286 51.1626 206.506 51.3781 206.655C51.5959 206.802 51.8717 206.875 52.2055 206.875ZM55.9773 209.545V202.045H56.7869V202.912H56.8864C56.9479 202.817 57.0332 202.696 57.1421 202.55C57.2533 202.401 57.4119 202.268 57.6179 202.152C57.8262 202.034 58.108 201.974 58.4631 201.974C58.9224 201.974 59.3272 202.089 59.6776 202.319C60.0279 202.549 60.3014 202.874 60.4979 203.295C60.6944 203.717 60.7926 204.214 60.7926 204.787C60.7926 205.365 60.6944 205.865 60.4979 206.289C60.3014 206.71 60.0291 207.037 59.6811 207.269C59.3331 207.499 58.9318 207.614 58.4773 207.614C58.1269 207.614 57.8464 207.556 57.6357 207.44C57.425 207.321 57.2628 207.187 57.1492 207.038C57.0355 206.887 56.9479 206.761 56.8864 206.662H56.8153V209.545H55.9773ZM56.8011 204.773C56.8011 205.185 56.8615 205.548 56.9823 205.863C57.103 206.175 57.2794 206.42 57.5114 206.598C57.7434 206.773 58.0275 206.861 58.3636 206.861C58.714 206.861 59.0064 206.768 59.2408 206.584C59.4775 206.397 59.6551 206.146 59.7734 205.831C59.8942 205.514 59.9546 205.161 59.9546 204.773C59.9546 204.389 59.8954 204.044 59.777 203.736C59.661 203.426 59.4846 203.181 59.2479 203.001C59.0135 202.818 58.7188 202.727 58.3636 202.727C58.0227 202.727 57.7363 202.814 57.5043 202.987C57.2723 203.157 57.0971 203.396 56.9787 203.704C56.8603 204.009 56.8011 204.366 56.8011 204.773ZM64.228 207.614C63.7024 207.614 63.249 207.498 62.8679 207.266C62.4891 207.031 62.1967 206.705 61.9907 206.286C61.7871 205.864 61.6853 205.374 61.6853 204.815C61.6853 204.257 61.7871 203.764 61.9907 203.338C62.1967 202.91 62.4832 202.576 62.8501 202.337C63.2194 202.095 63.6503 201.974 64.1427 201.974C64.4268 201.974 64.7074 202.022 64.9844 202.116C65.2613 202.211 65.5135 202.365 65.7407 202.578C65.968 202.789 66.1491 203.068 66.2841 203.416C66.419 203.764 66.4865 204.193 66.4865 204.702V205.057H62.2819V204.332H65.6342C65.6342 204.025 65.5727 203.75 65.4496 203.509C65.3288 203.267 65.156 203.076 64.9311 202.937C64.7085 202.797 64.4458 202.727 64.1427 202.727C63.8089 202.727 63.5201 202.81 63.2763 202.976C63.0348 203.139 62.8489 203.352 62.7187 203.615C62.5885 203.878 62.5234 204.16 62.5234 204.46V204.943C62.5234 205.355 62.5944 205.704 62.7365 205.991C62.8809 206.275 63.0809 206.491 63.3366 206.641C63.5923 206.787 63.8894 206.861 64.228 206.861C64.4481 206.861 64.647 206.83 64.8246 206.768C65.0045 206.705 65.1595 206.61 65.2898 206.484C65.42 206.357 65.5206 206.198 65.5916 206.009L66.4013 206.236C66.316 206.51 66.1728 206.752 65.9716 206.96C65.7703 207.166 65.5218 207.327 65.2258 207.443C64.9299 207.557 64.5973 207.614 64.228 207.614ZM70.9978 202.045V202.827H68.4694V207.5H67.6313V202.045H70.9978ZM72.9293 206.264L75.5571 202.045H76.523V207.5H75.6849V203.281L73.0713 207.5H72.0912V202.045H72.9293V206.264ZM80.1439 207.614C79.6325 207.614 79.1922 207.493 78.8229 207.251C78.4536 207.01 78.1695 206.677 77.9706 206.254C77.7717 205.83 77.6723 205.346 77.6723 204.801C77.6723 204.247 77.7741 203.758 77.9777 203.335C78.1837 202.908 78.4701 202.576 78.8371 202.337C79.2064 202.095 79.6373 201.974 80.1297 201.974C80.5132 201.974 80.8589 202.045 81.1666 202.188C81.4744 202.33 81.7265 202.528 81.923 202.784C82.1195 203.04 82.2414 203.338 82.2888 203.679H81.4507C81.3868 203.43 81.2447 203.21 81.0246 203.018C80.8068 202.824 80.5132 202.727 80.1439 202.727C79.8172 202.727 79.5307 202.812 79.2845 202.983C79.0407 203.151 78.8501 203.389 78.7128 203.697C78.5778 204.002 78.5104 204.361 78.5104 204.773C78.5104 205.194 78.5767 205.561 78.7092 205.874C78.8442 206.186 79.0336 206.429 79.2774 206.602C79.5236 206.774 79.8125 206.861 80.1439 206.861C80.3617 206.861 80.5594 206.823 80.7369 206.747C80.9145 206.671 81.0648 206.562 81.1879 206.42C81.311 206.278 81.3986 206.108 81.4507 205.909H82.2888C82.2414 206.231 82.1242 206.521 81.9372 206.779C81.7526 207.035 81.5075 207.238 81.2021 207.39C80.8991 207.539 80.5464 207.614 80.1439 207.614ZM82.9542 202.827V202.045H87.3861V202.827H85.5963V207.5H84.7582V202.827H82.9542ZM88.4785 209.545V202.045H89.2882V202.912H89.3876C89.4492 202.817 89.5344 202.696 89.6433 202.55C89.7546 202.401 89.9132 202.268 90.1192 202.152C90.3275 202.034 90.6092 201.974 90.9643 201.974C91.4236 201.974 91.8284 202.089 92.1788 202.319C92.5292 202.549 92.8026 202.874 92.9991 203.295C93.1956 203.717 93.2939 204.214 93.2939 204.787C93.2939 205.365 93.1956 205.865 92.9991 206.289C92.8026 206.71 92.5304 207.037 92.1824 207.269C91.8344 207.499 91.4331 207.614 90.9785 207.614C90.6281 207.614 90.3476 207.556 90.1369 207.44C89.9262 207.321 89.764 207.187 89.6504 207.038C89.5368 206.887 89.4492 206.761 89.3876 206.662H89.3166V209.545H88.4785ZM89.3024 204.773C89.3024 205.185 89.3628 205.548 89.4835 205.863C89.6042 206.175 89.7806 206.42 90.0126 206.598C90.2446 206.773 90.5287 206.861 90.8649 206.861C91.2153 206.861 91.5076 206.768 91.742 206.584C91.9788 206.397 92.1563 206.146 92.2747 205.831C92.3954 205.514 92.4558 205.161 92.4558 204.773C92.4558 204.389 92.3966 204.044 92.2782 203.736C92.1622 203.426 91.9859 203.181 91.7491 203.001C91.5148 202.818 91.22 202.727 90.8649 202.727C90.524 202.727 90.2375 202.814 90.0055 202.987C89.7735 203.157 89.5983 203.396 89.4799 203.704C89.3616 204.009 89.3024 204.366 89.3024 204.773ZM95.2803 206.264L97.9082 202.045H98.8741V207.5H98.036V203.281L95.4224 207.5H94.4423V202.045H95.2803V206.264ZM100.279 209.545V202.045H101.089V202.912H101.188C101.25 202.817 101.335 202.696 101.444 202.55C101.555 202.401 101.714 202.268 101.92 202.152C102.128 202.034 102.41 201.974 102.765 201.974C103.224 201.974 103.629 202.089 103.979 202.319C104.33 202.549 104.603 202.874 104.8 203.295C104.996 203.717 105.094 204.214 105.094 204.787C105.094 205.365 104.996 205.865 104.8 206.289C104.603 206.71 104.331 207.037 103.983 207.269C103.635 207.499 103.234 207.614 102.779 207.614C102.429 207.614 102.148 207.556 101.937 207.44C101.727 207.321 101.565 207.187 101.451 207.038C101.337 206.887 101.25 206.761 101.188 206.662H101.117V209.545H100.279ZM101.103 204.773C101.103 205.185 101.163 205.548 101.284 205.863C101.405 206.175 101.581 206.42 101.813 206.598C102.045 206.773 102.329 206.861 102.665 206.861C103.016 206.861 103.308 206.768 103.543 206.584C103.779 206.397 103.957 206.146 104.075 205.831C104.196 205.514 104.256 205.161 104.256 204.773C104.256 204.389 104.197 204.044 104.079 203.736C103.963 203.426 103.786 203.181 103.55 203.001C103.315 202.818 103.021 202.727 102.665 202.727C102.325 202.727 102.038 202.814 101.806 202.987C101.574 203.157 101.399 203.396 101.28 203.704C101.162 204.009 101.103 204.366 101.103 204.773ZM108.459 207.614C107.966 207.614 107.534 207.496 107.163 207.262C106.793 207.028 106.504 206.7 106.296 206.278C106.09 205.857 105.987 205.365 105.987 204.801C105.987 204.233 106.09 203.737 106.296 203.313C106.504 202.889 106.793 202.56 107.163 202.326C107.534 202.092 107.966 201.974 108.459 201.974C108.951 201.974 109.382 202.092 109.751 202.326C110.123 202.56 110.412 202.889 110.618 203.313C110.826 203.737 110.93 204.233 110.93 204.801C110.93 205.365 110.826 205.857 110.618 206.278C110.412 206.7 110.123 207.028 109.751 207.262C109.382 207.496 108.951 207.614 108.459 207.614ZM108.459 206.861C108.833 206.861 109.141 206.765 109.382 206.573C109.624 206.381 109.802 206.129 109.918 205.817C110.034 205.504 110.092 205.166 110.092 204.801C110.092 204.437 110.034 204.097 109.918 203.782C109.802 203.467 109.624 203.213 109.382 203.018C109.141 202.824 108.833 202.727 108.459 202.727C108.085 202.727 107.777 202.824 107.535 203.018C107.294 203.213 107.115 203.467 106.999 203.782C106.883 204.097 106.825 204.437 106.825 204.801C106.825 205.166 106.883 205.504 106.999 205.817C107.115 206.129 107.294 206.381 107.535 206.573C107.777 206.765 108.085 206.861 108.459 206.861ZM112.08 207.5V202.045H114.31C114.897 202.045 115.363 202.178 115.709 202.443C116.055 202.708 116.227 203.059 116.227 203.494C116.227 203.826 116.129 204.083 115.933 204.265C115.736 204.445 115.484 204.567 115.176 204.631C115.377 204.659 115.573 204.73 115.762 204.844C115.954 204.957 116.113 205.114 116.238 205.312C116.363 205.509 116.426 205.75 116.426 206.037C116.426 206.316 116.355 206.566 116.213 206.786C116.071 207.006 115.868 207.18 115.602 207.308C115.337 207.436 115.02 207.5 114.651 207.5H112.08ZM112.875 206.733H114.651C114.939 206.733 115.166 206.664 115.329 206.527C115.492 206.39 115.574 206.203 115.574 205.966C115.574 205.684 115.492 205.463 115.329 205.302C115.166 205.138 114.939 205.057 114.651 205.057H112.875V206.733ZM112.875 204.332H114.31C114.535 204.332 114.728 204.302 114.889 204.24C115.05 204.176 115.173 204.086 115.258 203.97C115.345 203.852 115.389 203.712 115.389 203.551C115.389 203.321 115.293 203.142 115.102 203.011C114.91 202.879 114.646 202.812 114.31 202.812H112.875V204.332ZM119.17 207.628C118.824 207.628 118.511 207.563 118.229 207.433C117.947 207.3 117.723 207.109 117.558 206.861C117.392 206.61 117.309 206.307 117.309 205.952C117.309 205.639 117.371 205.386 117.494 205.192C117.617 204.995 117.781 204.841 117.987 204.73C118.193 204.619 118.421 204.536 118.669 204.482C118.92 204.425 119.172 204.38 119.426 204.347C119.757 204.304 120.026 204.272 120.232 204.251C120.44 204.227 120.592 204.188 120.686 204.134C120.783 204.079 120.832 203.984 120.832 203.849V203.821C120.832 203.471 120.736 203.198 120.544 203.004C120.355 202.81 120.067 202.713 119.681 202.713C119.281 202.713 118.968 202.801 118.74 202.976C118.513 203.151 118.353 203.338 118.261 203.537L117.465 203.253C117.607 202.921 117.797 202.663 118.034 202.479C118.273 202.292 118.533 202.161 118.815 202.088C119.099 202.012 119.378 201.974 119.653 201.974C119.828 201.974 120.029 201.996 120.257 202.038C120.486 202.079 120.708 202.163 120.921 202.29C121.136 202.418 121.315 202.611 121.457 202.869C121.599 203.127 121.67 203.473 121.67 203.906V207.5H120.832V206.761H120.789C120.732 206.88 120.638 207.006 120.505 207.141C120.373 207.276 120.196 207.391 119.976 207.486C119.756 207.58 119.487 207.628 119.17 207.628ZM119.298 206.875C119.629 206.875 119.909 206.81 120.136 206.68C120.366 206.549 120.538 206.381 120.654 206.175C120.773 205.969 120.832 205.753 120.832 205.526V204.759C120.796 204.801 120.718 204.84 120.598 204.876C120.479 204.909 120.342 204.938 120.186 204.964C120.032 204.988 119.881 205.009 119.735 205.028C119.59 205.045 119.473 205.059 119.383 205.071C119.165 205.099 118.962 205.146 118.772 205.21C118.585 205.271 118.434 205.365 118.318 205.49C118.204 205.613 118.147 205.781 118.147 205.994C118.147 206.286 118.255 206.506 118.47 206.655C118.688 206.802 118.964 206.875 119.298 206.875ZM122.327 202.827V202.045H126.759V202.827H124.969V207.5H124.131V202.827H122.327ZM128.576 204.02H130.139C130.778 204.02 131.267 204.182 131.605 204.506C131.944 204.831 132.113 205.241 132.113 205.739C132.113 206.065 132.037 206.362 131.886 206.63C131.734 206.895 131.512 207.107 131.218 207.266C130.925 207.422 130.565 207.5 130.139 207.5H127.852V202.045H128.69V206.719H130.139C130.47 206.719 130.742 206.631 130.955 206.456C131.168 206.281 131.275 206.056 131.275 205.781C131.275 205.492 131.168 205.257 130.955 205.075C130.742 204.892 130.47 204.801 130.139 204.801H128.576V204.02ZM135.475 207.614C134.963 207.614 134.523 207.493 134.154 207.251C133.784 207.01 133.5 206.677 133.301 206.254C133.103 205.83 133.003 205.346 133.003 204.801C133.003 204.247 133.105 203.758 133.309 203.335C133.515 202.908 133.801 202.576 134.168 202.337C134.537 202.095 134.968 201.974 135.461 201.974C135.844 201.974 136.19 202.045 136.497 202.188C136.805 202.33 137.057 202.528 137.254 202.784C137.45 203.04 137.572 203.338 137.62 203.679H136.782C136.718 203.43 136.576 203.21 136.355 203.018C136.138 202.824 135.844 202.727 135.475 202.727C135.148 202.727 134.862 202.812 134.615 202.983C134.372 203.151 134.181 203.389 134.044 203.697C133.909 204.002 133.841 204.361 133.841 204.773C133.841 205.194 133.908 205.561 134.04 205.874C134.175 206.186 134.364 206.429 134.608 206.602C134.854 206.774 135.143 206.861 135.475 206.861C135.693 206.861 135.89 206.823 136.068 206.747C136.245 206.671 136.396 206.562 136.519 206.42C136.642 206.278 136.729 206.108 136.782 205.909H137.62C137.572 206.231 137.455 206.521 137.268 206.779C137.083 207.035 136.838 207.238 136.533 207.39C136.23 207.539 135.877 207.614 135.475 207.614ZM141.996 207.5V202.812H140.547C140.22 202.812 139.964 202.888 139.777 203.04C139.59 203.191 139.496 203.4 139.496 203.665C139.496 203.925 139.58 204.13 139.748 204.279C139.919 204.428 140.152 204.503 140.448 204.503H142.209V205.284H140.448C140.078 205.284 139.76 205.219 139.492 205.089C139.225 204.959 139.019 204.773 138.875 204.531C138.73 204.287 138.658 203.999 138.658 203.665C138.658 203.329 138.734 203.04 138.885 202.798C139.037 202.557 139.253 202.371 139.535 202.241C139.819 202.111 140.157 202.045 140.547 202.045H142.791V207.5H141.996ZM138.36 207.5L139.908 204.787H140.817L139.269 207.5H138.36Z" fill="white"/>
</svg>
