<svg width="67" height="72" viewBox="0 0 67 72" fill="none" xmlns="http://www.w3.org/2000/svg">
<path d="M58.3267 28.9147C58.9485 27.9622 59.5555 26.9651 60.1745 25.9547C61.6433 23.5412 62.9679 20.9449 64.5051 18.3683C64.6269 18.1705 64.7471 17.9764 64.8947 17.7635C64.9683 17.6592 65.0453 17.5492 65.1678 17.4137C65.2343 17.3472 65.2893 17.2674 65.4999 17.1431C65.5559 17.1121 65.6431 17.0717 65.748 17.0479C65.8551 17.0212 66.0414 17.0103 66.2078 17.0646C66.5775 17.1909 66.6923 17.4314 66.7511 17.5424C66.9143 17.9598 66.8613 18.0417 66.8777 18.2072C66.8797 18.349 66.8738 18.4833 66.8669 18.6003C66.8522 18.846 66.8288 19.0812 66.8037 19.3104C66.7006 20.2246 66.5681 21.1079 66.4359 22.0013C65.8733 25.7324 65.2754 29.4281 64.7208 32.9984C64.5452 34.1273 64.5088 34.0436 64.4546 34.3591C64.307 35.2228 64.2864 35.7542 64.1894 36.3841C63.9387 38.0175 63.7066 39.5989 63.4942 41.1716C63.3081 42.552 63.1386 43.9307 62.9853 45.3402C62.6638 48.4491 62.6734 46.9648 62.5434 48.0486C62.3077 50.1628 62.6303 48.3738 62.6031 49.2111C62.5409 49.9198 62.4901 50.6348 62.3858 51.3744C62.3297 51.7179 62.2854 52.0879 62.0626 52.5032C61.8329 52.937 61.3819 53.1934 61.0453 53.3229C60.3478 53.5867 59.7222 53.713 59.0791 53.8867C58.6808 53.9902 58.2787 54.0969 57.8784 54.2043C58.2746 54.0837 58.6723 53.9638 59.0682 53.8468C59.2478 53.7938 59.4196 53.7435 59.6004 53.6906C59.4253 53.7368 59.2466 53.783 59.0637 53.8302C58.1692 54.0621 57.3773 54.2571 58.8014 53.8288C58.4191 53.92 58.06 54.0045 57.6664 54.1021C57.5755 54.1886 55.7592 54.7065 55.6042 54.7886C55.4477 54.8695 56.4661 54.5716 56.4616 54.5765C56.4039 54.6319 52.2058 55.7833 51.9049 55.8748C51.1057 56.0993 51.7828 55.8244 51.1076 56.031C49.9466 56.3892 50.7623 56.2864 49.1348 56.5892C48.9013 56.6852 48.7465 56.743 48.6021 56.7905C48.3657 56.8684 48.1624 56.9179 47.6711 57.0696C47.5672 57.1018 47.658 57.109 47.6127 57.1242C46.4259 57.5254 47.3239 57.1754 47.3183 57.1735C47.1901 57.1518 45.9172 57.5876 45.649 57.6709C42.2629 58.7377 39.7452 59.4935 36.379 61.1253C36.3199 61.1557 36.2502 61.1921 36.1762 61.2318C35.2735 61.6205 33.819 63.2065 33.4455 63.8197C33.0078 64.4528 33.2107 64.092 32.9802 64.4247C32.7156 65.0224 32.4028 65.5494 31.7717 66.8628C31.6134 67.3831 31.5884 67.3001 31.2316 68.2724C30.8929 69.0856 30.6656 70.536 30.0226 71.4353C30.6515 70.3863 30.4194 70.4878 30.8385 69.3189C30.8961 68.9046 32.5828 64.986 32.4609 65.2765C32.3432 65.4033 31.7628 66.6959 31.7452 66.7487C31.5904 67.0305 31.8593 66.2805 32.1879 65.6591C32.1155 65.8186 32.0296 66.0121 31.9566 66.1848C32.6875 64.7902 32.0544 65.6777 32.7544 64.6953C32.8443 64.5765 32.8297 64.6343 32.972 64.436C32.9915 64.3891 32.8204 64.634 32.9511 64.4129C33.0832 64.1861 33.3914 63.7944 33.4105 63.7178C33.431 63.5961 32.8476 64.5153 32.813 64.5898C32.8128 64.5907 32.8125 64.5916 32.8123 64.5925C32.4237 65.2038 33.1943 63.9024 33.2477 63.8496C33.4939 63.4503 33.2832 63.6931 33.694 63.1167C33.9223 62.7823 34.6408 62.0346 34.9423 61.7978C35.2331 61.5513 34.7624 61.9134 34.9567 61.7453C35.1512 61.5767 35.4175 61.3976 35.6696 61.2315C35.7778 61.1603 35.7599 61.1433 35.8133 61.11C35.9133 61.0485 35.9867 61.0083 36.0413 60.9804C36.2942 60.8536 36.125 60.9791 36.5636 60.7526C36.9072 60.5703 38.0669 59.989 37.2475 60.3492C37.6359 60.1623 38.0183 59.9889 38.4098 59.8171C38.1586 59.9161 37.9019 60.0229 37.6572 60.1234C38.3994 59.8046 38.7167 59.6278 39.1824 59.432C39.6481 59.2379 40.0881 59.1222 40.5957 58.8989C41.6801 58.42 38.9549 59.4999 38.6211 59.6484C38.489 59.6997 38.9741 59.4505 39.0545 59.4168C39.3963 59.2698 39.8158 59.1347 40.0849 59.0279C41.0392 58.6498 41.6137 58.3933 42.5346 58.0508C44.3239 57.3877 46.3685 56.687 48.3662 56.0372C49.8565 55.5521 51.314 55.0942 52.6031 54.6973C53.7245 54.3522 54.4169 54.2021 54.9217 54.0507C56.1024 53.6977 56.2344 53.6093 57.2659 53.3077C57.7341 53.1714 58.2612 53.0238 58.804 52.8779C59.4259 52.7075 60.0909 52.5538 60.5996 52.3639C61.1299 52.1557 61.1658 52.0146 61.2726 51.5698C61.2947 51.4614 61.3117 51.347 61.3262 51.2297C61.4096 50.509 61.4083 49.8467 61.4242 49.6454C61.5886 46.8841 61.8873 43.6099 62.2075 41.0101C62.2713 40.4792 62.3358 39.9635 62.395 39.4984C62.5607 38.2014 62.7053 37.6019 62.7394 37.3331C62.8874 36.1863 62.7931 36.4858 62.9265 35.5584C62.9988 35.0579 63.0631 34.9711 63.0745 34.9042C63.1742 34.3165 63.1243 34.1885 63.1872 33.7277C63.55 31.0763 63.971 28.5325 64.3632 25.9165C64.3916 25.7271 64.4206 25.7471 64.4371 25.6237C64.5066 25.0977 64.4221 25.33 64.4989 24.7809C64.6353 23.8025 64.7863 22.8021 64.9355 21.784C64.963 21.5956 64.9874 21.4279 65.0146 21.2382C65.0321 21.1156 65.0799 21.0752 65.118 20.7946C65.1543 20.5245 65.1443 20.3036 65.1996 19.8762C65.2676 19.3331 65.352 18.7589 65.3703 18.2816C65.3718 18.2262 65.3713 18.1718 65.3692 18.1388C65.3818 18.1206 65.3146 18.0477 65.4482 18.2763C65.4867 18.331 65.5931 18.4445 65.7547 18.4952C65.9114 18.5487 66.0736 18.518 66.1318 18.4964C66.2802 18.4397 66.2732 18.4187 66.2845 18.4138C66.2916 18.4049 66.2567 18.4391 66.2246 18.4795C66.0887 18.6485 65.9305 18.8977 65.7796 19.1448C65.7705 19.1597 65.7614 19.1748 65.7521 19.1901C65.6507 19.3581 65.5721 19.5941 65.4242 19.8514C64.9594 20.6594 64.2495 21.8643 63.8585 22.5736C63.0609 24.0206 62.315 25.4096 61.5101 26.7664C61.0175 27.5923 60.5274 28.4146 60.0109 29.2377C59.693 29.7445 59.3577 30.1627 59.1772 30.4242C58.7646 31.0111 59.1235 30.595 58.6834 31.1914C58.2695 31.6957 57.9136 32.2628 57.0312 32.6667C56.5596 32.8598 55.7074 32.9448 55.1775 32.2044C53.3303 29.8751 52.5499 26.9482 51.7455 24.2194C51.2172 22.3211 50.6945 20.4177 50.1385 18.5308C49.9742 17.9761 49.7953 17.3938 49.5989 16.8074C49.5011 16.5163 49.3988 16.2235 49.2904 15.9466C49.2375 15.8121 49.1794 15.6728 49.1258 15.5634C49.1006 15.5116 49.0713 15.4595 49.0622 15.448C49.061 15.4445 49.0556 15.45 49.1182 15.5114C49.1737 15.5516 49.1829 15.6 49.4286 15.6738C49.6604 15.75 50.0298 15.6133 50.1411 15.4721C50.1239 15.4824 49.9453 15.7991 49.8375 16.0407C49.7179 16.2978 49.601 16.5687 49.4878 16.8347C49.2596 17.3722 49.0426 17.8996 48.8356 18.3934C48.6022 18.951 48.4677 19.1943 48.3309 19.4713C48.2626 19.6092 48.1917 19.7608 48.1093 19.9629C47.6736 21.0335 47.6812 21.2628 47.2349 22.3963C46.879 23.3008 46.3783 24.3004 46.0106 25.2425C45.6432 26.1848 45.5566 26.6524 45.1451 27.7375C44.8384 28.5468 44.3827 29.6351 44.039 30.5535C44.0028 30.6502 43.9684 30.7434 43.936 30.8327C43.3386 32.4727 42.8096 34.0662 42.3174 35.7566C42.2406 35.9435 42.2446 36.2031 41.8392 36.6458C41.6313 36.8608 41.2786 36.9998 41.0373 37.0168C40.7877 37.0409 40.6105 37.009 40.4608 36.9779C39.8801 36.834 39.5534 36.6403 39.1813 36.4491C38.4732 36.065 37.8344 35.6559 37.1895 35.2378C32.787 32.3265 28.5739 29.23 24.2785 26.2006C23.4392 25.617 22.5674 24.9844 21.7847 24.57C21.6559 24.5039 21.5273 24.4503 21.4593 24.4319C21.3753 24.4034 21.4713 24.4737 21.6894 24.3425C21.8696 24.1981 21.8023 24.1921 21.7796 24.2988C21.7477 24.3995 21.7162 24.5542 21.6896 24.7192C21.37 27.1087 21.3616 29.882 21.1332 32.4605C21.1163 32.6625 21.0986 32.8626 21.0799 33.0622C21.0478 33.3933 20.993 32.8801 20.9341 33.9437C20.8997 34.5152 20.9198 35.3181 20.7781 36.6399C20.7187 37.1837 20.6518 37.7287 20.5707 38.281C20.5231 38.604 20.4704 38.9318 20.4073 39.2631C20.3268 39.6006 20.3224 39.964 19.9624 40.5209C19.7767 40.7977 19.4254 41.0331 19.1445 41.1158C18.8573 41.2075 18.6242 41.2212 18.4145 41.2272C17.5977 41.226 16.9671 41.091 16.2988 40.98C12.7223 40.3231 9.1649 39.4907 5.62077 38.8136C4.03324 38.5272 2.40994 38.2046 0.936768 38.2436C0.868714 38.2459 0.808385 38.2503 0.795065 38.2526C0.789801 38.2526 0.796876 38.2551 0.846594 38.2345C0.891003 38.2156 1.02285 38.1477 1.10519 37.9791C1.23048 37.6138 1.11152 37.6015 1.13538 37.6034C1.13762 37.61 1.16256 37.6527 1.1908 37.6922C1.31757 37.8699 1.51039 38.0792 1.70326 38.2791C2.68888 39.2804 3.80907 40.2505 4.91046 41.2095C11.2034 46.5883 17.6685 51.9206 23.3179 57.0295C24.8082 58.3654 26.2466 59.6774 27.6376 60.9398C28.0077 61.2707 27.7504 61.1718 27.4983 60.9963C27.2946 60.8038 27.1074 60.6186 26.8972 60.4141C26.5386 60.2664 26.6063 60.2863 25.5579 59.3963C24.9119 58.8479 25.3938 59.3216 25.0407 59.0488C24.7037 58.7875 23.4725 57.8221 22.9997 57.4122C22.8274 57.2623 22.7573 57.1859 22.8853 57.2574C22.7462 57.1639 22.6068 57.0696 22.4723 56.9802C20.9334 55.7263 19.4253 54.514 17.9042 53.301C17.6424 53.0923 17.6031 53.1091 17.3332 52.8943C16.6016 52.3127 16.0505 51.824 15.3072 51.2137C14.9038 50.8824 14.8175 50.8733 14.2926 50.4352C13.7684 49.9977 13.8233 49.9553 13.059 49.4167C13.4716 49.8694 11.4264 48.0949 10.6838 47.481C10.5756 47.3914 9.64472 46.7233 9.18051 46.3235C8.71599 45.9238 8.04327 45.2888 7.29819 44.702C6.94631 44.4248 6.70295 44.3093 6.32967 43.9994C6.07432 43.7875 5.80165 43.4756 5.48049 43.1986C5.15771 42.9208 4.42424 42.3605 4.29382 42.249C4.20764 42.1757 4.15743 42.1311 4.12944 42.1042C4.06224 42.0398 4.11549 42.072 4.14543 42.0858C4.1601 42.0923 4.16892 42.0942 4.15342 42.0767C4.14014 42.0619 4.11021 42.0339 4.05457 41.9852C3.33043 41.352 2.5623 40.6704 1.80048 39.9619C1.41945 39.6057 1.04326 39.2499 0.677364 38.8622C0.49577 38.6639 0.318343 38.4819 0.141458 38.1943C0.0962792 38.1121 0.0491084 38.0397 0.013034 37.8721C-0.00218877 37.7887 -0.0130342 37.6673 0.0394446 37.5239C0.0923879 37.3742 0.215983 37.2599 0.302926 37.2102C0.649797 37.0427 0.7478 37.0974 0.885647 37.0754C0.988142 37.0692 1.09112 37.0644 1.19329 37.0614C1.45127 37.0552 1.09313 37.0022 1.12723 37.0006C2.87902 36.9671 1.93867 37.0319 2.39881 37.1054C2.78343 37.1566 5.14635 37.4903 5.84479 37.5559C5.96184 37.5645 6.03433 37.564 6.04022 37.5501C6.1148 37.6915 6.82806 37.7221 7.00844 37.7519C7.71456 37.8683 7.55358 37.9511 8.23937 38.0466C8.49089 38.0819 8.02035 37.9156 8.28742 37.9688C8.94915 38.1004 9.51909 38.3345 10.3954 38.5185C10.607 38.563 10.6864 38.5231 11.0631 38.5987C11.4406 38.6746 13.008 39.049 12.3013 38.7934C13.2426 39.0708 13.4445 39.0595 14.5591 39.2734C14.8407 39.3271 15.1878 39.4836 15.7943 39.5646C15.9986 39.5915 16.0096 39.5065 16.3127 39.5583C16.3883 39.5711 16.4616 39.5845 16.5329 39.5981C17.1374 39.7063 17.7736 39.9106 18.4601 39.8961C18.7235 39.878 18.8243 39.8334 18.8834 39.7331C18.9648 39.6102 19.0314 39.3084 19.0818 39.0127C19.1345 38.7097 19.1801 38.3955 19.2218 38.0828C19.3274 37.288 19.4122 36.4815 19.5026 35.6822C19.5551 35.2077 19.6315 35.3359 19.6942 34.6439C19.7038 34.5415 19.697 33.7031 19.7363 33.2247C19.7467 33.1019 19.7811 32.7575 19.8158 32.381C19.8624 31.8789 19.9093 31.3159 19.9203 31.1433C19.9519 30.6437 19.8718 30.5505 19.901 30.2771C19.9846 29.4865 20.079 30.1286 19.9533 29.1657C20.061 28.8558 20.0776 28.2968 20.2017 28.1229C20.0916 27.7913 20.2327 27.3752 20.2293 26.7412C20.2255 26.1072 20.0283 25.5616 20.3056 25.431C20.3043 25.2814 20.3198 24.8955 20.3623 24.51C20.3976 24.1186 20.5139 23.6742 20.6179 23.5206C20.7366 23.3078 20.9177 23.1797 21.033 23.1333C21.1522 23.0841 21.2123 23.0834 21.2617 23.0809C21.3524 23.0856 21.4413 23.0686 21.7466 23.1279C21.8361 23.158 21.8001 23.0512 22.3418 23.3009C22.7372 23.4366 24.8534 24.8937 24.9708 24.9902C25.0053 25.0166 25.038 25.0416 25.0688 25.0652C25.6513 25.5142 25.4375 25.3787 25.0374 25.1103C24.6187 24.8287 23.9839 24.403 23.8125 24.3222C23.7638 24.2727 23.7167 24.2244 23.6662 24.1744C23.0201 23.7269 23.3385 24.0649 23.6174 24.2795C23.8974 24.4944 24.4623 24.8212 24.683 25.0193C24.7899 25.1161 24.6394 25.174 24.2909 24.9147C24.6476 25.2102 24.104 24.8892 24.232 25.0245C24.2786 25.0739 24.5092 25.246 24.7983 25.4539C25.3485 25.8492 26.1065 26.371 26.1414 26.3361C25.8233 26.1084 25.4184 25.8267 25.0967 25.5983C24.7425 25.1938 26.2928 25.7417 27.3702 26.7229C28.1546 27.4353 26.6832 26.5124 28.7708 27.8668C28.4615 27.6404 28.2049 27.4432 27.9264 27.2386C27.9518 27.1388 28.3508 27.5521 28.6032 27.6943C28.7248 27.7625 28.0667 27.2107 28.6857 27.6235C29.1291 28.1074 29.6114 28.2816 30.4888 28.9042C30.2314 28.751 29.9724 28.5964 29.7157 28.4437C31.139 29.5785 27.6788 27.1566 30.5279 29.2519C30.1782 29.0087 29.8342 28.7625 29.4819 28.52C29.6221 28.6815 29.2655 28.609 29.399 28.7422C29.7477 29.0907 30.3636 29.468 30.8434 29.8175C31.0535 29.9703 30.8991 29.9095 30.9168 29.9223C31.2044 30.1318 31.174 30.0388 31.4309 30.2164C31.754 30.4401 32.6469 31.1406 32.8021 31.2418C33.1997 31.5021 32.6193 30.9524 32.6612 30.9713C32.9416 31.1014 33.4215 31.4958 33.4365 31.4174C32.1867 30.6015 28.7234 28.0587 31.9621 30.2111C31.1563 29.4951 31.5019 29.5423 32.7662 30.4223C33.8122 31.1486 33.1038 30.7275 33.6046 31.168C33.6694 31.2256 35.0461 32.232 35.1476 32.24C35.0259 32.2966 35.4211 32.696 35.0486 32.5826C34.9934 32.5659 34.423 32.1598 34.5684 32.3783C34.6398 32.4871 34.8695 32.7748 34.7878 32.7927C34.9311 32.8403 35.0797 32.8849 35.2274 32.933C36.0988 33.5202 36.1973 33.6415 36.6276 34.0296C36.6224 33.9859 36.2627 33.5746 36.9073 34.0614C36.9384 34.0853 36.9443 34.1504 37.2678 34.396C37.3951 34.492 37.5017 34.5722 37.5853 34.6369C37.9534 34.9185 37.9582 34.9596 37.4871 34.786C37.4772 34.7824 37.4671 34.7788 37.4567 34.775C37.4658 34.7803 37.4748 34.7857 37.4838 34.791C38.2195 35.226 38.6465 35.5161 39.0968 35.8061C39.3215 35.9495 39.5509 36.0938 39.8462 36.2431C39.991 36.3153 40.1564 36.3923 40.36 36.4583C40.5669 36.508 40.8151 36.6378 41.2659 36.4635C40.4884 36.5154 40.0055 36.1948 38.5698 35.401C38.5342 35.3264 38.5295 35.2713 38.4908 35.1938C40.308 36.3774 39.3522 35.882 40.5874 36.2659C40.6777 36.2703 40.9175 36.3715 41.2262 36.2016C41.5205 35.9964 41.55 35.704 41.607 35.5305C41.6748 35.2669 41.6916 35.1179 41.5766 35.3137C41.5619 35.3381 41.535 35.4082 41.5022 35.4971C41.445 35.6462 41.3778 35.8709 41.2369 36.0043C41.0918 36.1376 40.9454 36.1162 40.9915 36.0964C40.9933 36.0914 41.1174 36.0762 41.2177 35.9565C41.3186 35.8392 41.3757 35.6477 41.429 35.4738C41.5023 35.2312 41.5666 35.0132 41.5841 34.9734C42.125 33.7574 41.4816 36.0262 42.5737 32.5641C42.6049 32.4696 42.5655 32.4176 42.623 32.2313C42.7324 31.8789 42.7927 31.8968 42.8906 31.5817C42.9884 31.2673 43.0659 30.8108 43.3123 30.3737C43.3285 30.3449 43.3433 30.3196 43.3567 30.2977C43.459 30.1332 43.4794 30.1729 43.4478 30.3318C43.3651 30.7334 42.9721 31.8704 42.7101 32.4713C42.7316 32.6455 43.123 31.6473 43.6198 30.3963C44.314 28.6424 45.2055 26.3867 45.2865 26.1557C45.8999 24.4212 44.8103 27.2805 44.7082 27.4083C44.6642 27.4621 44.4215 27.3308 44.3055 28.1173C44.2716 28.3495 44.6829 27.4836 44.5028 28.026C44.3229 28.5693 44.3302 28.3285 44.3098 28.3653C44.2404 28.4905 44.0494 29.0692 44.0113 29.1371C43.4179 30.2067 43.2087 30.0099 44.1475 28.6485C44.3186 27.963 43.6088 29.4136 43.8672 28.5793C44.182 27.566 44.5824 26.8923 44.6359 26.7711C45.2839 25.3117 44.4375 26.9554 45.2106 25.1658C45.6421 24.1702 44.7213 26.718 45.6278 24.4132C46.39 22.4849 45.9155 23.5011 45.8392 23.308C45.8212 23.2635 46.2085 22.1928 45.6438 23.6341C45.662 23.6884 45.6766 23.7833 45.6718 23.8873C45.5054 24.2291 45.0972 24.7478 45.0165 24.9324C44.6225 25.8359 44.731 25.827 44.4105 26.3253C44.6796 25.9856 44.3607 26.5861 44.2928 26.8307C44.0401 27.7421 44.5218 26.6053 43.6385 28.528C43.7926 28.2932 43.937 28.0815 44.0883 27.855C43.9982 28.0913 43.9083 28.3284 43.8189 28.5652C43.5614 28.8689 43.0951 30.1353 43.4095 28.9484C43.2052 29.4416 43.0523 29.8311 42.9402 30.1415C42.7423 30.6896 42.6686 30.9943 42.6587 31.2099C42.6566 31.2722 42.5879 31.4833 42.5025 31.7277C42.5456 31.6919 42.65 31.6627 42.6464 31.7047C42.613 32.0787 42.2719 32.5581 42.2758 32.3557C42.2133 32.5257 42.1636 32.6593 42.1454 32.7078C42.0323 33.0075 42.183 32.3934 42.0796 32.6339C42.0444 32.7119 41.768 33.5759 41.7421 33.5858C41.574 33.6438 42.1106 32.2537 41.1387 35.0852C41.246 35.1957 41.6274 33.8581 41.6596 34.242C41.6872 34.6047 41.3661 35.1764 41.3732 35.456C41.374 35.4954 41.3816 35.5276 41.3969 35.5545C41.3473 35.6047 41.3134 35.6227 41.2619 35.6577C41.1869 35.944 41.0152 36.0274 40.8532 36.0101C40.6935 35.9973 40.5789 35.9423 40.4954 35.8974C40.3264 35.8016 40.2589 35.7167 40.1079 35.6258C39.5031 35.298 36.7529 33.5071 39.1634 35.1969C38.7844 34.9863 38.4138 34.7581 38.046 34.5334C38.0885 34.3642 38.1632 34.3757 37.8833 34.1846C37.6865 34.0494 37.2979 33.8046 36.5848 33.2956C36.2159 33.0317 36.1654 32.8437 35.7114 32.7122C35.8459 32.6275 34.6894 31.9313 34.5952 31.8427C34.0015 31.2868 36.5454 32.8654 36.7203 33.2918C37.1914 33.49 37.1177 33.6019 37.5937 33.8993C37.7274 33.9826 37.8385 34.0504 37.9335 34.1082C38.352 34.3614 38.5318 34.4828 39.1537 34.957C39.6652 35.1722 38.4984 34.4579 37.9648 34.0607C37.6827 33.8551 37.578 33.7585 38.0103 33.9917C38.1419 34.063 38.3089 34.1553 38.5379 34.2827C38.8256 34.4411 39.2683 34.7043 39.8302 34.9994C40.1073 35.1427 40.4335 35.3055 40.7126 35.3873C40.8457 35.4413 40.9696 35.3791 40.7759 35.4454C40.6071 35.5828 40.7271 35.4852 40.7742 35.2653C41.1982 33.7409 41.8008 31.8654 42.4943 29.9743C43.9844 25.9106 45.7496 21.5311 46.8279 18.8556C47.1257 18.1191 47.3741 17.5103 47.5538 17.0755C47.7444 16.6146 47.931 16.1679 48.126 15.7283C48.3524 15.2703 48.4167 14.9254 48.9446 14.2919C49.0624 14.1661 49.2967 14.0269 49.5483 14.0159C49.7925 13.9965 50.0183 14.105 50.0837 14.1472C50.2759 14.2682 50.3252 14.3465 50.38 14.4087C50.4771 14.532 50.5188 14.6116 50.5582 14.6817C50.6388 14.8312 50.6881 14.9445 50.7408 15.0681C50.8395 15.303 50.918 15.5176 50.9948 15.7347C51.1451 16.1618 51.2772 16.5757 51.4024 16.9775C51.6513 17.7792 51.8758 18.5508 52.0909 19.2997C52.5226 20.8072 52.9189 22.2432 53.3419 23.778C53.7093 25.1021 54.1201 26.488 54.6938 27.9679C54.8462 28.4178 55.7605 30.4686 56.4865 31.3253C56.3104 31.1781 56.3458 31.2895 56.346 31.3159C56.3456 31.3209 56.3758 31.3393 56.3975 31.3851C56.1673 31.0871 55.9785 30.8904 55.8855 30.7991C55.8056 30.7273 55.795 30.7991 56.1818 31.3693C56.1082 31.228 56.178 31.2722 56.3167 31.4393C56.3019 31.388 56.3252 31.3919 56.357 31.3851C56.3997 31.3733 56.4539 31.3494 56.5003 31.3195C56.7999 31.1029 56.9061 30.8925 57.0797 30.6765C57.2586 30.4353 57.5646 30.0772 58.3267 28.9147ZM63.9836 21.7005C62.021 25.2036 63.5224 22.6627 63.2986 23.4927C63.5481 23.0409 63.7954 22.5901 64.0431 22.1393C63.9674 22.2511 63.8914 22.3633 63.8156 22.4751C63.8153 22.4756 63.815 22.4761 63.8148 22.4766C63.8705 22.2182 63.9274 21.9583 63.9836 21.7005ZM36.5886 60.5851C36.7222 60.5014 36.8572 60.4184 37.006 60.3308C37.4916 60.1042 37.982 59.8912 38.4741 59.6867C38.4216 59.7206 38.3661 59.756 38.3121 59.7907C37.7348 60.039 37.1567 60.3003 36.5886 60.5851ZM42.5611 33.0105C42.2403 33.6921 42.4067 33.675 42.0429 34.5993C42.1896 34.5157 42.3365 34.4235 42.4841 34.3354C42.6953 33.6158 42.7072 33.4409 43 32.6751C42.9332 32.7551 42.8676 32.8314 42.8015 32.9097C42.765 33.0409 42.7273 33.1803 42.6917 33.3087C42.5256 33.4728 42.9334 32.2307 42.5617 33.008C42.5615 33.0088 42.5613 33.0097 42.5611 33.0105ZM37.0998 34.485C36.7694 34.2499 35.4782 33.2975 35.2715 33.2116C34.5618 32.9293 38.3655 35.3956 35.5237 33.6354C35.5231 33.663 35.4978 33.673 35.4849 33.6918C35.9823 34.0431 36.4811 34.3909 36.9889 34.7368C37.0122 34.6435 37.0798 34.5811 37.0998 34.485ZM54.9475 31.3297C54.4975 30.82 53.2426 28.064 53.55 29.0058C53.6303 29.2912 54.3287 30.4648 54.6153 30.9101C54.7956 31.2014 54.5174 30.9208 54.9235 31.4695C54.9324 31.4268 54.9503 31.3909 54.9463 31.3284C54.9467 31.3288 54.9471 31.3293 54.9475 31.3297ZM56.0332 31.9749C55.9419 31.9337 55.8603 31.8685 55.802 31.785C55.4655 31.362 55.1237 30.9298 54.8473 30.4571C54.9963 30.9194 55.6086 31.6443 55.5511 31.7499C55.4376 31.6175 55.3201 31.4822 55.2071 31.3394C55.1479 31.2137 55.0902 31.0837 55.0394 30.9584C54.6933 30.5122 54.819 30.8304 54.3494 29.889C54.4846 30.4918 54.4279 30.772 55.5412 31.9602C55.5863 32.0192 55.6406 32.074 55.702 32.1207C55.4959 31.9789 55.3846 31.9887 55.5353 32.2478C55.6733 32.5131 56.367 32.787 56.9374 32.4286C56.9607 32.415 56.984 32.4005 57.0071 32.3851C57.0742 32.339 57.0219 32.3538 56.9199 32.3842C56.7091 32.4734 56.1877 32.4716 56.1756 32.4441C56.0308 32.3576 56.602 32.3253 56.4271 32.2451C56.3924 32.2301 56.2332 32.2308 56.0781 32.172C55.9208 32.1185 55.7933 31.9934 55.784 31.9456C55.7665 31.9418 56.222 32.1009 56.0332 31.9749ZM57.4653 32.0062C57.3157 32.1957 58.0209 31.7734 58.3727 31.2594C58.9204 30.4714 57.9721 31.6267 57.4653 32.0062ZM36.5854 60.5868C36.5865 60.5862 36.5876 60.5856 36.5886 60.5851C36.5881 60.5854 36.5876 60.5857 36.5871 60.586C36.5866 60.5863 36.586 60.5865 36.5854 60.5868ZM38.8346 35.6709C38.3954 35.4645 37.8014 35.0717 37.8047 35.1627C37.6732 35.0661 37.5566 34.9784 37.425 34.8802C37.3645 34.8347 37.3031 34.7883 37.2409 34.7412C37.2303 34.7612 37.2215 34.7825 37.211 34.8023C37.2728 34.8449 37.3337 34.8869 37.3935 34.928C37.9154 35.2855 38.4343 35.6339 38.9828 35.9676C38.933 35.8692 38.8971 35.7782 38.8346 35.6709ZM32.5589 31.3591C31.8478 30.848 32.3882 31.3551 32.2026 31.2848C32.0169 31.2147 31.4031 30.7312 31.4368 30.8422C31.8558 31.142 32.2945 31.4552 32.7191 31.7571C32.6515 31.6149 32.6186 31.4953 32.5575 31.3581C32.5579 31.3585 32.5584 31.3588 32.5589 31.3591ZM64.0783 29.613C64.1822 29.0264 64.2056 29.2763 64.3087 28.106C64.3085 28.1068 64.3084 28.1077 64.3083 28.1086C64.0952 29.2061 63.8435 30.6197 63.712 31.8446C63.8821 31.1081 63.9157 30.5335 64.0783 29.613ZM43.4633 31.1401C43.4919 30.884 43.046 31.9599 43.0166 32.2189C42.964 32.6416 43.418 31.5248 43.4633 31.1401ZM60.6741 52.935C60.2986 53.1187 60.4431 53.1439 60.8905 53.0199C61.1065 52.9496 61.4392 52.8413 61.7025 52.5081C61.9603 52.1716 62.0308 51.7418 62.0838 51.3331C62.1006 51.1943 62.1141 51.0504 62.1245 50.9092C62.13 50.8285 62.0915 51.0973 62.0452 51.3279C62.0021 51.5476 61.9489 51.7348 61.9685 51.5638C61.9698 51.5508 61.9868 51.4514 62.0037 51.3222C62.0316 51.1142 62.0579 50.8311 62.0566 50.7326C62.0545 50.5737 61.9992 50.7359 62.006 50.4766C62.0176 50.0248 62.1475 49.0084 62.1347 48.6696C62.1329 48.6222 62.0304 49.2533 62.0256 49.2914C61.9451 49.9381 61.9625 50.5657 61.952 50.6669C61.9029 51.1842 61.8532 51.0954 61.825 51.226C61.8199 51.2481 61.8149 51.2716 61.8102 51.2958C61.7665 51.5439 61.7069 51.8904 61.6931 51.9152C61.4895 52.3749 61.7261 51.8347 61.7724 51.2906C61.806 51.0224 61.8267 50.7681 61.8281 50.6854C61.8312 50.035 61.7363 50.6296 61.8217 49.0707C61.8298 48.9205 61.9642 47.1479 61.737 49.3793C61.8833 45.8589 61.6793 49.3857 61.506 51.2542C61.4555 51.7293 61.3539 52.0233 61.3035 52.1079C61.1877 52.3137 61.4249 52.0337 61.3674 52.1724C61.2711 52.5307 60.5 52.7873 60.5959 52.8331C60.6891 52.878 60.9841 52.8111 61.2744 52.6011C61.5786 52.3944 61.7066 51.9663 61.7779 51.6282C61.7975 51.7058 61.8267 51.7402 61.8242 51.8854C61.8187 51.767 61.762 52.1816 61.4602 52.4934C61.1556 52.7981 60.6959 52.9133 60.674 52.9347C60.6741 52.9348 60.6741 52.9349 60.6741 52.935ZM62.5167 42.3618C62.6419 41.6268 62.6088 41.4801 62.6579 41.0666C62.6738 40.9336 62.6989 40.7719 62.7429 40.548C62.7452 39.9838 62.65 40.5885 62.5862 41.0576C62.5584 41.2617 62.5366 41.4374 62.5284 41.491C62.4042 42.323 62.3023 42.2874 62.2394 43.1466C62.3328 42.8645 62.4229 42.6274 62.5167 42.3618ZM61.6943 50.9207C61.7042 50.4304 61.6478 50.9587 61.5994 51.267C61.583 51.3743 61.5684 51.4525 61.5641 51.464C61.5184 51.5782 61.5222 51.4676 61.5397 51.2588C61.591 50.628 61.7457 49.0833 61.6943 50.9207ZM53.4917 27.6824C53.3812 27.3656 53.3876 27.5823 53.2707 27.3145C53.1467 27.0371 52.8855 26.053 52.8549 26.0891C52.8181 26.129 53.3074 27.9443 52.6926 26.1606C52.689 26.2275 52.6653 26.2118 52.6545 26.2485C52.8133 26.744 52.9813 27.2409 53.16 27.7294C53.1238 27.4332 53.095 27.1341 53.0718 26.8602C53.2143 27.1103 53.2065 27.2957 53.2107 27.3079C53.2108 27.3079 53.2108 27.3078 53.2109 27.3078C53.3962 27.817 53.7494 28.3963 53.4917 27.6824ZM65.4027 21.4235C65.5383 21.5398 65.4817 20.7379 65.5051 20.412C65.53 20.0862 65.6389 19.6569 65.554 19.8124C65.447 20.3272 65.389 21.4033 65.4029 21.4235C65.4028 21.4235 65.4027 21.4235 65.4027 21.4235ZM63.207 37.03C63.2887 36.2044 63.2346 36.3295 63.4175 35.3308C63.379 35.3649 63.3398 35.3989 63.3018 35.4331C63.1887 36.2317 63.2914 36.1885 63.125 37.1069C63.0979 37.2576 63.0667 36.9224 62.9974 37.6093C63.0651 37.4136 63.1371 37.222 63.207 37.03ZM63.6642 32.9439C63.5331 33.8867 63.6935 34.6735 63.8249 32.9209C63.8444 32.6611 63.7634 32.2347 63.6642 32.9439ZM58.8832 29.8438C57.9509 31.1796 59.0518 29.6916 59.3123 29.3558C57.2059 32.5184 59.5671 29.0075 59.8691 28.7558C60.0749 28.339 60.438 27.5463 59.9094 28.3495C59.6896 28.6809 59.8058 28.5852 59.7935 28.6048C59.3904 29.2231 59.3759 29.1062 58.8832 29.8438ZM62.3338 44.0702C62.3382 44.0099 62.2848 44.0998 62.2963 43.9069C62.3081 43.7105 62.3861 43.2788 62.3645 43.2303C62.3414 43.1868 62.2263 44.058 62.2185 44.3339C62.2112 44.602 62.2926 44.6258 62.3338 44.0702ZM63.2055 37.9161C63.2831 37.1097 62.9359 38.398 62.9143 38.5725C62.7185 40.1079 63.157 37.8614 63.2055 37.9161ZM60.5869 26.4763C59.7765 27.9736 60.3565 27.3093 60.9985 26.4555C61.0911 26.3328 61.186 26.2028 61.2769 26.0757C61.3409 25.9257 61.407 25.7708 61.4685 25.6231C61.2054 26.3209 60.6722 27.5061 62.0143 24.9653C61.2068 26.3105 61.8321 25.1535 61.8299 25.1419C61.7444 24.9512 61.1825 25.9433 60.8374 26.3576C60.6966 26.5292 60.5984 26.6038 60.5878 26.4748C60.5875 26.4753 60.5872 26.4758 60.5869 26.4763ZM62.0374 46.6889C61.962 47.5342 61.833 49.7417 61.9899 48.7188C62.0027 48.0438 62.0179 47.3638 62.0374 46.6889ZM46.9385 20.2412C46.6144 20.8585 46.3736 21.4525 46.0566 22.247C46.4366 21.5694 46.2565 22.0433 46.1815 22.2927C46.0668 22.6724 46.4226 21.785 46.4296 21.7856C46.5094 21.836 46.2932 22.4067 46.8124 21.1212C46.713 21.4516 46.6168 21.7755 46.5177 22.1061C46.9181 21.1281 47.0676 20.9215 47.3885 20.3281C46.9765 20.8634 47.4034 20.1119 47.615 19.3588C47.7206 18.983 47.1038 19.9266 46.9375 20.2436C46.9379 20.2428 46.9382 20.242 46.9385 20.2412ZM59.5048 28.1752C59.4246 28.3592 59.3612 28.5351 59.2848 28.7186C59.1757 28.8969 59.0626 29.0792 58.9511 29.2568C58.9153 29.2641 58.8806 29.2675 58.8427 29.2797C58.6837 29.5088 58.7748 29.4355 58.7313 29.5078C58.7312 29.5077 58.7311 29.5076 58.731 29.5076C58.1107 30.5075 57.8251 30.9371 57.1224 31.4742C57.1746 31.5358 57.2268 31.5975 57.2789 31.6591C57.435 31.5167 57.5773 31.3583 57.71 31.1968C57.7502 31.0858 57.7881 30.9733 57.8244 30.8597C57.9929 30.6891 58.1551 30.5116 58.3145 30.33C58.4137 30.1653 58.5343 29.9619 58.6141 29.8167C59.3416 29.1423 57.9812 30.8711 58.0154 30.9248C58.0843 30.9918 59.3366 29.1527 59.4562 28.8527C59.4755 28.8102 59.0809 29.1269 59.5847 28.4878C59.6647 28.385 59.9907 28.541 60.2038 27.6417C60.2342 27.5137 59.8178 27.7711 59.5048 28.1752ZM54.9344 29.7473C55.1128 30.3396 54.7195 29.6182 54.438 28.9397C54.1559 28.2656 53.9383 27.653 54.2119 28.6002C53.8994 28.1209 53.9363 28.2154 54.065 28.7788C54.0747 28.8257 53.8988 28.4793 53.9073 28.5088C54.0567 29.0264 54.3569 29.5993 54.2717 29.642C54.3406 29.7744 54.4041 29.8926 54.4752 30.0201C54.2841 29.4348 54.7662 30.2773 55.0244 30.545C55.1395 30.6715 54.9548 30.3365 55.0514 30.4413C55.0842 30.4834 55.3464 30.9425 55.389 30.9416C55.4738 30.9355 55.3619 30.6177 55.1414 30.107C55.1415 30.107 55.1415 30.107 55.1416 30.1069C55.0687 29.9842 55.0011 29.8678 54.9344 29.7473ZM65.4883 24.0852C65.3419 24.2816 65.1844 25.1158 65.3701 23.491C65.3357 23.5673 65.3011 23.6468 65.2665 23.7247C65.2287 23.9922 65.1903 24.2629 65.1514 24.5352C65.3608 25.4163 64.7557 26.8685 65.1378 25.9385C65.1799 25.834 65.2488 25.187 65.2218 25.8337C65.222 25.8328 65.2222 25.8319 65.2224 25.8311C65.3361 24.9397 65.3128 24.8201 65.4883 24.0852ZM66.1471 18.0913C66.1166 17.9669 66.0982 17.8134 65.9577 17.7949C65.8477 17.8161 65.834 17.8794 65.8133 17.9047C65.7802 17.9671 65.8075 17.9589 65.8694 17.9203C66.0122 17.7261 66.0115 18.236 65.9835 18.6433C65.925 19.5062 65.8156 20.5295 65.9053 20.1271C65.9376 20.0548 66.093 17.9446 66.1471 18.0913ZM64.0264 34.6056C64.166 33.6869 64.0534 33.6079 63.9957 33.6943C63.9379 33.781 63.889 34.4236 63.8701 34.5053C63.8082 34.7699 63.8761 34.1994 63.7942 34.5428C63.7668 34.6555 63.4932 36.2533 63.4888 36.327C63.4594 36.7399 63.6432 36.1562 63.6379 36.2747C63.6203 36.6615 63.4962 37.1696 63.533 37.2874C63.6108 37.5405 63.6301 36.5619 63.6516 36.3987C63.7165 35.9072 63.7735 35.9603 63.8396 35.5939C63.9054 35.2303 63.9189 34.9856 63.9708 34.6637C63.9881 34.5563 64.0192 34.6522 64.0264 34.6056ZM64.2189 31.5274C64.1684 32.5013 64.6213 30.1796 64.6423 29.8985C64.6994 29.0736 64.2418 31.0611 64.2189 31.5274ZM56.5999 31.9986C56.6665 31.9752 56.7121 31.9513 56.7421 31.9329C56.8114 31.8882 56.795 31.8801 56.7269 31.8945C56.5986 31.9295 56.1032 32.0183 55.9157 31.7086C55.7048 31.4067 55.4988 31.152 55.3867 30.9995C55.4017 31.0612 55.6105 31.3993 55.8424 31.7579C56.0213 32.082 56.484 32.0511 56.5999 31.9986ZM60.8674 26.0144C60.4675 26.7216 61.1793 25.8932 61.516 25.299C61.6159 24.8956 61.449 25.2335 61.2205 25.6142C60.9905 25.9948 61.1757 25.4597 60.8674 26.0144ZM62.6116 44.5793C62.6257 44.4064 62.8717 41.577 62.6543 43.1933C62.6346 43.3182 62.4397 45.2934 62.4426 45.4448C62.4415 45.7504 62.5597 45.0304 62.6116 44.5793ZM62.6549 22.5372C62.5311 22.9622 62.3233 23.3328 62.6171 23.0418C62.6174 23.0413 62.6177 23.0408 62.618 23.0403C62.1178 24.0128 61.8857 23.9374 61.7745 24.1451C61.3841 24.8689 61.9163 24.2747 61.7092 24.7511C62.2567 23.6802 62.1854 24.0356 62.6369 23.2405C62.7381 23.0619 63.0764 22.311 63.0978 22.1856C63.1191 22.0605 62.806 22.3667 62.6549 22.5372ZM62.2699 48.5709C62.3749 47.6163 62.3224 46.7364 62.194 48.0575C62.1335 48.7005 62.2067 49.1529 62.2699 48.5709ZM36.3274 33.1597C36.4192 33.2826 36.5155 33.4082 36.6185 33.5376C36.3168 33.3468 36.0218 33.1591 35.723 32.9678C35.962 33.1137 36.2032 33.2606 36.4409 33.4043C35.9042 33.0162 35.7068 32.7699 36.326 33.1587C36.3265 33.159 36.327 33.1594 36.3274 33.1597ZM20.1103 28.9647C20.0481 29.2593 20.1726 29.8503 20.1877 29.7767C20.3003 29.2231 20.1965 28.5562 20.1103 28.9647ZM55.8789 31.1931C55.289 30.3322 55.4982 31.0315 55.9166 31.5864C55.6909 31.223 56.2545 31.6985 55.8789 31.1931ZM23.8125 24.3222C23.8881 24.3979 23.9531 24.4669 24.0361 24.5485C23.7652 24.3302 23.7189 24.2771 23.8125 24.3222ZM62.8044 44.1464C62.8334 43.9842 62.9852 42.7476 62.9905 42.5795C62.9983 42.2303 62.7919 43.1811 62.7581 43.7524C62.7538 43.8181 62.7737 44.3109 62.8046 44.1437C62.8046 44.1446 62.8045 44.1455 62.8044 44.1464ZM35.1535 32.2362C35.1537 32.2392 35.1516 32.2404 35.1476 32.24C35.1498 32.239 35.1508 32.237 35.1535 32.2362ZM6.03256 37.5379C6.03866 37.5426 6.04163 37.5468 6.04022 37.5501C6.03822 37.5463 6.0336 37.5418 6.03256 37.5379ZM64.0976 35.4683C64.3244 35.082 64.3768 34.1253 64.183 34.8592C64.1726 34.8997 64.1124 35.3695 64.0976 35.4683Z" fill="url(#paint0_linear_658_4672)"/>
<path d="M47.4459 43.9702C48.0506 43.7781 48.6763 43.5815 49.31 43.3904C50.4976 43.0317 51.7182 42.6938 52.8805 42.4197C53.1004 42.3679 53.0971 42.4196 53.1608 42.4102C53.3326 42.3853 53.419 42.3045 53.5413 42.2789C54.1406 42.1526 54.6982 42.0298 55.2886 41.9155C55.8947 41.7994 55.6438 41.9969 55.8604 41.9828C56.2842 41.9554 55.8949 41.8591 56.0467 41.7852C56.2254 41.7511 56.4045 41.7189 56.5842 41.6879C56.8823 41.6364 57.1784 41.5888 57.4792 41.5448C57.3648 41.5817 57.2535 41.6187 57.1386 41.6564C57.3463 41.6188 57.6487 41.5875 57.3106 41.6973C57.3899 41.694 57.4644 41.6938 57.5449 41.6904C57.5542 41.6261 57.9227 41.5557 57.9506 41.5166C57.9783 41.4764 57.7705 41.5191 57.7714 41.5161C57.7745 41.4655 58.6534 41.3983 58.7179 41.4034C58.8862 41.3989 58.7485 41.4831 58.889 41.4648C59.1298 41.4355 58.9573 41.3087 59.3006 41.4709C59.4258 41.403 59.4396 41.4335 59.6037 41.4296C59.6253 41.4291 59.6064 41.3958 59.6159 41.3945C59.8627 41.3592 59.6752 41.4299 59.6771 41.4333C59.6974 41.4781 59.8639 41.4647 59.962 41.4594C59.9884 41.4579 60.01 41.4569 60.022 41.4577C60.7239 41.5031 61.2329 41.5357 61.967 41.5369C62.1256 41.5368 62.6078 41.5107 62.7614 41.5171C62.9129 41.5232 62.8324 41.5578 62.9117 41.5726C63.0374 41.4901 63.1579 41.4822 63.4439 41.5297C63.5488 41.4727 63.5362 41.5179 63.7391 41.5048C63.908 41.4934 64.2017 41.4295 64.3887 41.4813C64.1752 41.478 64.1978 41.5031 63.9578 41.5216C63.878 41.5275 63.044 41.5385 63.1072 41.5973C63.1403 41.6273 63.4158 41.5941 63.4267 41.5996C63.4894 41.6303 63.3361 41.6733 63.199 41.6627C63.2329 41.6553 63.2739 41.6477 63.3105 41.6403C63.0028 41.6056 63.2166 41.7601 62.9808 41.626C62.9516 41.6094 62.9624 41.5913 62.9145 41.5738C62.9049 41.5815 62.9634 41.5993 62.9134 41.6036C62.8625 41.608 62.7644 41.5737 62.7507 41.6044C62.7299 41.6493 62.9413 41.6272 62.9573 41.6295C62.9575 41.6293 62.9576 41.629 62.9578 41.6287C63.0992 41.6488 62.8051 41.658 62.791 41.6626C62.7005 41.6925 62.7632 41.7121 62.6269 41.7392C62.5496 41.7547 62.3505 41.7532 62.2778 41.7599C62.2051 41.7668 62.3188 41.7848 62.27 41.7911C62.2209 41.7976 62.16 41.783 62.1026 41.7905C62.078 41.7938 62.0798 41.8184 62.0679 41.8197C61.9408 41.8341 62.0232 41.7793 61.9074 41.7865C61.8327 41.7909 61.5827 41.8502 61.756 41.8578C61.673 41.8663 61.5922 41.8736 61.509 41.8812C61.5618 41.8866 61.6155 41.8894 61.6668 41.8961C61.511 41.8907 61.4414 41.9381 61.3439 41.9463C61.2466 41.9546 61.1571 41.9046 61.0509 41.9365C60.8235 42.0051 61.3898 41.9493 61.4606 41.9562C61.4882 41.9586 61.3838 42.0057 61.3676 42.0078C61.2962 42.017 61.2095 41.9914 61.1543 41.9957C60.9555 42.0114 60.8355 42.0592 60.6467 42.0796C60.4412 42.1018 60.22 42.1257 59.9966 42.1513C59.5181 42.2049 59.0389 42.272 58.6477 42.3487C58.4333 42.3902 58.2947 42.3643 58.1972 42.3856C57.9703 42.4368 57.9513 42.4905 57.7528 42.5392C57.4754 42.608 57.0806 42.6691 56.8225 42.7223C56.806 42.7256 56.79 42.729 56.7746 42.7324C56.5992 42.7706 56.4552 42.8598 56.4099 42.8732C55.7896 43.0556 55.0318 43.2676 54.5182 43.4178C54.2759 43.4887 54.146 43.4629 54.0961 43.4793C53.8843 43.5495 53.9545 43.5842 53.7801 43.6306C53.685 43.6561 53.6539 43.6116 53.641 43.6134C53.5265 43.6298 53.5214 43.7018 53.436 43.73C52.9443 43.8925 52.4556 43.997 51.9637 44.1454C51.9283 44.1561 51.9225 44.1248 51.9 44.1336C51.8036 44.1723 51.8637 44.2055 51.7612 44.2421C51.55 44.318 51.3269 44.3815 51.0986 44.4493C51.076 44.456 51.0538 44.4194 51.0023 44.4362C50.9506 44.4531 50.9227 44.5039 50.842 44.5282C50.6293 44.5923 50.4059 44.6157 50.183 44.6872C50.146 44.6992 50.1152 44.7639 50.0598 44.782C49.9795 44.8082 49.8779 44.8314 49.7763 44.8538C49.6608 44.8792 49.5453 44.9036 49.465 44.9299C48.9731 45.0918 48.5303 45.2777 48.0696 45.4406C47.9609 45.4789 47.8493 45.4647 47.7925 45.4835C47.6645 45.5259 47.7758 45.5374 47.6469 45.5833C46.5971 45.9575 45.5368 46.3199 44.481 46.718C44.0662 46.8741 43.5798 47.115 43.1749 47.2539C43.0069 47.3113 42.9512 47.2552 42.8334 47.2995C42.6246 47.3786 42.6174 47.481 42.4006 47.575C42.2269 47.6502 41.9921 47.6411 41.8114 47.7178C41.6301 47.7948 41.5779 47.9136 41.3734 48.0064C41.2029 48.0836 40.9481 48.1402 40.7632 48.2218C40.6238 48.2834 40.483 48.3457 40.3458 48.4068C38.8057 49.1004 37.2354 49.7633 35.8257 50.485C35.8162 50.4901 35.8068 50.4951 35.7975 50.5001C35.2102 50.8187 34.5963 51.1809 33.9768 51.4391C33.9177 51.4635 33.9543 51.3337 33.7882 51.4546C33.699 51.5198 33.6085 51.6666 33.3932 51.8004C33.3053 51.855 33.2161 51.9096 33.1257 51.9641C32.3816 52.4131 31.5895 52.8313 30.8039 53.2726C30.3116 53.5488 29.823 53.8345 29.3553 54.1337C28.1065 54.9458 26.9076 55.9002 25.6245 56.5592C24.9408 56.9278 24.2016 57.224 23.6557 57.5808C23.5985 57.6226 23.5418 57.5542 23.5579 57.4912C23.6049 57.462 23.6544 57.4422 23.7093 57.4189C23.677 57.2893 23.6852 57.3126 23.894 57.1478C24.0242 57.0479 23.8878 57.0903 23.9452 57.0211C24.0179 56.9306 24.3968 56.5384 24.3742 56.6811C24.3904 56.6476 24.4059 56.6152 24.4209 56.5825C24.6842 56.3643 24.9399 56.1509 25.1965 55.9322C25.2313 55.9023 25.2671 55.8716 25.3039 55.8401C25.3529 55.7976 25.3339 55.7645 25.3862 55.7191C25.5237 55.5985 25.6553 55.5352 25.8061 55.4223C25.8867 55.3618 25.8731 55.3126 25.9819 55.2375C26.0929 55.1608 26.1268 55.2198 26.2341 55.0524C26.0902 55.0514 26.5532 54.7919 26.7037 54.6787C26.7257 54.6625 26.8616 54.4631 26.9633 54.4009C27.0651 54.3387 27.2436 54.2785 27.3765 54.1456C27.4391 54.083 27.4436 53.9956 27.5174 53.9376C27.5694 53.8967 27.6676 53.9024 27.7371 53.8565C27.8065 53.8106 27.9249 53.6635 27.9512 53.6436C28.0465 53.5718 27.964 53.685 28.0317 53.6399C28.3587 53.4216 28.7478 53.1829 29.0506 52.9367C29.0878 52.9064 29.0025 52.8967 29.0067 52.8916C29.2353 52.6499 29.1335 52.8094 29.2334 52.8026C29.3296 52.7957 29.83 52.4267 29.7784 52.3393C29.8635 52.4349 29.9251 52.2772 29.953 52.2539C30.0323 52.1883 30.073 52.2281 30.1255 52.215C30.1455 52.2098 30.1673 52.1972 30.1932 52.1688C30.2281 52.1307 30.1065 52.1211 30.1524 52.0933C30.2652 52.025 30.43 52.0617 30.5827 51.977C30.6192 51.9569 30.602 51.9032 30.6666 51.8634C30.7307 51.8237 31.0325 51.7091 30.8479 51.6906C31.0582 51.6653 31.0649 51.6007 31.2529 51.4841C31.3019 51.4539 31.4103 51.4906 31.4968 51.4036C31.5267 51.3737 31.4804 51.3012 31.5319 51.268C31.6482 51.1928 31.8074 51.1987 31.9614 51.1078C32.1152 51.0172 32.267 50.9049 32.4203 50.7975C32.5516 50.7056 32.684 50.6171 32.8271 50.5437C32.9097 50.5017 32.9363 50.5869 33.0537 50.5192C33.071 50.5089 33.1737 50.3608 33.2602 50.3182C33.31 50.2937 33.5936 50.1889 33.6458 50.1636C33.7353 50.1194 33.7067 50.0389 33.7622 50.0257C33.9213 49.9883 33.8736 50.1586 33.952 49.9181C34.0514 49.9689 34.1421 49.9058 34.2299 49.9883C34.2222 49.847 34.3541 49.9111 34.4394 49.8133C34.525 49.7152 34.49 49.4534 34.6473 49.6663C34.6812 49.61 34.8653 49.4407 34.8982 49.4169C34.9974 49.3462 34.9775 49.4418 35.0516 49.3872C35.0635 49.3785 35.0316 49.3489 35.0956 49.3076C35.1018 49.3036 35.1089 49.2995 35.1169 49.2953C35.1796 49.2589 35.6345 49.0154 35.6651 49.0096C36.0103 48.919 35.5191 49.1395 35.4793 49.2247C35.4606 49.2188 35.4421 49.2127 35.4229 49.2074C35.2759 49.2617 35.4086 49.3163 35.4811 49.3062C35.5549 49.2953 35.6446 49.1909 35.7137 49.1963C35.7472 49.1996 35.7941 49.3263 35.7104 49.3523C35.8109 49.3459 35.7207 49.4431 35.7709 49.4604C35.8257 49.4781 36.195 49.3038 36.1644 49.2377C36.0953 49.2693 36.0107 49.3149 35.9406 49.3476C35.7897 49.2809 35.8693 48.7455 36.2074 48.7776C36.4499 48.8019 36.1844 49.0387 36.5812 48.734C36.5103 48.7615 36.4483 48.7775 36.3838 48.8022C36.3356 48.7188 36.4824 48.766 36.5204 48.7145C36.5388 48.6894 36.357 48.6996 36.4802 48.6168C36.654 48.6871 36.6829 48.5215 36.8763 48.4323C36.8334 48.4784 36.7885 48.5255 36.7457 48.572C37.1124 48.5137 36.3725 48.8879 37.0258 48.6508C36.9518 48.6891 36.8751 48.7227 36.8027 48.7635C36.8601 48.7924 36.8638 48.9533 36.9093 48.9666C37.0289 49.0015 37.1367 48.8981 37.2442 48.8576C37.2915 48.8397 37.2792 48.8888 37.2832 48.8873C37.3482 48.8629 37.3114 48.8156 37.3645 48.7878C37.4322 48.7524 37.6575 48.7149 37.6875 48.6949C37.7649 48.6431 37.5795 48.5989 37.5833 48.5879C37.6151 48.5132 37.7442 48.5074 37.7098 48.4432C37.4619 48.6034 36.6699 48.8894 37.3149 48.469C37.0758 48.4465 37.063 48.2736 37.337 48.1401C37.5636 48.0302 37.4401 48.1544 37.589 48.1678C37.6083 48.1689 37.9289 48.069 37.9257 48.0161C37.9587 48.1279 38.1 48.1793 38.0789 48.318C38.0754 48.3385 37.9471 48.3857 38.0287 48.4554C38.0694 48.4905 38.1738 48.5601 38.1877 48.621C38.197 48.5705 38.2051 48.5148 38.2136 48.4628C38.3975 48.3712 38.4406 48.4031 38.5754 48.4325C38.5577 48.404 38.4085 48.3155 38.5698 48.2938C38.5782 48.2931 38.6034 48.3366 38.6865 48.3288C38.8557 48.312 38.8901 48.3143 38.8336 48.4967C39.1087 48.2914 39.236 48.4152 39.5341 48.2414C39.402 48.0933 39.3069 48.1815 39.0321 48.3345C39.0029 48.2982 38.9798 48.2599 38.9496 48.2235C39.3732 48.1584 39.1777 48.2276 39.363 48.054C39.4077 48.0116 39.7035 47.9174 39.5606 47.8395C39.5261 47.8214 39.3501 47.8963 39.3531 47.8446C39.3524 47.8352 39.563 47.7259 39.585 47.7301C39.8718 47.7713 39.5094 48.0265 40.0839 47.7475C40.0984 47.7405 40.1135 47.7331 40.1293 47.7254C40.1467 47.7167 40.1331 47.6639 40.1658 47.6428C40.2274 47.6032 40.2513 47.6611 40.3063 47.6238C40.3603 47.5868 40.4116 47.4763 40.5308 47.5129C40.7468 47.5797 40.3897 47.808 40.1895 47.8073C40.1889 48.0059 41.4169 47.5246 41.4894 47.4817C41.7979 47.2891 41.2569 47.5408 41.2107 47.5045C41.191 47.489 41.0995 47.2315 41.0217 47.4519C40.9988 47.5173 41.1982 47.5138 41.1045 47.5815C41.0111 47.6492 41.0233 47.5579 41.0138 47.5556C40.9808 47.5478 40.8828 47.6183 40.8636 47.6135C40.58 47.5382 40.5052 47.2853 40.9377 47.5325C41.0326 47.4017 40.6921 47.3844 40.8277 47.268C40.9941 47.1263 41.1798 47.1886 41.2058 47.1845C41.5213 47.1344 41.1206 47.0936 41.4961 47.0123C41.7058 46.9668 41.2426 47.2378 41.6903 47.0544C42.065 46.9013 41.839 46.9203 41.816 46.7766C41.8107 46.7429 42.004 46.6268 41.7259 46.7468C41.731 46.7845 41.7332 46.836 41.7274 46.8749C41.6484 46.8758 41.4677 46.7449 41.4278 46.7529C41.2358 46.7921 41.2814 46.8787 41.133 46.8126C41.254 46.9006 41.1028 46.8773 41.0663 46.9195C40.9301 47.0759 41.1683 47.0236 40.7377 47.0543C40.8088 47.0901 40.875 47.1266 40.9448 47.1625C40.8992 47.1823 40.8538 47.202 40.8088 47.2216C40.6941 47.1267 40.4528 47.2377 40.6287 47.0295C40.348 47.0977 40.2493 47.1668 40.2289 47.2838C40.225 47.3061 40.188 47.3289 40.1411 47.3494C40.1606 47.3725 40.2045 47.4501 40.201 47.4631C40.1691 47.5781 40.0068 47.4653 40.0183 47.393C39.9872 47.4023 39.9618 47.4089 39.9505 47.4115C39.9495 47.4118 39.9486 47.412 39.9478 47.4122C39.915 47.4196 39.9254 47.3961 39.9348 47.3721C39.943 47.3505 39.9504 47.3285 39.9247 47.3286C39.9233 47.3286 39.9211 47.3291 39.9181 47.33C39.8819 47.3405 39.7454 47.404 39.7349 47.3852C39.6597 47.2553 39.97 47.2474 39.3957 47.3823C39.4326 47.5136 39.6733 47.3856 39.6622 47.5449C39.6495 47.7164 39.4328 47.5797 39.4719 47.7688C39.4487 47.7445 39.4338 47.7224 39.4106 47.6934C39.2251 47.8575 39.1599 47.7131 39.0807 47.7073C38.9245 47.6962 38.333 47.9502 38.9202 47.8584C38.8485 47.9026 38.7692 47.942 38.697 47.985C38.5704 47.7284 38.6605 47.8134 38.269 47.9288C38.1832 47.9541 38.1071 47.8492 38.0842 48.0213C38.0383 47.881 37.8279 48.0662 37.7993 48.0592C37.6063 48.0143 38.0891 47.6355 38.258 47.8472C38.3118 47.7155 38.3619 47.8392 38.4576 47.7806C38.5973 47.6954 38.6065 47.6637 38.82 47.6827C38.9414 47.4836 38.1184 47.9041 38.5647 47.5228C38.7193 47.3912 39.1757 47.1487 39.7403 46.8822C40.8075 46.3755 42.2621 45.8003 42.724 45.6195C44.0012 45.1182 44.6751 44.8592 45.8483 44.4803C45.9638 44.4422 46.8336 44.1486 46.6978 44.3418C46.6782 44.3693 46.3211 44.5437 46.6786 44.5439C46.5918 44.5029 46.7671 44.4005 46.7807 44.3889C47.0946 44.1224 46.871 44.1538 47.4459 43.9702ZM49.5225 44.5833C48.7719 44.8003 49.3442 44.7052 49.2531 44.9508C49.3484 44.9189 49.4416 44.8878 49.5373 44.856C49.5085 44.8524 49.4799 44.8486 49.451 44.845C49.4509 44.845 49.4508 44.845 49.4507 44.8451C49.4745 44.7576 49.4986 44.6702 49.5225 44.5833ZM61.8922 41.9258C61.8622 41.9424 61.8325 41.9591 61.7997 41.9757C61.6966 41.9761 61.594 41.9765 61.4903 41.9769C61.5023 41.9657 61.514 41.9544 61.526 41.9432C61.648 41.9378 61.7697 41.9325 61.8922 41.9258ZM40.1012 47.8798C39.9316 47.8537 40.0049 47.9924 39.7965 47.9998C39.8616 48.098 39.9281 48.1929 39.994 48.2894C40.1066 48.2275 40.1318 48.1797 40.2419 48.1453C40.2583 48.1402 40.2766 48.1355 40.2974 48.1311C40.2667 48.1037 40.2355 48.0761 40.2051 48.0483C40.2047 48.0486 40.2042 48.0489 40.2038 48.0493C40.182 48.0665 40.1593 48.0852 40.1382 48.1011C40.097 48.0577 40.1452 48.0057 40.1692 47.9621C40.1855 47.9311 40.1895 47.9044 40.1397 47.8879C40.1294 47.8846 40.1168 47.8818 40.1016 47.8794C40.1015 47.8796 40.1013 47.8797 40.1012 47.8798ZM38.7342 48.4901C38.6574 48.5057 38.3479 48.5745 38.3278 48.6359C38.2594 48.8431 39.0257 48.405 38.488 48.7915C38.4997 48.8116 38.5057 48.8335 38.5146 48.8545C38.6248 48.8162 38.7366 48.7763 38.8469 48.7367C38.8063 48.6556 38.7759 48.5713 38.7342 48.4901ZM46.8518 45.5055C46.7341 45.5345 46.2139 45.7926 46.4213 45.8179C46.4821 45.825 46.6808 45.613 46.775 45.5861C46.8358 45.5685 46.7925 45.6608 46.9015 45.5939C46.886 45.5655 46.8713 45.5332 46.8516 45.5058C46.8517 45.5057 46.8518 45.5056 46.8518 45.5055ZM46.9303 45.0333C46.8158 45.0858 46.7011 45.1424 46.5864 45.1965C46.7002 45.2447 46.8539 45.1357 46.9015 45.2419C46.8718 45.2614 46.8424 45.2809 46.8127 45.3005C46.7796 45.2851 46.7469 45.2695 46.7141 45.254C46.6325 45.3491 46.7046 45.3574 46.5085 45.4063C46.681 45.5333 46.7321 45.6139 47 45.3328C46.9693 45.4442 47.1268 45.7161 47.2353 45.4442C47.2558 45.3937 47.1065 45.417 47.1028 45.4114C47.055 45.3422 47.1164 45.2661 47.0685 45.2017C47.047 45.1725 46.9611 45.2027 46.9326 45.1615C46.9191 45.1413 46.9794 45.0499 46.9303 45.0333ZM47.298 45.3406C47.2772 45.3998 47.4393 45.4658 47.5396 45.4057C47.6966 45.3124 47.3957 45.301 47.298 45.3406ZM61.8929 41.9257C61.8927 41.9258 61.8924 41.9258 61.8922 41.9258C61.8923 41.9258 61.8924 41.9257 61.8926 41.9256C61.8927 41.9257 61.8928 41.9257 61.8929 41.9257ZM39.1318 48.3937C39.0661 48.4717 38.935 48.5191 38.9736 48.584C38.9268 48.5877 38.8802 48.5915 38.8324 48.5956C38.8415 48.6162 38.8509 48.6368 38.8598 48.6572C38.9893 48.6179 39.1196 48.5787 39.2487 48.5405C39.2103 48.4914 39.1729 48.4417 39.1318 48.3937ZM37.759 48.9212C37.5997 48.9831 37.7718 49.0194 37.7575 49.08C37.7433 49.1404 37.5904 49.1645 37.6351 49.2225C37.7269 49.1845 37.8237 49.1446 37.9153 49.107C37.8603 49.0468 37.8119 48.9819 37.7587 48.9214C37.7588 48.9213 37.7589 48.9213 37.759 48.9212ZM52.5775 43.6852C52.4629 43.7022 52.4894 43.6314 52.2923 43.7643C52.2924 43.7643 52.2926 43.7642 52.2928 43.7642C52.5131 43.7487 52.7924 43.7087 53.0087 43.5959C52.8509 43.5782 52.758 43.6583 52.5775 43.6852ZM40.5583 47.9405C40.5813 47.8662 40.3528 47.9026 40.3265 47.974C40.2847 48.0893 40.5243 48.0531 40.5583 47.9405ZM56.9931 42.1184C57.1102 41.9938 56.9064 41.93 56.6507 41.9763C56.5879 41.9877 56.5175 42.0074 56.4528 42.0343C56.4241 42.0461 56.6544 42.0348 56.5942 42.0728C56.588 42.0766 56.4662 42.1011 56.4404 42.1247C56.4142 42.1484 56.4551 42.1802 56.4094 42.2081C56.3307 42.2567 56.1243 42.2487 56.068 42.3024C56.0608 42.3096 56.1946 42.3336 56.2022 42.3339C56.3332 42.3361 56.4354 42.2396 56.455 42.2347C56.5529 42.2094 56.5493 42.2666 56.5778 42.2731C56.6292 42.285 56.702 42.2456 56.7122 42.2434C56.7125 42.2433 56.7128 42.2433 56.713 42.2433C56.7754 42.2476 56.7621 42.2601 56.7197 42.2758C56.6544 42.3003 56.5136 42.3331 56.4885 42.3517C56.3758 42.4341 56.5032 42.4538 56.2144 42.5571C56.1858 42.567 55.8515 42.6483 56.2877 42.6025C55.5711 42.9074 56.4906 42.6346 56.7794 42.5354C56.8128 42.5239 56.8374 42.5146 56.8505 42.5085C56.9098 42.4806 56.804 42.4533 56.8366 42.4215C56.9104 42.3489 57.0565 42.3052 57.0275 42.2359C56.9727 42.11 56.8373 42.2005 56.7095 42.2316C56.6902 42.2363 56.6709 42.2395 56.6522 42.2402C56.6584 42.2034 56.6563 42.1694 56.6745 42.1308C56.6691 42.1405 56.6759 42.1467 56.6907 42.1502C56.759 42.1652 56.9845 42.1278 56.9931 42.1186C56.9931 42.1185 56.9931 42.1184 56.9931 42.1184ZM54.9282 42.8175C54.7284 42.8167 54.7694 42.9184 54.5834 42.9037C54.4586 43.0395 54.7522 42.9529 54.7883 42.9489C54.9507 42.9307 54.9747 43.0332 55.1268 42.9584C55.0552 42.9135 54.9963 42.8642 54.9282 42.8175ZM56.5604 42.4471C56.4476 42.5273 56.6699 42.4718 56.6818 42.4789C56.8028 42.5547 56.1312 42.7015 56.5604 42.4471ZM46.0529 45.4905C45.9895 45.5076 46.0509 45.5578 46.003 45.5959C45.9552 45.6342 45.7495 45.6452 45.7682 45.6835C45.7871 45.7221 46.1643 45.7041 45.8299 45.8487C45.8493 45.8671 45.8513 45.8852 45.8639 45.9035C45.9581 45.8704 46.0533 45.8374 46.1475 45.8044C46.0736 45.7585 45.997 45.7094 45.9256 45.6646C45.9606 45.5946 46.0133 45.6499 46.0161 45.6489C46.0161 45.6488 46.016 45.6488 46.016 45.6487C46.1127 45.6086 46.1952 45.4519 46.0529 45.4905ZM51.0027 44.0496C50.9776 43.8999 50.8796 44.1065 50.8242 44.144C50.7697 44.1809 50.6707 44.1535 50.7209 44.206C50.8302 44.2181 51.006 44.066 51.0026 44.0494C51.0026 44.0495 51.0027 44.0496 51.0027 44.0496ZM53.9187 43.091C53.7712 43.1663 53.8065 43.1938 53.6051 43.2081C53.6213 43.2381 53.6376 43.2689 53.6537 43.2984C53.8047 43.256 53.7683 43.1664 53.9534 43.1547C53.9836 43.1528 53.9422 43.2437 54.0646 43.1838C54.016 43.1553 53.9672 43.122 53.9187 43.091ZM53.1825 43.429C53.3589 43.3719 53.4272 43.0698 53.132 43.2815C53.0876 43.3132 53.0496 43.4719 53.1825 43.429ZM47.6685 44.9249C47.3666 45.0176 47.7228 44.9515 47.8159 44.9716C47.1336 45.2459 47.89 44.9323 48.0111 45.0629C48.0812 44.9898 48.2066 44.8362 48.0213 44.8688C47.9439 44.8825 47.9861 44.9194 47.9816 44.9207C47.8423 44.9553 47.8328 44.8746 47.6685 44.9249ZM55.2498 42.7268C55.2387 42.7316 55.2672 42.7693 55.2329 42.7873C55.199 42.8052 55.1086 42.7973 55.1069 42.8256C55.106 42.854 55.2754 42.8307 55.3228 42.798C55.3688 42.7654 55.3506 42.6834 55.2498 42.7268ZM54.0525 42.9301C53.9081 43.0036 54.2017 43.0982 54.2332 43.0882C54.5218 42.9998 54.0579 42.9845 54.0525 42.9301ZM48.2564 44.3683C47.9264 44.5831 48.2472 44.6659 48.5063 44.6903C48.5295 44.66 48.5534 44.6294 48.5762 44.5995C48.481 44.7683 48.2844 44.9705 48.7767 44.6858C48.4782 44.7532 48.7093 44.6392 48.7087 44.6318C48.667 44.3945 48.2713 44.6415 48.2567 44.3682C48.2566 44.3683 48.2565 44.3683 48.2564 44.3683ZM55.7568 42.6433C55.9167 42.6013 56.3269 42.4668 56.1125 42.4363C55.9943 42.5042 55.8754 42.5733 55.7568 42.6433ZM42.3649 46.4295C42.2131 46.4143 42.0982 46.4578 41.9416 46.5207C42.1176 46.5596 42.0283 46.6046 41.9891 46.6449C41.9295 46.7056 42.1036 46.6374 42.1066 46.6433C42.1355 46.7315 42.0302 46.7862 42.2817 46.6899C42.2302 46.7435 42.181 46.7967 42.129 46.8506C42.3231 46.7821 42.3896 46.8218 42.5379 46.8447C42.3566 46.7206 42.5515 46.7676 42.6626 46.631C42.7182 46.5628 42.441 46.438 42.3644 46.4297C42.3646 46.4296 42.3647 46.4295 42.3649 46.4295ZM47.8715 44.4596C47.8436 44.4996 47.822 44.5484 47.7966 44.5922C47.7583 44.6082 47.7198 44.6239 47.6814 44.64C47.6683 44.617 47.6556 44.5925 47.642 44.5706C47.588 44.5804 47.6196 44.6082 47.6054 44.6165C47.6053 44.6164 47.6053 44.6162 47.6052 44.6161C47.4002 44.7348 47.3084 44.7603 47.1096 44.7408C47.1355 44.8172 47.1614 44.8937 47.1874 44.9702C47.2236 44.9498 47.2603 44.9294 47.2966 44.9093C47.3033 44.8613 47.3101 44.8133 47.3168 44.7655C47.3692 44.7731 47.4214 44.7806 47.4738 44.7881C47.5049 44.7613 47.5429 44.7314 47.5692 44.7068C47.8192 44.8588 47.3642 44.8513 47.3904 44.9409C47.4073 44.9985 47.8147 44.8575 47.8611 44.7989C47.8677 44.7904 47.7267 44.6628 47.9039 44.6947C47.9319 44.6999 48.0523 45.0359 48.1229 44.7076C48.1331 44.6611 47.9824 44.4779 47.8715 44.4596ZM46.3426 44.8433C46.6498 44.9885 45.7184 45.0406 46.1489 45.1004C46.08 45.2392 46.0992 45.2315 46.2358 45.2866C46.2479 45.2916 46.1852 45.3451 46.1926 45.3466C46.3082 45.3629 46.4172 45.2952 46.4495 45.3863C46.4743 45.3722 46.4977 45.3592 46.5226 45.3452C46.3824 45.2974 46.5383 45.1786 46.5817 45.083C46.6014 45.0396 46.5266 45.0538 46.5429 45.0162C46.549 45.0024 46.6558 44.9894 46.6496 44.9581C46.6349 44.8874 46.5408 44.8168 46.4171 44.8023C46.4171 44.8022 46.417 44.8022 46.417 44.8021C46.3918 44.8155 46.3677 44.8297 46.3426 44.8433ZM51.3564 43.4496C51.429 43.5486 51.5971 43.5321 51.3082 43.6778C51.3299 43.695 51.3519 43.7119 51.3736 43.7292C51.4245 43.7117 51.4735 43.6948 51.5248 43.6774C51.5861 43.3063 51.9793 43.5878 51.7289 43.4127C51.7017 43.3936 51.5878 43.4569 51.6884 43.3543C51.6882 43.3543 51.688 43.3543 51.6878 43.3543C51.5257 43.4238 51.5151 43.4697 51.3564 43.4496ZM50.2546 43.8668C49.9424 44.2269 50.8297 43.8337 50.6566 43.8194C50.6413 43.8175 50.2603 43.9918 50.2546 43.8668ZM53.3219 42.7685C53.1437 42.8116 53.1666 42.9335 53.1957 42.9715C53.2247 43.0097 53.3348 42.933 53.3523 42.9356C53.4095 42.9438 53.3052 42.988 53.3799 43.0003C53.4041 43.0042 53.7211 42.9626 53.7328 42.954C53.8031 42.9051 53.6632 42.8394 53.6825 42.8223C53.7453 42.7668 53.8579 42.7906 53.8649 42.7342C53.881 42.6136 53.7281 42.7758 53.6969 42.7863C53.6055 42.8162 53.5968 42.7524 53.5231 42.7585C53.4489 42.7649 53.4096 42.7981 53.3467 42.8102C53.3257 42.8142 53.3309 42.7665 53.3219 42.7685ZM52.8122 43.1789C52.9699 43.0369 52.4961 43.0614 52.4495 43.0976C52.3129 43.2054 52.7383 43.247 52.8122 43.1789ZM47.0339 44.9837C47.1722 44.8522 46.7686 44.9196 46.6697 44.9876C46.7008 45.0127 46.9866 45.0291 47.0339 44.9837ZM48.3573 44.336C48.2127 44.4086 48.4697 44.5095 48.5945 44.4655C48.6326 44.3323 48.5703 44.3765 48.4862 44.3989C48.4021 44.4213 48.47 44.2797 48.3573 44.336ZM55.2603 42.3845C55.2248 42.3907 54.7077 42.6001 55.024 42.5537C55.0489 42.5496 55.42 42.4431 55.4466 42.4224C55.4977 42.3805 55.3462 42.3678 55.2603 42.3845ZM49.0348 43.9432C48.9843 44.0616 48.9045 44.0858 49.0142 44.1719C49.0143 44.1719 49.0144 44.1718 49.0145 44.1718C48.8212 44.2709 48.7399 44.0481 48.6972 44.0669C48.5488 44.1327 48.7471 44.247 48.6679 44.3309C48.8759 44.2089 48.8458 44.3383 49.0186 44.29C49.0574 44.279 49.1891 44.1659 49.1984 44.1191C49.2078 44.0722 49.0916 43.977 49.0348 43.9432ZM56.0179 42.1836C55.8279 42.1969 55.6923 42.36 55.949 42.319C56.0741 42.299 56.1336 42.1752 56.0179 42.1836ZM38.2295 47.9812C38.2749 48.0159 38.3211 48.05 38.3685 48.0833C38.3089 48.1212 38.2515 48.1586 38.1915 48.1972C38.2363 48.1612 38.2803 48.126 38.3249 48.0906C38.1999 48.1243 38.1089 48.0647 38.2292 47.9813C38.2293 47.9813 38.2294 47.9812 38.2295 47.9812ZM34.0608 50.0258C33.987 50.0121 33.9623 50.2007 33.9813 50.2034C34.1203 50.2243 34.1644 50.0441 34.0608 50.0258ZM46.6627 44.6895C46.452 44.7403 46.6619 44.8956 46.7919 44.8669C46.702 44.8542 46.7824 44.6606 46.6627 44.6895ZM35.4793 49.2247C35.5067 49.2337 35.5338 49.2429 35.5633 49.2509C35.4887 49.2579 35.4682 49.2469 35.4793 49.2247ZM55.1386 42.2639C55.1037 42.2591 54.8631 42.3061 54.8357 42.3292C54.7777 42.3779 54.9849 42.4219 55.0866 42.3679C55.0975 42.362 55.1737 42.2685 55.1381 42.264C55.1382 42.264 55.1384 42.2639 55.1386 42.2639ZM37.9236 48.0099C37.9249 48.0118 37.9256 48.0139 37.9257 48.0161C37.9251 48.014 37.9242 48.012 37.9236 48.0099ZM29.771 52.3314C29.7741 52.3337 29.7767 52.3363 29.7784 52.3393C29.7762 52.3368 29.7733 52.3344 29.771 52.3314ZM53.4299 42.5378C53.3062 42.3957 53.1489 42.5282 53.3143 42.5721C53.3235 42.5742 53.4101 42.5425 53.4299 42.5378Z" fill="url(#paint1_linear_658_4672)"/>
<path d="M36.6688 11.8137C36.468 12.2816 36.179 12.8465 36.1117 13.1279C35.8684 14.2708 35.9111 15.7155 36.0859 16.9048C36.1195 17.1048 36.0708 17.0997 36.0764 17.1564C36.0858 17.2437 36.118 17.3038 36.1462 17.3512C36.1678 17.3892 36.1884 17.4243 36.201 17.4663C36.3143 17.8405 36.4918 18.1826 36.7252 18.5161C36.7569 18.5613 36.7689 18.5747 36.823 18.663C36.8261 18.6698 36.8434 18.6928 36.8727 18.7624C36.8861 18.8006 36.9103 18.8452 36.9185 18.9731C36.9082 19.0547 36.9593 19.0707 36.8179 19.3354C36.6678 19.5776 36.3573 19.6279 36.2519 19.608C36.0234 19.5743 35.9976 19.5195 35.9786 19.5159C35.9662 19.5082 35.9564 19.5015 35.9478 19.4954C35.9307 19.4833 35.9184 19.4737 35.9074 19.4647C35.863 19.428 35.8588 19.4218 35.8359 19.4003C35.7721 19.3374 35.7194 19.2803 35.6701 19.2266C35.2399 18.7506 35.5499 18.8737 35.4228 18.6923C35.1767 18.3393 35.2986 18.7261 35.1551 18.6324C34.8304 18.271 34.5101 17.9026 34.1879 17.5424C34.2807 17.6162 34.3731 17.6902 34.4662 17.7661C34.3229 17.6112 34.1309 17.3774 34.4074 17.5993C34.3616 17.5347 34.3208 17.4727 34.2727 17.4071C34.215 17.4342 33.9508 17.1721 33.9022 17.1734C33.8539 17.1742 34.0064 17.3178 34.0029 17.3188C33.9634 17.3376 33.4027 16.6925 33.3595 16.6525C33.2508 16.5336 33.3995 16.5761 33.2975 16.4884C33.1179 16.3398 33.1448 16.5425 33.0302 16.2089C33.0299 16.2088 33.0296 16.2088 33.0293 16.2088C32.8931 16.1787 32.9028 16.1467 32.7757 16.0458C32.7589 16.0325 32.7521 16.0701 32.7441 16.0652C32.5331 15.9384 32.721 16.0005 32.7219 15.9967C32.7385 15.9359 32.5097 15.8006 32.4675 15.7639C31.9703 15.3294 31.5774 15.0235 31.0158 14.6521C30.9813 14.6312 30.943 14.6086 30.9036 14.5863C30.8043 14.5274 30.538 14.4131 30.3447 14.3275C30.2743 14.2961 30.2139 14.268 30.1766 14.2483C30.04 14.1762 30.1291 14.1805 30.0627 14.132C29.9119 14.1506 29.7965 14.1039 29.5579 13.9297C29.4365 13.9318 29.4686 13.8979 29.279 13.8141C29.1211 13.7449 28.8262 13.6596 28.6837 13.5222C28.8737 13.6295 28.8651 13.5966 29.0896 13.6954C29.1624 13.731 29.9257 14.1066 29.8948 14.0227C29.8776 13.9812 29.6125 13.8856 29.6053 13.8754C29.5624 13.8191 29.7207 13.8516 29.8403 13.9228C29.8058 13.9139 29.7653 13.9023 29.7292 13.8923C29.9933 14.0627 29.867 13.8277 30.0228 14.0533C30.0423 14.0813 30.0244 14.0928 30.0607 14.1298C30.0729 14.1271 30.0268 14.0851 30.0747 14.1035C30.1234 14.1221 30.1982 14.196 30.2242 14.1743C30.2625 14.143 30.0594 14.07 30.0459 14.0606C30.0456 14.0608 30.0453 14.061 30.0451 14.0612C29.9249 13.9805 30.1971 14.1023 30.2124 14.1041C30.3082 14.1168 30.2593 14.0718 30.3957 14.1067C30.4074 14.1096 30.4224 14.1145 30.4382 14.1202C30.5271 14.1521 30.6666 14.219 30.7264 14.2422C30.7968 14.2692 30.6993 14.2011 30.7475 14.2177C30.7957 14.2343 30.8463 14.2759 30.903 14.2973C30.9274 14.3064 30.9373 14.2838 30.949 14.2886C31.0743 14.3405 30.9716 14.3462 31.0804 14.3998C31.0956 14.4074 31.1198 14.4174 31.1465 14.4273C31.2445 14.4691 31.3705 14.5065 31.2574 14.4255C31.3335 14.465 31.4068 14.5045 31.4817 14.545C31.4397 14.5107 31.395 14.4778 31.3549 14.4436C31.4856 14.5359 31.5712 14.5361 31.6588 14.5849C31.7468 14.6341 31.7944 14.7268 31.9026 14.7625C32.1345 14.8385 31.622 14.5546 31.5647 14.5101C31.5423 14.4923 31.658 14.5129 31.6729 14.5203C31.7397 14.554 31.7988 14.6249 31.8483 14.6535C32.0263 14.7562 32.1558 14.7881 32.3268 14.8851C32.6899 15.0915 33.1032 15.3427 33.486 15.5981C33.743 15.7746 33.9479 15.9473 34.134 16.1041C34.3171 16.2601 34.3834 16.3939 34.4637 16.4655C34.6478 16.6303 34.7037 16.6174 34.8631 16.7626C35.1006 16.9787 35.3951 17.3201 35.5792 17.5117C35.7063 17.6438 35.8616 17.725 35.8968 17.7572C36.0492 17.8966 36.2104 18.0471 36.3701 18.1961C36.4503 18.2708 36.5296 18.3448 36.6054 18.4131C36.6369 18.4416 36.6924 18.4897 36.6845 18.4803C36.6798 18.4765 36.6718 18.4692 36.6447 18.4515C36.6371 18.4473 36.636 18.4431 36.5759 18.4136C36.5144 18.405 36.4374 18.2833 36.0526 18.4064C35.8618 18.4754 35.7019 18.7125 35.6813 18.8428C35.6605 18.9279 35.6606 18.9919 35.6635 19.0403C35.671 19.1367 35.6886 19.1811 35.6998 19.2149C35.7496 19.3357 35.7454 19.3085 35.7505 19.3216C35.7539 19.3273 35.7548 19.329 35.7543 19.3285C35.7499 19.3236 35.7392 19.3103 35.7226 19.2901C35.5433 19.0736 35.38 18.8364 35.2597 18.6335C35.1083 18.3774 35.1076 18.2204 35.0795 18.1665C34.9649 17.9286 34.9434 18.0124 34.8711 17.8061C34.8674 17.7952 34.8645 17.7849 34.8623 17.7752C34.8418 17.6851 34.8765 17.652 34.8741 17.639C34.8501 17.5037 34.7787 17.4957 34.7495 17.3951C34.5903 16.8232 34.5609 16.287 34.5136 15.7373C34.5104 15.6974 34.5422 15.6986 34.5383 15.6729C34.5208 15.5626 34.4754 15.6179 34.4622 15.5016C34.4352 15.2602 34.4297 15.0109 34.4296 14.7526C34.4296 14.727 34.471 14.7154 34.4699 14.657C34.469 14.5987 34.4287 14.5537 34.4306 14.4614C34.4358 14.2198 34.4898 13.9828 34.5098 13.7243C34.5131 13.6812 34.4655 13.6243 34.4716 13.5586C34.4891 13.3546 34.5755 13.0556 34.6123 12.8762C34.6167 12.854 34.6211 12.8319 34.6255 12.8099C34.7941 12.1229 34.9828 11.7602 35.154 11.3068C35.1969 11.2016 35.2814 11.1271 35.3056 11.0702C35.3574 10.9477 35.2756 11.0234 35.3263 10.8951C35.6674 10.028 35.9944 9.14948 36.3018 8.2458C36.365 8.10969 36.3534 7.88735 36.3712 8.13478C36.3876 8.21863 36.455 8.31849 36.4819 8.34373C36.5104 8.37359 36.4998 8.36462 36.4694 8.35248C36.4063 8.3248 36.2836 8.27892 36.1596 8.23366C35.9756 8.16727 35.776 8.09879 35.6015 8.02577C35.4359 7.95655 35.4309 7.87763 35.3107 7.83166C35.0953 7.74949 35.0225 7.82184 34.7881 7.74213C34.6007 7.6781 34.4231 7.50757 34.2264 7.43167C34.0291 7.35477 33.9019 7.40061 33.6646 7.30148C33.5868 7.26844 33.5003 7.22124 33.4091 7.16622C33.287 7.09137 33.1641 7.01053 33.0475 6.9523C32.1746 6.51742 31.1594 5.97067 30.4025 5.141C29.7661 4.47249 29.1393 3.79565 28.5517 2.9924C28.2228 2.49688 27.7696 2.04224 27.6114 1.06087C27.6089 1.03891 27.6075 1.02544 27.6045 0.989285C27.6029 0.966163 27.6014 0.956855 27.6006 0.900721C27.6035 0.855975 27.5902 0.8218 27.6348 0.643162C27.6399 0.643754 27.6416 0.543792 27.783 0.346907C27.855 0.252115 27.9849 0.123887 28.1871 0.0511185C28.3868 -0.0243312 28.6232 -0.00791276 28.7718 0.046679C29.0715 0.161947 29.1393 0.294867 29.1848 0.341997C29.1982 0.359348 29.2092 0.374771 29.2186 0.388663C29.2554 0.443924 29.2715 0.477421 29.2846 0.504414C29.3542 0.667863 29.3332 0.639585 29.3446 0.672907C29.3492 0.692028 29.3543 0.715215 29.3562 0.726308C29.3674 0.786305 29.3718 0.825578 29.3766 0.86797C29.3855 0.950473 29.3906 1.02851 29.3932 1.10208C29.3955 1.17538 29.2877 1.08127 29.3401 1.30091C29.3674 1.4172 29.4697 1.57161 29.5038 1.84138C29.5174 1.94988 29.5296 2.061 29.5404 2.17283C29.621 3.01695 29.6132 3.88135 29.5966 4.74214C29.5833 5.39746 29.5649 6.04915 29.5693 6.68642C29.5992 8.41372 29.7434 10.1849 29.4747 11.8103C29.3853 12.4126 29.2588 12.9936 29.13 13.5464C29.1066 13.6469 29.023 13.5923 28.9978 13.5324C29.0167 13.4767 29.0398 13.424 29.0631 13.3665C28.9477 13.2935 28.976 13.3057 28.9902 13.0333C28.9988 12.8656 28.9427 12.998 28.9267 12.9103C28.9077 12.7936 28.8259 12.25 28.9251 12.3535C28.908 12.3208 28.8913 12.2897 28.874 12.2562C28.866 12.1073 28.8563 11.9603 28.8447 11.8117C28.8258 11.5715 28.8021 11.3325 28.7745 11.0927C28.7668 11.0267 28.7288 11.0238 28.7204 10.9542C28.6974 10.7708 28.7184 10.6221 28.7086 10.4326C28.7033 10.3286 28.6549 10.3149 28.653 10.1794C28.6509 10.0427 28.7188 10.0474 28.6389 9.86205C28.5584 9.98321 28.5988 9.4455 28.5869 9.25534C28.5856 9.2271 28.4939 9.00105 28.4978 8.88062C28.5017 8.75939 28.5492 8.57502 28.5104 8.38832C28.4921 8.30075 28.4213 8.24806 28.4129 8.15365C28.407 8.0872 28.4651 8.00639 28.4643 7.92219C28.4636 7.83794 28.404 7.65639 28.4015 7.62306C28.3927 7.50268 28.4432 7.63492 28.442 7.55252C28.4351 7.15459 28.442 6.69207 28.3933 6.30126C28.3873 6.25302 28.3339 6.32111 28.3318 6.31474C28.2474 5.98929 28.329 6.16287 28.3759 6.073C28.4215 5.98589 28.3674 5.36228 28.2651 5.36065C28.391 5.33692 28.2875 5.20332 28.2818 5.16631C28.2601 5.02589 28.3724 5.052 28.3313 4.9158C28.3162 4.8664 28.2461 4.96625 28.2455 4.91257C28.2451 4.87228 28.2553 4.83315 28.2699 4.79341C28.3032 4.69893 28.3597 4.60208 28.3617 4.48065C28.3623 4.43728 28.3072 4.42544 28.3048 4.3499C28.3026 4.27654 28.3505 3.95396 28.2439 4.10644C28.3248 3.91265 28.2716 3.87292 28.2595 3.65169C28.2564 3.59357 28.3407 3.51928 28.3046 3.39864C28.2924 3.3583 28.2067 3.36494 28.2015 3.30457C28.1895 3.1663 28.2686 3.02769 28.2578 2.85108C28.2467 2.66986 28.2142 2.49074 28.1835 2.30465C28.1574 2.1469 28.1331 1.99105 28.125 1.83499C28.1198 1.74033 28.2094 1.75524 28.1937 1.62035C28.1913 1.60081 28.0952 1.45043 28.088 1.36008C28.0864 1.33566 28.0868 1.24582 28.0862 1.16432C28.0863 1.12551 28.0848 1.08167 28.0843 1.05457C28.0838 1.03958 28.0834 1.02846 28.0846 1.02593C28.0852 1.02449 28.0865 1.02687 28.0908 1.03702C28.0929 1.04101 28.0976 1.05742 28.1185 1.09462C28.1242 1.10437 28.1313 1.11602 28.1419 1.13082C28.1497 1.1392 28.1418 1.13897 28.2006 1.19661C28.2443 1.23791 28.3953 1.35082 28.6096 1.2884C28.8127 1.21732 28.8555 1.08918 28.8785 1.04231C28.9005 0.981828 28.8913 1.00397 28.8964 0.987149C28.901 0.968678 28.9031 0.955432 28.9047 0.944664C28.9108 0.782223 28.9058 0.879687 28.9114 0.864863C28.9326 0.902077 28.9904 0.902365 28.9842 0.934292C28.9686 1.05061 28.8239 1.00843 29.0321 1.08599C28.9625 1.16637 29.0105 1.24831 28.922 1.32844C29.0603 1.32282 28.9871 1.44551 29.0833 1.52503C29.18 1.60481 29.4352 1.5471 29.2319 1.71646C29.2876 1.74482 29.4683 1.90661 29.4954 1.93539C29.575 2.02419 29.4784 2.01588 29.5406 2.08226C29.5515 2.09387 29.581 2.05121 29.6385 2.13401C29.6739 2.18919 29.9842 2.57585 29.9989 2.60135C30.1585 2.9111 29.8417 2.4916 29.7558 2.46842C29.7585 2.44934 29.7613 2.4304 29.7634 2.41088C29.6887 2.28065 29.6537 2.41611 29.6766 2.48577C29.6997 2.55583 29.8195 2.62269 29.8273 2.68913C29.8312 2.72252 29.7173 2.79582 29.6745 2.71883C29.7021 2.81685 29.5873 2.7469 29.5809 2.80008C29.5726 2.85849 29.835 3.18646 29.8926 3.1389C29.8436 3.07846 29.778 3.00595 29.7299 2.94439C29.7629 2.78424 30.2938 2.73482 30.3487 3.06207C30.3897 3.29963 30.0886 3.11223 30.4937 3.40768C30.4467 3.34749 30.4137 3.29245 30.3725 3.23787C30.4399 3.1692 30.4333 3.3209 30.4948 3.3438C30.5241 3.3543 30.4621 3.18251 30.5768 3.27728C30.5587 3.46289 30.7259 3.44269 30.8699 3.599C30.8123 3.57193 30.7541 3.54388 30.697 3.51705C30.8639 3.84937 30.2802 3.25415 30.7081 3.80858C30.6492 3.75058 30.5919 3.68577 30.5313 3.62872C30.5212 3.69258 30.3682 3.74349 30.3695 3.7914C30.3733 3.91751 30.5065 3.99016 30.5814 4.08238C30.6144 4.12269 30.5632 4.12581 30.5661 4.12923C30.6103 4.18377 30.6427 4.13292 30.6874 4.176C30.7445 4.23118 30.8558 4.43439 30.8852 4.45648C30.9612 4.51405 30.939 4.32168 30.9513 4.32227C31.0326 4.32818 31.0826 4.44962 31.1315 4.39552C30.8924 4.2134 30.365 3.5414 30.9747 4.02808C30.9166 3.79101 31.0789 3.72799 31.2933 3.94238C31.4716 4.12011 31.3137 4.0446 31.3508 4.18977C31.3519 4.19379 31.3623 4.20961 31.3786 4.23186C31.4344 4.31022 31.5667 4.46282 31.6037 4.44306C31.5124 4.51585 31.5178 4.66467 31.3824 4.6992C31.3622 4.70449 31.2693 4.6012 31.2351 4.70312C31.2177 4.7544 31.1946 4.87916 31.1434 4.91488C31.1947 4.90543 31.2503 4.89253 31.3026 4.88093C31.4661 5.01848 31.4587 5.07044 31.4975 5.20847C31.5144 5.17927 31.523 5.00425 31.6204 5.1418C31.6253 5.14903 31.5983 5.19223 31.6482 5.26436C31.7499 5.40842 31.7729 5.44351 31.5764 5.47741C31.9131 5.62922 31.8849 5.80516 32.2181 5.96262C32.2573 5.76475 32.1272 5.74247 31.8332 5.578C31.8475 5.53318 31.868 5.49338 31.8827 5.4482C32.1821 5.7836 32.0137 5.65178 32.2683 5.71208C32.3308 5.7275 32.5894 5.91448 32.5647 5.75143C32.5584 5.71335 32.391 5.61206 32.4356 5.58461C32.4429 5.57939 32.6574 5.68645 32.6683 5.70655C32.8183 5.9686 32.3567 5.82084 33.0155 6.13918C33.0338 6.14772 33.0666 6.10409 33.1049 6.11709C33.175 6.14046 33.1452 6.19551 33.2105 6.21536C33.2739 6.23406 33.3951 6.2051 33.4438 6.32021C33.5356 6.53106 33.1205 6.39863 32.9903 6.23794C32.8966 6.31143 33.2732 6.57556 33.6187 6.77612C33.877 6.9255 34.1131 7.02255 34.1481 7.03165C34.5218 7.12028 33.9297 6.90513 33.922 6.84064C33.9187 6.81491 34.0449 6.57406 33.8237 6.66159C33.7567 6.68704 33.9052 6.8382 33.785 6.81095C33.6636 6.78229 33.7436 6.73213 33.7383 6.72327C33.7302 6.70944 33.7002 6.69524 33.6692 6.68204C33.6316 6.66614 33.5923 6.65229 33.5876 6.64261C33.4585 6.37816 33.5984 6.1606 33.6968 6.63063C33.6982 6.63638 33.6995 6.64224 33.7009 6.64821C33.7828 6.64385 33.7709 6.57687 33.7601 6.5129C33.7483 6.44441 33.735 6.37838 33.8253 6.3916C33.8266 6.39179 33.828 6.392 33.8295 6.39222C34.0475 6.42682 34.1326 6.60155 34.1549 6.61843C34.4183 6.81049 34.1572 6.49584 34.4884 6.70459C34.6747 6.81911 34.1424 6.68809 34.6028 6.87074C34.9895 7.01893 34.8061 6.8755 34.8877 6.75521C34.9069 6.72698 35.1297 6.77387 34.8416 6.67196C34.8196 6.70303 34.7859 6.74209 34.7549 6.76636C34.6951 6.71253 34.6532 6.4924 34.6199 6.47073C34.4564 6.3657 34.4256 6.45753 34.3703 6.3067C34.3914 6.45401 34.3038 6.33107 34.2485 6.33391C34.0446 6.34242 34.2343 6.48168 33.9352 6.18689C33.9345 6.18618 33.9338 6.18546 33.9331 6.18475C33.9334 6.18612 33.9338 6.18749 33.9342 6.18886C33.9513 6.26388 33.9677 6.33641 33.9881 6.41119C33.9424 6.39043 33.8969 6.3692 33.8524 6.34763C33.8524 6.34558 33.8523 6.34353 33.8522 6.3415C33.8394 6.19395 33.6111 6.08567 33.8797 6.08496C33.6441 5.91442 33.5297 5.88221 33.4247 5.94009C33.4048 5.95119 33.3638 5.93715 33.3177 5.91337C33.3122 5.94305 33.2799 6.02622 33.2675 6.03169C33.1577 6.07949 33.1413 5.8806 33.2057 5.84483C33.176 5.82447 33.1537 5.80757 33.146 5.80137C33.0966 5.76172 33.2309 5.77328 33.1968 5.73117C33.1854 5.7175 33.0265 5.63941 33.035 5.61726C33.0936 5.47802 33.2823 5.71899 32.834 5.34686C32.7501 5.45519 32.9968 5.56939 32.8639 5.65713C32.7207 5.75204 32.6963 5.49378 32.5685 5.63777C32.5744 5.60466 32.5836 5.57966 32.5935 5.54388C32.3475 5.4868 32.4318 5.35011 32.3926 5.28225C32.3125 5.15242 31.8031 4.7825 32.1794 5.23185C32.103 5.19459 32.0295 5.14852 31.956 5.1074C32.1166 4.86762 32.0785 4.99506 31.8112 4.70927C31.7532 4.64496 31.8195 4.53456 31.6563 4.58669C31.7647 4.48848 31.5246 4.37676 31.521 4.3455C31.5026 4.16243 31.9936 4.42807 31.8788 4.6627C32.0147 4.64682 31.9275 4.74817 32.0202 4.80113C32.1546 4.87575 32.1842 4.86661 32.2744 5.05334C32.4917 5.04808 31.7659 4.5866 32.2861 4.7583C32.534 4.84573 33.3212 5.26597 34.2054 5.68393C34.9921 6.04238 35.9905 6.36384 36.3529 6.50575C36.5169 6.56644 36.6741 6.62578 36.8305 6.68998C36.959 6.74319 37.0848 6.79399 37.241 6.87437C37.3882 6.96136 37.6235 7.05148 37.8586 7.42947C38.0866 7.83693 38.0176 8.19439 37.9888 8.36454C37.9512 8.55176 37.9086 8.67488 37.8685 8.79454C37.7155 9.2414 37.5548 9.68212 37.3395 10.219C37.2959 10.3348 36.9471 11.2143 36.8892 10.9805C36.8811 10.9483 36.9846 10.5499 36.7486 10.833C36.8367 10.7923 36.7992 10.9961 36.7986 11.0154C36.791 11.4381 36.9186 11.2409 36.6688 11.8137ZM34.8867 13.1104C34.9056 13.0152 34.9225 12.9366 34.9353 12.8762C35.0704 12.3638 34.8475 12.8446 34.7199 12.624C34.702 12.6869 34.6855 12.753 34.6717 12.8198C34.6603 12.8755 34.6496 12.9327 34.6398 12.9889C34.6572 12.9621 34.675 12.9343 34.693 12.9073C34.693 12.9072 34.693 12.9071 34.693 12.907C34.7565 12.9774 34.8213 13.0448 34.8867 13.1104ZM31.1645 14.2876C31.184 14.2885 31.2034 14.2895 31.2232 14.2908L31.2341 14.2972C31.2506 14.2987 31.2672 14.3004 31.2843 14.3024C31.3733 14.3598 31.462 14.4175 31.5507 14.476C31.5342 14.4785 31.518 14.4813 31.5014 14.4837C31.4086 14.4279 31.3157 14.3725 31.2214 14.3179L31.2113 14.312C31.1957 14.3037 31.1802 14.2956 31.1645 14.2876ZM32.8752 6.21238C32.7877 6.06131 32.721 6.20374 32.5831 6.03948C32.5448 6.15102 32.5109 6.26212 32.4759 6.37397C32.6193 6.43767 32.6725 6.41771 32.8045 6.52433C32.8056 6.48261 32.8068 6.44056 32.8089 6.39902C32.7813 6.39254 32.7499 6.38503 32.723 6.37782C32.7379 6.2672 32.9766 6.3851 32.8758 6.21244C32.8756 6.21242 32.8754 6.2124 32.8752 6.21238ZM31.5284 5.38256C31.4688 5.31861 31.2555 5.05383 31.191 5.05628C30.9554 5.07184 31.7588 5.63653 31.1204 5.27182C31.1073 5.29102 31.0896 5.3054 31.0741 5.32217C31.1672 5.41802 31.2648 5.51061 31.3659 5.59975C31.4173 5.52483 31.4772 5.45821 31.5284 5.38256ZM35.9051 10.3388C35.9596 10.2311 36.0972 9.66062 35.9441 9.80519C35.9008 9.84515 35.9344 10.1366 35.893 10.2286C35.8671 10.2866 35.8247 10.1938 35.8054 10.32C35.8371 10.3264 35.8714 10.3356 35.905 10.3384C35.905 10.3386 35.905 10.3387 35.9051 10.3388ZM36.2126 10.7078C36.2471 10.5864 36.2795 10.459 36.3128 10.3349C36.202 10.3924 36.1845 10.5828 36.0728 10.55C36.0772 10.5145 36.0817 10.479 36.0864 10.4425C36.1202 10.4256 36.1528 10.4118 36.1859 10.3967C36.1659 10.273 36.1142 10.3202 36.203 10.1385C35.9951 10.1876 35.9006 10.1767 35.9399 10.5656C35.8749 10.4701 35.5656 10.4148 35.7015 10.6735C35.7264 10.7219 35.8057 10.5943 35.8127 10.5942C35.8965 10.6026 35.9138 10.7 35.994 10.7052C36.03 10.7083 36.0645 10.6194 36.1138 10.6256C36.1384 10.6274 36.1675 10.7358 36.2126 10.7078ZM35.7384 10.7902C35.707 10.7362 35.5518 10.8143 35.5305 10.9314C35.4979 11.1105 35.7052 10.8891 35.7384 10.7902ZM31.1639 14.2873C31.1641 14.2874 31.1643 14.2875 31.1645 14.2876C31.1644 14.2875 31.1643 14.2875 31.1641 14.2875C31.164 14.2874 31.164 14.2874 31.1639 14.2873ZM31.8408 5.69734C31.7319 5.6788 31.6147 5.5825 31.5786 5.64873C31.5476 5.607 31.5168 5.56494 31.4865 5.52227C31.4728 5.54017 31.4595 5.55842 31.446 5.57615C31.5566 5.68123 31.6696 5.78135 31.7842 5.87773C31.8033 5.81793 31.824 5.75892 31.8408 5.69734ZM30.6946 4.59813C30.5809 4.46482 30.6057 4.6421 30.5431 4.64767C30.48 4.65282 30.4047 4.51263 30.3644 4.57388C30.4316 4.65024 30.5043 4.73226 30.5726 4.80894C30.6106 4.73629 30.6553 4.66878 30.6944 4.59788C30.6945 4.59796 30.6946 4.59805 30.6946 4.59813ZM34.8624 16.4702C34.8617 16.3462 34.927 16.3897 34.8274 16.1594C34.8275 16.1596 34.8275 16.1598 34.8275 16.16C34.8057 16.392 34.8078 16.6928 34.9035 16.9377C34.9346 16.7724 34.8649 16.6644 34.8624 16.4702ZM33.1298 6.61323C33.2032 6.58451 33.0216 6.42689 32.9489 6.4506C32.8305 6.48926 33.017 6.65689 33.1298 6.61323ZM34.936 17.6437C34.7253 17.6015 34.8648 17.938 35.1545 18.1532C35.1795 18.1714 35.0479 17.9794 35.1122 18.0112C35.1184 18.0142 35.2045 18.1069 35.2386 18.1172C35.2726 18.1273 35.2785 18.0759 35.326 18.1003C35.4099 18.1435 35.5132 18.3277 35.5875 18.3475C35.5977 18.3503 35.5484 18.2225 35.5437 18.2149C35.4776 18.1013 35.3386 18.0608 35.3249 18.0474C35.2512 17.9759 35.3006 17.948 35.2915 17.9205C35.2748 17.8693 35.1967 17.8249 35.1936 17.8193C35.1173 17.6749 35.3587 17.937 35.4073 17.9578C35.536 18.0111 35.488 17.8928 35.7295 18.0902C35.7525 18.1092 36.0005 18.3594 35.7289 18.0022C36.4448 18.5244 35.4691 17.6435 35.3462 17.5621C35.2903 17.5254 35.3243 17.6311 35.2795 17.6196C35.1772 17.5933 35.0598 17.4899 35.0173 17.5521C34.9277 17.6829 35.1433 17.7549 35.2242 17.874C35.1894 17.8877 35.1616 17.9073 35.1184 17.9114C35.1801 17.9093 34.9514 17.646 34.9362 17.6435C34.9362 17.6436 34.9361 17.6436 34.936 17.6437ZM35.9924 18.8861C35.9149 18.6922 35.8331 18.7645 35.783 18.573C35.6102 18.4841 35.7929 18.7594 35.8129 18.7928C35.8921 18.9461 35.814 19.0101 35.9374 19.1242C35.9401 19.1267 35.9428 19.1291 35.9455 19.1315C35.9463 19.1265 35.947 19.1214 35.9477 19.1163C35.9603 19.0384 35.9771 18.9639 35.9924 18.8861ZM35.4503 17.8459C35.5804 17.9032 35.4116 17.7368 35.4124 17.7241C35.4113 17.5782 35.8988 18.0878 35.4503 17.8459ZM36.4325 9.72854C36.4599 9.66829 36.3819 9.68408 36.3834 9.62199C36.3856 9.5576 36.5075 9.39269 36.4664 9.38184C36.4241 9.3736 36.1987 9.67452 36.2996 9.32465C36.273 9.32821 36.2577 9.31812 36.2355 9.31637C36.2013 9.41008 36.1653 9.50676 36.1303 9.6011C36.213 9.57335 36.3 9.54426 36.3808 9.51571C36.4118 9.58939 36.3353 9.59529 36.3343 9.59815C36.3343 9.59817 36.3344 9.5982 36.3345 9.59822C36.303 9.70049 36.3716 9.86188 36.4325 9.72854ZM34.8401 14.7758C34.9907 14.7949 34.8206 14.6359 34.8019 14.5685C34.783 14.5018 34.8401 14.4115 34.7745 14.4446C34.7281 14.552 34.8231 14.7742 34.8403 14.7758C34.8402 14.7758 34.8402 14.7758 34.8401 14.7758ZM35.4347 17.9269C35.3433 17.7883 35.3161 17.8132 35.2861 17.6353C35.2846 17.625 35.283 17.6139 35.2815 17.6019C35.2523 17.6199 35.2225 17.6383 35.194 17.6564C35.195 17.6593 35.1959 17.662 35.1969 17.6647C35.2548 17.8197 35.3367 17.7789 35.3769 17.9711C35.3843 18.0031 35.2849 17.9701 35.3689 18.0944C35.3876 18.0385 35.4114 17.9813 35.4347 17.9269ZM35.0589 17.1397C35.1093 17.3343 35.4089 17.4175 35.2093 17.0983C35.1802 17.0501 35.0236 16.995 35.0589 17.1397ZM35.8062 11.3474C35.9375 11.0554 35.7504 11.3715 35.6731 11.4285C35.921 10.7269 35.6539 11.5116 35.4745 11.5154C35.4833 11.6146 35.5112 11.8172 35.6126 11.652C35.6537 11.5858 35.5983 11.5922 35.6002 11.5881C35.6684 11.4577 35.7345 11.5056 35.8062 11.3474ZM36.3805 18.8295C36.388 18.8333 36.4089 18.7942 36.4307 18.8003C36.4322 18.8001 36.4326 18.7995 36.4264 18.7953C36.4155 18.7978 36.4531 18.7789 36.3011 18.7619C36.2598 18.7613 36.1782 18.7823 36.1262 18.8458C36.0728 18.9129 36.0742 18.9596 36.0711 18.9791C36.0681 19.0276 36.0763 19.0495 36.0805 19.065C36.1141 19.1428 36.0956 19.0911 36.0947 19.092C36.0844 19.0721 36.0737 19.057 36.0598 19.061C36.0445 19.0632 36.0686 19.1151 36.0653 19.1211C36.0641 19.1194 36.0601 19.1144 36.0518 19.0952C36.0552 19.0623 35.9904 19.0825 36.0678 18.8645C36.1656 18.6949 36.3541 18.7223 36.3792 18.734C36.4236 18.7472 36.4362 18.7578 36.4424 18.7607C36.4483 18.7641 36.4514 18.766 36.4533 18.7672C36.4602 18.7717 36.4498 18.7633 36.4452 18.7597C36.4328 18.7497 36.4142 18.7361 36.4036 18.7331C36.3529 18.7131 36.2958 18.7765 36.3805 18.8295ZM35.6182 18.0421C35.518 17.9062 35.4806 18.2237 35.5019 18.2578C35.6627 18.5394 35.5594 18.0548 35.6182 18.0421ZM35.8258 12.1674C35.8887 11.7728 35.6116 11.9582 35.4185 12.1411C35.4259 12.1782 35.4318 12.219 35.4393 12.2556C35.3772 12.0714 35.3585 11.7782 35.2405 12.356C35.3898 12.0744 35.3204 12.3333 35.3264 12.338C35.5321 12.4603 35.6121 11.9955 35.8257 12.1678C35.8257 12.1676 35.8258 12.1675 35.8258 12.1674ZM36.0453 18.4439C35.9246 18.326 35.5932 18.0394 35.6793 18.2403C35.8011 18.3092 35.923 18.3771 36.0453 18.4439ZM35.5349 6.8688C35.4312 6.75638 35.3133 6.71111 35.1554 6.65247C35.2603 6.79971 35.1636 6.77308 35.107 6.77627C35.0214 6.78085 35.1978 6.84809 35.1959 6.85431C35.1588 6.93921 35.0409 6.90861 35.2977 7.007C35.2226 7.01228 35.1482 7.01803 35.073 7.02285C35.2669 7.10374 35.2911 7.17763 35.3887 7.29419C35.3334 7.08003 35.4511 7.24616 35.6274 7.21846C35.7154 7.20467 35.5876 6.92635 35.5344 6.86861C35.5346 6.86867 35.5347 6.86874 35.5349 6.8688ZM36.0176 11.8129C36.0064 11.7656 35.9845 11.7162 35.9694 11.6664C35.9829 11.6272 35.9967 11.5879 36.0108 11.5469C36.0368 11.5521 36.0637 11.5587 36.0892 11.5627C36.1177 11.5154 36.0759 11.5209 36.0791 11.5046C36.0793 11.5046 36.0794 11.5047 36.0795 11.5047C36.1278 11.2682 36.1695 11.1802 36.3155 11.0398C36.2407 11.0094 36.1658 10.979 36.091 10.9487C36.0825 10.9902 36.0745 11.0297 36.065 11.0727C36.0965 11.1098 36.1281 11.1469 36.1596 11.1836C36.1196 11.218 36.0789 11.2541 36.0384 11.2895C36.0377 11.3312 36.0356 11.3784 36.0358 11.4164C35.755 11.5077 36.0648 11.162 35.9789 11.1241C35.9255 11.0977 35.7591 11.5052 35.7722 11.5771C35.7737 11.5886 35.9643 11.5648 35.8207 11.6805C35.7982 11.6978 35.4671 11.5649 35.664 11.8379C35.6918 11.8764 35.9285 11.8872 36.0176 11.8129ZM36.7407 10.3738C36.4307 10.5205 36.9945 9.7549 36.6698 10.0553C36.608 9.91129 36.6013 9.93207 36.471 10.003C36.4593 10.0093 36.4588 9.92597 36.4529 9.93071C36.3661 10.0097 36.3471 10.1392 36.2564 10.1055C36.2511 10.1341 36.2459 10.1607 36.2407 10.1887C36.3674 10.1121 36.3587 10.3066 36.4022 10.4052C36.4224 10.449 36.4604 10.381 36.4785 10.4183C36.4848 10.4325 36.4253 10.5234 36.4534 10.5387C36.517 10.5728 36.6311 10.5482 36.7237 10.4583C36.7238 10.4584 36.7238 10.4584 36.7239 10.4584C36.7306 10.4286 36.7349 10.4022 36.7407 10.3738ZM35.327 15.2863C35.2138 15.3329 35.1889 15.5043 35.1176 15.1826C35.0954 15.1996 35.0736 15.217 35.0516 15.2341C35.0561 15.2888 35.0609 15.3423 35.0659 15.3978C35.4117 15.5444 35.0564 15.8707 35.2793 15.6604C35.3035 15.6374 35.2661 15.5111 35.3448 15.6328C35.3448 15.6326 35.3449 15.6324 35.3449 15.6323C35.3119 15.4579 35.27 15.4372 35.327 15.2863ZM35.2479 14.1039C35.0159 13.6778 35.0877 14.6698 35.162 14.5047C35.1663 14.4904 35.1267 14.0658 35.2479 14.1039ZM35.7149 17.3079C35.6764 17.1391 35.5558 17.1537 35.5161 17.1818C35.4764 17.2094 35.5504 17.322 35.5478 17.3377C35.5391 17.3947 35.4958 17.2909 35.4829 17.3648C35.481 17.3787 35.4915 17.4746 35.5081 17.562C35.5231 17.6414 35.5422 17.715 35.547 17.7207C35.603 17.7864 35.6542 17.6402 35.6733 17.6581C35.7334 17.7137 35.7238 17.8258 35.7809 17.8247C35.9015 17.822 35.7228 17.699 35.7104 17.6688C35.6727 17.5818 35.736 17.5679 35.7265 17.4981C35.7261 17.4954 35.7257 17.4928 35.7253 17.4902C35.716 17.4283 35.6842 17.3908 35.6731 17.3323C35.6692 17.3117 35.7168 17.3167 35.7149 17.3079ZM35.3373 16.7804C35.4618 16.9526 35.4884 16.4791 35.4624 16.4286C35.3744 16.2765 35.2743 16.6964 35.3373 16.7804ZM36.1819 10.8211C36.1912 11.0127 36.4041 10.6596 36.4179 10.5348C36.378 10.5446 36.1788 10.7548 36.1819 10.8211ZM35.7823 12.2652C35.8255 12.1069 35.5773 12.2335 35.5275 12.3591C35.6031 12.4751 35.6101 12.3994 35.6494 12.3206C35.6888 12.2419 35.7497 12.3865 35.7823 12.2652ZM36.0885 19.0082C36.0972 19.0169 36.1298 19.0428 36.1837 19.0789C36.1879 19.0812 36.2009 19.0907 36.2098 19.0959C36.2147 19.0989 36.2197 19.1019 36.2255 19.105C36.2377 19.0998 36.2078 19.1356 36.347 19.1228C36.3877 19.1131 36.429 19.0608 36.4329 19.0304C36.4375 19.0113 36.4369 18.9972 36.4359 18.9866C36.4335 18.9656 36.4291 18.9558 36.4257 18.9474C36.4194 18.9328 36.4104 18.9193 36.4088 18.9177C36.4031 18.9106 36.3972 18.9038 36.3907 18.8965C36.3619 18.8641 36.3462 18.8535 36.3199 18.829C36.246 18.7685 36.1969 18.7457 36.2704 18.8672C36.2726 18.8706 36.2748 18.8741 36.277 18.8776C36.2822 18.8857 36.2972 18.9035 36.325 18.9417C36.3331 18.9541 36.3328 18.9498 36.3464 18.9765C36.3485 18.9826 36.3527 18.9874 36.3508 19.006C36.3439 19.0542 36.28 19.0414 36.2818 19.037C36.2685 19.0297 36.2683 19.029 36.261 19.024C36.2343 19.0042 36.2181 18.9904 36.1961 18.9719C36.1143 18.9022 36.0361 18.833 36.0197 18.8269C35.956 18.8035 36.0257 18.9421 36.0885 19.0082ZM35.6823 12.9952C35.604 12.9046 35.6303 12.8273 35.4984 12.8645C35.4983 12.8646 35.4983 12.8647 35.4983 12.8648C35.5251 12.6587 35.7573 12.7324 35.7665 12.6918C35.8076 12.543 35.5949 12.6168 35.5814 12.503C35.5432 12.7392 35.4605 12.6348 35.3981 12.8025C35.3887 12.8289 35.3968 12.9188 35.4185 12.9796C35.4278 13.0073 35.4389 13.03 35.4501 13.0395C35.475 13.0605 35.5475 13.0418 35.6093 13.0204C35.6379 13.0117 35.6643 13.0026 35.6823 12.9952ZM35.5117 18.4519C35.6238 18.6105 35.8358 18.6453 35.6653 18.4431C35.5795 18.342 35.4455 18.3578 35.5117 18.4519ZM31.7486 4.69787C31.7361 4.75326 31.7248 4.80914 31.7158 4.86619C31.6563 4.83048 31.5972 4.79361 31.5385 4.75553C31.589 4.78121 31.6395 4.80624 31.6904 4.83058C31.6057 4.7321 31.6264 4.62746 31.7483 4.69765C31.7484 4.69772 31.7485 4.6978 31.7486 4.69787ZM28.908 1.17298C28.9334 1.10963 28.7608 1.06989 28.7532 1.08363C28.7008 1.20747 28.8747 1.26597 28.908 1.17298ZM36.6485 10.7254C36.7489 10.5246 36.4924 10.5906 36.4292 10.7098C36.4977 10.6486 36.592 10.8375 36.6485 10.7254ZM29.7558 2.46842C29.7521 2.49711 29.7476 2.52476 29.7451 2.55488C29.7251 2.48447 29.7323 2.46197 29.7558 2.46842ZM36.0625 19.1838C36.0663 19.1896 36.072 19.1973 36.0855 19.211C36.0952 19.2201 36.1055 19.2298 36.1228 19.2429C36.1455 19.2522 36.0923 19.2457 36.2402 19.2965C36.2793 19.3034 36.3693 19.3248 36.4856 19.2465C36.605 19.1577 36.6098 19.0405 36.6121 19.0175C36.6148 18.9378 36.5997 18.91 36.5926 18.8865C36.5186 18.7315 36.5208 18.7594 36.4836 18.7026C36.4504 18.6575 36.4228 18.6233 36.4095 18.616C36.3653 18.5941 36.3647 18.6815 36.4031 18.7647C36.4294 18.8172 36.4389 18.8227 36.4941 18.9076C36.4972 18.919 36.5098 18.9195 36.5182 18.994C36.5151 19.0205 36.5315 19.0222 36.489 19.1097C36.4458 19.1909 36.3336 19.2208 36.2916 19.2135C36.2041 19.2041 36.1871 19.1797 36.1822 19.1822C36.1557 19.1743 36.1309 19.1661 36.1131 19.1643C36.0812 19.1636 36.0513 19.165 36.063 19.1842C36.0628 19.184 36.0627 19.1839 36.0625 19.1838ZM31.6086 4.43876C31.6072 4.44065 31.6056 4.44208 31.6037 4.44306C31.6054 4.4417 31.6069 4.44007 31.6086 4.43876ZM28.2545 5.36288C28.2581 5.36143 28.2617 5.3606 28.2651 5.36065C28.2618 5.36127 28.2583 5.36243 28.2545 5.36288ZM35.9434 17.3977C36.0835 17.2821 35.9587 17.1462 35.9105 17.2971C35.9079 17.3054 35.9389 17.3824 35.9434 17.3977Z" fill="url(#paint2_linear_658_4672)"/>
<defs>
<linearGradient id="paint0_linear_658_4672" x1="33.2796" y1="14.8823" x2="46.6967" y2="86.06" gradientUnits="userSpaceOnUse">
<stop stop-color="#455155"/>
<stop offset="1" stop-color="#455155" stop-opacity="0"/>
</linearGradient>
<linearGradient id="paint1_linear_658_4672" x1="43.9335" y1="41.5815" x2="45.6943" y2="62.23" gradientUnits="userSpaceOnUse">
<stop stop-color="#455155"/>
<stop offset="1" stop-color="#455155" stop-opacity="0"/>
</linearGradient>
<linearGradient id="paint2_linear_658_4672" x1="32.8103" y1="0.882324" x2="41.7714" y2="20.4244" gradientUnits="userSpaceOnUse">
<stop stop-color="#455155"/>
<stop offset="1" stop-color="#455155" stop-opacity="0"/>
</linearGradient>
</defs>
</svg>
