<svg width="42" height="55" viewBox="0 0 42 55" fill="none" xmlns="http://www.w3.org/2000/svg">
<path d="M12.8099 17.2776C12.7743 15.7867 12.6434 14.4306 13.0018 12.5725C13.2407 11.8085 13.7037 11.3254 14.1336 10.9475C14.3491 10.7657 14.3789 10.8354 14.4433 10.794C14.6215 10.6849 14.6741 10.5496 14.8004 10.4694C15.4121 10.0872 15.9907 9.8091 16.6094 9.56853C16.7542 9.51279 16.8549 9.4887 16.9272 9.48208L17.0587 9.44103C17.3 9.46081 17.1853 9.62426 17.3667 9.62607C17.8227 9.63508 17.3972 9.44129 17.557 9.34589C18.0654 9.26153 18.5788 9.20612 19.0884 9.16417C18.9686 9.20712 18.8488 9.25031 18.7286 9.29301C18.9488 9.26452 19.2684 9.2621 18.9122 9.38655C18.9961 9.39407 19.0748 9.40609 19.1607 9.4135C19.169 9.3105 19.5571 9.25057 19.585 9.18784C19.6132 9.12426 19.3955 9.16591 19.3964 9.16074C19.4011 9.0823 20.3151 9.0775 20.3805 9.08275C20.5542 9.08784 20.4159 9.22601 20.5608 9.20419C20.8091 9.168 20.6234 8.9316 20.986 9.23398C20.9872 9.23496 20.9883 9.23595 20.9895 9.23694C21.1157 9.1176 21.1322 9.17308 21.3037 9.16865C21.3262 9.16805 21.3044 9.10619 21.3142 9.10386C21.5703 9.03981 21.3786 9.1703 21.3805 9.17655C21.4115 9.28262 21.6844 9.21753 21.7436 9.22489C22.4813 9.3141 23.0146 9.38588 23.7802 9.40124C23.9457 9.40427 24.4487 9.35379 24.6088 9.37092C24.7666 9.38758 24.6828 9.46631 24.7656 9.50299C24.8961 9.31442 25.0226 9.29266 25.3201 9.4145C25.4299 9.27716 25.4162 9.3875 25.6278 9.35919C25.804 9.33573 26.1104 9.17059 26.3047 9.30976C26.0823 9.29779 26.1056 9.36487 25.8555 9.40637C25.7724 9.4198 24.9035 9.42745 24.9691 9.56714C25.0033 9.63969 25.2907 9.57096 25.3019 9.58438C25.367 9.66231 25.207 9.75937 25.0646 9.72662C25.1 9.71058 25.1425 9.69428 25.1806 9.67825C24.8602 9.58251 25.0829 9.95682 24.8374 9.63022C24.8071 9.59018 24.8184 9.54807 24.7685 9.50568C24.7585 9.52347 24.8194 9.56685 24.7673 9.57516C24.7141 9.58353 24.6122 9.50115 24.5978 9.57154C24.5762 9.67386 24.7965 9.63157 24.813 9.63745C24.8132 9.63684 24.8134 9.63622 24.8135 9.6356C24.9606 9.68861 24.6544 9.69735 24.6399 9.70723C24.5459 9.7718 24.6108 9.82012 24.4694 9.87419C24.3889 9.90496 24.1824 9.8899 24.1066 9.90071C24.0313 9.9117 24.1493 9.95832 24.0987 9.96943C24.0482 9.98053 23.9842 9.94478 23.9249 9.95778C23.8995 9.9635 23.9016 10.0174 23.8893 10.0195C23.7572 10.0425 23.8422 9.92885 23.7222 9.93788C23.6443 9.94377 23.3858 10.0539 23.5662 10.0812C23.48 10.0938 23.3962 10.1036 23.3105 10.1142C23.365 10.1289 23.4213 10.1385 23.4744 10.1562C23.3124 10.1341 23.2417 10.2282 23.141 10.2378C23.0404 10.2474 22.9467 10.1395 22.8372 10.197C22.6044 10.3194 23.1884 10.2477 23.2622 10.2671C23.2908 10.2744 23.1839 10.3639 23.1673 10.3668C23.0934 10.3797 23.0033 10.3202 22.9462 10.3248C22.7411 10.3415 22.6185 10.4278 22.4247 10.4521C22.0116 10.5041 21.5391 10.5608 21.0961 10.6189C20.8301 10.6537 20.5741 10.6886 20.3437 10.7198C20.115 10.7508 19.9665 10.6762 19.8635 10.6914C19.6234 10.7274 19.6039 10.8111 19.3954 10.844C19.0852 10.8933 18.6372 10.8941 18.3763 10.9258C18.1955 10.9473 18.0494 11.0545 18.0039 11.0653C17.8272 11.1076 17.64 11.1518 17.4541 11.1976L17.6012 11.1517C17.1504 11.3432 16.7034 11.5592 16.3896 11.7387C16.1853 11.8552 16.0476 11.8418 16.0081 11.8695C15.841 11.9912 15.9289 12.0226 15.7918 12.1096C15.7196 12.1566 15.6636 12.1099 15.6526 12.1145C15.5564 12.1577 15.5986 12.244 15.5408 12.295C15.213 12.5841 14.9182 12.8533 14.8342 13.0951C14.8309 13.1042 14.8182 13.1044 14.8068 13.1047C14.7976 13.1031 14.7893 13.1018 14.7893 13.1055C14.7875 13.155 14.8561 13.1457 14.8466 13.2185C14.825 13.3909 14.7894 13.6161 14.762 13.8464C14.7593 13.8699 14.7053 13.876 14.7013 13.9283C14.6973 13.9813 14.7445 14.0267 14.7363 14.1095C14.7149 14.329 14.6446 14.5468 14.6339 14.7853C14.6322 14.8241 14.6948 14.8769 14.6926 14.9349C14.6855 15.121 14.6239 15.3939 14.6214 15.5563C14.613 16.0843 14.6597 16.5742 14.6789 17.0743C14.6832 17.1903 14.6285 17.3001 14.6298 17.3598C14.633 17.4975 14.6842 17.3908 14.6911 17.5311C14.7221 18.1509 14.7587 18.7725 14.8093 19.3974C14.851 19.9177 14.9091 20.4355 14.9804 20.9672C15.0412 21.4225 15.175 21.9904 15.1981 22.4664C15.2075 22.6639 15.1321 22.7052 15.1401 22.8447C15.1529 23.0935 15.2544 23.1356 15.2701 23.4018C15.2807 23.5945 15.199 23.8113 15.1825 24.0119C15.1807 24.0323 15.1798 24.0526 15.1798 24.0726C15.18 24.2831 15.2738 24.3759 15.2778 24.6166C15.281 24.8148 15.2281 25.0848 15.2272 25.2995C15.1881 27.2662 15.251 29.1688 14.5672 31.3182C14.3715 31.8415 14.1005 32.5319 13.409 33.021C13.2005 33.1606 12.9917 33.2764 12.7821 33.3737C12.7158 33.4037 12.759 33.2693 12.5737 33.4038C12.4723 33.4762 12.3637 33.6335 12.1131 33.7718C10.6209 34.5893 8.84417 34.9863 7.13838 35.1804C6.81285 35.2178 6.48369 35.2514 6.15072 35.2747C4.02898 35.434 1.89253 35.8387 0.0560228 34.9932C-0.0463273 34.9456 0.0101175 34.7122 0.0709548 34.6459C0.130522 34.6933 0.178923 34.7495 0.241084 34.803C0.314028 34.5113 0.303849 34.5873 0.582038 34.6131C0.754615 34.6292 0.61889 34.5046 0.708215 34.4691C0.826613 34.4232 1.38437 34.2782 1.27846 34.4715C1.3138 34.4379 1.34368 34.4058 1.37755 34.373C1.78451 34.3429 2.17307 34.2936 2.56992 34.237C2.6371 34.2272 2.64003 34.1666 2.71067 34.1567C2.90078 34.1297 3.05102 34.169 3.24557 34.1623C3.3536 34.1586 3.36527 34.0885 3.50473 34.0925C3.64583 34.0966 3.63956 34.1911 3.82995 34.0877C3.70687 33.9695 4.25586 34.0535 4.45222 34.0454C4.4816 34.0444 4.71173 33.9368 4.83674 33.9486C4.95927 33.9601 5.15 34.0273 5.3409 33.9878C5.43154 33.9692 5.48565 33.886 5.58211 33.8808C5.64995 33.8772 5.73343 33.9505 5.81991 33.9532C5.90513 33.9558 6.0925 33.8943 6.12738 33.8932C6.13343 33.8929 6.13887 33.8929 6.14375 33.8929C6.23329 33.8933 6.12051 33.9413 6.19678 33.9431C6.5826 33.9519 7.03722 33.9454 7.41269 33.859C7.45863 33.8485 7.38619 33.7966 7.39215 33.7938C7.69612 33.6756 7.5394 33.7775 7.63298 33.8191C7.72439 33.8631 8.32437 33.7176 8.30464 33.6093C8.35198 33.7352 8.46207 33.606 8.49559 33.5937C8.62591 33.5468 8.62712 33.665 8.74835 33.5972C8.79279 33.5722 8.68045 33.5211 8.73215 33.51C8.85898 33.4826 9.00562 33.5721 9.17699 33.5343C9.2179 33.5252 9.21564 33.4679 9.28766 33.4476C9.3594 33.4285 9.68003 33.3937 9.50519 33.3281C9.71447 33.357 9.73581 33.2953 9.94447 33.2214C9.99749 33.2024 10.0964 33.2613 10.1991 33.191C10.2335 33.1672 10.2005 33.0874 10.2561 33.0643C10.3844 33.0104 10.5405 33.0422 10.7034 32.9738C11.0108 32.8447 11.2983 32.6334 11.6093 32.4877C11.6948 32.4473 11.7143 32.5365 11.8357 32.4691C11.8532 32.4593 11.9572 32.3115 12.0387 32.2693C12.09 32.2444 12.3625 32.1316 12.4109 32.1018C12.4961 32.0516 12.4574 31.9754 12.5106 31.9575C12.5664 31.9389 12.5964 31.9515 12.6163 31.9613C12.6459 31.98 12.6544 31.9879 12.6506 31.8508C12.7475 31.8913 12.802 31.8212 12.9088 31.8736C12.848 31.7504 12.9866 31.7739 13.014 31.6554C13.04 31.5378 12.8614 31.3482 13.1082 31.4458C13.1062 31.3851 13.146 31.1592 13.1552 31.1194C13.1844 31.0112 13.2316 31.0931 13.2523 31.0065C13.2558 30.9909 13.2039 30.9904 13.2394 30.8992C13.2677 30.8414 13.3954 30.37 13.4048 30.3419C13.5541 30.0266 13.4147 30.5318 13.4443 30.6156C13.4274 30.6243 13.4104 30.6327 13.3934 30.6419C13.3309 30.7791 13.4623 30.7282 13.5056 30.6688C13.5484 30.6116 13.5315 30.4713 13.5797 30.4263C13.6042 30.4026 13.7321 30.4509 13.6961 30.5308C13.7581 30.451 13.7714 30.5838 13.818 30.5575C13.8713 30.5312 13.9737 30.1087 13.8988 30.0929C13.8815 30.1707 13.8639 30.2708 13.8443 30.3466C13.6961 30.4173 13.3306 30.0294 13.5502 29.7814C13.709 29.5988 13.7577 29.9535 13.7258 29.4472C13.7097 29.5226 13.6887 29.5813 13.6722 29.651C13.5752 29.6432 13.6981 29.5481 13.6756 29.4874C13.6647 29.4584 13.572 29.6146 13.5708 29.4668C13.7266 29.3592 13.6017 29.2458 13.6265 29.0297C13.6437 29.0932 13.6606 29.156 13.6775 29.218C13.8236 28.8694 13.7492 29.7142 13.8944 29.0158C13.889 29.0995 13.8767 29.1882 13.8724 29.2728C13.9283 29.2383 14.0679 29.3238 14.1041 29.291C14.1993 29.204 14.1679 29.0495 14.1886 28.9313C14.1976 28.8786 14.234 28.916 14.2348 28.9116C14.2474 28.8392 14.1869 28.8479 14.19 28.7842C14.1938 28.7078 14.2745 28.4772 14.271 28.4419C14.2633 28.3451 14.1321 28.4923 14.1243 28.4823C14.0738 28.4169 14.1319 28.2967 14.0576 28.2963C14.0839 28.6036 13.9186 29.4582 13.8843 28.6653C13.7427 28.8638 13.5863 28.7876 13.6042 28.4794C13.6177 28.2254 13.6678 28.3956 13.7524 28.2699C13.7635 28.2526 13.827 27.9151 13.7769 27.8925C13.8937 27.916 14.007 27.8107 14.1226 27.8965C14.1397 27.9094 14.1211 28.0506 14.2229 28.0092C14.274 27.9886 14.3867 27.9253 14.4483 27.9418C14.4072 27.9087 14.3607 27.8737 14.3176 27.8399C14.321 27.628 14.3698 27.6005 14.4592 27.4871C14.4249 27.4908 14.2752 27.5888 14.3297 27.4278C14.3328 27.4197 14.3844 27.4163 14.4152 27.3353C14.4769 27.1706 14.4949 27.1346 14.6367 27.275C14.5731 26.9188 14.7448 26.8496 14.7143 26.4924C14.5175 26.5541 14.5595 26.6809 14.5774 27.0118C14.5307 27.0231 14.4849 27.027 14.4376 27.0387C14.5668 26.6114 14.5441 26.8198 14.464 26.5721C14.4444 26.512 14.4848 26.1871 14.3495 26.2889C14.3177 26.3138 14.3111 26.5152 14.264 26.4894C14.2551 26.4855 14.244 26.2372 14.2572 26.219C14.4232 25.9593 14.5096 26.4438 14.4856 25.7004C14.4848 25.6799 14.4288 25.6705 14.4226 25.6303C14.4111 25.5545 14.4763 25.5561 14.4639 25.4876C14.4515 25.4172 14.3673 25.3255 14.452 25.2274C14.6062 25.0494 14.6754 25.4838 14.5889 25.6775C14.7804 25.7628 14.8337 24.3749 14.8178 24.2916C14.7568 23.9153 14.7803 24.5367 14.7254 24.5689C14.7024 24.5816 14.4158 24.5665 14.5968 24.7305C14.6505 24.7792 14.7294 24.5857 14.7561 24.7036C14.7827 24.8212 14.6998 24.7721 14.6936 24.7804C14.6725 24.8088 14.6996 24.9323 14.6871 24.9476C14.4967 25.1913 14.2232 25.155 14.6399 24.8441C14.5529 24.6998 14.3959 25.0186 14.3396 24.8414C14.2711 24.6265 14.4068 24.4673 14.4134 24.4433C14.4928 24.1239 14.2909 24.4913 14.3634 24.0961C14.4016 23.8851 14.4733 24.3793 14.4821 23.9926C14.4825 23.9719 14.4828 23.9488 14.4827 23.9231C14.4784 23.4977 14.4079 23.7275 14.2576 23.6957C14.2222 23.6877 14.1798 23.46 14.1938 23.7703C14.2331 23.7795 14.2848 23.7968 14.3208 23.8174C14.3022 23.8655 14.2172 23.9308 14.1537 23.9835C14.1156 24.0157 14.0854 24.0429 14.0824 24.0584C14.0439 24.259 14.1464 24.2516 14.0225 24.365C14.1568 24.2856 14.0733 24.4189 14.0996 24.47C14.196 24.6653 14.2423 24.4175 14.0966 24.8403C14.1602 24.7872 14.2224 24.7389 14.2857 24.6866C14.2861 24.7382 14.2866 24.7896 14.287 24.8406C14.1486 24.9098 14.1564 25.187 14.0281 24.9329C13.9789 25.2322 14.0038 25.3493 14.1072 25.4178C14.1269 25.4312 14.1332 25.477 14.133 25.5299C14.1632 25.5211 14.2556 25.5119 14.2665 25.5207C14.3627 25.5997 14.1867 25.7069 14.123 25.6653C14.1184 25.7017 14.1135 25.7303 14.1115 25.7403C14.0986 25.8042 14.0448 25.6757 14.0224 25.727C14.0151 25.7436 14.0202 25.9257 13.9959 25.9293C13.8408 25.9429 13.9659 25.6515 13.8486 26.2469C13.9882 26.2688 13.9703 25.9888 14.1158 26.0671C14.2722 26.1527 14.0504 26.296 14.2447 26.3426C14.2118 26.354 14.1846 26.3585 14.1473 26.3678C14.2205 26.6186 14.0567 26.6109 14.0167 26.6827C13.9389 26.8285 13.9091 27.4879 14.0864 26.9021C14.0954 26.9905 14.0968 27.0769 14.1037 27.1673C13.8094 27.1687 13.9305 27.1242 13.8572 27.5377C13.8407 27.6295 13.7099 27.6495 13.8561 27.7494C13.7075 27.7233 13.7764 28.0061 13.756 28.0278C13.625 28.1784 13.5082 27.5697 13.7775 27.5098C13.6815 27.3989 13.8178 27.4105 13.8072 27.2963C13.7916 27.1316 13.7668 27.1026 13.8789 26.917C13.7491 26.7162 13.7696 27.6654 13.6174 27.0802C13.5227 26.7086 13.5076 25.2069 13.4845 23.965C13.474 23.3113 13.4073 22.7477 13.372 22.4817C13.2091 21.3331 13.047 20.5832 12.9558 19.5654C12.9405 19.4006 12.9264 19.2322 12.913 19.0501C12.9008 18.9225 12.8235 17.9533 13.0012 18.1448C13.0263 18.1736 13.1153 18.5825 13.2213 18.2199C13.1498 18.2974 13.0874 18.09 13.0785 18.0733C12.8744 17.68 12.8402 17.9168 12.8099 17.2776ZM14.2428 15.389C14.2029 16.1948 14.3143 15.6023 14.5621 15.7693C14.5625 15.6645 14.5634 15.567 14.5648 15.4623C14.549 15.4891 14.5334 15.516 14.5177 15.5431C14.5177 15.5432 14.5177 15.5433 14.5177 15.5434C14.426 15.4921 14.3343 15.4402 14.2428 15.389ZM23.7086 10.2364C23.6776 10.2697 23.6471 10.303 23.6137 10.3356C23.5067 10.3277 23.4003 10.3201 23.2935 10.3126C23.3056 10.2901 23.3174 10.2674 23.3296 10.2449C23.456 10.2428 23.5817 10.2412 23.7086 10.2364ZM14.62 25.7925C14.523 25.9378 14.6853 25.9366 14.6023 26.1356C14.7229 26.1163 14.8409 26.0939 14.9604 26.0728C14.9497 25.9153 14.9059 25.8778 14.942 25.7121C14.9028 25.7301 14.8634 25.7484 14.8239 25.7658C14.831 25.7939 14.8391 25.8238 14.8453 25.8508C14.7361 25.889 14.7312 25.6224 14.6198 25.792C14.6199 25.7921 14.62 25.7923 14.62 25.7925ZM14.5851 27.3651C14.5648 27.4427 14.4827 27.7714 14.5286 27.8162C14.6854 27.9834 14.6452 27.0445 14.7454 27.7416C14.7691 27.7402 14.7919 27.745 14.8152 27.7467C14.8325 27.6241 14.8485 27.4954 14.8632 27.3736C14.77 27.3742 14.6788 27.3637 14.5851 27.3651ZM14.3426 18.3011C14.3369 18.428 14.4607 19.0137 14.5521 18.8127C14.5785 18.7532 14.4074 18.5018 14.4073 18.3992C14.4071 18.3337 14.4952 18.4009 14.4561 18.2748C14.4198 18.2828 14.3793 18.289 14.3428 18.3015C14.3428 18.3014 14.3427 18.3013 14.3426 18.3011ZM13.8434 18.097C13.8662 18.2278 13.8934 18.3559 13.9184 18.4871C14.0063 18.3838 13.9335 18.2023 14.0662 18.1822C14.0786 18.2178 14.0909 18.2515 14.1033 18.2864C14.0759 18.3155 14.0485 18.3443 14.0212 18.3731C14.1012 18.48 14.1325 18.4117 14.1263 18.6196C14.3191 18.4801 14.4246 18.4494 14.1983 18.1073C14.312 18.1681 14.6642 18.082 14.3982 17.9025C14.3487 17.8687 14.3259 18.023 14.3186 18.0254C14.2263 18.0547 14.1615 17.9729 14.0745 18.0035C14.0352 18.0172 14.0414 18.1115 13.9868 18.1292C13.9601 18.1374 13.8773 18.0519 13.8434 18.097ZM14.3035 17.8116C14.3624 17.8484 14.4895 17.7044 14.4564 17.5893C14.405 17.4065 14.2909 17.7033 14.3035 17.8116ZM23.7093 10.2363C23.7091 10.2363 23.7088 10.2364 23.7086 10.2364C23.7087 10.2363 23.7088 10.2362 23.7089 10.236C23.7091 10.2361 23.7092 10.2362 23.7093 10.2363ZM14.6771 26.9439C14.7198 27.0431 14.7039 27.1861 14.7811 27.1809C14.7631 27.2281 14.7452 27.2754 14.7271 27.3217C14.7501 27.3228 14.7733 27.3234 14.7961 27.3244C14.8198 27.1816 14.8428 27.0406 14.8655 26.8992C14.8028 26.9136 14.7399 26.9266 14.6771 26.9439ZM14.5077 28.4909C14.4824 28.671 14.6012 28.5293 14.6475 28.574C14.6939 28.6198 14.6365 28.7761 14.7104 28.7646C14.7242 28.6602 14.7385 28.544 14.7508 28.4401C14.6698 28.4609 14.5881 28.4728 14.5076 28.4912C14.5077 28.4911 14.5077 28.491 14.5077 28.4909ZM14.776 12.5053C14.7019 12.5675 14.651 12.4933 14.6313 12.7003C14.6313 12.7002 14.6314 12.7001 14.6315 12.7C14.7752 12.5843 14.9609 12.4487 15.0682 12.2563C14.9162 12.2887 14.8973 12.4077 14.776 12.5053ZM14.8721 25.3782C14.811 25.3242 14.7491 25.5611 14.8055 25.6166C14.897 25.707 14.9652 25.4571 14.8721 25.3782ZM18.5849 10.0069C18.7361 9.78572 18.3534 9.62411 18.0066 9.7841C17.9766 9.79782 18.2215 9.81643 18.1589 9.86631C18.1529 9.87111 18.0239 9.8898 17.9971 9.92238C17.9703 9.95495 18.0149 10.0106 17.9683 10.0462C17.8863 10.1083 17.6658 10.0645 17.61 10.138C17.603 10.1476 17.7455 10.2048 17.7543 10.2064C17.8934 10.2307 17.9974 10.0994 18.0177 10.0949C18.1207 10.072 18.1201 10.1599 18.1501 10.1751C18.206 10.2036 18.286 10.1508 18.2925 10.1525C18.4616 10.1996 18.1008 10.2411 18.0586 10.2813C17.9452 10.3882 18.0782 10.4413 17.7801 10.5482C17.7516 10.5584 17.4041 10.6239 17.8605 10.6301C17.0467 11.0019 18.3098 10.6539 18.4466 10.5933C18.5087 10.5618 18.3954 10.4979 18.4289 10.4545C18.5046 10.3555 18.6575 10.3152 18.6246 10.1997C18.5535 9.95704 18.3751 10.1533 18.2271 10.137C18.2324 10.0808 18.2287 10.0274 18.2474 9.97003C18.2171 10.0477 18.574 10.023 18.585 10.0074C18.585 10.0072 18.5849 10.0071 18.5849 10.0069ZM16.5475 10.8873C16.3381 10.9069 16.4231 11.0414 16.223 11.045C16.1531 11.2441 16.4194 11.09 16.4551 11.0821C16.6178 11.0399 16.682 11.1807 16.8103 11.0667C16.7196 11.0084 16.6375 10.9453 16.5475 10.8873ZM18.1392 10.4414C18.0235 10.5443 18.2564 10.5 18.2682 10.5137C18.3995 10.6541 17.6995 10.7528 18.1392 10.4414ZM14.0826 19.1003C14.0829 19.1691 14.1558 19.1194 14.1834 19.1769C14.211 19.2339 14.1637 19.4447 14.211 19.4355C14.2579 19.4252 14.3488 19.0408 14.4087 19.4138C14.4343 19.3986 14.4547 19.4011 14.4783 19.3928C14.4697 19.2892 14.462 19.1863 14.4541 19.0837C14.3818 19.1468 14.3056 19.2106 14.2358 19.2717C14.1695 19.219 14.2454 19.1799 14.2452 19.1769C14.2451 19.1769 14.245 19.1769 14.2449 19.1769C14.2297 19.0703 14.0821 18.9461 14.0826 19.1003ZM14.2421 13.778C14.0521 13.7427 14.2533 13.9154 14.2727 13.9825C14.2919 14.0468 14.2154 14.1314 14.3001 14.1032C14.363 14.0045 14.2629 13.7832 14.2419 13.778C14.242 13.778 14.2421 13.778 14.2421 13.778ZM15.6272 11.4064C15.5183 11.5348 15.5683 11.56 15.3769 11.6273C15.4104 11.6604 15.4443 11.6944 15.4771 11.7271C15.6005 11.6402 15.516 11.5342 15.6958 11.4806C15.7253 11.4723 15.7312 11.596 15.8232 11.4965C15.7605 11.468 15.6926 11.4357 15.6272 11.4064ZM15.1075 12.0127C15.2324 11.8954 15.1105 11.5074 14.9596 11.8586C14.9384 11.9115 15.0141 12.1039 15.1075 12.0127ZM13.9608 17.3273C13.9646 17.6533 14.0083 17.2811 14.0629 17.1924C14.1426 17.9511 14.0422 17.1059 14.2329 17.0249C14.1748 16.9334 14.0442 16.7642 14.0171 16.9584C14.006 17.04 14.0622 17.0084 14.0621 17.0133C14.0535 17.1625 13.9591 17.1465 13.9608 17.3273ZM16.8518 10.7335C16.8419 10.7411 16.8859 10.7923 16.8564 10.82C16.8269 10.8475 16.7292 10.8431 16.7383 10.8829C16.7479 10.9224 16.9173 10.8779 16.9544 10.8297C16.9906 10.7813 16.942 10.6653 16.8518 10.7335ZM15.6827 11.1702C15.5713 11.2948 15.9194 11.3592 15.9465 11.3429C16.1994 11.1799 15.7168 11.2355 15.6827 11.1702ZM13.529 16.5762C13.6614 16.9721 13.8634 16.6724 13.9846 16.4236C13.9582 16.3913 13.9318 16.3584 13.9058 16.3269C14.065 16.4723 14.2235 16.7276 14.0774 16.154C14.0456 16.4709 13.9994 16.2077 13.9906 16.2049C13.7028 16.1752 13.8455 16.6431 13.529 16.5759C13.529 16.576 13.529 16.5761 13.529 16.5762ZM17.3585 10.5906C17.3629 10.5888 17.3676 10.5868 17.3724 10.5848L17.3199 10.6012C17.4922 10.5574 17.887 10.4272 17.6655 10.348C17.548 10.4294 17.4321 10.5117 17.3185 10.595L17.37 10.5789C17.3662 10.5828 17.3623 10.5867 17.3585 10.5906ZM14.1011 23.0463C14.0363 23.1882 14.0419 23.3134 14.0489 23.4832C14.1504 23.3293 14.1641 23.4286 14.1902 23.4805C14.2296 23.5591 14.2238 23.3679 14.2305 23.3668C14.329 23.3682 14.3484 23.4913 14.3379 23.2101C14.3747 23.279 14.4111 23.3462 14.4465 23.4162C14.4466 23.2 14.5082 23.147 14.5804 23.0047C14.3944 23.1478 14.5075 22.9652 14.4014 22.8124C14.3486 22.7372 14.1348 22.9754 14.1011 23.0468C14.1011 23.0466 14.1011 23.0465 14.1011 23.0463ZM13.5026 16.9895C13.5387 17.0295 13.587 17.0665 13.628 17.1037C13.6334 17.1464 13.6384 17.1893 13.6439 17.2324C13.6135 17.239 13.5816 17.2448 13.5525 17.2522C13.5459 17.3099 13.5876 17.2858 13.5923 17.3027C13.5922 17.3027 13.592 17.3027 13.5919 17.3027C13.6588 17.542 13.6575 17.642 13.5731 17.8367C13.6669 17.8316 13.7606 17.8265 13.8544 17.8214C13.8431 17.7793 13.8321 17.7369 13.8212 17.6951C13.7697 17.6752 13.7181 17.6553 13.6666 17.6354C13.6919 17.5841 13.7171 17.5336 13.7426 17.4831C13.7227 17.4444 13.7015 17.3981 13.6823 17.365C13.9359 17.1575 13.7775 17.61 13.8871 17.61C13.9566 17.6081 13.9334 17.1606 13.8834 17.0985C13.876 17.0893 13.6843 17.1939 13.78 17.0257C13.7951 16.9992 14.217 16.975 13.8694 16.8108C13.8201 16.7873 13.5601 16.8822 13.5026 16.9895ZM13.4547 18.6406C13.7052 18.3675 13.4914 19.3245 13.6821 18.9041C13.815 19.0089 13.8116 18.9873 13.9127 18.864C13.9217 18.8532 13.9619 18.9297 13.9658 18.9226C14.018 18.8116 13.9761 18.6823 14.0863 18.6738C14.0783 18.6452 14.0711 18.6183 14.0632 18.5898C13.9679 18.7176 13.8842 18.5323 13.7913 18.4618C13.7492 18.4302 13.7424 18.51 13.7056 18.4835C13.6922 18.4735 13.7101 18.3619 13.6734 18.3599C13.5905 18.356 13.4836 18.432 13.4312 18.5549C13.4311 18.5549 13.431 18.5549 13.431 18.5549C13.4384 18.5837 13.447 18.6117 13.4547 18.6406ZM13.6977 13.1846C13.8527 13.1627 13.9177 13.0031 13.9448 13.3366C13.9761 13.3243 14.0071 13.312 14.0384 13.3007C14.0435 13.2435 14.0481 13.1943 14.0551 13.1381C13.8649 13.0286 13.8859 12.9137 13.9323 12.8469C13.9851 12.7732 14.0597 12.7537 13.8668 12.8076C13.8603 12.8096 13.8548 12.8152 13.8499 12.8226C13.8258 12.8577 13.8174 12.9472 13.775 12.8067C13.7748 12.8068 13.7747 12.807 13.7746 12.8071C13.75 13.0148 13.8052 13.0388 13.6977 13.1846ZM13.6978 14.4279C13.9923 14.8619 13.9026 13.8572 13.8125 14.0178C13.8027 14.0337 13.8474 14.4666 13.6978 14.4279ZM14.8287 11.1729C14.6661 11.2936 14.7666 11.4347 14.8206 11.4684C14.8745 11.5027 14.9395 11.371 14.9597 11.368C15.0236 11.3586 14.9428 11.4483 15.0268 11.438C15.0536 11.4322 15.3557 11.2878 15.3641 11.2757C15.4106 11.1949 15.2299 11.1486 15.2406 11.1219C15.2772 11.0327 15.4082 11.0341 15.3875 10.9591C15.3436 10.7979 15.2626 11.0499 15.2367 11.0718C15.156 11.1364 15.1115 11.0587 15.0369 11.09C14.9624 11.1218 14.9386 11.1779 14.8795 11.2153C14.8596 11.228 14.8372 11.167 14.8287 11.1729ZM14.5791 11.8705C14.631 11.6325 14.179 11.8987 14.1664 11.9773C14.1277 12.1682 14.5562 11.9704 14.5791 11.8705ZM13.8207 17.9795C13.7173 17.8046 13.6664 18.2307 13.7123 18.3475C13.7493 18.3232 13.8561 18.0387 13.8207 17.9795ZM13.527 16.4654C13.5598 16.6336 13.7642 16.4038 13.7588 16.2684C13.6196 16.1884 13.6481 16.2659 13.6441 16.3555C13.6401 16.4462 13.5017 16.3352 13.527 16.4654ZM16.7392 10.2466C16.7022 10.2573 16.2251 10.6109 16.547 10.5098C16.5709 10.5005 16.9327 10.3158 16.9534 10.2857C16.9938 10.2218 16.8278 10.2137 16.7392 10.2466ZM13.3146 15.6639C13.4338 15.7536 13.4326 15.8404 13.5724 15.7588C13.5724 15.7587 13.5724 15.7586 13.5724 15.7584C13.6161 15.9793 13.3302 15.9949 13.3367 16.0423C13.3601 16.2102 13.5622 16.0484 13.6304 16.153C13.5646 15.9109 13.7029 15.9757 13.7107 15.7918C13.7123 15.7501 13.6303 15.5818 13.5793 15.558C13.5282 15.5335 13.3744 15.6177 13.3146 15.6639ZM17.549 9.95049C17.346 9.94564 17.2118 10.1732 17.4838 10.1461C17.616 10.1338 17.6724 9.95382 17.549 9.95049ZM13.8868 27.599C13.9395 27.5731 13.992 27.5461 14.0444 27.5174C14.0516 27.5906 14.0589 27.663 14.0661 27.7344C14.0542 27.6775 14.0426 27.62 14.0309 27.5616C14.0036 27.695 13.9071 27.7481 13.8868 27.5993C13.8868 27.5992 13.8868 27.5991 13.8868 27.599ZM12.7736 31.9388C12.709 31.9342 12.7289 32.1104 12.744 32.1132C12.88 32.121 12.8713 31.9383 12.7736 31.9388ZM13.3788 18.2753C13.3724 18.5017 13.6073 18.3309 13.6155 18.1922C13.574 18.2802 13.3827 18.1461 13.3788 18.2753ZM13.4443 30.6156C13.4696 30.6026 13.4949 30.5891 13.5208 30.5732C13.4753 30.6323 13.4532 30.6375 13.4443 30.6156ZM16.5645 10.0872C16.5241 10.084 16.2792 10.1818 16.2576 10.2192C16.2134 10.2953 16.4552 10.328 16.5453 10.241C16.555 10.2314 16.6043 10.0898 16.564 10.0874C16.5642 10.0873 16.5643 10.0873 16.5645 10.0872ZM13.7703 27.8915C13.7727 27.8913 13.7749 27.8917 13.7769 27.8925C13.7747 27.8921 13.7725 27.892 13.7703 27.8915ZM8.30041 33.5987C8.30251 33.6021 8.304 33.6057 8.30464 33.6093C8.30338 33.6059 8.30157 33.6024 8.30041 33.5987ZM14.8144 10.8431C14.5989 10.7093 14.4987 10.9454 14.7068 10.9309C14.7177 10.93 14.7956 10.8559 14.8144 10.8431ZM22.2807 30.7759C22.8274 30.7562 23.4174 30.7026 23.9588 30.7093C24.025 30.7101 24.0246 30.7782 24.0441 30.7859C24.097 30.8072 24.1212 30.7254 24.1592 30.7287C24.3409 30.7446 24.5096 30.7433 24.6889 30.7541C24.8738 30.765 24.8053 30.9825 24.8738 31.0282C25.0076 31.1175 24.8772 30.8527 24.9207 30.7869C25.065 30.7906 25.2126 30.8068 25.3603 30.8232C25.3273 30.8521 25.2944 30.8805 25.2609 30.9075C25.3245 30.9072 25.4188 30.941 25.3199 31.0226C25.345 31.0401 25.369 31.0611 25.3949 31.0781C25.3928 30.9988 25.4614 30.9706 25.493 30.9325L25.5153 30.9308C25.5244 30.921 25.5308 30.9104 25.5323 30.8977C25.5356 30.8709 25.5242 30.8596 25.5107 30.8548L25.4859 30.8567C25.4697 30.8514 25.4508 30.8561 25.4508 30.8532C25.4502 30.8369 25.4626 30.8279 25.4827 30.8238L25.5087 30.8218C25.5847 30.8092 25.7562 30.8641 25.7712 30.8701C25.8236 30.8898 25.784 31.0158 25.8269 31.006C25.9008 30.9894 25.842 30.7386 25.9549 31.0708C25.9911 30.9603 25.9964 31.0168 26.0472 31.0227C26.0539 31.0235 26.0468 30.9605 26.0496 30.9587C26.1247 30.9095 26.0694 31.0288 26.0701 31.0351C26.0803 31.143 26.1604 31.0926 26.1779 31.1025C26.3966 31.2261 26.554 31.3109 26.7791 31.338C26.8277 31.3438 26.9751 31.2983 27.0223 31.3163C27.0688 31.3341 27.0446 31.4122 27.0691 31.4494C27.1063 31.2616 27.1434 31.2406 27.2314 31.3635C27.2629 31.2265 27.2594 31.3368 27.3214 31.309C27.3729 31.286 27.462 31.1214 27.5198 31.2608C27.4545 31.2485 27.4617 31.3156 27.3885 31.3567C27.3642 31.3703 27.1091 31.375 27.1293 31.5147C27.1397 31.5875 27.2237 31.5199 27.227 31.5333C27.2466 31.6114 27.2003 31.708 27.1582 31.6746C27.1685 31.6587 27.1809 31.6426 27.192 31.6267C27.0974 31.5296 27.1651 31.9049 27.091 31.5771C27.0818 31.5369 27.0849 31.4948 27.07 31.4521C27.0672 31.4699 27.0853 31.5136 27.0701 31.5216C27.0546 31.5297 27.0241 31.4466 27.0203 31.5169C27.0146 31.6191 27.079 31.5782 27.0839 31.5842C27.0839 31.5836 27.084 31.5829 27.084 31.5823C27.1275 31.6362 27.0377 31.6431 27.0335 31.6528C27.0063 31.7167 27.0257 31.7656 26.9846 31.8185C26.9611 31.8487 26.9004 31.8317 26.8783 31.8416C26.8563 31.8517 26.8912 31.8997 26.8765 31.9102C26.8617 31.9207 26.8427 31.8842 26.8254 31.8965C26.818 31.9018 26.819 31.9557 26.8154 31.9577C26.7768 31.9788 26.8009 31.8665 26.7658 31.8737C26.7431 31.8786 26.668 31.9841 26.7211 32.0145C26.6959 32.0257 26.6714 32.0339 26.6464 32.0428C26.6625 32.0586 26.6791 32.0693 26.6948 32.0879C26.6471 32.0629 26.6272 32.1554 26.5977 32.1628C26.5683 32.1701 26.5399 32.0598 26.5084 32.1144C26.4413 32.2304 26.6116 32.1744 26.6334 32.1947C26.6418 32.2026 26.6113 32.2897 26.6064 32.2923C26.5848 32.3035 26.5581 32.2419 26.5413 32.245C26.4815 32.2564 26.4463 32.3389 26.3898 32.3566C26.1972 32.4166 25.9617 32.4694 25.7855 32.4958C25.72 32.5055 25.6757 32.4158 25.6464 32.4201C25.6291 32.4226 25.616 32.4296 25.6052 32.4387L25.6353 32.4364C25.6013 32.4651 25.5886 32.5123 25.5411 32.52C25.4465 32.5356 25.3051 32.4785 25.2235 32.4708C25.1671 32.4655 25.1237 32.5473 25.1093 32.5505C24.9101 32.5964 24.6623 32.6149 24.4931 32.6282C24.4138 32.6346 24.3696 32.5502 24.3534 32.554C24.2842 32.5696 24.308 32.6427 24.2499 32.6391C24.2191 32.6371 24.2085 32.5661 24.2042 32.5636C24.1664 32.5425 24.165 32.6362 24.1366 32.6411C23.9743 32.6691 23.8135 32.617 23.6518 32.6163C23.6402 32.6162 23.6391 32.5748 23.6318 32.5773C23.6001 32.5891 23.6184 32.6534 23.5846 32.6599C23.5132 32.6735 23.4415 32.6661 23.3659 32.6612C23.3585 32.6607 23.3529 32.6077 23.336 32.6084C23.3191 32.6092 23.3085 32.6601 23.2815 32.6585C23.2115 32.6541 23.14 32.5967 23.067 32.5962C23.0549 32.5962 23.0424 32.6608 23.0241 32.6608C22.9655 32.6609 22.8806 32.6057 22.8306 32.6053C22.6701 32.6041 22.5196 32.6452 22.3696 32.6497C22.3338 32.6507 22.2997 32.5921 22.2818 32.5912C22.2404 32.5892 22.2731 32.6445 22.231 32.6458C22.0061 32.6524 21.7808 32.6467 21.5541 32.6446C21.4237 32.6423 21.3024 32.6412 21.1821 32.6438C21.0474 32.6465 20.8792 32.7059 20.7494 32.6909C20.6952 32.6845 20.6848 32.607 20.6457 32.6066C20.576 32.6063 20.5642 32.7058 20.4915 32.7163C20.4334 32.7246 20.3664 32.6258 20.3067 32.6324C20.2473 32.639 20.2186 32.7357 20.1492 32.7478C20.0918 32.7577 20.0117 32.7145 19.9501 32.7221C19.3811 32.7917 18.8197 32.8356 18.2444 32.7646C18.043 32.7395 17.8177 32.755 17.6076 32.6618C17.5877 32.653 17.6172 32.5596 17.5541 32.5796C17.5203 32.5905 17.4735 32.6711 17.3966 32.6757C16.9324 32.7027 16.4309 32.5347 15.9618 32.5721C15.251 32.6283 14.5224 33.2962 13.9 32.3303C13.8678 32.2829 13.8867 32.0494 13.9017 31.983C13.922 32.0302 13.933 32.0864 13.9532 32.1398C13.9761 31.8481 13.9692 31.924 14.0518 31.9497C14.1029 31.9656 14.0609 31.8411 14.0889 31.8056C14.1215 31.7596 14.2855 31.6145 14.2551 31.8078C14.2652 31.7742 14.2747 31.7421 14.2849 31.7093C14.4002 31.6792 14.5204 31.6301 14.6327 31.5739C14.6527 31.5641 14.6532 31.5035 14.6742 31.4937C14.7334 31.4669 14.7721 31.5064 14.831 31.4999C14.8622 31.4964 14.8684 31.4263 14.9077 31.4305C14.9474 31.4347 14.9469 31.5293 15.002 31.4261C14.9649 31.3078 15.1277 31.3927 15.1843 31.385C15.1919 31.384 15.2631 31.277 15.2976 31.289C15.3331 31.3008 15.3883 31.3684 15.4456 31.3294C15.4725 31.311 15.4887 31.2279 15.5161 31.223C15.5357 31.2196 15.5599 31.2932 15.5852 31.2961C15.6104 31.299 15.6655 31.238 15.6759 31.237C15.713 31.2327 15.6724 31.2848 15.6978 31.2873C15.8147 31.2982 15.959 31.325 16.0739 31.2893C16.0884 31.2849 16.0679 31.224 16.0698 31.2219C16.1681 31.1462 16.116 31.2262 16.1432 31.2807C16.1716 31.3334 16.3568 31.3032 16.3582 31.197C16.365 31.33 16.4065 31.2281 16.4176 31.2241C16.4603 31.2087 16.4536 31.3238 16.4941 31.288C16.5088 31.2749 16.4795 31.1973 16.4954 31.1995C16.5347 31.2048 16.5712 31.3295 16.6246 31.3417C16.6376 31.3446 16.6413 31.2889 16.6644 31.2907C16.6873 31.2924 16.7858 31.3598 16.7397 31.2427C16.7995 31.3364 16.8092 31.2847 16.8769 31.2868C16.894 31.2874 16.9167 31.377 16.9532 31.3489C16.9656 31.3393 16.9646 31.2529 16.9834 31.252C17.0265 31.2499 17.0681 31.3391 17.1209 31.3422C17.2198 31.3483 17.3317 31.2846 17.4344 31.3062C17.4628 31.3121 17.4563 31.3991 17.4978 31.4005C17.5038 31.4004 17.5533 31.3249 17.5824 31.3317C17.5995 31.3359 17.692 31.388 17.7089 31.3921C17.7384 31.3987 17.7431 31.3146 17.7594 31.3309C17.8068 31.3779 17.7699 31.502 17.8254 31.3323C17.8448 31.426 17.878 31.4163 17.8897 31.5318C17.9082 31.405 17.9344 31.5265 17.9721 31.4838C18.0101 31.441 18.039 31.1956 18.0498 31.4594C18.0668 31.4272 18.1406 31.3719 18.1532 31.3678C18.1902 31.3562 18.1709 31.4293 18.1989 31.4193C18.2039 31.4176 18.1983 31.3677 18.2301 31.3724C18.2508 31.3755 18.4056 31.3774 18.4135 31.3842C18.5166 31.4615 18.3589 31.4341 18.3354 31.4883C18.3312 31.4741 18.3271 31.4599 18.3227 31.4459C18.2761 31.4227 18.3034 31.5353 18.3247 31.5613C18.3461 31.5873 18.3848 31.5368 18.4019 31.5737C18.4106 31.5922 18.4063 31.7274 18.3805 31.7113C18.4083 31.7527 18.3711 31.797 18.3823 31.836C18.3944 31.8788 18.5189 31.8911 18.5191 31.8166C18.4957 31.8142 18.4668 31.817 18.4433 31.8141C18.4117 31.6849 18.5012 31.242 18.5893 31.418C18.6533 31.5453 18.5498 31.6477 18.6987 31.5393C18.6756 31.5343 18.656 31.5224 18.6351 31.5171C18.6321 31.42 18.6668 31.5265 18.6841 31.4955C18.6924 31.4803 18.64 31.412 18.6849 31.3888C18.7252 31.5273 18.7525 31.3874 18.8162 31.3853C18.7987 31.4102 18.7812 31.4349 18.7638 31.4598C18.8718 31.5597 18.6229 31.5948 18.832 31.6496C18.8069 31.6542 18.7818 31.6533 18.7567 31.6603C18.7693 31.7111 18.7509 31.8608 18.7621 31.8923C18.7914 31.975 18.8336 31.9247 18.8689 31.9317C18.8844 31.9347 18.8751 31.9751 18.8764 31.9753C18.8976 31.9797 18.8925 31.9205 18.911 31.9166C18.9344 31.9117 19.0028 31.9687 19.0139 31.9621C19.0424 31.9451 18.9938 31.8287 18.9965 31.8199C19.0143 31.7632 19.052 31.8099 19.0495 31.7359C18.9594 31.7875 18.704 31.7241 18.9343 31.5999C18.8695 31.4809 18.8864 31.3159 18.9786 31.3022C19.0551 31.2908 19.0062 31.3572 19.0468 31.4295C19.0525 31.4386 19.154 31.4725 19.1586 31.4211C19.1555 31.5394 19.1891 31.6439 19.168 31.766C19.1649 31.784 19.1236 31.7772 19.1388 31.8752C19.1463 31.9244 19.1679 32.0315 19.165 32.0943C19.1732 32.0506 19.1817 32.0015 19.19 31.9559C19.2521 31.9427 19.2614 31.9896 19.2963 32.0707C19.2945 32.0367 19.2617 31.8943 19.3101 31.9373C19.3126 31.9399 19.3151 31.9911 19.3398 32.0163C19.3898 32.0668 19.4004 32.0826 19.3634 32.2333C19.4658 32.1467 19.4892 32.3141 19.5926 32.2643C19.5701 32.0711 19.5353 32.1193 19.4388 32.1573C19.4342 32.1114 19.4319 32.0659 19.4272 32.0194C19.5567 32.1226 19.4925 32.1125 19.5638 32.0186C19.5811 31.9956 19.6754 32.0193 19.643 31.8894C19.6353 31.8589 19.577 31.8628 19.5833 31.8145C19.5845 31.8053 19.6553 31.7814 19.6617 31.7938C19.7421 31.9471 19.601 32.0556 19.8193 31.9977C19.8253 31.996 19.827 31.9397 19.8388 31.9318C19.8608 31.917 19.862 31.9822 19.8812 31.967C19.9004 31.9518 19.9267 31.8639 19.9566 31.9447C20.0111 32.0919 19.8868 32.1778 19.8281 32.1C19.8082 32.293 20.2102 32.2941 20.2372 32.2774C20.3477 32.2046 20.1632 32.2475 20.1536 32.1941C20.1495 32.1715 20.1491 31.8846 20.1043 32.0711C20.091 32.1264 20.1489 32.1986 20.1149 32.2293C20.081 32.26 20.0938 32.1754 20.0913 32.1696C20.0826 32.1494 20.0466 32.181 20.0419 32.1691C19.9683 31.9879 19.9726 31.7131 20.0716 32.1181C20.1127 32.0261 20.0156 31.8806 20.0671 31.818C20.1296 31.7418 20.1771 31.8723 20.1852 31.8781C20.2816 31.9471 20.1699 31.757 20.287 31.8171C20.3512 31.8505 20.1922 31.945 20.3383 31.9313C20.461 31.9197 20.3942 31.8538 20.4019 31.7025C20.4037 31.6672 20.4708 31.6233 20.3791 31.6395C20.3768 31.6789 20.3724 31.7309 20.3668 31.7672C20.3441 31.7387 20.3052 31.5419 20.2933 31.5351C20.235 31.5028 20.2377 31.6051 20.202 31.4849C20.228 31.6165 20.1867 31.5374 20.1718 31.5653C20.1162 31.6683 20.1902 31.7058 20.0631 31.5751C20.0799 31.6367 20.0953 31.6972 20.1117 31.7586C20.0966 31.7609 20.0815 31.7632 20.0664 31.7654C20.0428 31.6295 19.963 31.6476 20.0343 31.51C19.9469 31.4718 19.9124 31.5017 19.8943 31.6077C19.8908 31.628 19.878 31.6361 19.8627 31.6382C19.8659 31.668 19.8702 31.7599 19.8679 31.7712C19.8468 31.8705 19.8113 31.6995 19.8224 31.634C19.8115 31.6309 19.8028 31.6273 19.7998 31.6257C19.7804 31.6157 19.8178 31.5563 19.802 31.5362C19.7967 31.5296 19.7426 31.5429 19.7414 31.5189C19.7338 31.3648 19.8232 31.4753 19.6444 31.3871C19.6412 31.5274 19.7236 31.4959 19.7036 31.6451C19.682 31.8054 19.6339 31.591 19.6253 31.7875C19.6213 31.7553 19.6194 31.7283 19.6159 31.6916C19.5449 31.7777 19.5429 31.6142 19.5208 31.5782C19.4794 31.508 19.2794 31.5202 19.4591 31.6605C19.4331 31.6749 19.4065 31.6816 19.3808 31.6943C19.3727 31.4011 19.3889 31.5177 19.265 31.4739C19.2377 31.4642 19.2279 31.3352 19.2026 31.4887C19.205 31.3383 19.1259 31.4298 19.1184 31.4116C19.0698 31.2933 19.2455 31.1269 19.2708 31.3924C19.3002 31.2887 19.3011 31.4254 19.3348 31.407C19.3836 31.3805 19.3901 31.3538 19.4494 31.4543C19.5055 31.3116 19.2244 31.3935 19.3937 31.2035C19.5608 31.0136 20.5472 30.9005 20.7777 30.8704C21.0903 30.8295 21.2892 30.7995 21.5307 30.7893C21.6025 30.7852 21.6825 30.7832 21.7776 30.7834C21.8142 30.7834 22.0896 30.7636 22.0361 30.9291C22.0287 30.9529 21.9108 31.0181 22.016 31.1447C21.9936 31.069 22.0522 31.0182 22.0568 31.0101C22.1672 30.8253 22.1009 30.7824 22.2807 30.7759ZM22.8675 32.2241C22.6247 32.1949 22.8057 32.2986 22.7638 32.5482C22.7943 32.5479 22.826 32.5476 22.8573 32.5472C22.8485 32.5319 22.8398 32.5167 22.8311 32.5014C22.831 32.5014 22.831 32.5014 22.831 32.5014C22.8432 32.409 22.8555 32.3165 22.8675 32.2241ZM26.7639 32.172C26.7551 32.2048 26.7465 32.2376 26.7368 32.2697C26.7054 32.26 26.6743 32.2505 26.6429 32.2408C26.6463 32.2186 26.6496 32.1961 26.653 32.1739C26.69 32.1743 26.7268 32.1748 26.7639 32.172ZM19.7946 32.1361C19.7488 32.0457 19.7541 32.2077 19.6938 32.1343C19.7021 32.2538 19.7111 32.3707 19.7198 32.489C19.7651 32.4709 19.7751 32.4254 19.825 32.4542C19.8189 32.4158 19.8127 32.3772 19.8067 32.3386C19.7985 32.3469 19.7898 32.3564 19.7819 32.3637C19.7683 32.2563 19.8475 32.2397 19.7948 32.1359C19.7947 32.136 19.7947 32.136 19.7946 32.1361ZM19.3357 32.1878C19.3113 32.1725 19.2156 32.1147 19.2032 32.1643C19.1603 32.3326 19.4282 32.2239 19.2313 32.3747C19.2324 32.3983 19.2317 32.4214 19.2319 32.4447C19.268 32.4526 19.3041 32.4595 19.3407 32.4658C19.338 32.3729 19.3386 32.2812 19.3357 32.1878ZM21.9965 32.2592C21.9575 32.2472 21.784 32.3298 21.8435 32.4349C21.8617 32.4657 21.9354 32.312 21.9671 32.3179C21.9869 32.3217 21.9667 32.4056 22.0048 32.3741C22.0023 32.3373 22.0003 32.2966 21.9964 32.2595C21.9965 32.2594 21.9965 32.2593 21.9965 32.2592ZM22.0549 31.7725C22.0173 31.7882 21.9788 31.8079 21.94 31.8246C21.9707 31.9189 22.0249 31.8567 22.0311 31.9902C22.0208 32.0006 22.0106 32.0109 22.0002 32.0213C21.9914 31.9923 21.9828 31.9632 21.9741 31.9342C21.9425 32.0075 21.9623 32.0432 21.9011 32.0235C21.9416 32.2248 21.953 32.333 22.0538 32.1262C22.0364 32.2363 22.0638 32.593 22.1157 32.3364C22.1254 32.2888 22.0794 32.2582 22.0787 32.2507C22.0695 32.157 22.0932 32.0966 22.0837 32.0081C22.0794 31.9681 22.0517 31.9694 22.0463 31.9139C22.0437 31.8868 22.0682 31.8087 22.0549 31.7725ZM22.1424 32.2463C22.1317 32.3034 22.1764 32.4372 22.2111 32.409C22.2651 32.3652 22.1752 32.2391 22.1424 32.2463ZM26.7641 32.1719C26.7641 32.1719 26.764 32.172 26.7639 32.172C26.764 32.1719 26.764 32.1717 26.764 32.1716C26.7641 32.1717 26.7641 32.1718 26.7641 32.1719ZM19.4615 32.2526C19.4331 32.3012 19.3906 32.2944 19.3944 32.3712C19.3803 32.3562 19.3662 32.3415 19.3522 32.3265C19.3525 32.3496 19.3529 32.3728 19.3533 32.3956C19.3951 32.4097 19.437 32.4238 19.4793 32.4381C19.4735 32.3763 19.4681 32.3143 19.4615 32.2526ZM19.0079 32.2024C18.9553 32.195 19.0001 32.2992 18.989 32.3497C18.9778 32.4003 18.9309 32.3596 18.9369 32.4319C18.9677 32.4345 19 32.4371 19.0314 32.4394C19.0225 32.3608 19.0161 32.2806 19.0078 32.2024C19.0078 32.2024 19.0078 32.2024 19.0079 32.2024ZM23.8579 32.2617C23.8208 32.2411 23.8314 32.1607 23.7651 32.2579C23.7651 32.2579 23.7652 32.2578 23.7652 32.2578C23.8368 32.3194 23.9272 32.3725 23.9974 32.3049C23.9476 32.2237 23.9158 32.2938 23.8579 32.2617ZM19.9205 32.3704C19.9346 32.3071 19.8661 32.2549 19.8504 32.3137C19.8261 32.4089 19.8991 32.4666 19.9205 32.3704ZM25.2512 31.5938C25.2867 31.3951 25.1652 31.1872 25.0681 31.2907C25.0596 31.2998 25.1337 31.3551 25.1168 31.3948C25.1151 31.3987 25.0771 31.3975 25.0702 31.4253C25.0634 31.4531 25.0788 31.515 25.066 31.5426C25.0434 31.591 24.975 31.5113 24.9604 31.5734C24.9585 31.5817 25.0034 31.6622 25.0061 31.6652C25.0494 31.7125 25.0767 31.5995 25.0826 31.5982C25.113 31.5917 25.1162 31.678 25.1258 31.6975C25.1439 31.7342 25.1663 31.6938 25.1683 31.6965C25.2219 31.7676 25.1133 31.7558 25.1016 31.7881C25.0703 31.8752 25.1135 31.9497 25.024 32.0052C25.0156 32.0105 24.9086 32.0148 25.0513 32.0992C24.8047 32.3231 25.1946 32.2016 25.2331 32.1532C25.251 32.1309 25.2135 32.0518 25.2221 32.0138C25.2418 31.927 25.2869 31.9078 25.2717 31.7894C25.2396 31.5405 25.1937 31.7098 25.1479 31.6716C25.1473 31.6169 25.1442 31.5639 25.1475 31.5101C25.1414 31.5826 25.2486 31.6088 25.2512 31.5943C25.2512 31.5941 25.2512 31.594 25.2512 31.5938ZM24.6119 31.937C24.5472 31.8661 24.5629 32.0237 24.502 31.9375C24.465 32.0829 24.5585 32.0663 24.5704 32.0734C24.6237 32.1052 24.6342 32.2594 24.6826 32.2079C24.6575 32.1181 24.6355 32.0271 24.6119 31.937ZM25.132 31.9581C25.0997 32.0416 25.1704 32.0338 25.1746 32.0488C25.2207 32.2079 25.0057 32.1956 25.132 31.9581ZM21.7588 31.9456C21.7384 31.9406 21.7526 32.0171 21.7354 32.0401C21.7185 32.0633 21.6571 31.9988 21.6595 32.0465C21.662 32.0944 21.7747 32.2164 21.6644 32.2454C21.6687 32.2722 21.6678 32.2922 21.6701 32.3165C21.7009 32.3166 21.7307 32.3172 21.762 32.3173C21.743 32.2403 21.7249 32.1593 21.7073 32.0849C21.7232 32.023 21.7342 32.1017 21.7351 32.1017C21.7351 32.1016 21.7351 32.1016 21.7351 32.1015C21.7672 32.0946 21.8048 31.9568 21.7588 31.9456ZM23.3502 32.1376C23.3476 31.9454 23.3101 32.1619 23.2913 32.1865C23.2728 32.2111 23.2425 32.1412 23.2562 32.2234C23.2909 32.279 23.3506 32.1591 23.3501 32.1374C23.3501 32.1375 23.3501 32.1376 23.3502 32.1376ZM24.29 31.9612C24.2438 32.0112 24.2544 32.0606 24.19 32.0077C24.1954 32.0539 24.2009 32.1011 24.2063 32.1466C24.2548 32.1443 24.2427 32.01 24.3021 32.0602C24.3119 32.0685 24.2997 32.1773 24.3388 32.1399C24.3223 32.0834 24.3061 32.0206 24.29 31.9612ZM24.0545 32.1494C24.1113 32.1387 24.1319 31.7607 24.0384 31.9365C24.0244 31.9628 24.0115 32.1575 24.0545 32.1494ZM22.2827 31.9241C22.1873 31.9157 22.2961 31.9736 22.3243 32.0306C22.1008 32.0826 22.3487 32.0142 22.3774 32.2055C22.4036 32.1501 22.4511 32.0236 22.3933 31.9917C22.3691 31.9784 22.3794 32.0354 22.378 32.0352C22.3335 32.0222 22.3362 31.9285 22.2827 31.9241ZM24.714 31.9195C24.7106 31.9226 24.7216 31.9868 24.711 32.0007C24.7005 32.0145 24.6704 31.9713 24.671 32.0112C24.6716 32.0514 24.727 32.0781 24.7409 32.0476C24.7549 32.0169 24.7449 31.8919 24.714 31.9195ZM24.3306 31.7884C24.2851 31.8385 24.3818 32.0713 24.3923 32.0694C24.4837 32.0502 24.3333 31.8642 24.3306 31.7884ZM22.4959 31.5119C22.3821 31.6367 22.4743 31.8452 22.5512 31.9693C22.5601 31.9434 22.5692 31.9174 22.5778 31.8916C22.5389 32.049 22.4671 32.2056 22.633 32.0643C22.539 32.0305 22.6155 31.9862 22.6157 31.9774C22.6173 31.6905 22.4836 31.8277 22.496 31.5119C22.4959 31.5119 22.4959 31.5119 22.4959 31.5119ZM24.8773 31.9744C24.9279 31.9692 25.0556 31.9082 24.9831 31.7891C24.948 31.8509 24.9126 31.9127 24.8773 31.9744ZM20.5951 31.5586C20.5529 31.4875 20.5145 31.489 20.4636 31.4941C20.5104 31.5978 20.4802 31.6099 20.465 31.6355C20.4418 31.6741 20.4987 31.6705 20.4989 31.6775C20.4987 31.7763 20.4623 31.7919 20.5452 31.7889C20.525 31.8235 20.505 31.8583 20.4849 31.8926C20.548 31.8966 20.5635 31.961 20.6043 32.0394C20.5637 31.8473 20.6161 31.9673 20.6622 31.8712C20.6852 31.8231 20.6166 31.595 20.595 31.5586C20.595 31.5586 20.5951 31.5586 20.5951 31.5586ZM22.3752 31.4767C22.3642 31.5117 22.3546 31.5589 22.3441 31.5988C22.3315 31.6029 22.3189 31.6066 22.3062 31.6107C22.3038 31.5801 22.3017 31.5481 22.299 31.5187C22.282 31.5102 22.2897 31.5527 22.2848 31.5568C22.2848 31.5566 22.2848 31.5565 22.2848 31.5563C22.2163 31.6147 22.1873 31.6091 22.129 31.5157C22.1312 31.6096 22.1335 31.7035 22.1358 31.7973C22.1483 31.7881 22.1608 31.779 22.1731 31.77C22.1785 31.7194 22.1839 31.6688 22.1893 31.6181C22.2044 31.6456 22.2193 31.6729 22.2344 31.7003C22.2454 31.6819 22.2586 31.6624 22.2679 31.6445C22.3316 31.9054 22.1978 31.7305 22.199 31.8394C22.2001 31.9095 22.3313 31.903 22.3497 31.8541C22.3522 31.847 22.3184 31.6524 22.3695 31.7529C22.3774 31.7687 22.3921 32.1913 22.434 31.8476C22.4399 31.7988 22.407 31.537 22.3752 31.4767ZM21.8945 31.3522C21.974 31.621 21.6959 31.3408 21.8183 31.5609C21.7871 31.6858 21.7933 31.684 21.8296 31.7936C21.8328 31.8034 21.81 31.8381 21.8121 31.8424C21.8453 31.9025 21.8826 31.8695 21.8852 31.98C21.8936 31.974 21.9015 31.9685 21.9098 31.9625C21.8724 31.859 21.9262 31.7878 21.9472 31.6994C21.9565 31.6593 21.9329 31.6476 21.9407 31.6125C21.9436 31.5997 21.9766 31.6244 21.9771 31.5879C21.9779 31.5053 21.9552 31.3943 21.9192 31.3342C21.9192 31.3341 21.9192 31.3341 21.9192 31.334C21.9107 31.3396 21.9029 31.3463 21.8945 31.3522ZM23.4785 31.5242C23.4986 31.6729 23.5511 31.7133 23.4576 31.7909C23.4637 31.8201 23.47 31.8491 23.4762 31.8782C23.492 31.8749 23.5085 31.8715 23.5251 31.8683C23.5537 31.426 23.6687 31.9178 23.5948 31.6088C23.5868 31.5752 23.5504 31.615 23.5835 31.521C23.5835 31.5209 23.5834 31.5209 23.5834 31.5208C23.532 31.5517 23.5277 31.6049 23.4785 31.5242ZM23.1263 31.6442C23.015 31.9635 23.3041 31.8125 23.2514 31.7311C23.246 31.7238 23.1231 31.7965 23.1263 31.6442ZM24.0967 31.3196C24.0411 31.3178 24.0487 31.4873 24.058 31.548C24.0671 31.6088 24.1019 31.5445 24.1074 31.5538C24.1256 31.5845 24.0927 31.6077 24.1165 31.6499C24.1245 31.6636 24.2243 31.7176 24.2286 31.7099C24.2504 31.6678 24.205 31.5305 24.2109 31.514C24.2302 31.46 24.2659 31.5306 24.2672 31.4558C24.2702 31.2964 24.2248 31.4667 24.2151 31.4701C24.1862 31.4796 24.1824 31.3902 24.1596 31.3738C24.1367 31.3574 24.1245 31.3889 24.1048 31.3838C24.0982 31.3822 24.0995 31.32 24.0967 31.3196ZM23.9371 31.6887C23.9868 31.557 23.8386 31.4259 23.8238 31.4568C23.78 31.5488 23.9132 31.7516 23.9371 31.6887ZM22.089 31.756C22.1388 31.6616 22.0158 31.5892 21.9808 31.6274C21.9884 31.666 22.072 31.7885 22.089 31.756ZM22.5281 31.5115C22.4804 31.5419 22.5513 31.7497 22.5913 31.7452C22.6104 31.6066 22.5893 31.6346 22.5629 31.6298C22.5364 31.6249 22.5652 31.4877 22.5281 31.5115ZM24.7024 31.4286C24.692 31.4273 24.5326 31.5544 24.6334 31.5939C24.6411 31.5969 24.7573 31.5672 24.7644 31.5453C24.7787 31.501 24.7298 31.4325 24.7024 31.4286ZM22.7531 31.3005C22.732 31.4206 22.7068 31.4198 22.7348 31.559C22.7348 31.559 22.7349 31.559 22.7349 31.559C22.6718 31.604 22.6594 31.3177 22.6456 31.3243C22.5969 31.3473 22.6502 31.5497 22.6212 31.6176C22.6915 31.5524 22.6752 31.6905 22.7297 31.6974C22.7418 31.6989 22.7875 31.6152 22.7933 31.5638C22.7988 31.5124 22.7681 31.3599 22.7531 31.3005ZM24.9368 31.3788C24.8763 31.3382 24.8407 31.5353 24.9224 31.559C24.9622 31.5707 24.9737 31.4034 24.9368 31.3788ZM19.2479 31.5079C19.257 31.5585 19.2664 31.6089 19.2761 31.6591C19.2552 31.6715 19.2342 31.6842 19.2134 31.6968C19.2298 31.6807 19.2463 31.6648 19.2629 31.6488C19.2233 31.6315 19.2046 31.5394 19.2478 31.5079C19.2478 31.5079 19.2479 31.5079 19.2479 31.5079ZM17.8389 31.4801C17.8208 31.4314 17.7873 31.5828 17.7918 31.5946C17.8255 31.6822 17.8639 31.5476 17.8389 31.4801ZM22.0008 31.2988C21.9346 31.2792 21.9855 31.5239 22.026 31.5398C22.0004 31.4933 22.0382 31.31 22.0008 31.2988ZM18.3354 31.4883C18.3415 31.5094 18.3477 31.5305 18.3546 31.5516C18.3332 31.5224 18.3294 31.5026 18.3354 31.4883ZM24.658 31.2145C24.6467 31.1965 24.5722 31.1869 24.5641 31.2109C24.5474 31.2614 24.6156 31.3921 24.6459 31.3478C24.6493 31.343 24.6693 31.2325 24.6578 31.2145C24.6579 31.2145 24.6579 31.2145 24.658 31.2145ZM19.1587 31.4145C19.1588 31.4168 19.1588 31.4191 19.1586 31.4211C19.1587 31.4189 19.1586 31.4167 19.1587 31.4145ZM16.3576 31.1858C16.358 31.1896 16.3583 31.1934 16.3582 31.197C16.358 31.1934 16.3577 31.1897 16.3576 31.1858ZM24.1282 31.0446C24.0888 30.8126 24.0411 30.9405 24.0928 31.0531C24.0957 31.059 24.1223 31.0445 24.1282 31.0446ZM19.0057 47.877C20 48.1187 21.2741 47.9799 22.4212 47.7575C22.5629 47.73 22.569 47.7977 22.6107 47.797C22.7249 47.7948 22.7709 47.7004 22.8504 47.6857C23.2399 47.6126 23.5981 47.5144 23.9763 47.4098C24.3644 47.2994 24.2578 47.5609 24.4086 47.5602C24.7054 47.5548 24.3857 47.3824 24.4644 47.2859C24.4756 47.2823 24.4867 47.2786 24.4979 47.275L24.4795 47.2824C24.7913 47.1704 25.1112 47.0749 25.4301 46.9867C25.3607 47.04 25.2915 47.0932 25.2215 47.1456C25.3627 47.0973 25.5762 47.0628 25.3693 47.2176C25.4276 47.2167 25.4836 47.2204 25.5431 47.2188C25.5223 47.1192 25.7661 47.0213 25.7691 46.9574C25.7717 46.8933 25.6366 46.9567 25.6358 46.9515C25.6192 46.877 26.2285 46.77 26.2729 46.7658C26.3904 46.7497 26.333 46.8998 26.4239 46.8612C26.58 46.7957 26.3958 46.5893 26.7167 46.8396C26.7703 46.7083 26.7959 46.7596 26.9083 46.7331C26.9232 46.7296 26.8934 46.6726 26.8994 46.669C27.054 46.5734 26.9586 46.7249 26.9615 46.7307C27.0077 46.8295 27.173 46.7304 27.2148 46.7295C27.729 46.7203 28.0937 46.7083 28.6289 46.6672C28.6493 46.6659 28.6762 46.6626 28.7065 46.6587C28.8602 46.6437 29.1092 46.609 29.1989 46.6227C29.3054 46.6387 29.2501 46.7178 29.3059 46.7542C29.3915 46.5653 29.4773 46.5433 29.6771 46.6655C29.7503 46.5283 29.7416 46.6386 29.8832 46.6108C30.0011 46.5877 30.2068 46.4236 30.3363 46.5635C30.1877 46.5508 30.2031 46.6179 30.0357 46.6586C29.9802 46.6714 29.3976 46.6779 29.4428 46.818C29.4662 46.8904 29.6578 46.8219 29.6653 46.8353C29.709 46.9134 29.6026 47.0102 29.5075 46.9774C29.5311 46.9614 29.5593 46.9451 29.5847 46.9291C29.3702 46.8333 29.5217 47.2075 29.3553 46.8812C29.3346 46.8413 29.3419 46.7991 29.3079 46.7569C29.3014 46.7747 29.3427 46.8179 29.3079 46.8263C29.2726 46.8348 29.203 46.7528 29.1945 46.8233C29.1816 46.9257 29.3278 46.8826 29.3391 46.8885C29.3392 46.8879 29.3393 46.8873 29.3394 46.8867C29.438 46.9394 29.2339 46.9488 29.2245 46.9588C29.1629 47.0238 29.2066 47.0717 29.1141 47.1266C29.0614 47.1577 28.9254 47.1445 28.8761 47.1563C28.8271 47.1683 28.9058 47.2134 28.8731 47.2251C28.8404 47.2368 28.7978 47.202 28.7596 47.216C28.7501 47.2196 28.7475 47.2397 28.7453 47.2561L28.7602 47.255C28.7594 47.2665 28.7588 47.2762 28.756 47.2773C28.6837 47.3055 28.7199 47.1887 28.6499 47.2041C28.6022 47.214 28.4611 47.343 28.5741 47.3564C28.5245 47.375 28.4746 47.3917 28.4242 47.4098C28.4602 47.4194 28.4954 47.4242 28.5303 47.4374C28.4289 47.4287 28.4018 47.5283 28.342 47.5474C28.2828 47.5665 28.2029 47.4706 28.1458 47.5391C28.0253 47.6844 28.3747 47.5504 28.4206 47.5648C28.4387 47.5695 28.3914 47.6671 28.3817 47.6716C28.339 47.6913 28.2738 47.6419 28.239 47.6525C28.1152 47.6908 28.0584 47.7889 27.9422 47.8356C27.5466 47.9943 27.0485 48.1976 26.6654 48.3482C26.5233 48.4039 26.4054 48.3482 26.3412 48.3739C26.1911 48.4342 26.2001 48.5164 26.07 48.5691C25.8765 48.6477 25.5763 48.6894 25.4084 48.7413C25.2921 48.777 25.2206 48.8907 25.1925 48.9044C25.1829 48.9092 25.1732 48.9139 25.1634 48.9187L25.143 48.927C24.7125 49.1242 24.1738 49.3029 23.8003 49.4125C23.6204 49.4658 23.5105 49.4049 23.4743 49.4176C23.3168 49.4714 23.3786 49.532 23.2457 49.5586C23.1737 49.5728 23.143 49.5066 23.1329 49.5062C23.0437 49.504 23.0495 49.5987 22.9844 49.6173C22.6104 49.724 22.2294 49.7367 21.8455 49.7852C21.8175 49.7886 21.814 49.7473 21.7963 49.752C21.7205 49.7732 21.7656 49.8327 21.6849 49.8486C21.5167 49.8816 21.34 49.891 21.1571 49.899C21.139 49.8997 21.1263 49.8475 21.0853 49.8509C21.0442 49.8542 21.0166 49.907 20.9511 49.9088C20.7801 49.9132 20.6089 49.8607 20.4273 49.8603C20.3974 49.8603 20.3607 49.9248 20.3152 49.9243C20.1718 49.9232 19.9613 49.8595 19.8389 49.8504C19.435 49.8221 19.0506 49.8097 18.6602 49.7224C18.5682 49.7016 18.5027 49.6235 18.4558 49.6095C18.3504 49.5776 18.4157 49.6541 18.3074 49.6234C17.9602 49.5224 17.6155 49.3815 17.287 49.1963C16.8451 48.9482 16.3192 48.6069 15.9129 48.0979C15.7262 47.8687 15.523 47.5831 15.3944 47.2939C15.3518 47.2021 15.3122 47.1058 15.2841 47.0193C15.2425 46.8909 15.3082 46.8443 15.2766 46.7562C15.2212 46.6004 15.1171 46.6044 15.0515 46.4439C14.9988 46.3136 15.0439 46.1327 14.9949 45.9984C14.9462 45.864 14.8344 45.8292 14.7759 45.6742C14.7279 45.5467 14.7175 45.352 14.6718 45.2132C14.2507 43.9306 13.9553 42.6329 13.8567 41.2825C13.8222 40.8069 13.7539 40.2809 13.8116 39.7833C13.8171 39.7365 13.9151 39.7998 13.8849 39.6545C13.8688 39.5768 13.7808 39.4703 13.7662 39.2876C13.7314 38.8496 13.738 38.397 13.7622 37.9421C13.7985 37.2827 13.8475 36.6234 13.8234 35.9756C13.7629 34.3626 13.0934 32.6884 14.0622 31.2843C14.1098 31.2134 14.3432 31.2522 14.4095 31.2931C14.3622 31.3334 14.3059 31.3683 14.2524 31.407C14.5441 31.4605 14.4681 31.4489 14.4422 31.6356C14.4261 31.7505 14.5507 31.6578 14.5862 31.721C14.632 31.7992 14.7768 32.1713 14.5836 32.1009C14.6171 32.1255 14.6492 32.1451 14.682 32.1673C14.7119 32.4366 14.7609 32.6995 14.8172 32.9632C14.827 33.009 14.8876 33.0113 14.8974 33.0591C14.9242 33.1823 14.8848 33.2867 14.8914 33.4152C14.8949 33.4864 14.965 33.4977 14.9609 33.5886C14.9567 33.6803 14.8622 33.6813 14.9654 33.8061C15.0837 33.723 14.9991 34.0907 15.007 34.2216C15.008 34.2422 15.1152 34.3945 15.1034 34.4782C15.0918 34.5639 15.0242 34.6857 15.0635 34.8162C15.082 34.8779 15.1651 34.9115 15.1702 34.9765C15.1737 35.022 15.1002 35.0774 15.0974 35.1361C15.0947 35.194 15.1559 35.3171 15.157 35.3405C15.1614 35.4236 15.1091 35.3321 15.1068 35.389C15.0964 35.6613 15.0705 35.9798 15.107 36.248C15.1114 36.2809 15.1722 36.235 15.1743 36.2393C15.2506 36.4634 15.1703 36.3442 15.116 36.4054C15.0634 36.4645 15.095 36.8957 15.2012 36.8966C15.0683 36.9105 15.1705 37.005 15.1746 37.03C15.1903 37.1267 15.0751 37.1092 15.1113 37.2026C15.1245 37.2365 15.2019 37.1698 15.1998 37.2063C15.1948 37.2967 15.0704 37.3793 15.0587 37.502C15.0559 37.5315 15.1116 37.5413 15.1101 37.5927C15.1085 37.6441 15.042 37.8638 15.1587 37.7618C15.1048 37.839 15.0994 37.8808 15.1042 37.9324C15.1077 37.9689 15.1166 38.0105 15.1163 38.0744C15.116 38.1126 15.027 38.1635 15.0564 38.2445C15.0664 38.272 15.1528 38.2692 15.1545 38.3108C15.1585 38.4056 15.0714 38.4976 15.072 38.6181C15.073 38.8448 15.1474 39.0817 15.1396 39.317C15.1374 39.3814 15.0496 39.371 15.0541 39.4644C15.055 39.4782 15.1377 39.5849 15.1355 39.6492C15.1339 39.6881 15.0972 39.893 15.0966 39.9336C15.0955 40.0008 15.1804 40.0053 15.1673 40.0435C15.1296 40.1535 14.9986 40.0804 15.1791 40.1918C15.0896 40.2424 15.1062 40.3157 14.9936 40.351C15.124 40.382 15.0087 40.4508 15.0598 40.5306C15.1111 40.6106 15.3624 40.6508 15.1026 40.7012C15.1388 40.7373 15.2128 40.8977 15.2203 40.925C15.2417 41.0062 15.1637 40.9706 15.1814 41.0324C15.1844 41.0432 15.2324 41.0255 15.2366 41.0969C15.2387 41.1438 15.2819 41.4832 15.2785 41.5044C15.2345 41.7459 15.2113 41.386 15.1513 41.3421C15.1641 41.3313 15.1771 41.3206 15.1897 41.3094C15.1993 41.2044 15.0953 41.2773 15.0757 41.3272C15.056 41.3774 15.118 41.458 15.0868 41.5018C15.0712 41.5237 14.9356 41.5309 14.9435 41.4698C14.9111 41.5385 14.8555 41.4587 14.8202 41.489C14.7813 41.5226 14.8097 41.8074 14.8839 41.798C14.8784 41.7447 14.8661 41.679 14.8614 41.6256C14.9796 41.5381 15.447 41.6837 15.3025 41.9006C15.1985 42.0591 15.0608 41.8461 15.2207 42.1593C15.2174 42.1078 15.2223 42.0629 15.2202 42.0157C15.3152 41.9954 15.222 42.0874 15.2588 42.1209C15.2768 42.1368 15.3259 42.012 15.3647 42.1069C15.2418 42.2144 15.3904 42.2563 15.417 42.3982C15.3856 42.3631 15.3545 42.3276 15.3232 42.292C15.2659 42.5513 15.1357 41.994 15.1621 42.4751C15.1476 42.4194 15.1389 42.3626 15.1224 42.3064C15.077 42.3429 14.9219 42.3235 14.895 42.3538C14.8246 42.4338 14.8909 42.5223 14.898 42.6027C14.9012 42.6379 14.8576 42.6236 14.8579 42.6266C14.8621 42.6748 14.9185 42.6539 14.9299 42.6953C14.9441 42.7475 14.9163 42.9101 14.9276 42.9332C14.9562 42.9933 15.0506 42.8659 15.0604 42.8704C15.1235 42.8998 15.0936 42.9917 15.1654 42.9732C15.0755 42.7847 15.0377 42.2004 15.2517 42.6954C15.343 42.5306 15.5126 42.544 15.5633 42.7431C15.6057 42.9072 15.5202 42.8121 15.4659 42.9136C15.4591 42.9271 15.4699 43.1579 15.5227 43.1588C15.405 43.1734 15.3176 43.2686 15.1879 43.2434C15.1687 43.2393 15.1569 43.1456 15.0673 43.1974C15.0223 43.2233 14.9268 43.2915 14.8638 43.2967C14.9105 43.3075 14.9628 43.3179 15.0114 43.3283C15.0532 43.4667 15.0115 43.4952 14.9485 43.5893C14.9809 43.5785 15.105 43.4772 15.086 43.5946C15.0847 43.6007 15.0357 43.6164 15.0229 43.6767C14.9976 43.7983 14.9875 43.825 14.8217 43.7726C14.9568 43.9831 14.805 44.0707 14.9097 44.2964C15.0862 44.2034 15.0195 44.1337 14.9335 43.9256C14.9761 43.9059 15.0195 43.8913 15.0626 43.8713C15.0273 44.1819 15.0047 44.0368 15.134 44.1777C15.1657 44.2128 15.1935 44.4275 15.3027 44.3265C15.3283 44.303 15.2932 44.1739 15.3438 44.1774C15.3534 44.1785 15.4146 44.3298 15.406 44.3464C15.3013 44.5595 15.1162 44.273 15.2957 44.7416C15.3008 44.7546 15.3564 44.7449 15.3709 44.7687C15.398 44.8135 15.3352 44.831 15.3613 44.8703C15.3874 44.9087 15.4889 44.9475 15.4288 45.0339C15.32 45.1938 15.1587 44.9317 15.2015 44.7856C14.997 44.782 15.25 45.6938 15.2875 45.7423C15.4322 45.9662 15.2664 45.5718 15.3123 45.5355C15.3314 45.5204 15.6073 45.4422 15.3988 45.3933C15.3369 45.3786 15.3045 45.5257 15.253 45.4586C15.2017 45.392 15.2916 45.398 15.2956 45.3909C15.3096 45.3667 15.2561 45.2947 15.2646 45.2807C15.3936 45.0695 15.6614 45.0087 15.3328 45.3339C15.4475 45.4003 15.5268 45.1486 15.6197 45.2455C15.7317 45.3603 15.6377 45.5006 15.6371 45.5192C15.6336 45.7458 15.7425 45.4515 15.7631 45.7231C15.7752 45.8737 15.5752 45.5507 15.6891 45.8683C15.7872 46.1357 15.8027 45.9679 15.9527 45.9407C15.9878 45.9342 16.0764 46.0642 15.997 45.8731C15.9577 45.8798 15.905 45.8853 15.8663 45.8838C15.8774 45.8253 16.0392 45.6839 16.0379 45.6568C16.0298 45.522 15.9333 45.5555 16.0261 45.4473C15.9162 45.5384 15.966 45.4297 15.9295 45.4051C15.7952 45.3138 15.8047 45.4815 15.8517 45.1733C15.8026 45.226 15.7538 45.275 15.7048 45.3266C15.6932 45.2947 15.6816 45.2626 15.67 45.2302C15.7863 45.1435 15.7196 44.9722 15.8967 45.0938C15.8801 44.8942 15.8314 44.8262 15.7175 44.8113C15.6959 44.8088 15.6804 44.7826 15.6695 44.7496C15.6425 44.7637 15.5559 44.7957 15.5435 44.7934C15.4349 44.7716 15.5808 44.6531 15.6508 44.6617C15.6475 44.6373 15.6461 44.6175 15.6459 44.6105C15.6447 44.5658 15.7236 44.6332 15.7342 44.594C15.7375 44.5807 15.6946 44.4671 15.7174 44.4589C15.8633 44.406 15.804 44.6272 15.7931 44.2174C15.6542 44.2408 15.73 44.4157 15.5738 44.4055C15.4057 44.3941 15.5886 44.2398 15.3925 44.2649C15.4219 44.2488 15.4471 44.2387 15.4811 44.2228C15.3592 44.0846 15.5178 44.0425 15.5416 43.9869C15.5877 43.8784 15.4795 43.4469 15.4298 43.8677C15.4028 43.8138 15.383 43.7565 15.3583 43.7031C15.6418 43.626 15.5346 43.6866 15.5195 43.4045C15.5164 43.3428 15.6386 43.297 15.4763 43.2696C15.625 43.2469 15.4996 43.0879 15.5143 43.0681C15.6091 42.9396 15.8506 43.2969 15.6021 43.4016C15.7174 43.4455 15.5838 43.475 15.6178 43.5451C15.6671 43.6467 15.6957 43.6531 15.6267 43.8038C15.7929 43.8956 15.5786 43.3042 15.8451 43.6316C16.0896 43.968 16.7843 46.0324 17.0166 46.4526C17.041 46.5059 17.0645 46.5557 17.087 46.6025C17.3556 47.0722 17.5588 47.1947 18.171 47.554C18.1743 47.5559 18.1788 47.5583 18.1842 47.5613C18.2616 47.6137 18.6644 47.7727 18.5217 47.8819C18.5005 47.9004 18.2664 47.8719 18.3997 48.0654C18.3905 47.9801 18.5154 47.9756 18.5269 47.9708C18.7937 47.8691 18.6812 47.7926 19.0057 47.877ZM19.9781 49.4766C19.4002 49.4072 19.8195 49.5408 19.68 49.781C19.7581 49.7875 19.8351 49.7926 19.9126 49.7967C19.8929 49.7803 19.8736 49.7639 19.8542 49.7473C19.8541 49.7473 19.854 49.7473 19.8539 49.7473C19.8965 49.6574 19.938 49.5671 19.9781 49.4766ZM28.6772 47.5012C28.6634 47.536 28.6511 47.5708 28.6369 47.6052C28.5752 47.6041 28.5128 47.6047 28.4475 47.6068C28.451 47.5836 28.4542 47.5602 28.4578 47.537C28.5324 47.5241 28.6073 47.5128 28.6772 47.5012ZM15.147 44.7196C15.2087 44.5965 15.0544 44.6473 15.092 44.4953C14.9802 44.5409 14.8715 44.5879 14.7612 44.6345C14.8046 44.733 14.8542 44.7432 14.8556 44.863C14.8893 44.8402 14.9231 44.8171 14.9572 44.7946C14.9443 44.7781 14.93 44.7605 14.9183 44.7444C15.0148 44.6888 15.077 44.8623 15.1473 44.7199C15.1472 44.7198 15.1471 44.7197 15.147 44.7196ZM14.8527 43.7013C14.8555 43.6425 14.8672 43.4168 14.8127 43.397C14.6268 43.3316 14.8612 43.9186 14.6192 43.5007C14.5966 43.5076 14.5736 43.5103 14.5508 43.5151C14.56 43.5991 14.5707 43.6824 14.5826 43.7675C14.6724 43.7431 14.7626 43.7263 14.8527 43.7013ZM17.8868 49.0591C17.805 49.0177 17.3646 48.8791 17.4466 49.0411C17.473 49.0916 17.7261 49.0466 17.7926 49.0816C17.8368 49.1054 17.7517 49.1599 17.8557 49.1707C17.8658 49.1351 17.8791 49.0965 17.8865 49.0592C17.8866 49.0591 17.8867 49.0591 17.8868 49.0591ZM18.2218 48.6704C18.1351 48.6535 18.0459 48.6371 17.9584 48.6149C17.9788 48.729 18.1226 48.7218 18.0805 48.8486C18.0534 48.8487 18.0265 48.8487 17.9992 48.8483C17.9924 48.8139 17.9863 48.7795 17.9806 48.7452C17.8799 48.7801 17.9076 48.8335 17.7821 48.7511C17.7748 48.9703 17.7564 49.0869 18.0751 48.9929C17.9882 49.0764 17.9068 49.4302 18.1375 49.2411C18.1792 49.2057 18.0808 49.1371 18.0824 49.1293C18.0988 49.0353 18.1781 49.0007 18.191 48.911C18.197 48.8706 18.1345 48.8479 18.1455 48.7924C18.1514 48.7656 18.236 48.7148 18.2218 48.6704ZM18.2345 49.1798C18.1874 49.2239 18.244 49.3856 18.3399 49.3856C18.4863 49.3843 18.3114 49.2001 18.2345 49.1798ZM28.6775 47.5011C28.6774 47.5011 28.6773 47.5012 28.6772 47.5012C28.6772 47.5011 28.6773 47.501 28.6773 47.5009C28.6774 47.5009 28.6775 47.501 28.6775 47.5011ZM14.8516 43.9959C14.7896 43.9422 14.7751 43.8457 14.7018 43.8697C14.7095 43.8353 14.717 43.8005 14.7248 43.7659C14.7023 43.7712 14.6799 43.7768 14.6576 43.782C14.6644 43.8793 14.6716 43.9762 14.6793 44.0743C14.7368 44.0485 14.7946 44.0236 14.8516 43.9959ZM14.6883 42.961C14.6734 42.8417 14.5896 42.9601 14.5351 42.9436C14.4805 42.927 14.501 42.8131 14.4322 42.8388C14.4425 42.9098 14.4535 42.9835 14.4647 43.0545C14.5384 43.0209 14.6147 42.9928 14.6882 42.9608C14.6882 42.9608 14.6883 42.9609 14.6883 42.961ZM22.3124 49.3573C22.2252 49.3508 22.2453 49.2665 22.0983 49.3875C22.0984 49.3875 22.0985 49.3875 22.0986 49.3875C22.2655 49.4247 22.4792 49.4424 22.637 49.3433C22.5148 49.2836 22.4496 49.3668 22.3124 49.3573ZM14.9941 45.0581C15.0641 45.0747 15.0725 44.9051 15.0068 44.8861C14.9002 44.855 14.8869 45.0308 14.9941 45.0581ZM25.3101 47.8433C25.3543 47.6173 25.0553 47.4986 24.8616 47.6797C24.8451 47.6953 25.0156 47.6928 24.9862 47.7457C24.9832 47.751 24.9008 47.7794 24.8911 47.8126C24.8815 47.8459 24.9263 47.8956 24.9038 47.9333C24.8826 47.969 24.826 47.9779 24.7754 47.9902C24.7341 47.9989 24.6952 48.0105 24.6854 48.0441C24.6827 48.0539 24.7929 48.1017 24.7991 48.1026C24.8069 48.1039 24.8144 48.1042 24.8215 48.1037C24.9063 48.0956 24.9385 47.9813 24.9499 47.9759C25.0136 47.9458 25.0363 48.0297 25.0604 48.0418C25.1056 48.0646 25.1458 48.0073 25.1507 48.0084C25.2774 48.039 25.0444 48.1094 25.0261 48.1508C24.981 48.2524 25.0644 48.2954 24.9454 48.3969C24.9255 48.4096 24.9119 48.4195 24.896 48.43C24.8789 48.4415 24.645 48.5258 24.9713 48.5038C24.6864 48.7349 24.8297 48.7039 25.0223 48.618L25.0355 48.6126C25.1728 48.5462 25.3379 48.4503 25.3694 48.4171C25.4026 48.3817 25.3102 48.3301 25.3213 48.2858C25.3467 48.1844 25.4391 48.1321 25.3868 48.0245C25.2762 47.7983 25.2069 48.0023 25.1026 47.999C25.0915 47.9448 25.0752 47.8941 25.0727 47.8376C25.0728 47.9146 25.3071 47.8599 25.3102 47.8438C25.3102 47.8436 25.3101 47.8435 25.3101 47.8433ZM23.981 48.6451C23.8278 48.6145 23.8842 48.7627 23.7379 48.7129C23.6729 48.8812 23.8799 48.8084 23.9064 48.8081C24.0291 48.807 24.0741 48.9549 24.1736 48.8723C24.1057 48.7983 24.0456 48.7207 23.981 48.6451ZM25.1222 48.2975C25.0707 48.4051 25.2166 48.3441 25.2283 48.356C25.3535 48.4801 24.9054 48.63 25.1222 48.2975ZM17.5257 48.5243C17.4878 48.4966 17.4758 48.5781 17.4284 48.5771C17.3804 48.5765 17.2907 48.4462 17.2691 48.4886C17.2455 48.531 17.4159 48.7767 17.1676 48.6596C17.1616 48.6875 17.1485 48.7029 17.1397 48.726C17.2048 48.7665 17.27 48.8059 17.3344 48.843C17.337 48.7557 17.3415 48.6644 17.346 48.5804C17.4124 48.548 17.3925 48.6275 17.3945 48.6287C17.3946 48.6286 17.3946 48.6285 17.3946 48.6284C17.4642 48.6613 17.6109 48.5857 17.5257 48.5243ZM21.1287 49.3756C21.1255 49.1831 21.0342 49.4066 20.9889 49.4337C20.9444 49.461 20.8761 49.3942 20.9055 49.4751C20.985 49.5273 21.1297 49.3973 21.1287 49.3754C21.1287 49.3755 21.1287 49.3756 21.1287 49.3756ZM23.2685 48.8562C23.1695 48.9309 23.1996 48.9749 23.049 48.9545C23.0657 48.9982 23.0826 49.0428 23.0992 49.0858C23.209 49.0587 23.1666 48.9305 23.3062 48.9492C23.3291 48.9522 23.3132 49.0683 23.3972 49.0094C23.3549 48.9614 23.3108 48.9073 23.2685 48.8562ZM22.7546 49.1617C22.8842 49.1245 22.8977 48.7352 22.7009 48.955C22.6718 48.9876 22.6579 49.1891 22.7546 49.1617ZM18.6696 48.9761C18.4529 48.9068 18.6857 49.0332 18.7315 49.1023C18.1989 49.0098 18.7899 49.1055 18.8056 49.3001C18.8845 49.2614 19.0273 49.1618 18.9014 49.1023C18.8492 49.0771 18.8572 49.1372 18.8539 49.1363C18.7541 49.0998 18.7876 49.0118 18.6696 48.9761ZM24.2036 48.5619C24.1965 48.5673 24.2299 48.6246 24.2085 48.6455C24.187 48.6663 24.1144 48.6426 24.1211 48.6823C24.1279 48.7223 24.2551 48.7127 24.281 48.6729C24.307 48.6328 24.2675 48.5139 24.2036 48.5619ZM23.34 48.6608C23.2456 48.7354 23.4847 48.9173 23.509 48.9089C23.7123 48.8375 23.353 48.7364 23.34 48.6608ZM19.2472 48.6812C18.9765 48.7576 19.1171 48.9989 19.2722 49.149C19.2983 49.1267 19.3248 49.1044 19.3501 49.082C19.2284 49.2222 19.0216 49.3521 19.446 49.2694C19.2299 49.2062 19.4198 49.1873 19.4217 49.1785C19.4782 48.8982 19.1484 48.9862 19.2474 48.6812C19.2473 48.6812 19.2472 48.6812 19.2472 48.6812ZM24.5699 48.506C24.681 48.4655 24.9483 48.3094 24.7708 48.2437C24.7044 48.3318 24.6386 48.4188 24.5699 48.506ZM16.2296 46.3085C16.266 46.1983 16.2361 46.1165 16.1953 46.0108C16.13 46.1416 16.097 46.0819 16.0616 46.0567C16.0082 46.0186 16.0526 46.1396 16.046 46.1419C15.9521 46.1722 15.91 46.0982 15.9742 46.2758C15.926 46.2423 15.8785 46.2109 15.8311 46.1779C15.8728 46.3134 15.8247 46.3704 15.781 46.4819C15.9325 46.3339 15.8577 46.4841 15.9849 46.552C16.0481 46.5851 16.2103 46.3637 16.2294 46.3081C16.2295 46.3082 16.2295 46.3083 16.2296 46.3085ZM18.9979 48.5961C18.9657 48.6248 18.9322 48.6655 18.8986 48.6986C18.8706 48.6961 18.8426 48.693 18.8147 48.6901C18.8186 48.6595 18.8234 48.6277 18.8266 48.5981C18.7938 48.5809 18.7971 48.6256 18.7857 48.6269C18.7858 48.6268 18.7858 48.6266 18.7858 48.6264C18.6218 48.6427 18.5592 48.6168 18.4748 48.4897C18.4453 48.5788 18.4157 48.6679 18.3861 48.7571C18.4161 48.7576 18.4462 48.7581 18.476 48.7582C18.5055 48.7146 18.5346 48.6707 18.563 48.6265C18.5854 48.6623 18.6083 48.6977 18.632 48.7332C18.662 48.7227 18.6969 48.7124 18.723 48.7009C18.7838 48.9882 18.5406 48.7394 18.5084 48.8414C18.4852 48.9098 18.786 48.9871 18.8396 48.9471C18.8471 48.9414 18.8269 48.7369 18.9118 48.8599C18.924 48.8787 18.8469 49.2956 19.0324 48.9826C19.0578 48.9379 19.0483 48.6692 18.9979 48.5961ZM18.0881 48.1533C18.1047 48.365 17.9253 48.1989 17.8543 48.1626C17.8253 48.1485 17.8107 48.1552 17.8269 48.2125C17.8304 48.2259 17.8356 48.242 17.8428 48.2613C17.8136 48.2793 17.7919 48.293 17.7759 48.3054C17.7465 48.3279 17.7371 48.3464 17.7365 48.3772C17.736 48.4002 17.7405 48.4301 17.746 48.4737C17.7474 48.4858 17.6838 48.4903 17.6857 48.4962C17.7214 48.5852 17.8168 48.5964 17.7686 48.6958C17.7896 48.6996 17.8093 48.7033 17.8303 48.7067C17.7994 48.5764 17.9501 48.5713 18.03 48.51C18.0665 48.4826 18.025 48.4507 18.0562 48.4265C18.0675 48.4177 18.1219 48.4691 18.1389 48.4365C18.1765 48.3627 18.1797 48.2435 18.1423 48.1595C18.1424 48.1594 18.1424 48.1593 18.1424 48.1592C18.1244 48.1569 18.1063 48.1557 18.0881 48.1533ZM21.4216 48.7338C21.4677 48.8785 21.5894 48.9068 21.3772 49.0065C21.3916 49.0345 21.4064 49.0621 21.421 49.09C21.4583 49.0829 21.4944 49.0758 21.5321 49.0684C21.5862 48.6176 21.8601 49.0782 21.6837 48.789C21.6644 48.7576 21.5836 48.8076 21.6555 48.704C21.6554 48.7039 21.6553 48.7038 21.6552 48.7038C21.5406 48.7489 21.5318 48.8034 21.4216 48.7338ZM20.6284 48.9053C20.3575 49.2322 21.0289 49.0607 20.9087 48.9816C20.8987 48.9759 20.6125 49.0591 20.6284 48.9053ZM22.7757 48.3085C22.6555 48.3322 22.6858 48.4989 22.7121 48.5556C22.7385 48.6124 22.8085 48.532 22.8214 48.5387C22.8643 48.561 22.7942 48.5997 22.8506 48.6309C22.8691 48.6414 23.0975 48.6459 23.1053 48.6358C23.149 48.5824 23.0345 48.4677 23.046 48.4481C23.0823 48.3843 23.169 48.4364 23.1639 48.3606C23.1532 48.1989 23.0716 48.3937 23.0505 48.4019C22.9884 48.4259 22.9715 48.3378 22.9194 48.3327C22.8673 48.3275 22.8434 48.365 22.7995 48.3693C22.785 48.3706 22.7819 48.3076 22.7757 48.3085ZM22.4543 48.7497C22.555 48.597 22.2165 48.5257 22.1864 48.5612C22.0941 48.6703 22.4043 48.8238 22.4543 48.7497ZM18.3017 48.6831C18.4434 48.6348 18.2125 48.4726 18.1293 48.4754C18.1257 48.517 18.2501 48.6999 18.3017 48.6831ZM19.3166 48.6922C19.2066 48.7049 19.316 48.9345 19.4098 48.9425C19.4798 48.8121 19.4265 48.8335 19.3687 48.82C19.3109 48.8063 19.4021 48.6816 19.3166 48.6922ZM24.107 48.077C24.0856 48.0831 23.7575 48.3106 23.981 48.2873C23.999 48.2856 24.2463 48.1804 24.2586 48.1529C24.283 48.0989 24.1663 48.0633 24.107 48.077ZM19.838 48.5415C19.7754 48.6571 19.7192 48.6511 19.761 48.7946C19.7611 48.7947 19.7612 48.7947 19.7612 48.7947C19.6129 48.8264 19.6344 48.5393 19.6041 48.5428C19.4973 48.5532 19.5756 48.7666 19.5008 48.8258C19.6661 48.78 19.6066 48.912 19.729 48.9308C19.7567 48.9351 19.8721 48.86 19.8901 48.8095C19.9083 48.7592 19.8621 48.6031 19.838 48.5415ZM24.6018 47.8664C24.4651 47.8695 24.4229 48.091 24.6009 48.0573C24.6893 48.0401 24.6846 47.8643 24.6018 47.8664ZM15.4782 43.3736C15.4327 43.4033 15.3875 43.4336 15.3428 43.4647C15.3209 43.421 15.2988 43.3769 15.2767 43.3326C15.3002 43.3664 15.3234 43.4 15.3468 43.4337C15.3455 43.3427 15.4274 43.2839 15.4781 43.3734C15.4781 43.3734 15.4782 43.3735 15.4782 43.3736ZM15.0344 40.2335C15.0792 40.1894 14.9215 40.1251 14.9107 40.136C14.83 40.2194 14.9724 40.295 15.0344 40.2335ZM18.308 48.1943C18.1939 48.1239 18.1803 48.3856 18.2569 48.4339C18.2258 48.371 18.3741 48.2337 18.308 48.1943ZM15.1513 41.3421C15.1322 41.3582 15.1131 41.3745 15.0942 41.3923C15.1168 41.3415 15.1353 41.3307 15.1513 41.3421ZM23.9805 47.8908C23.9535 47.8803 23.7921 47.9172 23.7785 47.9459C23.7496 48.0068 23.9136 48.0965 23.9737 48.0323C23.9804 48.0253 24.0075 47.9016 23.9801 47.8909C23.9802 47.8909 23.9803 47.8909 23.9805 47.8908ZM15.5293 43.1578C15.527 43.1586 15.5248 43.1589 15.5227 43.1588C15.5249 43.1586 15.5271 43.1581 15.5293 43.1578ZM15.2125 36.8952C15.2086 36.8961 15.2049 36.8966 15.2012 36.8966C15.2048 36.8962 15.2085 36.8955 15.2125 36.8952ZM22.8175 48.0175C22.7082 47.8038 22.6192 47.9536 22.7413 48.0429C22.7482 48.0475 22.8047 48.0203 22.8175 48.0175ZM27.4025 16.5271C27.1358 14.3013 26.742 11.9368 26.4559 9.57883C26.3559 8.74525 26.2704 7.92118 26.1976 7.11578C26.1637 6.73807 26.2341 6.7568 26.2323 6.65031C26.2279 6.35858 26.1313 6.19224 26.1168 5.98076C26.047 4.95099 25.9733 3.99416 25.93 2.97155C25.929 2.94477 25.9281 2.91932 25.9274 2.8951C25.9067 1.93168 26.1358 2.39034 26.1716 2.02577C26.2667 1.26862 25.9929 1.91935 25.9339 1.60629C25.9405 1.47762 25.9467 1.34926 25.9807 1.16599C25.9997 1.07327 26.0228 0.961984 26.0953 0.807774C26.1607 0.65409 26.3357 0.461606 26.4185 0.403153C26.7503 0.168883 26.8255 0.204209 26.9452 0.162677C27.0576 0.136565 27.1468 0.122795 27.2353 0.110374C27.4109 0.0864423 27.574 0.0729356 27.7335 0.0621695C28.0513 0.0413592 28.3566 0.0328331 28.6613 0.0272C28.4636 0.0637131 28.261 0.101517 28.0573 0.141309C28.426 0.118224 28.9327 0.134324 28.3407 0.241387C28.4717 0.252663 28.5985 0.268483 28.7349 0.280634C28.7664 0.177486 29.3972 0.141383 29.4513 0.0807915C29.5058 0.019083 29.154 0.0467351 29.1546 0.0417742C29.1767 -0.0368451 30.6283 0.0182072 30.7314 0.0263972C31.0056 0.0417927 30.7673 0.171685 31.0028 0.15823C31.4015 0.135819 31.1308 -0.111468 31.6817 0.213667C31.8923 0.100485 31.9181 0.156681 32.1882 0.159504C32.2242 0.159823 32.1952 0.0971112 32.211 0.0951866C32.6262 0.0412216 32.309 0.164145 32.3107 0.170482C32.3508 0.277909 32.795 0.222598 32.8868 0.231618C33.5604 0.295313 34.1316 0.348017 34.7289 0.383738C35.1693 0.404429 35.6277 0.412383 36.1526 0.397532C36.4196 0.392321 37.2237 0.290417 37.4857 0.289569C37.7431 0.290081 37.6109 0.377216 37.747 0.405955C37.7743 0.37912 37.8014 0.355341 37.8296 0.3345C38.0111 0.20005 38.2248 0.187499 38.646 0.282789C38.8223 0.141563 38.8022 0.251732 39.1458 0.218368C39.4318 0.190741 39.9294 0.0226364 40.2445 0.160293C39.8841 0.150291 39.9219 0.216805 39.5161 0.261514C39.3819 0.271246 37.9676 0.312174 38.0798 0.453776C38.1378 0.52293 38.6008 0.439652 38.6196 0.453357C38.7264 0.528868 38.4697 0.631354 38.2393 0.607131C38.2959 0.589015 38.3641 0.570433 38.4253 0.552557C37.9042 0.474924 38.2778 0.835012 37.8692 0.526761C37.8551 0.516327 37.8462 0.505475 37.8388 0.494416C37.8198 0.465773 37.8117 0.435661 37.7518 0.408379C37.7365 0.427048 37.8372 0.464883 37.7532 0.477889C37.6677 0.490987 37.4983 0.4192 37.4788 0.49105C37.4497 0.595178 37.8029 0.531004 37.8301 0.536053C37.8304 0.535421 37.8306 0.534788 37.8309 0.534156C37.8345 0.534762 37.838 0.535368 37.8413 0.535974C37.9251 0.551553 37.9029 0.566127 37.8437 0.578772C37.7512 0.598398 37.568 0.615333 37.5542 0.62219C37.4058 0.696443 37.5138 0.737788 37.2881 0.806961C37.1591 0.846596 36.8223 0.853176 36.6985 0.870662C36.5754 0.888603 36.7713 0.924263 36.6884 0.940072C36.6062 0.955835 36.5 0.925678 36.4028 0.943391C36.3616 0.951096 36.3668 1.00476 36.3466 1.0078C36.1303 1.04056 36.2668 0.920942 36.0701 0.937998C35.9437 0.949406 35.5188 1.07212 35.8162 1.09038C35.6745 1.10756 35.5354 1.1211 35.3952 1.13471C35.4846 1.14749 35.577 1.15479 35.6654 1.16999C35.3969 1.15528 35.2809 1.25127 35.1144 1.26354C34.9898 1.27258 34.8751 1.21592 34.7473 1.21051C34.6964 1.20821 34.6518 1.21183 34.6053 1.22627C34.4189 1.28412 34.5447 1.29878 34.7411 1.30055C34.961 1.29967 35.2509 1.28105 35.3144 1.28934C35.362 1.29577 35.1831 1.38867 35.1564 1.39194C35.0316 1.40685 34.8856 1.34905 34.7901 1.35439C34.777 1.35514 34.764 1.35599 34.7512 1.35693C34.4252 1.37635 34.2235 1.45536 33.9167 1.47549C32.8231 1.54674 31.4683 1.61307 30.4424 1.65908C30.0588 1.67611 29.827 1.592 29.6554 1.60068C29.2548 1.62173 29.2113 1.70378 28.8663 1.72502C28.3705 1.75499 27.5777 1.74465 27.3515 1.7953C27.3387 1.78671 27.2907 1.84822 27.4976 1.70766C27.5034 1.71479 27.6176 1.59746 27.6446 1.541C27.6789 1.48224 27.6853 1.4697 27.693 1.47067C27.7059 1.47552 27.7131 1.517 27.7128 1.53367C27.7024 1.82726 27.7364 2.3267 27.7684 2.77688C27.8192 3.47149 27.878 4.17055 27.9263 4.71268C27.9643 5.13518 27.8968 5.34645 27.9074 5.43275C27.9537 5.8083 28.0183 5.70007 28.0404 6.00612C28.0525 6.17081 27.9844 6.20927 27.9838 6.23146C27.9796 6.42772 28.0765 6.45736 28.0949 6.60844C28.2009 7.47741 28.2319 8.32238 28.3271 9.18178C28.334 9.24429 28.2922 9.24372 28.2993 9.28374C28.3044 9.31197 28.3102 9.33308 28.3164 9.34951C28.348 9.43387 28.3899 9.39725 28.4126 9.54707C28.4699 9.92241 28.5098 10.3091 28.5559 10.7096C28.5604 10.7492 28.5101 10.7742 28.5225 10.8648C28.5349 10.9554 28.5943 11.0173 28.6112 11.1601C28.6556 11.5332 28.6479 11.9096 28.7006 12.306C28.7095 12.372 28.7843 12.4433 28.7976 12.5423C28.8391 12.8511 28.8456 13.3168 28.88 13.5825C28.9942 14.4583 29.1362 15.2627 29.2387 16.0907C29.2529 16.2069 29.2449 16.317 29.2387 16.4105C29.2344 16.4715 29.2308 16.5245 29.2351 16.5652C29.2596 16.7944 29.2947 16.6157 29.3224 16.8457C29.5474 18.7327 29.7246 20.6247 29.9249 22.5315C30.0034 23.2804 30.1523 24.1865 30.2067 24.9125C30.229 25.2129 30.1571 25.2764 30.1768 25.4896C30.2121 25.8688 30.3179 25.93 30.3652 26.3301C30.3704 26.3751 30.3736 26.4207 30.3753 26.4666C30.3864 26.7543 30.3423 27.0722 30.373 27.3584C30.4087 27.6909 30.5183 27.8372 30.5626 28.2184C30.5991 28.5338 30.5923 28.9767 30.6279 29.3186C30.7841 30.8267 30.9414 32.3132 31.0934 33.8144C31.2561 35.4266 31.3995 37.0476 31.518 38.6833C31.5986 39.7978 31.7334 41.0297 31.7562 42.1867C31.7583 42.2954 31.6488 42.1405 31.7036 42.4832C31.7333 42.6685 31.8397 42.9193 31.8886 43.347C32.0369 44.6392 32.1441 45.9809 32.278 47.3137C32.4143 48.6232 32.5316 49.9436 32.7516 51.1714C32.8086 51.4765 32.8776 51.7863 32.9645 52.0383C33.048 52.3084 33.1773 52.4124 33.1248 52.3409C34.4082 52.9399 35.5375 53.3506 36.6734 53.3279C38.5166 53.3345 40.2919 53.458 41.9128 53.9405C42.0784 53.9896 41.9872 54.2223 41.8865 54.2876C41.7946 54.2393 41.7098 54.1821 41.6124 54.1275C41.4869 54.4176 41.5094 54.3422 41.0571 54.3099C40.7794 54.2898 40.9993 54.4176 40.8503 54.4509C40.6583 54.4942 39.748 54.6232 39.9271 54.4329C39.8712 54.4655 39.8175 54.4966 39.7623 54.5284C39.1079 54.5462 38.4696 54.5818 37.827 54.623C37.7167 54.6303 37.7108 54.6908 37.5956 54.6978C37.289 54.7173 37.0431 54.6717 36.7283 54.6702C36.6942 54.67 36.6657 54.6725 36.6402 54.6767C36.5316 54.6928 36.4756 54.7364 36.2833 54.7185C36.0434 54.6919 36.0632 54.6023 35.7245 54.6531C35.916 54.8137 34.984 54.5468 34.6722 54.427C34.6258 54.4146 34.2106 54.3769 34.0207 54.2803C33.8288 54.1866 33.5688 53.9925 33.2674 53.8858C33.1259 53.8359 33.0079 53.8692 32.8639 53.8012C32.7626 53.7533 32.6775 53.6266 32.5546 53.5602C32.542 53.5534 32.5276 53.5464 32.5117 53.5393C32.2593 53.4421 31.9549 53.1236 31.9292 53.0642C31.7828 52.8132 31.9806 53.0649 31.8927 52.8943C31.553 52.1044 31.5273 51.3618 31.3804 50.7054C31.3643 50.6246 31.3204 50.746 31.3168 50.7354C31.1638 50.2008 31.2843 50.4766 31.318 50.3249C31.3489 50.1742 31.1837 49.1407 31.0782 49.1482C31.2061 49.1005 31.0751 48.8795 31.0639 48.8227C31.019 48.5918 31.1389 48.6214 31.0749 48.4023C31.0514 48.3209 30.9949 48.4924 30.9858 48.403C30.9628 48.1795 31.0614 47.9655 31.0368 47.6753C31.0311 47.6087 30.9797 47.5907 30.9613 47.483C30.9601 47.4761 30.959 47.4687 30.9581 47.4609C30.9438 47.3371 30.9456 46.7972 30.8593 47.0559C30.913 46.7219 30.8541 46.6649 30.8125 46.291C30.8023 46.1975 30.8766 46.0615 30.8262 45.8662C30.809 45.7993 30.7234 45.8113 30.7108 45.708C30.6825 45.475 30.7464 45.2427 30.7172 44.946C30.6628 44.3894 30.5371 43.8044 30.499 43.2225C30.4886 43.0637 30.5792 43.0944 30.5572 42.8657C30.5537 42.8321 30.4504 42.5633 30.4414 42.4048C30.4357 42.3087 30.4383 41.8106 30.4325 41.7099C30.4228 41.545 30.3362 41.524 30.3435 41.4321C30.3646 41.1665 30.5086 41.3633 30.3089 41.0667C30.392 40.9543 30.3645 40.7717 30.4736 40.7017C30.3371 40.6076 30.4445 40.4573 30.3819 40.2545C30.3194 40.0516 30.0587 39.906 30.3165 39.8302C30.275 39.7362 30.1806 39.3304 30.1698 39.2608C30.1387 39.0571 30.222 39.1595 30.1973 39.0062C30.193 38.979 30.1461 39.013 30.1341 38.8373C30.1262 38.7218 30.0489 37.8836 30.0509 37.8315C30.0742 37.2527 30.13 38.1393 30.1956 38.2571C30.1836 38.2803 30.1715 38.3032 30.1597 38.3279C30.1606 38.5838 30.259 38.4285 30.274 38.3112C30.289 38.1936 30.2187 37.9859 30.2464 37.8861C30.2603 37.8368 30.3977 37.8533 30.3952 37.999C30.4219 37.8409 30.4858 38.0471 30.519 37.9825C30.5551 37.9106 30.5026 37.22 30.4281 37.2235C30.4377 37.3517 30.4558 37.5144 30.465 37.6434C30.3524 37.8259 29.8629 37.3509 29.9937 36.8586C30.0885 36.5036 30.2432 37.0602 30.0594 36.2566C30.066 36.3813 30.064 36.4882 30.0694 36.6032C29.9739 36.6244 30.0626 36.4289 30.0229 36.3375C30.0036 36.2933 29.9617 36.5805 29.9159 36.339C30.0341 36.1143 29.8801 35.9688 29.8449 35.6132C29.8787 35.7083 29.9128 35.8067 29.9466 35.9014C29.9905 35.2948 30.1542 36.6768 30.101 35.5123C30.1184 35.6496 30.1307 35.7929 30.1505 35.93C30.1949 35.8577 30.354 35.9517 30.3797 35.8883C30.4472 35.721 30.3753 35.4903 30.3641 35.2938C30.359 35.2078 30.4042 35.2572 30.4038 35.2499C30.3972 35.1327 30.3407 35.164 30.3274 35.0628C30.3105 34.9332 30.333 34.5588 30.3205 34.4965C30.2891 34.3413 30.1974 34.6134 30.1873 34.5995C30.1214 34.5032 30.1491 34.2974 30.0765 34.3152C30.1731 34.7968 30.2412 36.2168 29.999 34.951C29.9131 35.3134 29.7395 35.2285 29.6789 34.7239C29.6285 34.305 29.7198 34.569 29.7717 34.3459C29.7759 34.3313 29.7699 34.1079 29.7534 33.9412C29.7423 33.8288 29.7268 33.738 29.7058 33.7288C29.8256 33.7397 29.913 33.55 30.0458 33.6592C30.0652 33.6744 30.08 33.9066 30.17 33.8166C30.2152 33.7711 30.3112 33.6465 30.3754 33.6591C30.3275 33.6159 30.2743 33.5735 30.2244 33.5288C30.1793 33.1841 30.2215 33.1302 30.2853 32.9366C30.2522 32.9476 30.1262 33.1344 30.1451 32.8671C30.1464 32.8533 30.1962 32.8356 30.2092 32.6999C30.2351 32.4249 30.2456 32.3646 30.4146 32.5612C30.2778 32.0063 30.4339 31.8704 30.3344 31.3007C30.1518 31.4299 30.2173 31.6317 30.3018 32.1533C30.258 32.1802 30.2137 32.1951 30.1696 32.223C30.2102 31.5125 30.2308 31.8593 30.1025 31.4705C30.0711 31.3762 30.0502 30.8537 29.9357 31.0388C29.9087 31.0824 29.9405 31.4054 29.8891 31.3717C29.8794 31.3669 29.8217 30.9746 29.8312 30.9394C29.9474 30.4919 30.1203 31.2596 29.9629 30.0686C29.9585 30.0359 29.9014 30.0297 29.8882 29.9654C29.8634 29.8452 29.9284 29.8392 29.9042 29.7318C29.8802 29.6252 29.7803 29.4827 29.8475 29.3131C29.9698 29.0039 30.1128 29.6973 30.0611 30.0165C30.2638 30.1271 30.0816 27.8951 30.0513 27.7574C29.9266 27.1594 30.0561 28.1609 30.0069 28.2178C29.9861 28.2409 29.6995 28.2553 29.9066 28.4934C29.9679 28.5638 30.0137 28.2437 30.0599 28.4284C30.1062 28.6139 30.0157 28.5465 30.011 28.5606C29.9948 28.6088 30.0429 28.8063 30.0331 28.8329C29.8853 29.2466 29.6086 29.2332 29.9685 28.6709C29.8577 28.4488 29.7566 28.989 29.6704 28.7082C29.5657 28.3673 29.6742 28.1026 29.6763 28.0584C29.7002 27.5289 29.5629 28.1498 29.5673 27.5044C29.5696 27.1457 29.7415 28.0268 29.6565 27.2141C29.5845 26.5358 29.5513 26.9077 29.3964 26.8727C29.36 26.8625 29.2829 26.4961 29.3447 27.0013C29.3852 27.012 29.4392 27.0333 29.4784 27.0631C29.4611 27.1912 29.2834 27.4161 29.2823 27.4817C29.2783 27.8077 29.3787 27.783 29.2752 27.9837C29.3946 27.8354 29.3349 28.065 29.3697 28.1448C29.4983 28.4445 29.502 28.0372 29.4293 28.7401C29.4833 28.6448 29.5368 28.558 29.5907 28.4654C29.5998 28.5482 29.6091 28.6313 29.6182 28.7141C29.4931 28.8495 29.5474 29.2892 29.3774 28.901C29.3789 29.3848 29.4246 29.5763 29.5389 29.6731C29.5607 29.6913 29.5748 29.7625 29.5839 29.8478C29.6122 29.8293 29.7021 29.8009 29.7145 29.8134C29.8233 29.924 29.6682 30.1245 29.5977 30.0667C29.5995 30.1259 29.5999 30.1734 29.5997 30.1902C29.5985 30.2969 29.5221 30.0946 29.5091 30.1819C29.5049 30.2113 29.5429 30.5068 29.5194 30.5136C29.3691 30.5636 29.4376 30.0644 29.4327 31.0525C29.5744 31.0636 29.5046 30.6119 29.6631 30.7159C29.8333 30.8274 29.6416 31.1027 29.8421 31.1406C29.8117 31.164 29.7857 31.1755 29.7506 31.1965C29.8705 31.5849 29.7083 31.6051 29.683 31.7289C29.6334 31.971 29.742 33.0484 29.7954 32.0678C29.822 32.2058 29.8421 32.3542 29.8671 32.4914C29.5781 32.5501 29.6861 32.4542 29.7043 33.1376C29.7086 33.2909 29.5844 33.3481 29.7508 33.4816C29.6076 33.478 29.7177 33.8623 29.7183 33.9446C29.7183 33.9489 29.718 33.9523 29.7172 33.9545C29.6929 34.0253 29.6575 34.0129 29.623 33.9536C29.5241 33.7764 29.4332 33.2248 29.6199 33.1092C29.5017 32.9548 29.6377 32.9401 29.6026 32.757C29.552 32.4917 29.522 32.4565 29.5939 32.13C29.4235 31.8282 29.6433 33.3615 29.3702 32.4455C29.1647 31.7785 28.8276 28.7205 28.5823 26.6325C28.4904 25.8485 28.4132 25.1955 28.3718 24.8516C28.0952 22.5675 27.9364 21.3677 27.72 19.3142C27.6993 19.1114 27.512 17.5863 27.7112 17.8851C27.74 17.9275 27.8771 18.5779 27.9409 17.9995C27.8783 18.1227 27.7912 17.7975 27.78 17.7706C27.5342 17.1772 27.5249 17.5007 27.4156 16.6316C27.4114 16.5983 27.407 16.5635 27.4025 16.5271ZM28.4665 13.3645C28.6101 14.6821 28.5863 13.7033 28.8695 13.9422C28.8473 13.7737 28.8247 13.6047 28.8021 13.4367C28.7928 13.4828 28.7835 13.5286 28.7742 13.5752C28.7742 13.5753 28.7743 13.5755 28.7743 13.5757C28.6717 13.5052 28.5691 13.4351 28.4665 13.3645ZM36.0536 1.23741C36.0025 1.27266 35.9532 1.30779 35.8974 1.34236C35.7194 1.34043 35.5425 1.33762 35.3656 1.33382C35.3863 1.3109 35.406 1.28774 35.4262 1.26482C35.635 1.25804 35.8432 1.25021 36.0536 1.23741ZM30.1124 30.1978C30.0428 30.4505 30.2023 30.4156 30.1568 30.7483C30.2724 30.6979 30.3851 30.6436 30.4995 30.592C30.4605 30.3433 30.4106 30.2926 30.4168 30.0189C30.3812 30.0534 30.3454 30.0889 30.3095 30.123C30.3215 30.1678 30.3349 30.2145 30.3458 30.2573C30.2446 30.3362 30.192 29.9044 30.1121 30.1969C30.1122 30.1972 30.1123 30.1975 30.1124 30.1978ZM30.3827 32.714C30.3796 32.851 30.3697 33.3761 30.4259 33.4446C30.6153 33.6689 30.3724 32.2069 30.6219 33.2785C30.6449 33.2713 30.6683 33.2741 30.6916 33.2719C30.6813 33.0731 30.6701 32.875 30.6581 32.673C30.5666 32.6921 30.4746 32.6934 30.3827 32.714ZM29.0756 18.1196C29.0863 18.3247 29.2727 19.2861 29.3433 18.9583C29.3639 18.8615 29.1642 18.4446 29.1522 18.2802C29.1443 18.1726 29.2407 18.2828 29.1863 18.0757C29.1509 18.0892 29.111 18.0995 29.0759 18.1202C29.0758 18.12 29.0757 18.1198 29.0756 18.1196ZM28.5499 17.7937C28.5888 18.002 28.6318 18.2127 28.6713 18.4226C28.7484 18.2574 28.6532 17.9614 28.7838 17.9275C28.8006 17.9847 28.8171 18.0406 28.8337 18.0971C28.8097 18.1446 28.7856 18.1915 28.7615 18.2386C28.8544 18.4133 28.8777 18.2971 28.895 18.6389C29.0727 18.4111 29.1766 18.361 28.9071 17.8046C29.0285 17.9011 29.372 17.759 29.0809 17.4654C29.0268 17.4106 29.0245 17.6659 29.0174 17.6698C28.9286 17.7193 28.853 17.5863 28.7698 17.6381C28.7322 17.662 28.7503 17.8137 28.6976 17.8431C28.6719 17.8567 28.5782 17.7207 28.5499 17.7937ZM28.9739 17.3201C29.038 17.3788 29.1459 17.1401 29.0958 16.9498C29.0178 16.6531 28.947 17.1435 28.9739 17.3201ZM36.0548 1.23723C36.0544 1.23729 36.054 1.23735 36.0536 1.23741C36.0538 1.23728 36.054 1.23715 36.0542 1.23702C36.0544 1.23709 36.0546 1.23716 36.0548 1.23723ZM30.3863 32.0272C30.4481 32.1758 30.4624 32.4102 30.5372 32.3849C30.529 32.4609 30.5215 32.5418 30.5133 32.6179C30.5362 32.6151 30.5592 32.6116 30.5819 32.6088C30.5751 32.3772 30.569 32.1509 30.563 31.9209C30.5041 31.9551 30.4447 31.9874 30.3863 32.0272ZM30.5638 34.5172C30.5832 34.8056 30.6645 34.5553 30.7207 34.6135C30.7767 34.67 30.76 34.9307 30.8293 34.894C30.816 34.7228 30.8025 34.5495 30.7888 34.3761C30.7146 34.4286 30.6377 34.4678 30.5638 34.5178C30.5638 34.5176 30.5638 34.5174 30.5638 34.5172ZM27.8469 8.01889C27.846 8.21497 27.7576 8.145 27.894 8.51635C27.894 8.51607 27.8939 8.51578 27.8939 8.5155C27.9169 8.14497 27.9232 7.67063 27.818 7.27578C27.7604 7.5304 27.8483 7.71041 27.8469 8.01889ZM30.2897 29.4968C30.2198 29.4196 30.1994 29.808 30.2649 29.8866C30.3711 30.0152 30.3958 29.6144 30.2897 29.4968ZM27.7057 0.859001C27.8371 0.751276 27.7741 0.65725 27.5998 0.609641C27.512 0.586379 27.401 0.574213 27.2635 0.585193C27.1151 0.611519 27.0175 0.576916 26.7308 0.780715C26.7085 0.802686 26.6795 0.832396 26.652 0.868902C26.6285 0.900744 26.6912 0.839883 26.7532 0.807744C26.9538 0.693615 27.0826 0.729688 27.0107 0.768833C27.0008 0.778268 26.9304 0.781531 26.8095 0.875791C26.7602 0.917401 26.7049 0.994756 26.6993 1.02983C26.6861 1.11138 26.7712 1.07548 26.7576 1.17933C26.7425 1.34821 26.6582 1.68055 26.7187 1.79497C26.7262 1.81035 26.8125 1.60179 26.8173 1.58951C26.8708 1.38248 26.8102 1.17497 26.8379 1.1365C26.8813 1.05667 26.9314 1.05243 26.9594 1.05708C26.9868 1.06591 27.0027 1.08811 27.0231 1.08857C27.0895 1.09401 27.2131 1.02693 27.2242 1.02765C27.4329 1.04489 27.0959 1.10455 27.0446 1.15999C27.0093 1.19357 27.0078 1.20927 27.0084 1.22232C27.0478 1.38224 27.134 1.21253 27.1556 1.66358C27.1584 1.71123 27.1517 2.25023 27.2546 1.57474C27.322 2.07676 27.372 2.11216 27.3752 1.92087C27.3791 1.82841 27.3766 1.68143 27.3806 1.54621C27.3822 1.48037 27.3885 1.4143 27.3897 1.39828C27.4076 1.36492 27.3153 1.50814 27.3152 1.48718C27.1571 1.58221 27.2785 1.50115 27.3095 1.49772C27.3551 1.48105 27.4028 1.46671 27.4223 1.45808C27.5113 1.42199 27.3568 1.36508 27.4067 1.31889C27.5235 1.21141 27.777 1.1689 27.7394 1.05316C27.6635 0.809808 27.3464 1.00542 27.1257 1.02495C27.132 0.966636 27.1258 0.912848 27.1623 0.849401C27.1093 0.924872 27.6844 0.869267 27.7057 0.859492C27.7057 0.859328 27.7057 0.859165 27.7057 0.859001ZM27.1707 3.84877C27.1215 4.17883 27.2775 4.14255 27.2125 4.44689C27.3766 4.69655 27.3228 4.18109 27.3261 4.12092C27.3394 3.84468 27.4938 3.8374 27.4247 3.56189C27.3409 3.66483 27.255 3.75159 27.1707 3.84877ZM27.153 1.31447C27.2058 1.32446 27.1936 1.36799 27.2134 1.36404C27.1418 1.42082 27.2074 1.38458 27.2056 1.39582C27.2282 1.416 27.2288 1.43787 27.2229 1.45682C27.2243 1.46894 27.1876 1.51381 27.2858 1.45161C27.2742 1.47632 27.3442 1.3925 27.3358 1.383C27.3353 1.36898 27.3176 1.39291 27.3003 1.40226C27.2587 1.44644 27.2329 1.31831 27.153 1.31447ZM28.9 19.4175C28.9067 19.5281 28.9754 19.4499 29.0085 19.5446C29.042 19.6398 29.0128 19.9789 29.0594 19.9657C29.106 19.9517 29.1631 19.3289 29.2564 19.938C29.2809 19.9143 29.3015 19.9191 29.3246 19.9065C29.307 19.7379 29.2897 19.5683 29.2719 19.3999C29.2052 19.5004 29.1347 19.6046 29.07 19.701C28.9986 19.6136 29.0712 19.5514 29.0707 19.5465C29.0706 19.5465 29.0705 19.5465 29.0704 19.5465C29.045 19.3709 28.8849 19.1697 28.9 19.4175ZM28.0313 10.739C27.8364 10.7321 28.0841 10.9612 28.1224 11.0637C28.1604 11.1663 28.1102 11.3214 28.1845 11.2554C28.2171 11.0765 28.0529 10.7396 28.031 10.739C28.0311 10.739 28.0312 10.739 28.0313 10.739ZM27.3256 5.608C27.3977 5.87444 27.4432 5.82681 27.4189 6.16401C27.4638 6.14662 27.5098 6.12915 27.5541 6.11187C27.5294 5.84851 27.3969 5.87973 27.422 5.56994C27.4262 5.51915 27.5434 5.61555 27.4879 5.39396C27.4367 5.46451 27.3794 5.53699 27.3256 5.608ZM27.6298 6.93442C27.5908 6.62447 27.1916 6.41485 27.419 6.97148C27.453 7.05385 27.6594 7.16756 27.6298 6.93442ZM28.5608 16.5438C28.6011 16.9469 28.6036 16.6925 28.6204 16.4855C28.6256 16.4178 28.6322 16.3553 28.642 16.3203C28.6514 16.3788 28.6598 16.4319 28.6674 16.4798C28.7616 17.0774 28.7167 16.7942 28.7138 16.4742C28.7117 16.2859 28.7236 16.0883 28.7847 16.0362C28.7121 15.8941 28.5521 15.6242 28.5583 15.9436C28.5606 16.075 28.6115 16.0208 28.6122 16.0286C28.6272 16.2576 28.5429 16.253 28.5568 16.4932C28.5577 16.5089 28.559 16.5258 28.5608 16.5438ZM27.1184 3.28751C27.1226 3.30703 27.1851 3.27127 27.2026 3.33326C27.2202 3.39616 27.1858 3.54304 27.2266 3.55456C27.2675 3.56499 27.2769 3.2762 27.2415 3.18843C27.2059 3.10326 27.0803 3.1069 27.1184 3.28751ZM27.1299 5.33607C27.201 5.59726 27.3989 5.14211 27.3926 5.0842C27.3346 4.57961 27.2063 5.34418 27.1299 5.33607ZM28.0047 15.3654C28.2062 15.9867 28.357 15.4958 28.4303 15.0786C28.3979 15.0288 28.3654 14.978 28.3334 14.9298C28.5193 15.1494 28.7277 15.5501 28.47 14.6324C28.5011 15.1492 28.4029 14.7249 28.3938 14.7232C28.1025 14.7046 28.333 15.4441 28.0046 15.3648C28.0046 15.365 28.0047 15.3652 28.0047 15.3654ZM27.1315 2.42508C27.1093 2.14448 27.0612 1.45053 26.9356 1.77519C26.9943 1.99283 27.0618 2.20666 27.1315 2.42508ZM29.1551 25.8186C29.1057 26.0539 29.1265 26.2614 29.1572 26.5423C29.2374 26.2812 29.2647 26.4461 29.2979 26.5279C29.3479 26.6521 29.316 26.3424 29.3227 26.3393C29.4217 26.337 29.4556 26.5328 29.4107 26.0799C29.4557 26.1906 29.5003 26.2954 29.545 26.4065C29.5171 26.0589 29.5736 25.9729 29.6309 25.7435C29.4598 25.9766 29.5531 25.684 29.4332 25.4373C29.3733 25.3147 29.1806 25.7005 29.1552 25.8195C29.1551 25.8192 29.1551 25.8189 29.1551 25.8186ZM28.0496 16.0285C28.0921 16.0891 28.146 16.1433 28.1933 16.2025C28.2057 16.2725 28.2172 16.3391 28.2294 16.4083C28.2001 16.4206 28.1691 16.4317 28.1411 16.4452C28.1434 16.538 28.1814 16.4972 28.1887 16.524C28.1885 16.5241 28.1884 16.5241 28.1882 16.5241C28.1894 16.5286 28.1906 16.533 28.1918 16.5375C28.2915 16.9087 28.3031 17.0696 28.2454 17.3811C28.3386 17.3702 28.4319 17.3593 28.5251 17.3484C28.5082 17.2805 28.4914 17.2123 28.4747 17.1453C28.4204 17.1153 28.3659 17.0842 28.3114 17.0535C28.3296 16.9706 28.3477 16.8892 28.366 16.8073C28.3403 16.7452 28.3121 16.671 28.288 16.6185C28.5106 16.2722 28.4199 17.0104 28.5286 17.0045C28.5715 17.0021 28.5547 16.7291 28.5211 16.4975C28.4993 16.347 28.4714 16.2181 28.4476 16.1785C28.4388 16.1645 28.2642 16.3451 28.3324 16.067C28.3432 16.024 28.7611 15.9569 28.3855 15.7141C28.3322 15.6798 28.0895 15.8537 28.0496 16.0285ZM28.2228 18.6692C28.4463 18.2321 28.3292 19.7657 28.4784 19.0932C28.6224 19.2643 28.617 19.2301 28.706 19.0319C28.714 19.0144 28.7622 19.1392 28.7653 19.1278C28.8066 18.9476 28.7509 18.7397 28.8607 18.7265C28.8496 18.6801 28.8394 18.6364 28.8282 18.5897C28.7468 18.7987 28.642 18.4923 28.541 18.3825C28.4953 18.3323 28.4973 18.4594 28.4574 18.4173C28.4429 18.4022 28.4481 18.2218 28.411 18.2189C28.3272 18.2129 28.2292 18.3379 28.1898 18.5311C28.1897 18.5312 28.1896 18.5312 28.1895 18.5312C28.2002 18.5776 28.2119 18.6226 28.2228 18.6692ZM27.3166 9.96209C27.4561 9.87333 27.4629 9.59126 27.6039 10.1144C27.6297 10.0841 27.6551 10.0533 27.6809 10.0233C27.6668 9.93433 27.6531 9.84711 27.6393 9.75669C27.4777 9.68138 27.4222 9.56716 27.4081 9.46147C27.3812 9.26117 27.5074 9.09812 27.3291 9.33449C27.2996 9.37387 27.3634 9.58184 27.2461 9.38294C27.2461 9.38323 27.246 9.38353 27.246 9.38383C27.2537 9.41906 27.2614 9.45036 27.2688 9.47864C27.3227 9.68604 27.3613 9.73622 27.3166 9.96209ZM27.6869 11.9141C28.0935 12.5463 27.7297 10.9553 27.685 11.2357C27.6806 11.261 27.8448 11.9454 27.6869 11.9141ZM26.7556 6.49622C26.7808 6.80222 26.952 6.80542 27.0096 6.7684C27.0674 6.73114 26.9845 6.52675 26.9914 6.49817C27.0142 6.40609 27.0539 6.5926 27.0858 6.4728C27.0959 6.43336 27.1041 5.89607 27.0947 5.87296C27.0413 5.74151 26.9209 5.95266 26.9012 5.91546C26.8367 5.79405 26.8931 5.6165 26.8155 5.58645C26.6499 5.52256 26.8461 5.82608 26.8541 5.8802C26.8772 6.04156 26.7869 6.03669 26.7809 6.16009C26.775 6.28344 26.8134 6.36036 26.8178 6.46828C26.8192 6.50426 26.7546 6.48067 26.7556 6.49622ZM27.2162 7.46811C27.0544 7.16328 26.9983 7.95357 27.039 8.04252C27.1577 8.30303 27.2929 7.61365 27.2162 7.46811ZM28.5122 17.6039C28.3859 17.3239 28.3896 18.01 28.4486 18.1988C28.483 18.1587 28.5558 17.7014 28.5122 17.6039ZM27.9825 15.1894C28.0455 15.4508 28.2082 15.0712 28.1756 14.8493C28.0216 14.7363 28.0651 14.8568 28.0784 15.002C28.0916 15.1478 27.9329 14.9833 27.9825 15.1894ZM26.6182 3.16566C26.6188 3.22445 26.8051 4.14894 26.8106 3.6092C26.8102 3.56861 26.7431 2.91673 26.7197 2.86765C26.6705 2.7717 26.6135 3.01395 26.6182 3.16566ZM27.6102 13.94C27.7478 14.0658 27.7648 14.2027 27.8861 14.0551C27.886 14.0549 27.886 14.0547 27.886 14.0545C27.977 14.4054 27.6949 14.4601 27.7112 14.5353C27.7684 14.8008 27.9366 14.5189 28.0255 14.6796C27.9108 14.2957 28.0621 14.3898 28.0303 14.0898C28.0232 14.0232 27.905 13.7663 27.8489 13.734C27.7928 13.702 27.6596 13.8595 27.6102 13.94ZM26.523 1.83278C26.4814 2.15959 26.6892 2.44021 26.7041 1.99935C26.7139 1.78712 26.5512 1.63264 26.523 1.83278ZM29.7471 33.2308C29.793 33.1773 29.8386 33.1229 29.8839 33.0669C29.9068 33.1818 29.9302 33.2977 29.9534 33.4113C29.9288 33.3212 29.9047 33.2329 29.8803 33.1401C29.8832 33.3626 29.8003 33.4662 29.7471 33.2314C29.7471 33.2312 29.7471 33.231 29.7471 33.2308ZM30.4493 40.9839C30.4104 41.0862 30.5799 41.2627 30.5892 41.2373C30.6584 41.0456 30.5032 40.842 30.4493 40.9839ZM28.1055 18.086C28.1254 18.4477 28.3416 18.1736 28.3329 17.9496C28.3018 18.0908 28.0939 17.879 28.1055 18.086ZM30.1956 38.2571C30.2135 38.2225 30.2314 38.1878 30.249 38.1494C30.2307 38.2666 30.2129 38.2884 30.1956 38.2571ZM26.4124 3.33048C26.3973 3.38621 26.4132 3.79932 26.4413 3.85413C26.4993 3.96524 26.6089 3.63349 26.5534 3.44851C26.5472 3.42725 26.4272 3.27395 26.4125 3.33134C26.4124 3.33106 26.4124 3.33079 26.4124 3.33048ZM29.6991 33.7285C29.7014 33.7277 29.7037 33.7278 29.7058 33.7288C29.7036 33.7286 29.7014 33.7289 29.6991 33.7285ZM31.0674 49.1528C31.0709 49.1501 31.0745 49.1484 31.0782 49.1482C31.0748 49.1495 31.0713 49.1517 31.0674 49.1528ZM26.4571 6.24532C26.2374 6.40532 26.3928 6.70749 26.4833 6.44737C26.4879 6.43301 26.4599 6.27845 26.4571 6.24532Z" fill="url(#paint0_linear_651_4591)"/>
<defs>
<linearGradient id="paint0_linear_651_4591" x1="21" y1="0.427734" x2="44.028" y2="72.7845" gradientUnits="userSpaceOnUse">
<stop stop-color="#455155"/>
<stop offset="1" stop-color="#455155" stop-opacity="0"/>
</linearGradient>
</defs>
</svg>
