<svg width="445" height="105" viewBox="0 0 445 105" fill="none" xmlns="http://www.w3.org/2000/svg">
<path d="M404.298 0.000140177L121.529 0.00019938C98.5568 0.000197372 96.3276 28.1154 96.3276 28.1154L96.2297 17.8288C96.1357 7.95502 88.1098 0.0001812 78.2355 0.000165078L22.6394 6.10352e-05C14.3551 4.50522e-05 7.66334 6.7158 7.66333 15.0001L7.66333 70.9999C7.66333 79.2842 14.379 85.9999 22.6633 85.9999H78.06C88.0011 85.9999 96.06 77.941 96.06 67.9999V56.782C96.06 56.782 98.7981 85.9999 121.529 85.9999L404.192 85.4369C411.35 85.4226 415.897 81.5929 417.508 75.9417C418.265 73.286 420.402 71 423.164 71H436.664C441.082 71 444.664 67.4183 444.664 63V24C444.664 19.5817 441.082 16 436.664 16H423.164C420.402 16 418.236 13.7266 417.569 11.0471C416.038 4.90326 411.567 0.00013364 404.298 0.000140177Z" fill="#354146"/>
<path d="M48.0341 21.5259C44.5055 18.7401 40.3164 16.5303 35.706 15.0227C27.9469 12.4854 21.1641 19.3569 21.1641 27.5203L21.1641 57.9579C21.1641 66.1213 27.9469 72.9928 35.706 70.4555C40.3164 68.9478 44.5055 66.7381 48.0341 63.9523C51.5627 61.1665 54.3618 57.8594 56.2715 54.2196C58.1812 50.5798 59.1641 46.6788 59.1641 42.7391C59.1641 38.7994 58.1812 34.8984 56.2715 31.2586C54.3618 27.6188 51.5628 24.3117 48.0341 21.5259Z" fill="#64B6FF"/>
<path d="M55.1641 21.9993C58.5998 19.1207 63.5157 16.6567 68.0048 15.0988C75.5291 12.4875 82.1641 19.1956 82.1641 27.1602L82.1641 58.3343C82.1641 66.2898 75.5464 72.9883 68.0048 70.4554C63.5157 68.9478 59.4369 66.738 56.0011 63.9523C52.5653 61.1665 49.8399 57.8593 47.9805 54.2196C46.1211 50.5798 45.1641 46.6787 45.1641 42.7391C45.6641 32.9993 51.7283 24.8779 55.1641 21.9993Z" fill="#FF6B21"/>
<mask id="mask0_805_31855" style="mask-type:alpha" maskUnits="userSpaceOnUse" x="45" y="25" width="15" height="36">
<path d="M57.9934 35.0182C57.2898 32.5703 56.2586 30.3462 54.9586 28.4726C54.0916 27.2232 53.1164 26.146 52.0591 25.2663C42.5591 38.2392 43.0591 49.7392 52.0591 60.2121C53.1164 59.3324 54.0916 58.2552 54.9586 57.0058C56.2586 55.1322 57.2898 52.9081 57.9934 50.4602C58.697 48.0123 59.0591 45.3887 59.0591 42.7392C59.0591 40.0897 58.697 37.4661 57.9934 35.0182Z" fill="#D9D9D9"/>
</mask>
<g mask="url(#mask0_805_31855)">
<path d="M21.1641 27.5203C21.1641 19.3569 27.9469 12.4854 35.706 15.0227C40.3164 16.5303 44.5055 18.7401 48.0341 21.5259C51.5628 24.3117 54.3618 27.6188 56.2715 31.2586C58.1812 34.8984 59.1641 38.7994 59.1641 42.7391L21.1641 42.7391L21.1641 27.5203Z" fill="#FEBC4E"/>
<path d="M21.1641 57.9579C21.1641 66.1213 27.9469 72.9928 35.706 70.4555C40.3164 68.9478 44.5055 66.7381 48.0341 63.9523C51.5627 61.1665 54.3618 57.8594 56.2715 54.2196C58.1812 50.5798 59.1641 46.6788 59.1641 42.7391L21.1641 42.7391L21.1641 57.9579Z" fill="#FEBC4E"/>
</g>
<path d="M141.155 51.0383L150.306 51.0383C150.129 55.0214 149.323 58.4121 147.886 61.2103C146.449 63.9833 144.382 66.1009 141.684 67.5631C139.012 69.0252 135.747 69.7563 131.89 69.7563C128.966 69.7563 126.344 69.2269 124.025 68.1681C121.731 67.1093 119.777 65.5841 118.164 63.5926C116.55 61.5758 115.315 59.1179 114.458 56.2189C113.626 53.3198 113.21 50.03 113.21 46.3494L113.21 36.5934C113.21 32.9128 113.639 29.623 114.496 26.7239C115.378 23.8248 116.639 21.3669 118.277 19.3502C119.916 17.3334 121.907 15.8083 124.252 14.7747C126.622 13.7159 129.294 13.1865 132.268 13.1865C136.075 13.1865 139.277 13.9176 141.873 15.3797C144.47 16.8419 146.474 18.9846 147.886 21.8081C149.297 24.6315 150.117 28.0726 150.344 32.1313L141.193 32.1313C141.066 29.3835 140.688 27.1903 140.058 25.5517C139.453 23.8879 138.52 22.6904 137.26 21.9594C136.025 21.2283 134.361 20.8627 132.268 20.8627C130.529 20.8627 129.029 21.1905 127.769 21.8459C126.533 22.5014 125.512 23.4845 124.706 24.7954C123.924 26.0811 123.332 27.7071 122.928 29.6734C122.55 31.6145 122.361 33.896 122.361 36.5178L122.361 46.3494C122.361 48.8703 122.525 51.1014 122.853 53.0425C123.18 54.9836 123.71 56.6348 124.441 57.9961C125.172 59.3322 126.143 60.3532 127.353 61.0591C128.563 61.7397 130.075 62.08 131.89 62.08C134.058 62.08 135.785 61.7397 137.071 61.0591C138.382 60.3784 139.352 59.2314 139.982 57.618C140.613 56.0046 141.003 53.8114 141.155 51.0383ZM162.233 13.9428L162.233 69L153.044 69L153.044 13.9428L162.233 13.9428ZM189.724 13.9428L171.346 45.4419L159.624 45.4419L158.263 36.9715L166.204 36.9715L178.531 13.9428L189.724 13.9428ZM180.157 69L166.468 43.9293L172.367 36.5178L191.161 69L180.157 69ZM199.799 52.2484L218.97 13.9428L227.857 13.9428L227.857 69L218.857 69L218.857 30.9213L199.799 69L190.837 69L190.837 13.9428L199.799 13.9428L199.799 52.2484ZM263.456 13.9428L263.456 21.6568L241.788 21.6568L241.788 13.9428L263.456 13.9428ZM270.603 13.9428L270.603 69L261.452 69L261.452 13.9428L270.603 13.9428ZM240.011 13.9428L249.124 13.9428L248.066 41.358C247.94 45.3662 247.65 48.8956 247.196 51.9459C246.767 54.971 246.175 57.5676 245.419 59.7356C244.662 61.9036 243.692 63.6682 242.507 65.0295C241.347 66.3908 239.961 67.3992 238.347 68.0547C236.759 68.6849 234.919 69 232.827 69L230.558 69L230.558 61.3238L231.881 61.1725C232.94 61.0717 233.86 60.7566 234.642 60.2272C235.448 59.6978 236.116 58.8911 236.646 57.8071C237.2 56.7231 237.654 55.3365 238.007 53.6475C238.36 51.9333 238.637 49.8535 238.839 47.4082C239.041 44.9629 239.179 42.1016 239.255 38.8244L240.011 13.9428ZM306.24 13.9428L306.24 21.6569L284.572 21.6569L284.572 13.9428L306.24 13.9428ZM313.387 13.9428L313.387 69L304.236 69L304.236 13.9428L313.387 13.9428ZM282.795 13.9428L291.908 13.9428L290.849 41.358C290.723 45.3662 290.433 48.8956 289.98 51.9459C289.551 54.971 288.959 57.5676 288.202 59.7356C287.446 61.9036 286.476 63.6682 285.291 65.0295C284.131 66.3908 282.745 67.3992 281.131 68.0547C279.543 68.6849 277.703 69 275.61 69L273.342 69L273.342 61.3238L274.665 61.1725C275.724 61.0717 276.644 60.7566 277.425 60.2272C278.232 59.6978 278.9 58.8911 279.43 57.8071C279.984 56.7231 280.438 55.3365 280.791 53.6475C281.144 51.9333 281.421 49.8535 281.623 47.4082C281.824 44.9629 281.963 42.1016 282.039 38.8244L282.795 13.9428ZM332.537 49.7527L343.654 13.9428L353.75 13.9428L338.284 58.9415C337.73 60.3532 337.125 61.7145 336.469 63.0254C335.839 64.3363 335.07 65.5085 334.163 66.5421C333.255 67.5505 332.146 68.3446 330.835 68.9244C329.549 69.5042 327.974 69.7941 326.108 69.7941C325.579 69.7941 324.961 69.7689 324.255 69.7185C323.575 69.6681 323.071 69.6303 322.743 69.605L322.705 61.9666C322.957 61.9918 323.398 62.0296 324.028 62.0801C324.684 62.1053 325.138 62.1179 325.39 62.1179C326.549 62.1179 327.432 61.8784 328.037 61.3994C328.667 60.8952 329.159 60.2272 329.511 59.3953C329.864 58.5633 330.18 57.6432 330.457 56.6348L332.537 49.7527ZM325.768 13.9428L336.053 44.0428L338.587 54.2904L331.478 54.5551L315.785 13.9428L325.768 13.9428ZM358.569 13.9428L366.926 13.9428L379.593 54.8954L392.223 13.9428L399.975 13.9428L383.034 69L376.115 69L358.569 13.9428ZM355.43 13.9428L363.144 13.9428L364.392 48.9964L364.392 69L355.43 69L355.43 13.9428ZM395.967 13.9428L403.719 13.9428L403.719 69L394.757 69L394.757 48.9964L395.967 13.9428Z" fill="white"/>
<path d="M420.796 54.6461L423.089 54.6461L423.089 60.7842L437.164 60.7842L437.164 63.5048L420.796 63.5048L420.796 54.6461ZM427.035 61.5599L427.035 58.1649C427.035 57.1081 427.245 56.2013 427.665 55.4443C428.084 54.6873 428.669 54.1102 429.418 53.713C430.168 53.3083 431.045 53.106 432.049 53.106C432.806 53.106 433.495 53.2221 434.117 53.4545C434.74 53.6793 435.279 54.0128 435.736 54.455C436.194 54.8897 436.546 55.4181 436.793 56.0401C437.04 56.6622 437.164 57.3704 437.164 58.1649L437.164 63.5048L420.796 63.5048L420.796 60.773L434.882 60.773L434.882 58.1649C434.882 57.6252 434.751 57.1868 434.488 56.8495C434.219 56.5048 433.87 56.25 433.443 56.0851C433.008 55.9127 432.536 55.8265 432.026 55.8265C431.532 55.8265 431.082 55.9127 430.677 56.0851C430.265 56.25 429.939 56.5048 429.699 56.8495C429.452 57.1868 429.328 57.6252 429.328 58.1649L429.328 61.5599L427.035 61.5599ZM434.882 43.3881L437.164 43.3881L437.164 50.493L434.882 50.493L434.882 43.3881ZM420.796 49.7735L437.164 49.7735L437.164 52.5053L420.796 52.5053L420.796 49.7735ZM427.608 44.3436L429.857 44.3436L429.857 50.493L427.608 50.493L427.608 44.3436ZM420.796 43.4555L423.089 43.4555L423.089 50.493L420.796 50.493L420.796 43.4555ZM420.796 36.6043L437.164 36.6043L437.164 39.3249L420.796 39.3249L420.796 36.6043ZM420.796 32.4335L423.089 32.4335L423.089 43.4507L420.796 43.4507L420.796 32.4335ZM423.044 27.426L437.164 31.3832L437.164 34.2387L420.796 29.0449L420.796 27.2686L423.044 27.426ZM437.164 24.267L423.044 28.2355L420.796 28.4266L420.796 26.6166L437.164 21.4003L437.164 24.267ZM431.082 24.1996L433.376 24.1996L433.376 31.8217L431.082 31.8217L431.082 24.1996Z" fill="white"/>
</svg>
