<svg width="16" height="68" viewBox="0 0 16 68" fill="none" xmlns="http://www.w3.org/2000/svg">
<path d="M0.248966 66.3784C0.178288 66.0777 0.185276 65.9792 0.170086 65.8305C0.159765 65.6931 0.152986 65.5649 0.146777 65.4334C0.134969 65.1785 0.126717 64.9312 0.11838 64.6768C0.0707315 63.1823 0.0340725 61.6478 0.0135222 60.1065C0.00369549 59.3363 -0.00203288 58.5613 0.00329483 57.7867C0.00620782 57.3973 0.0116171 57.008 0.0247671 56.6133C0.0317082 56.412 0.0399321 56.2163 0.0551556 56.0027C0.0627837 55.8997 0.071663 55.7889 0.0890319 55.6576C0.0994702 55.5858 0.105906 55.5262 0.138026 55.3972C0.159385 55.3482 0.146707 55.2487 0.339985 54.9722C0.355185 54.9507 0.600678 54.6202 1.04095 54.5743C1.25555 54.548 1.47421 54.603 1.61821 54.6783C1.74716 54.7471 1.77298 54.7741 1.82956 54.8204C2.0174 54.9922 2.05662 55.0989 2.09952 55.1792C2.20098 55.4121 2.19862 55.4655 2.22586 55.5649C2.24404 55.6428 2.25942 55.7179 2.27341 55.7891C2.29981 55.9243 2.32299 56.0553 2.3464 56.1901C2.39004 56.4428 2.43338 56.7049 2.47451 56.9483C2.55882 57.4484 2.64463 57.9369 2.73797 58.4151C2.84042 58.9322 2.76935 58.9107 2.79242 59.0574C2.85805 59.4575 2.99493 59.6727 3.0639 59.9543C3.37382 61.2584 3.95644 62.7559 4.5474 63.0579C4.64837 63.107 4.69423 63.1148 4.75927 63.129C5.01325 63.1396 4.89171 63.3249 5.17007 63.2474C5.93165 62.9066 5.18109 63.0482 5.41655 62.8191C6.20905 62.255 6.96131 61.369 7.65203 60.4832C7.51139 60.7189 7.36427 60.9552 7.21007 61.1886C7.51709 60.8106 7.97383 60.2565 7.53311 60.9681C7.66004 60.8341 7.78197 60.7088 7.90799 60.5684C7.86043 60.4691 8.36076 59.7409 8.35312 59.6407C8.34976 59.5408 8.08119 59.9577 8.07796 59.9517C8.04677 59.8905 9.24259 58.2444 9.31966 58.1134C9.54264 57.7926 9.46952 58.1497 9.63646 57.8608C9.92057 57.3632 9.50801 57.563 10.192 57.0657C10.2538 56.7437 10.3165 56.7492 10.518 56.4134C10.5444 56.3691 10.4696 56.3724 10.4795 56.3519C10.7316 55.8141 10.6086 56.2681 10.6157 56.2685C10.737 56.2753 11.0075 55.6973 11.0815 55.5839C12.0103 54.1714 12.6598 53.1169 13.4859 51.5297C13.5829 51.3432 13.7847 50.9067 13.9634 50.5198C14.1082 50.2073 14.2367 49.9295 14.314 49.7849C14.4879 49.4592 14.4715 49.6766 14.5896 49.5126C14.5447 49.1542 14.667 48.8856 15.0174 48.3037C15.0042 48.2355 14.9962 48.1909 14.9895 48.1734C14.9915 48.1727 14.9637 48.1416 15.0017 48.2563C15.009 48.2832 15.0809 48.3654 15.1538 48.3754C15.2345 48.3875 15.2423 48.3746 15.2661 48.3694C15.3045 48.3545 15.3024 48.35 15.3044 48.3485C15.2849 48.3532 15.1819 48.4341 15.0519 48.6353C14.8319 48.9715 14.5707 49.6612 14.2028 49.9606C14.5025 49.5352 14.4146 49.5421 14.7098 49.0368C14.7352 48.9941 14.8232 48.8599 14.9447 48.6833C15.0044 48.5969 15.0742 48.497 15.1467 48.4025C15.1794 48.3598 15.2259 48.3035 15.2508 48.2811C15.2515 48.2753 15.2723 48.28 15.2056 48.2903C15.1464 48.3052 15.0669 48.2072 15.077 48.2014C15.0711 48.1805 15.0735 48.1754 15.0734 48.1763C15.0748 48.1803 15.0705 48.2102 15.0638 48.2381C14.9312 48.7055 14.7477 49.1484 14.8464 49.1102C14.9478 49.0704 15.1507 48.421 15.1639 48.3997C15.2878 48.284 15.2539 48.6752 15.0826 48.9727C15.1032 48.8863 15.1264 48.7916 15.1469 48.7005C14.7602 49.3517 15.3076 49.0363 14.7739 49.419C14.7089 49.4635 14.6825 49.4208 14.5949 49.5076C14.6009 49.5366 14.7006 49.4265 14.6561 49.5407C14.6065 49.6663 14.4364 49.8311 14.4818 49.8991C14.5529 49.9883 14.7368 49.5033 14.7572 49.4719C14.7568 49.4713 14.7564 49.4707 14.756 49.4701C14.948 49.1843 14.6529 49.8359 14.6467 49.8689C14.6057 50.1039 14.7194 49.9795 14.6214 50.3061C14.5871 50.4153 14.5138 50.5725 14.4296 50.7463C14.3662 50.8772 14.3006 51.0087 14.2675 51.0861C14.1966 51.2534 14.3644 51.0208 14.3197 51.1356C14.2766 51.2472 14.1799 51.3608 14.1267 51.4956C14.1042 51.553 14.1534 51.575 14.1424 51.6015C14.0245 51.8859 14.0147 51.6537 13.8936 51.9123C13.8167 52.0774 13.6309 52.6777 13.8514 52.3093C13.7675 52.5003 13.6871 52.6766 13.6014 52.8635C13.6745 52.7555 13.7436 52.6432 13.8158 52.5422C13.6234 52.8657 13.6225 53.0695 13.521 53.2824C13.4164 53.5007 13.2203 53.6388 13.1455 53.8987C12.9848 54.455 13.5868 53.1856 13.6794 53.0443C13.7171 52.9884 13.6771 53.257 13.661 53.2935C13.5902 53.4552 13.4363 53.618 13.3772 53.7378C13.1597 54.1784 13.092 54.4822 12.8867 54.9016C12.187 56.3343 11.2463 58.0815 10.4437 59.3811C10.146 59.8649 9.8803 60.0988 9.73898 60.3153C9.41134 60.8124 9.4333 60.9207 9.12903 61.3532C8.6768 61.9986 7.92488 62.8254 7.425 63.3086C7.09368 63.6393 6.79515 63.9941 6.68691 64.0804C6.27754 64.4015 5.8045 64.7817 4.99711 64.9155C3.85716 65.0917 2.96536 64.2643 2.57978 63.7022C2.15299 63.1057 1.9144 62.5361 1.725 62.0567C1.48525 61.4262 1.49074 61.1044 1.44736 60.9771C1.27583 60.4265 1.24703 60.5943 1.13696 60.1428C1.07977 59.8993 1.13933 59.8366 1.13411 59.8038C1.08963 59.5144 0.985838 59.4767 0.933862 59.2557C0.79543 58.6616 0.692643 58.0688 0.602868 57.4878C0.55754 57.1953 0.516427 56.9101 0.472896 56.6227C0.451838 56.4836 0.430442 56.3448 0.406523 56.2068C0.396523 56.1478 0.382117 56.071 0.372274 56.0232C0.366391 55.9774 0.327822 55.8788 0.378732 56.0004C0.398782 56.038 0.422485 56.0988 0.526554 56.2097C0.553317 56.2372 0.586306 56.2677 0.628834 56.2995C0.672405 56.3293 0.712726 56.3668 0.858017 56.4224C1.12284 56.5373 1.53601 56.4351 1.68936 56.2947C1.87687 56.1355 1.85209 56.1255 1.89186 56.076C1.91815 56.0349 1.93395 56.0031 1.94565 55.9777C1.96794 55.9288 1.97722 55.895 1.97881 55.8896C1.99008 55.8467 1.9828 55.8697 1.98048 55.8873C1.97201 55.9429 1.93161 55.9361 1.929 55.9809C1.92058 56.196 1.99275 56.1064 1.98393 56.3443C1.96896 56.8643 1.95186 57.4285 1.9404 58.007C1.93933 58.0649 1.88595 58.0917 1.8856 58.2214C1.88532 58.3525 1.93562 58.4544 1.93312 58.66C1.92681 59.2013 1.87079 59.7373 1.87441 60.3124C1.87509 60.4076 1.94067 60.5243 1.94194 60.6671C1.9458 61.1149 1.89911 61.7789 1.90476 62.1635C1.91732 63.0166 1.95182 63.8223 1.98635 64.6201C2.00391 65.0079 2.0181 65.4028 2.04524 65.7454C2.0497 65.7993 2.05222 65.8579 2.05165 65.8905C2.05088 65.9051 2.05067 65.9169 2.04291 65.8999C2.03725 65.8874 2.03775 65.8874 2.01426 65.8326C2.00283 65.8076 1.98692 65.7744 1.95821 65.7294C1.93195 65.6958 1.89116 65.6028 1.70631 65.4783C1.53412 65.3511 1.18574 65.3165 1.01173 65.3873C0.819535 65.4512 0.728841 65.5422 0.674013 65.5979C0.612496 65.666 0.593985 65.704 0.580973 65.7284C0.56196 65.7693 0.569157 65.7667 0.572359 65.7653C0.581558 65.7584 0.595842 65.7308 0.6044 65.7057C0.684191 65.4532 0.572901 65.6372 0.650894 65.3467C1.12903 63.3621 1.56552 61.2784 2.03532 59.208C2.17295 58.5932 2.32128 57.9525 2.46455 57.3381C2.7118 56.2774 2.967 54.9775 3.22988 53.9628C3.34067 53.5355 3.43331 53.4829 3.50693 53.1828C3.63882 52.6436 3.56386 52.531 3.69167 51.9614C3.79264 51.5115 4.01487 51.0142 4.12014 50.5497C4.22632 50.081 4.18466 49.8409 4.30084 49.3025C4.39792 48.8535 4.58494 48.2514 4.69102 47.7655C5.65677 43.3357 6.55295 38.9703 7.33468 34.4998C7.61029 32.9215 7.83545 31.1642 8.09942 29.5311C8.12409 29.3776 8.19335 29.623 8.22332 29.1264C8.23847 28.8616 8.1954 28.4786 8.24121 27.8672C8.24418 27.8273 8.24713 27.7875 8.25007 27.7477C8.52246 24.0694 8.97174 20.2054 9.17478 16.4822C9.47949 10.8325 9.124 4.98582 10.1578 0.128511C10.2066 -0.100861 10.4396 0.0184411 10.5049 0.164839C10.4564 0.299334 10.3988 0.418003 10.3433 0.561548C10.6322 0.739946 10.558 0.708355 10.519 1.35989C10.494 1.76807 10.6256 1.45188 10.6564 1.66123C10.6969 1.95084 10.8043 3.24375 10.6179 2.99491C10.6488 3.08434 10.6789 3.14929 10.7092 3.22947C10.7094 4.17393 10.724 5.09457 10.7416 6.02321C10.7448 6.18159 10.8051 6.1914 10.8078 6.35851C10.8152 6.81348 10.7607 7.149 10.7459 7.61261C10.7381 7.85635 10.8066 7.89258 10.7868 8.22145C10.7664 8.55848 10.6732 8.5296 10.7542 8.97985C10.8868 8.69981 10.7381 9.97249 10.7203 10.444C10.7178 10.5114 10.7962 11.0495 10.7679 11.3455C10.7393 11.651 10.6487 12.0615 10.6613 12.5241C10.6672 12.7413 10.743 12.8702 10.7348 13.0946C10.729 13.2527 10.6443 13.4398 10.6293 13.644C10.6141 13.8518 10.6488 14.2884 10.6451 14.3672C10.6319 14.6545 10.5991 14.3344 10.5847 14.531C10.5147 15.5006 10.4178 16.5977 10.3915 17.5368C10.3881 17.6535 10.4596 17.4964 10.4606 17.512C10.4834 18.3105 10.4315 17.8842 10.363 18.0932C10.2981 18.2796 10.2236 19.8096 10.3293 19.8148C10.1935 19.8509 10.272 20.1895 10.2698 20.2769C10.2613 20.6164 10.1512 20.5417 10.1635 20.8757C10.1678 20.9987 10.2621 20.7666 10.2506 20.8975C10.222 21.224 10.0781 21.4874 10.035 21.9139C10.0246 22.0164 10.0777 22.0537 10.0626 22.2374C10.0472 22.4259 9.92391 23.1798 10.0665 22.8388C9.93917 23.2902 9.98392 23.3863 9.94099 23.9297C9.9301 24.0653 9.82662 24.2472 9.83317 24.5312C9.83528 24.6289 9.92173 24.6324 9.91138 24.7792C9.88788 25.1151 9.77442 25.4271 9.73744 25.8625C9.68267 26.5043 9.66991 27.1693 9.62008 27.8563C9.60777 28.0264 9.59259 28.1967 9.57338 28.3663C9.54716 28.595 9.466 28.5298 9.43349 28.8636C9.42909 28.9128 9.46585 29.3181 9.43495 29.5477C9.41732 29.6868 9.28733 30.3951 9.2658 30.5385C9.23164 30.7761 9.30991 30.8287 9.27803 30.9577C9.18544 31.3293 9.09976 31.0112 9.21169 31.485C9.10003 31.6222 9.07524 31.8884 8.94948 31.9585C9.05472 32.1301 8.90811 32.3116 8.9092 32.6156C8.91037 32.9192 9.11783 33.2 8.84634 33.2343C8.85867 33.3774 8.82518 33.9782 8.81354 34.0791C8.77983 34.3759 8.73172 34.2074 8.70733 34.4306C8.70287 34.47 8.75874 34.4366 8.71466 34.6866C8.6872 34.8511 8.4869 36.0559 8.46661 36.1264C8.25003 36.9338 8.49417 35.6709 8.46837 35.4852C8.4875 35.4562 8.50661 35.4276 8.52589 35.3964C8.60807 35.037 8.46328 35.226 8.41069 35.3861C8.35822 35.5458 8.3569 35.8607 8.29736 35.991C8.26756 36.0559 8.14149 35.9913 8.19186 35.7887C8.11411 36.0015 8.12082 35.6943 8.06772 35.7748C8.01048 35.8633 7.82836 36.8465 7.89999 36.8644C7.93484 36.6807 7.97185 36.4517 8.00669 36.2657C8.17577 36.0431 8.48637 36.8598 8.18982 37.5092C7.97474 37.9789 8.02344 37.1495 7.9153 38.3325C7.95359 38.1546 7.99329 38.0054 8.02826 37.8437C8.12697 37.8438 7.97377 38.0885 7.97894 38.2301C7.98175 38.2983 8.12364 37.9078 8.08162 38.2618C7.88936 38.5372 7.98367 38.7943 7.88877 39.2986C7.89131 39.1539 7.89383 39.0091 7.89599 38.8644C7.63549 39.6967 7.97819 37.7144 7.60815 39.3577C7.64204 39.1581 7.68095 38.9603 7.71199 38.759C7.64363 38.8465 7.52596 38.6636 7.47854 38.7445C7.35417 38.9564 7.33903 39.3018 7.27806 39.5771C7.2515 39.6976 7.22647 39.6148 7.22426 39.6249C7.1875 39.7901 7.25274 39.7648 7.22788 39.9112C7.19671 40.0956 7.03494 40.6128 7.02399 40.6994C6.99574 40.9245 7.18457 40.5784 7.18876 40.6015C7.21605 40.7536 7.1114 41.034 7.18699 41.0334C7.28036 40.3291 7.73267 38.3332 7.49879 40.1733C7.71447 39.6954 7.84883 39.8719 7.71813 40.5952C7.60926 41.1928 7.62167 40.7957 7.48782 41.0915C7.4711 41.1303 7.27368 41.9191 7.31503 41.9704C7.20589 41.9145 7.04938 42.1526 6.96616 41.9537C6.95405 41.9242 7.02839 41.5999 6.9088 41.6937C6.84885 41.7404 6.70993 41.8819 6.65397 41.8429C6.68273 41.9189 6.71615 41.9991 6.74646 42.0765C6.65658 42.568 6.59571 42.6269 6.45951 42.8763C6.49531 42.8712 6.68751 42.6541 6.56509 43.0201C6.55842 43.0388 6.50483 43.0448 6.43913 43.2298C6.30661 43.6036 6.27373 43.6797 6.19035 43.3537C6.10266 44.1642 5.90056 44.3028 5.76732 45.1261C5.99244 45.0044 6.00959 44.7117 6.13699 43.955C6.189 43.9323 6.23685 43.9266 6.28948 43.9032C5.96948 44.8766 6.08772 44.3868 6.05445 44.9684C6.04613 45.1124 5.85714 45.8409 6.03923 45.6246C6.08216 45.5739 6.18115 45.1159 6.21651 45.1787C6.22328 45.1913 6.12143 45.7516 6.09819 45.7972C5.80903 46.3746 5.95452 45.2575 5.62318 46.9568C5.61408 47.0037 5.66543 47.0315 5.65188 47.1251C5.62646 47.3001 5.56243 47.2875 5.54167 47.4438C5.52093 47.6 5.55719 47.8313 5.42499 48.0407C5.18352 48.4249 5.33109 47.422 5.50933 46.9954C5.36517 46.7763 4.62298 49.9194 4.58992 50.1153C4.45559 50.9851 4.75477 49.5573 4.82333 49.4984C4.85256 49.4732 5.12806 49.5554 5.03233 49.1521C5.00389 49.0329 4.82758 49.4614 4.86096 49.1887C4.89445 48.9155 4.95159 49.0407 4.96193 49.0226C4.99702 48.9622 5.03264 48.675 5.0529 48.6411C5.36205 48.1205 5.61722 48.237 5.0472 48.8861C5.06031 49.2296 5.37747 48.5228 5.34334 48.9382C5.30137 49.4451 5.08823 49.7744 5.06812 49.8334C4.82462 50.5525 5.2136 49.7476 4.93798 50.6362C4.78484 51.1285 4.99406 49.8584 4.73213 51.0021C4.51032 51.9677 4.70041 51.4625 4.83043 51.5684C4.86085 51.593 4.77621 52.1283 4.93381 51.4093C4.90042 51.3798 4.85921 51.3293 4.83493 51.2751C4.90593 51.1033 5.1669 50.8609 5.19606 50.7689C5.33702 50.3219 5.23305 50.3165 5.41407 50.0773C5.24043 50.237 5.39164 49.9458 5.39245 49.8222C5.396 49.3637 5.22381 49.9255 5.58358 48.978C5.49358 49.0903 5.40738 49.1912 5.31801 49.3014C5.34396 49.1828 5.36957 49.0651 5.39497 48.9483C5.56841 48.8063 5.69815 48.1782 5.69873 48.7741C5.8968 48.1024 5.9308 47.8235 5.86241 47.6505C5.84929 47.6177 5.86512 47.5138 5.89106 47.3931C5.85679 47.4092 5.76047 47.4175 5.75387 47.396C5.69656 47.204 5.9239 46.9804 5.96706 47.0844C5.98933 47.0017 6.00812 46.9364 6.01503 46.9134C6.05897 46.7675 6.04988 47.0711 6.09723 46.9556C6.11276 46.9178 6.19608 46.4964 6.22136 46.4934C6.38277 46.4773 6.11844 47.1422 6.51984 45.7767C6.39062 45.7126 6.27533 46.3611 6.16731 46.1634C6.05153 45.9506 6.34222 45.638 6.16838 45.5154C6.20649 45.4931 6.23569 45.486 6.27725 45.4687C6.31968 44.8879 6.48019 44.9176 6.55351 44.7541C6.69695 44.4368 7.01919 42.903 6.58138 44.2474C6.61182 44.0425 6.64994 43.8368 6.68095 43.6344C6.97713 43.6506 6.8382 43.7487 7.08774 42.7925C7.14237 42.5824 7.2832 42.5397 7.17704 42.2995C7.31838 42.3589 7.36072 41.7099 7.39029 41.6554C7.58484 41.3017 7.45568 42.7374 7.15663 42.8601C7.20782 43.1167 7.07401 43.0887 7.03525 43.3558C6.97884 43.7421 6.99392 43.7987 6.79654 44.2293C6.83963 44.7033 7.23429 42.5044 7.13254 43.8674C7.05705 45.2399 5.33354 52.9425 4.91768 54.7263C4.46476 56.7286 4.14942 58.1486 3.83806 59.6072C3.64329 60.522 3.43813 61.4728 3.19393 62.5791C3.13247 62.8641 2.66346 65.0572 2.6035 64.5629C2.59502 64.4952 2.74143 63.543 2.43771 64.3185C2.5482 64.1728 2.49308 64.6476 2.48975 64.6976C2.47561 65.1723 2.5053 65.2889 2.50011 65.4576C2.49696 65.543 2.48464 65.6442 2.44537 65.8251C2.4263 65.9123 2.40042 66.0221 2.35837 66.1677C2.33584 66.2436 2.31111 66.3283 2.26281 66.4502C2.21628 66.54 2.24612 66.5694 2.02348 66.8481C1.96005 66.9118 1.75132 67.163 1.30204 67.1914C0.779541 67.2261 0.433451 66.794 0.408889 66.7367C0.277623 66.5304 0.268115 66.4343 0.248966 66.3784ZM1.51772 61.7792C1.51833 63.6836 1.60003 62.2836 1.85609 62.673C1.85155 62.4309 1.84726 62.1864 1.84332 61.9414C1.82899 62.0063 1.8147 62.0702 1.80041 62.1345C1.80041 62.1348 1.80042 62.1351 1.80042 62.1354C1.70613 62.0174 1.61184 61.8968 1.51772 61.7792ZM14.1397 52.087C14.1344 52.1706 14.1325 52.2475 14.1246 52.3346C14.0009 52.5583 13.8793 52.7766 13.7538 53.0004C13.748 52.963 13.7414 52.9265 13.7355 52.8893C13.8713 52.6246 14.0094 52.3531 14.1397 52.087ZM5.53389 46.7285C5.70192 46.4017 5.53704 46.3967 5.71425 45.9498C5.58498 45.9793 5.45644 46.0173 5.32745 46.0507C5.26444 46.407 5.29047 46.4972 5.17461 46.8705C5.22222 46.8349 5.27031 46.7983 5.31793 46.7637C5.32445 46.6986 5.33079 46.629 5.33776 46.5659C5.465 46.4924 5.34091 47.1041 5.53385 46.7298C5.53386 46.7294 5.53387 46.7289 5.53389 46.7285ZM6.2806 43.1512C6.33668 42.9659 6.55086 42.2367 6.52341 42.1244C6.4321 41.7473 6.09292 43.8619 6.2737 42.2888C6.24916 42.291 6.22806 42.2792 6.20524 42.2744C6.13794 42.5541 6.0715 42.8323 6.00402 43.1152C6.09811 43.1195 6.18561 43.1489 6.2806 43.1512ZM1.42762 63.7282C1.50388 63.4444 1.72595 62.0532 1.52449 62.4785C1.46679 62.5972 1.48045 63.2486 1.42289 63.4796C1.38616 63.627 1.34246 63.4376 1.30561 63.7475C1.34441 63.7422 1.38601 63.7429 1.42756 63.7273C1.42757 63.7276 1.4276 63.7279 1.42762 63.7282ZM1.78192 64.3714C1.8334 64.0736 1.88398 63.7562 1.93209 63.4628C1.79261 63.6561 1.75692 64.1006 1.62005 64.0996C1.62981 64.0089 1.63576 63.9354 1.64427 63.8498C1.68663 63.7935 1.72908 63.7368 1.77176 63.6788C1.75595 63.4121 1.6878 63.555 1.81257 63.0824C1.55288 63.3229 1.4348 63.3611 1.45277 64.223C1.37968 64.0459 1.00036 64.1103 1.14719 64.6157C1.17455 64.7092 1.28374 64.3719 1.293 64.3643C1.3971 64.3291 1.41018 64.5433 1.51009 64.5032C1.55563 64.4839 1.60333 64.2685 1.66461 64.2492C1.69421 64.2413 1.72501 64.4583 1.78192 64.3714ZM1.18334 64.857C1.14874 64.7539 0.947004 65.0317 0.906968 65.3027C0.842888 65.7234 1.13355 65.1107 1.18334 64.857ZM14.1403 52.0854C14.1401 52.0859 14.1399 52.0864 14.1397 52.087C14.1397 52.0867 14.1397 52.0864 14.1397 52.086C14.1399 52.0858 14.1401 52.0856 14.1403 52.0854ZM6.00682 44.1031C6.00836 43.8708 6.08568 43.5475 6.00543 43.5551C6.04339 43.4512 6.08132 43.3459 6.11919 43.2417C6.09639 43.2378 6.07333 43.235 6.05077 43.2312C5.96716 43.5513 5.88345 43.8682 5.79799 44.189C5.86723 44.1618 5.93603 44.1376 6.00682 44.1031ZM6.80071 40.5912C6.88979 40.186 6.71904 40.5065 6.68743 40.4074C6.65588 40.3083 6.76796 39.9538 6.68846 39.9824C6.63837 40.2215 6.58585 40.47 6.53436 40.712C6.62448 40.6636 6.7121 40.6348 6.80087 40.5904C6.80082 40.5907 6.80077 40.5909 6.80071 40.5912ZM0.93751 57.185C0.91209 56.9077 1.00954 56.9983 0.822899 56.4735C0.822975 56.4739 0.823051 56.4743 0.823127 56.4747C0.848383 56.9959 0.906735 57.6925 1.0818 58.2634C1.09683 57.8952 0.979363 57.63 0.93751 57.185ZM5.08246 47.6364C5.11706 47.7667 5.29392 47.2389 5.26439 47.1054C5.21656 46.8903 5.03002 47.439 5.08246 47.6364ZM7.37315 62.0672C7.49477 61.6095 6.83229 62.1122 6.31187 62.7376C6.27034 62.7925 6.68637 62.4662 6.60299 62.6028C6.59323 62.6195 6.38629 62.8173 6.34634 62.8894C6.31054 62.9593 6.4104 62.9535 6.33858 63.0544C6.2182 63.2325 5.77821 63.4655 5.68089 63.59C5.66617 63.6118 5.96172 63.5132 5.98158 63.4992C6.26031 63.3571 6.41209 63.0656 6.44502 63.0343C6.62672 62.859 6.65322 62.9499 6.71325 62.9202C6.8229 62.8666 6.94513 62.6843 6.95572 62.6767C7.2675 62.4579 6.66174 63.0647 6.58547 63.1642C6.39863 63.4369 6.70438 63.3131 6.09572 63.8365C6.04423 63.8841 5.23694 64.3968 6.28607 63.8162C5.85402 64.2028 5.61991 64.3185 5.64145 64.3353C5.65212 64.352 5.89955 64.2449 6.16098 64.0629C6.71076 63.697 7.31901 63.0004 7.41724 62.8573C7.51277 62.7224 7.28481 62.8497 7.32442 62.7517C7.41844 62.5258 7.64776 62.2324 7.5355 62.1798C7.2983 62.0735 7.10402 62.5515 6.83406 62.7649C6.82013 62.701 6.79153 62.6544 6.79904 62.5693C6.78343 62.6976 7.36926 62.1041 7.37353 62.0675C7.3734 62.0674 7.37327 62.0673 7.37315 62.0672ZM2.96769 63.064C2.78114 62.604 2.66108 62.7025 2.55377 62.2593C2.2628 61.9528 2.58955 62.6679 2.63541 62.7512C2.81068 63.1425 2.66939 63.2211 2.98741 63.574C2.95664 63.3843 2.96793 63.2358 2.96769 63.064ZM6.79443 63.2039C6.60677 63.4922 7.03605 63.0827 7.05982 63.0746C7.37856 63.016 6.03028 64.2012 6.79443 63.2039ZM2.12942 62.0081C2.16917 61.8512 2.07218 61.9357 2.08084 61.7896C2.08696 61.654 2.25592 61.1883 2.2064 61.1913C2.15656 61.195 1.8453 62.0386 2.01019 61.1575C1.97773 61.1802 1.9602 61.1666 1.93332 61.1758C1.87807 61.4253 1.82864 61.6464 1.77345 61.8963C1.87833 61.7782 1.98656 61.6638 2.08668 61.5556C2.11782 61.7015 2.02501 61.7567 2.02343 61.7639C2.02351 61.7639 2.02359 61.7639 2.02367 61.764C1.97338 62.0236 2.04181 62.3536 2.12942 62.0081ZM1.41695 57.9443C1.2249 57.8963 1.43788 58.2709 1.46187 58.4274C1.48551 58.5797 1.41492 58.7929 1.49743 58.7127C1.55356 58.4649 1.43808 57.9506 1.4167 57.9443C1.41678 57.9443 1.41686 57.9443 1.41695 57.9443ZM1.96808 60.6364C1.81481 60.2649 1.7814 60.3368 1.71695 59.8491C1.67639 59.8786 1.6349 59.9085 1.59512 59.938C1.69089 60.3172 1.8126 60.2559 1.88428 60.705C1.89697 60.7788 1.74708 60.6566 1.87766 60.9691C1.90389 60.8587 1.93685 60.7457 1.96808 60.6364ZM1.33375 58.7516C1.43515 59.2005 1.87826 59.4712 1.53838 58.687C1.48852 58.5698 1.25934 58.4135 1.33375 58.7516ZM1.19083 66.0407C1.31537 65.7162 1.28897 65.7113 1.22873 65.8505C1.20147 65.9048 1.14809 66.0208 1.11686 66.0438C1.11563 66.0434 1.11215 66.0418 1.12794 66.0238C1.14177 66.0044 1.23649 65.9408 1.34393 65.988C1.49525 66.0949 1.42446 66.066 1.44284 66.0663C1.446 66.054 1.44597 66.0172 1.45052 65.9995C1.4471 66.026 1.5082 66.1241 1.43116 66.0057C1.39774 65.9415 1.19118 65.9117 1.14075 65.9624C1.07635 66.0036 1.08536 66.0093 1.07796 66.0148C1.07135 66.0238 1.07874 66.0111 1.08242 66.0011C1.10375 65.9492 1.12412 65.88 1.13736 65.8328C1.16884 65.7204 1.1807 65.6658 1.18848 65.6311C1.20201 65.5659 1.17541 65.66 1.12992 65.7873C1.10627 65.8532 1.075 65.9353 1.04487 65.9851C1.03991 65.9935 1.02876 66.0045 1.04424 65.9803C1.04978 65.9784 1.06757 65.9219 1.19864 65.8867C1.34832 65.8432 1.50116 65.9874 1.49836 66.0005C1.54947 66.0892 1.51737 66.0121 1.52442 65.9914C1.52325 65.8462 1.54707 65.6728 1.59227 65.6354C1.52427 65.4305 1.38338 65.0255 1.36979 65.4785C1.36565 65.6637 1.41965 65.5953 1.41986 65.6058C1.42286 65.7717 1.40328 65.8513 1.3867 65.9325C1.37808 65.9683 1.37151 66.0176 1.37233 66.0647C1.35788 66.0771 1.4252 66.1442 1.3203 66.0535C1.17506 66.0094 1.16074 66.1009 1.16861 66.0794C1.17326 66.0745 1.18202 66.0598 1.19083 66.0407ZM3.52933 63.75C3.50403 63.7297 3.4963 63.8132 3.41205 63.7488C3.32351 63.6822 3.2094 63.4757 3.16529 63.4817C3.11273 63.4891 3.40487 63.875 3.55672 63.9471C3.69987 64.0199 3.76541 63.9266 3.52933 63.75ZM2.2525 60.9917C2.09187 60.6337 2.05386 61.3159 2.0863 61.3976C2.35007 62.1082 2.16467 60.9913 2.2525 60.9917ZM0.859805 64.5695C0.864725 64.5997 0.869688 64.6278 0.87469 64.6539C0.985614 65.2509 1.11391 65.0273 1.21569 64.6435C1.25044 64.5202 1.28181 64.3621 1.30888 64.2243C1.28109 64.1496 1.25306 64.0658 1.22568 63.9945C1.39157 64.3401 1.56171 64.9444 1.38958 63.5911C1.37213 64.3357 1.31397 63.714 1.30505 63.7081C1.01576 63.6356 1.17957 64.7343 0.859781 64.5687C0.859789 64.569 0.859797 64.5693 0.859805 64.5695ZM4.88576 64.3134C4.89568 64.3122 4.90591 64.3109 4.91643 64.3094C5.48287 64.2689 6.30682 63.5655 5.82162 63.7575C5.57233 63.9822 5.29763 64.1926 4.91587 64.3052C4.90585 64.308 4.89581 64.3107 4.88576 64.3134ZM4.6047 53.1049C4.75226 52.8 4.8216 52.5091 4.91402 52.1073C4.72594 52.4422 4.77147 52.2034 4.7761 52.0761C4.78318 51.8839 4.67862 52.3292 4.67155 52.3285C4.57762 52.2966 4.63069 52.0127 4.47778 52.6533C4.48258 52.4875 4.48682 52.3228 4.49224 52.1553C4.36866 52.6463 4.27991 52.7384 4.12737 53.033C4.38819 52.7743 4.17348 53.1481 4.17973 53.5279C4.18292 53.7178 4.52891 53.2623 4.605 53.1037C4.6049 53.1041 4.6048 53.1045 4.6047 53.1049ZM0.856761 65.5351C0.896621 65.6326 0.948165 65.7106 0.995724 65.8094C1.00764 65.9048 1.01994 66.0172 1.0476 66.1291C1.02134 66.152 0.993464 66.1733 0.971171 66.202C0.987514 66.2526 0.991263 66.2999 1.07995 66.3814C1.1895 66.4723 1.31559 66.4371 1.3377 66.423C1.39473 66.3897 1.39483 66.3772 1.44522 66.3239C1.44534 66.324 1.44546 66.3241 1.44558 66.3242C1.58494 66.0885 1.55801 66.0168 1.59831 65.8905C1.62207 65.7887 1.64692 65.6893 1.67311 65.6008C1.72581 65.4215 1.78918 65.2667 1.88738 65.0552C1.79595 65.0339 1.70452 65.0125 1.61309 64.9911C1.59904 65.0906 1.5835 65.1938 1.56958 65.288C1.60532 65.3546 1.6414 65.4191 1.67782 65.4813C1.62254 65.5871 1.56857 65.6857 1.50826 65.7971C1.50258 65.884 1.48689 66.0029 1.47221 66.0913C1.24895 66.264 1.31182 66.1103 1.36689 65.9238C1.42627 65.7314 1.50688 65.475 1.45528 65.4581C1.42142 65.4444 1.34518 65.7022 1.25886 65.9553C1.23837 66.016 1.20536 66.0921 1.19729 66.1019C1.18253 66.098 1.29539 66.0594 1.3235 66.106C1.33962 66.1252 1.33006 66.1178 1.32702 66.1073C1.32088 66.094 1.31118 66.0564 1.30626 66.036C1.2817 65.9265 1.26643 65.8327 1.25113 65.7992C1.24297 65.7766 1.06376 66.0216 1.13827 65.628C1.15104 65.5628 1.56963 65.5244 1.21182 65.126C1.16138 65.0691 0.905107 65.2826 0.856761 65.5351ZM2.45495 63.2874C2.06424 63.8097 2.81113 61.7264 2.3908 62.6098C2.32759 62.3163 2.31795 62.3681 2.15214 62.611C2.13731 62.6326 2.14407 62.4412 2.1365 62.4556C2.02265 62.6924 1.98988 62.9941 1.88096 62.9744C1.87202 63.043 1.86354 63.1065 1.85506 63.1729C2.01678 62.9207 1.98968 63.3733 2.03735 63.5663C2.05932 63.6521 2.11033 63.4768 2.13009 63.5495C2.13715 63.5769 2.0583 63.8174 2.09091 63.8389C2.1671 63.8766 2.31022 63.7457 2.42833 63.4906C2.42841 63.4906 2.42849 63.4906 2.42857 63.4906C2.43828 63.4209 2.44649 63.3526 2.45495 63.2874ZM0.830072 56.6872C0.983294 56.5939 1.03682 56.1934 1.08817 56.966C1.11847 56.9285 1.14857 56.8916 1.17898 56.8546C1.17994 56.718 1.18105 56.5998 1.18421 56.4637C0.741759 56.0436 1.3661 55.3554 0.975827 55.7855C0.934002 55.8305 0.94307 56.163 0.881401 55.8324C0.881274 55.8328 0.881147 55.8332 0.88102 55.8336C0.868808 56.2797 0.927046 56.3267 0.830072 56.6872ZM0.91777 59.5583C1.23953 60.5404 1.08501 58.1945 1.00517 58.5861C0.99671 58.6233 1.06979 59.6322 0.91777 59.5583ZM2.30174 59.3159C2.20958 58.8884 2.04034 58.896 1.98938 58.9523C1.93839 59.0084 2.06523 59.2925 2.06517 59.3333C2.063 59.4657 1.98128 59.2044 1.97628 59.3773C1.97174 59.4336 2.09943 60.1967 2.11896 60.2286C2.20941 60.4071 2.26977 60.0943 2.29998 60.1443C2.39718 60.306 2.3949 60.5611 2.48163 60.5909C2.66518 60.6541 2.37846 60.2635 2.35681 60.1879C2.2891 59.9642 2.38126 59.9613 2.35575 59.7882C2.33088 59.6155 2.27437 59.5111 2.24569 59.3604C2.23621 59.3102 2.30617 59.3375 2.30174 59.3159ZM1.65488 57.9651C1.86581 58.3932 1.79718 57.2648 1.74764 57.1411C1.5914 56.7676 1.55142 57.7577 1.65488 57.9651ZM1.73573 64.6475C1.73421 65.0751 2.025 64.1336 2.04723 63.8531C1.99792 63.8981 1.73839 64.4934 1.73573 64.6475ZM0.852779 64.3111C0.893077 64.7006 1.08753 64.1763 1.07595 63.8546C0.93307 63.6646 0.965118 63.8497 0.965065 64.0564C0.965255 64.2712 0.821735 64.0096 0.852779 64.3111ZM4.0196 63.5223C3.99038 63.5061 3.72336 63.3124 3.55534 63.141C3.38412 62.9697 3.26821 62.8741 3.47382 63.1961C3.49037 63.22 3.64505 63.4161 3.83601 63.5672C4.02403 63.7238 4.25206 63.8106 4.2868 63.8099C4.42155 63.8136 4.15959 63.6481 4.0196 63.5223ZM0.603703 62.4515C0.727229 62.6544 0.73013 62.8572 0.866013 62.6643C0.866007 62.664 0.866001 62.6637 0.865995 62.6635C0.920295 63.1836 0.634802 63.2144 0.643511 63.3256C0.674611 63.7182 0.869342 63.3405 0.942412 63.5858C0.865439 63.0148 1.00691 63.175 1.00588 62.7398C1.00556 62.6425 0.915326 62.252 0.863131 62.1973C0.810821 62.1417 0.661334 62.3428 0.603703 62.4515ZM5.53584 63.4495C5.16687 63.6211 4.84852 63.9195 5.42229 63.7172C5.70273 63.5874 5.76328 63.3335 5.53584 63.4495ZM7.08318 42.6502C7.0192 42.7078 6.95498 42.7673 6.89035 42.8299C6.91323 42.6632 6.93575 42.496 6.95809 42.3288C6.94647 42.4622 6.93446 42.5957 6.92218 42.7298C7.00476 42.425 7.12469 42.3024 7.08335 42.6494C7.08329 42.6497 7.08324 42.6499 7.08318 42.6502ZM9.05253 31.5649C9.11888 31.4303 9.00273 31.1354 8.98668 31.1692C8.86744 31.4218 8.9606 31.7515 9.05253 31.5649ZM2.32073 64.136C2.45412 63.6295 2.13666 63.9291 2.05037 64.2397C2.14001 64.0529 2.24365 64.4279 2.32073 64.136ZM8.46837 35.4852C8.43989 35.5284 8.41133 35.5718 8.38184 35.6205C8.43787 35.4613 8.46193 35.4361 8.46837 35.4852ZM4.01974 63.2402C3.9801 63.198 3.67401 62.7933 3.6217 62.7361C3.49672 62.6322 3.61407 63.0764 3.81635 63.2231C3.83995 63.2454 4.0547 63.2993 4.01903 63.2396C4.01927 63.2398 4.0195 63.24 4.01974 63.2402ZM7.32129 41.973C7.3188 41.9735 7.31671 41.9725 7.31503 41.9704C7.31705 41.9715 7.3193 41.9718 7.32129 41.973ZM10.3408 19.8111C10.3368 19.814 10.3329 19.8155 10.3293 19.8148C10.3329 19.8139 10.3369 19.8116 10.3408 19.8111ZM2.65823 59.6352C2.83854 59.393 2.61905 58.9932 2.58512 59.359C2.58345 59.3795 2.64721 59.59 2.65823 59.6352Z" fill="url(#paint0_linear_651_4543)"/>
<defs>
<linearGradient id="paint0_linear_651_4543" x1="8.11521" y1="0.00390625" x2="56.4625" y2="41.9239" gradientUnits="userSpaceOnUse">
<stop stop-color="#455155"/>
<stop offset="1" stop-color="#455155" stop-opacity="0"/>
</linearGradient>
</defs>
</svg>
