<svg width="38" height="37" viewBox="0 0 38 37" fill="none" xmlns="http://www.w3.org/2000/svg">
<path d="M21.1773 25.2074C20.7368 24.2832 20.2721 23.3211 19.8048 22.3631C19.2218 21.158 18.6233 20.0178 18.0249 18.8175C17.9688 18.6843 17.8901 18.5918 18.0156 18.7384C18.0585 18.7812 18.1207 18.8234 18.1719 18.8467C18.4516 18.9674 18.4676 18.9168 18.5072 18.9204C18.5346 18.9133 18.5387 18.904 18.5415 18.8959C18.5446 18.8795 18.5391 18.865 18.5276 18.863C18.4194 18.8572 18.2983 18.978 18.1633 19.0164C17.4481 19.2299 16.7213 19.5178 15.9734 19.7852C15.1992 20.0645 15.4815 19.7251 15.1973 19.7826C14.6397 19.8951 15.1842 19.9755 15.0015 20.1143C14.7048 20.2228 14.4048 20.3286 14.1023 20.4327L14.0468 20.4521C13.727 20.5368 13.4117 20.6177 13.0938 20.6988C13.2389 20.6276 13.378 20.5587 13.5244 20.4888C13.2543 20.5659 12.8589 20.6423 13.2863 20.4363C13.1827 20.4473 13.0817 20.454 12.9741 20.4667C12.9762 20.5709 12.5021 20.7236 12.4775 20.793C12.4515 20.863 12.7133 20.7693 12.7138 20.7745C12.7176 20.8513 11.5945 21.0847 11.5101 21.1007C11.2957 21.1419 11.4445 20.9678 11.2672 21.0291C10.964 21.1336 11.2419 21.3148 10.7307 21.1158C10.5987 21.2687 10.5639 21.2199 10.3561 21.2732C10.3279 21.2805 10.3674 21.3347 10.3555 21.3399C10.0501 21.4785 10.2617 21.2939 10.2582 21.2883C10.1987 21.1931 9.87249 21.3386 9.79869 21.3492C8.86546 21.4852 8.18425 21.5899 7.2208 21.8177C7.01566 21.8667 6.39252 22.0735 6.18056 22.0965C6.14977 22.1005 6.12761 22.1013 6.11035 22.1002C6.00072 22.0954 6.05441 22.0194 5.95779 22.0073C5.83215 22.2259 5.67343 22.2848 5.26955 22.2346C5.15165 22.3945 5.15048 22.2846 4.88108 22.3546C4.65865 22.413 4.26944 22.6242 4.00088 22.5027C4.29449 22.491 4.25925 22.4277 4.57911 22.3483C4.68848 22.3341 5.80247 22.1247 5.68774 21.9983C5.63088 21.9368 5.27999 22.0748 5.26305 22.0632C5.16745 22.0011 5.35187 21.8701 5.53632 21.8663C5.49529 21.8908 5.4442 21.9174 5.39965 21.9423C5.82206 21.9565 5.46724 21.6458 5.84146 21.9018C5.88795 21.9329 5.88228 21.9772 5.95361 22.0054C5.96264 21.9853 5.87734 21.959 5.94104 21.9371C5.97613 21.9251 6.03334 21.9347 6.07974 21.9356C6.11634 21.9381 6.15529 21.9306 6.15481 21.897C6.15855 21.8534 6.11162 21.8454 6.06206 21.8477C5.98327 21.8543 5.88394 21.889 5.87077 21.8882C5.87068 21.8889 5.87059 21.8895 5.8705 21.8902C5.70335 21.8793 5.95738 21.8123 6.04721 21.7844C6.06329 21.7798 6.07349 21.7764 6.07581 21.7744C6.17927 21.6877 6.09028 21.6574 6.25225 21.5663C6.34536 21.5142 6.60313 21.4678 6.69719 21.4334C6.78746 21.3999 6.63035 21.3905 6.69126 21.364C6.74831 21.3387 6.84112 21.3524 6.90934 21.322C6.93969 21.3085 6.92443 21.2568 6.93949 21.2509C7.09973 21.1869 7.01766 21.3248 7.16816 21.2775C7.26193 21.2478 7.55914 21.0585 7.32942 21.0888C7.43118 21.0499 7.53682 21.0127 7.64036 20.9754C7.56789 20.9788 7.4981 20.9866 7.42533 20.9869C7.63342 20.9567 7.70046 20.8423 7.82393 20.8009C7.94989 20.7588 8.09196 20.8339 8.21519 20.7431C8.47971 20.5494 7.76085 20.8068 7.66618 20.811C7.62924 20.8128 7.73996 20.6922 7.76061 20.6839C7.85262 20.6471 7.97644 20.6769 8.04877 20.6537C8.30178 20.5719 8.43855 20.448 8.67745 20.3626C9.49647 20.0703 10.5134 19.7227 11.2969 19.4685C11.5871 19.3744 11.7901 19.4091 11.9217 19.3665C12.2265 19.2677 12.2447 19.1784 12.5088 19.0934C12.8137 18.9952 13.2177 18.9121 13.548 18.837L13.4874 18.8582C13.5903 18.8268 13.6832 18.7976 13.7613 18.7709C13.9913 18.6919 14.165 18.5399 14.2224 18.5153C15.0236 18.1698 16.0074 17.7747 16.6988 17.5082C17.0227 17.3835 17.2156 17.4071 17.2839 17.3797C17.5852 17.2624 17.4734 17.2209 17.744 17.1432C17.8927 17.1026 17.9491 17.1634 17.9686 17.1608C18.1783 17.1357 18.1771 17.0296 18.4581 17.0059C18.5799 17.0104 18.72 16.9685 19.0747 17.1337C19.3682 17.2848 19.5419 17.5328 19.6176 17.6629C19.6986 17.8023 19.7315 17.8833 19.7626 17.9487C19.9563 18.3642 20.1521 18.7963 20.3701 19.2318C20.3932 19.278 20.3538 19.2921 20.3709 19.3205C20.4451 19.4423 20.4726 19.3531 20.5445 19.4828C20.6946 19.7531 20.8267 20.0384 20.9655 20.3354C20.979 20.3642 20.9376 20.4004 20.9706 20.467C21.004 20.5342 21.0733 20.5604 21.1225 20.6663C21.2498 20.9406 21.3268 21.2359 21.4634 21.5257C21.4677 21.5348 21.4743 21.5434 21.4823 21.5517C21.5163 21.5861 21.5782 21.6172 21.6064 21.6769C21.7125 21.9015 21.819 22.2581 21.909 22.4512C22.2064 23.0878 22.5168 23.6558 22.8004 24.2527C22.8669 24.393 22.872 24.5426 22.9053 24.6162C22.9805 24.7821 22.9724 24.634 23.0515 24.8005C23.4886 25.7223 23.9148 26.653 24.3441 27.586C24.5504 28.0359 24.7545 28.4727 24.9637 28.944C25.0462 29.1339 25.1708 29.3969 25.2482 29.6833C25.2846 29.7927 25.3604 30.1412 25.271 30.4503C25.1873 30.7617 25.0299 30.962 24.8993 31.1052C24.6332 31.3834 24.4069 31.5117 24.199 31.6255C23.9409 31.7576 23.8618 31.705 23.6895 31.7836C23.5582 31.8419 23.4812 31.8933 23.4073 31.9469C23.3137 32.0158 23.2267 32.0877 23.047 32.1601C22.7944 32.2615 22.4747 32.2651 22.2178 32.355C21.9612 32.4444 21.8705 32.5741 21.5769 32.6765C21.335 32.7607 20.9828 32.8203 20.7203 32.9048C19.336 33.3511 17.9666 33.759 16.6278 34.1902C15.6531 34.5047 14.6837 34.8559 13.7044 35.2273C12.8869 35.5344 12.0045 35.9513 11.0922 36.2283C11.0051 36.2541 11.096 36.1173 10.8385 36.2422C10.6955 36.3096 10.5279 36.4664 10.1626 36.5913C9.74384 36.7145 9.30983 36.8971 8.57455 36.7683C8.16263 36.6599 8.03922 36.5021 7.90372 36.3855C7.77842 36.2633 7.68902 36.1507 7.6067 36.0391C7.44791 35.821 7.32375 35.6061 7.21231 35.3966C6.99001 34.9752 6.81334 34.5583 6.64785 34.1392C6.31952 33.3012 6.04873 32.4706 5.7706 31.6576C5.7214 31.5131 5.6747 31.3784 5.62444 31.2338C4.83145 28.9294 3.88124 26.6271 3.68634 24.396C3.64004 23.8596 3.63735 23.3266 3.69349 22.7987C3.70817 22.6572 3.95243 22.6743 4.03542 22.7349C4.00685 22.8181 3.96824 22.8975 3.93454 22.9853C4.24062 23.0098 4.16339 23.0136 4.22269 23.3679C4.25934 23.5872 4.33889 23.3867 4.40102 23.4922C4.46258 23.5973 4.65859 24.012 4.64912 24.1616C4.6459 24.2066 4.62345 24.2276 4.5716 24.2071C4.61448 24.2417 4.65549 24.2746 4.69787 24.3101C4.84915 24.8079 5.01678 25.2889 5.19365 25.7699C5.22418 25.8524 5.28395 25.8416 5.31552 25.9281C5.40012 26.1576 5.40878 26.3552 5.47664 26.5977C5.51322 26.7282 5.58614 26.7309 5.62582 26.9041C5.66595 27.0787 5.57317 27.0978 5.73372 27.3082C5.80859 27.1249 5.90307 27.831 5.9753 28.072C5.98554 28.1072 6.16558 28.3685 6.19536 28.5249C6.22532 28.6816 6.22342 28.9333 6.3267 29.1602C6.37522 29.2667 6.4739 29.3113 6.51228 29.4299C6.5391 29.5126 6.49708 29.6345 6.52457 29.7413C6.55215 29.8489 6.67717 30.0612 6.69062 30.103C6.73902 30.2528 6.64013 30.1011 6.6681 30.2049C6.72441 30.4121 6.78316 30.6324 6.84677 30.8522C6.93923 31.1717 7.04148 31.4901 7.1573 31.7678C7.18185 31.8271 7.21124 31.7235 7.21602 31.7312C7.42543 32.1126 7.27584 31.9202 7.26185 32.0476C7.24683 32.1744 7.55419 32.9252 7.65895 32.8936C7.5435 32.9644 7.70397 33.0958 7.72497 33.1374C7.80503 33.2965 7.6874 33.3128 7.78623 33.4585C7.82311 33.5132 7.84678 33.3679 7.87103 33.4319C7.93268 33.5937 7.87674 33.7809 7.96057 33.9946C7.98012 34.0444 8.03854 34.0386 8.07803 34.1266C8.11574 34.2155 8.23768 34.6042 8.25821 34.3861C8.28599 34.6438 8.35329 34.6638 8.49141 34.8993C8.52575 34.9563 8.49767 35.0823 8.60193 35.1803C8.63811 35.2139 8.7053 35.1601 8.74653 35.2119C8.79144 35.2673 8.82016 35.3325 8.84621 35.3877C8.86442 35.4424 8.92228 35.4881 8.84925 35.4662C8.85022 35.4665 8.8512 35.4667 8.85219 35.467C9.08425 35.525 9.52072 35.3483 9.92903 35.2246C10.0454 35.1892 10.0433 35.2831 10.2119 35.2209C10.2353 35.2123 10.4078 35.064 10.5241 35.0236C10.5954 34.9998 10.9718 34.8985 11.0485 34.8698C11.1694 34.8253 11.1584 34.7383 11.2315 34.7247C11.4391 34.6863 11.3358 34.8661 11.4988 34.6107C11.6098 34.6647 11.7428 34.5965 11.8313 34.684C11.8569 34.5348 12.0111 34.6003 12.1435 34.4967C12.2794 34.3915 12.3068 34.1128 12.4481 34.3393C12.5081 34.2785 12.7894 34.0993 12.8407 34.0736C12.987 33.9998 12.9344 34.101 13.0455 34.0439C13.065 34.034 13.0254 33.9963 13.1568 33.9471C13.2413 33.9143 13.8725 33.6626 13.9119 33.6558C14.3717 33.5595 13.6977 33.7927 13.6244 33.8819C13.6028 33.8754 13.5814 33.8687 13.5588 33.8627C13.3628 33.9168 13.5117 33.978 13.6063 33.9679C13.7009 33.9577 13.8435 33.8466 13.9273 33.8534C13.9696 33.8567 13.9968 33.9911 13.8851 34.018C14.0137 34.0117 13.8755 34.114 13.9347 34.1325C13.9986 34.1522 14.5163 33.9649 14.4936 33.8948C14.3953 33.9295 14.2783 33.9774 14.18 34.0126C14.0042 33.9426 14.2339 33.3764 14.6554 33.4085C14.9625 33.4317 14.5645 33.6844 15.1459 33.3596C15.0485 33.3889 14.9636 33.4068 14.8761 33.433C14.8336 33.3452 15.0096 33.3946 15.0721 33.3394C15.1019 33.3126 14.8631 33.3256 15.0426 33.2366C15.2484 33.3104 15.3266 33.1341 15.5948 33.0407C15.5277 33.0898 15.4623 33.1383 15.3944 33.1882C15.882 33.1259 14.8387 33.5221 15.7382 33.2713C15.6332 33.3116 15.5294 33.346 15.4239 33.3901C15.4923 33.4202 15.4591 33.5902 15.5156 33.6039C15.6652 33.6395 15.8225 33.5328 15.9745 33.4898C16.0397 33.4713 16.0125 33.5229 16.0181 33.5213C16.1068 33.4966 16.0689 33.4468 16.145 33.4178C16.1893 33.401 16.2776 33.384 16.3647 33.3686C16.464 33.3514 16.562 33.3362 16.5858 33.325C16.6992 33.2717 16.4665 33.2226 16.4751 33.2108C16.5346 33.1325 16.7027 33.1291 16.6728 33.0609C16.5832 33.1023 16.4464 33.151 16.3088 33.1941C15.8937 33.325 15.4549 33.41 16.1545 33.0818C15.8742 33.0581 15.8699 32.9031 16.173 32.77C16.1996 32.7583 16.2287 32.7468 16.2603 32.7357C16.5794 32.6234 16.391 32.7521 16.58 32.769C16.6052 32.7702 17.0443 32.6715 17.0518 32.616C17.069 32.7343 17.2395 32.7921 17.1808 32.9373C17.1721 32.9586 16.9945 33.0054 17.0844 33.0806C17.1293 33.1183 17.2484 33.1943 17.2524 33.2586C17.2759 33.2059 17.2994 33.1475 17.3227 33.0929C17.5823 33.0014 17.633 33.0356 17.8002 33.0708C17.7841 33.0402 17.6105 32.9428 17.8247 32.9245C17.8359 32.924 17.8593 32.9704 17.9693 32.9644C18.1913 32.9522 18.239 32.9548 18.1221 33.1458C18.5278 32.9375 18.6674 33.0717 19.0957 32.8968C18.954 32.7365 18.8117 32.8272 18.418 32.9807C18.3876 32.9417 18.3666 32.9004 18.3355 32.8611C18.9029 32.8044 18.6339 32.8717 18.9131 32.6936C18.9815 32.6499 19.3869 32.5584 19.2177 32.4717C19.1777 32.4514 18.9312 32.5263 18.9461 32.4717C18.9491 32.4613 19.2437 32.3518 19.2736 32.3562C19.6495 32.4078 19.0838 32.6833 19.9861 32.3636C20.0109 32.3547 20.0041 32.2981 20.0511 32.2762C20.14 32.2351 20.1596 32.2973 20.2382 32.2587C20.3163 32.2202 20.4076 32.1021 20.5548 32.1432C20.8253 32.2174 20.3101 32.4579 20.0482 32.4521C20.0041 32.6684 21.7224 32.164 21.8253 32.1073C22.2688 31.8909 21.5077 32.1762 21.4513 32.1359C21.4279 32.1194 21.3537 31.8423 21.2117 32.0801C21.1696 32.1506 21.4337 32.1462 21.2977 32.2194C21.1618 32.2925 21.195 32.1941 21.1827 32.1917C21.1415 32.1831 20.9958 32.2596 20.9731 32.2538C20.6145 32.1708 20.5651 31.8994 21.0864 32.1668C21.2367 32.0258 20.7885 32.0079 20.9906 31.8822C21.234 31.73 21.4664 31.7947 21.5014 31.79C21.9222 31.7311 21.4044 31.6948 21.9094 31.5977C22.1909 31.542 21.5433 31.8505 22.158 31.637C22.6743 31.4518 22.3711 31.4832 22.3602 31.3278C22.3572 31.2913 22.6217 31.154 22.2464 31.3C22.2484 31.3409 22.245 31.3968 22.2324 31.4394C22.1284 31.4442 21.9112 31.3081 21.8584 31.3179C21.6056 31.365 21.6479 31.4584 21.4669 31.389C21.61 31.4823 21.4178 31.4593 21.3634 31.5052C21.1575 31.6757 21.4786 31.6182 20.9118 31.6522C20.999 31.6905 21.0772 31.7302 21.1629 31.7684C21.099 31.7901 21.0378 31.8109 20.9744 31.8322C20.8401 31.7307 20.5084 31.8475 20.7744 31.6252C20.3968 31.6973 20.2568 31.7687 20.2053 31.8941C20.1957 31.918 20.143 31.9418 20.0785 31.9627C20.0991 31.9877 20.1406 32.0714 20.1335 32.0852C20.0692 32.2073 19.8795 32.0839 19.9096 32.0071C19.8633 32.0173 19.8262 32.0242 19.813 32.0264C19.7294 32.0401 19.8713 31.9373 19.8002 31.9368C19.7765 31.9369 19.5535 32.0148 19.5422 31.9931C19.4721 31.8528 19.8766 31.8518 19.101 31.9826C19.1218 32.1227 19.4622 31.9922 19.4139 32.1613C19.3619 32.343 19.1065 32.1932 19.1179 32.3944C19.0929 32.3679 19.0784 32.3441 19.0545 32.3127C18.7744 32.4828 18.7249 32.3268 18.6219 32.3191C18.4218 32.3033 17.5954 32.556 18.3797 32.4746C18.2747 32.5199 18.1656 32.5585 18.0607 32.6023C17.9534 32.3284 18.0525 32.42 17.5175 32.5319C17.3997 32.5567 17.3254 32.4443 17.2565 32.625C17.2286 32.4763 16.9142 32.6664 16.8777 32.6588C16.6386 32.6074 17.3492 32.2188 17.5219 32.4457C17.6203 32.3085 17.6584 32.4398 17.796 32.3803C17.9944 32.2947 18.0158 32.2607 18.2884 32.2863C18.4893 32.0791 17.3286 32.5024 17.9929 32.1109C18.513 31.7859 21.355 30.9343 22.7478 30.3274C23.0872 30.1776 23.3248 30.0411 23.4327 29.9647C23.5398 29.8946 23.6071 29.8101 23.5673 29.8495C23.5496 29.8685 23.5035 29.951 23.4927 30.0459C23.4802 30.1388 23.5023 30.2013 23.4815 30.1324C23.326 29.6777 22.9461 28.9746 22.6647 28.3704C22.4979 28.0221 22.3231 27.6515 22.1289 27.2331C22.0606 27.0856 21.5258 25.9838 21.7828 26.1435C21.82 26.1671 22.1013 26.6167 22.025 26.1529C21.9955 26.2687 21.837 26.0489 21.8204 26.0325C21.4372 25.6478 21.5236 25.9342 21.1773 25.2074ZM21.473 22.4198C21.8941 23.3865 21.659 22.6406 21.9774 22.7313C21.9197 22.609 21.8621 22.4869 21.8043 22.3646C21.8058 22.404 21.8069 22.442 21.808 22.4805C21.8081 22.4806 21.8082 22.4808 21.8082 22.4809C21.6972 22.4619 21.5844 22.4393 21.473 22.4198ZM7.11459 20.9831C7.14434 20.9412 7.17432 20.8993 7.20911 20.8567C7.34455 20.8306 7.47943 20.804 7.61544 20.777C7.60523 20.8028 7.59572 20.8287 7.58569 20.8544C7.43128 20.896 7.2694 20.939 7.11459 20.9831ZM19.9166 32.5277C19.7025 32.4952 19.764 32.6461 19.4925 32.6477C19.5565 32.7536 19.6232 32.8561 19.6884 32.9604C19.8751 32.8881 19.9054 32.832 20.1222 32.7995C20.0873 32.7696 20.0517 32.7397 20.0172 32.7094C19.9848 32.7274 19.9503 32.7472 19.919 32.7639C19.8355 32.6762 20.164 32.5641 19.9172 32.5272C19.917 32.5274 19.9168 32.5275 19.9166 32.5277ZM17.9948 33.1357C17.889 33.1505 17.472 33.2137 17.4316 33.2779C17.295 33.4935 18.3924 33.0553 17.604 33.446C17.6145 33.4674 17.6173 33.4907 17.624 33.513C17.7774 33.4757 17.9307 33.4376 18.0855 33.3988C18.051 33.3121 18.0305 33.2225 17.9948 33.1357ZM23.1166 25.8562C23.1744 26.0089 23.5765 26.6776 23.565 26.4034C23.5609 26.3216 23.2765 26.0747 23.2258 25.9518C23.1934 25.8731 23.3096 25.9241 23.21 25.7848C23.18 25.8072 23.1451 25.8288 23.117 25.8566C23.1169 25.8565 23.1167 25.8563 23.1166 25.8562ZM22.5474 25.7871C22.6329 25.9334 22.7225 26.0792 22.809 26.2258C22.8422 26.0733 22.6832 25.8793 22.7981 25.8095C22.8271 25.8472 22.8555 25.8837 22.8846 25.9217C22.8734 25.9664 22.8618 26.0105 22.8502 26.0545C22.9775 26.154 22.9733 26.0606 23.0694 26.3137C23.1826 26.0798 23.2677 26.0059 22.8848 25.6735C23.0215 25.7062 23.3093 25.4788 22.9685 25.3553C22.9051 25.332 22.9624 25.5275 22.9565 25.5326C22.8848 25.6005 22.7832 25.5255 22.7172 25.5933C22.6873 25.6239 22.74 25.7341 22.6976 25.7746C22.6766 25.7938 22.5568 25.7214 22.5474 25.7871ZM22.8344 25.2808C22.9081 25.3037 22.9538 25.0848 22.863 24.9569C22.7215 24.757 22.7681 25.1554 22.8344 25.2808ZM7.11377 20.9834C7.11404 20.9833 7.11431 20.9832 7.11459 20.9831C7.11448 20.9832 7.11436 20.9834 7.11426 20.9835C7.11409 20.9835 7.11393 20.9834 7.11377 20.9834ZM18.5357 33.0459C18.4297 33.127 18.2512 33.1719 18.2858 33.2418C18.2235 33.2443 18.1607 33.2473 18.0986 33.2499C18.1057 33.2719 18.1133 33.2937 18.1203 33.3155C18.2985 33.278 18.4767 33.241 18.6555 33.2043C18.6163 33.1513 18.5787 33.0977 18.5357 33.0459ZM16.6253 33.5644C16.4058 33.6259 16.6194 33.6677 16.5871 33.7309C16.5749 33.7549 16.5379 33.7729 16.4995 33.7895C16.4355 33.8168 16.3674 33.8402 16.3953 33.8784C16.435 33.8664 16.4755 33.8543 16.5163 33.8422C16.605 33.8158 16.6971 33.7886 16.7858 33.7626C16.7284 33.6981 16.6806 33.6291 16.6249 33.5646C16.625 33.5645 16.6252 33.5645 16.6253 33.5644ZM19.6177 18.5302C19.6687 18.6774 19.5685 18.658 19.7933 18.8866C19.7932 18.8864 19.7931 18.8862 19.793 18.886C19.7255 18.6343 19.6257 18.333 19.4736 18.0932C19.4518 18.0594 19.4273 18.0231 19.3977 17.983C19.4041 18.0382 19.4122 18.0807 19.4239 18.1181C19.4665 18.2516 19.5562 18.3519 19.6177 18.5302ZM20.5065 32.6009C20.5519 32.5217 20.2427 32.5573 20.1937 32.6326C20.115 32.7545 20.4363 32.7215 20.5065 32.6009ZM13.6332 19.7414C13.5299 19.898 13.6737 19.9879 13.901 19.9801L13.9226 19.9726C14.0666 19.9568 14.2342 19.9022 14.3914 19.8012C14.427 19.7784 14.1196 19.8326 14.1902 19.7641C14.1977 19.7572 14.3553 19.7003 14.3829 19.6603C14.411 19.6201 14.3479 19.5773 14.4006 19.5282C14.496 19.441 14.7751 19.4227 14.8353 19.3337C14.8435 19.3218 14.658 19.3046 14.6466 19.3057C14.4712 19.3202 14.355 19.4842 14.3327 19.4938C14.209 19.5465 14.1959 19.4589 14.1565 19.4526C14.0815 19.4411 13.9901 19.5178 13.9818 19.5181C13.763 19.5225 14.2088 19.3711 14.2555 19.3191C14.3828 19.1788 14.2092 19.1635 14.572 18.9693C14.6072 18.9505 15.0398 18.7848 14.4593 18.9106C15.4583 18.2986 13.88 19.017 13.7215 19.1252C13.648 19.176 13.8006 19.2046 13.765 19.2583C13.7426 19.2921 13.7121 19.3234 13.6807 19.3532L13.7048 19.3448C13.6171 19.417 13.5273 19.4777 13.5654 19.5565C13.6217 19.6714 13.7027 19.6684 13.7944 19.6349C13.8793 19.5965 13.973 19.5277 14.0648 19.5142C14.0669 19.5719 14.0795 19.624 14.0657 19.6866C14.0802 19.6363 13.9397 19.6596 13.8134 19.6931C13.7203 19.7108 13.6382 19.7331 13.633 19.7409C13.6331 19.7411 13.6331 19.7412 13.6332 19.7414ZM16.2514 18.4131C16.5204 18.3884 16.4463 18.2473 16.7 18.2455C16.8464 18.036 16.4609 18.1962 16.4139 18.2064C16.1945 18.2542 16.1435 18.1082 15.9516 18.2353C16.0558 18.2924 16.1504 18.3544 16.2514 18.4131ZM14.1323 19.1826C14.2631 19.0451 13.9769 19.1591 13.9584 19.1498C13.7728 19.0482 14.6463 18.7383 14.1323 19.1826ZM23.2586 26.9057C23.2915 26.9884 23.3371 26.9049 23.3906 26.9655C23.444 27.0253 23.4979 27.2948 23.5385 27.2688C23.578 27.2404 23.4842 26.7483 23.7164 27.1798C23.7336 27.1533 23.7541 27.1498 23.7727 27.1322C23.7161 27.01 23.6596 26.8868 23.6028 26.7643C23.5648 26.8652 23.5221 26.9658 23.4854 27.0634C23.397 27.0199 23.4511 26.9495 23.4493 26.9455C23.4492 26.9456 23.4491 26.9456 23.449 26.9456C23.3832 26.8201 23.1858 26.7224 23.2586 26.9057ZM20.4817 20.5388C20.2981 20.6013 20.5835 20.6927 20.6422 20.7577C20.7019 20.8248 20.6896 20.9606 20.7443 20.8847C20.7341 20.7348 20.5025 20.5322 20.4815 20.539C20.4816 20.5389 20.4816 20.5389 20.4817 20.5388ZM17.576 17.9082C17.7705 17.7921 17.7229 17.7524 18.007 17.7264C17.984 17.6847 17.9602 17.6422 17.9366 17.6015C17.7183 17.6671 17.7756 17.791 17.5214 17.8218C17.4799 17.8271 17.5274 17.6954 17.3633 17.7913C17.4326 17.8273 17.508 17.8681 17.576 17.9082ZM18.9955 17.68C18.9484 17.6396 18.8913 17.6073 18.8354 17.5878C18.4755 17.4852 18.455 17.6421 18.428 17.686C18.4323 17.7603 18.4238 17.731 18.7291 17.7895C18.7714 17.8038 18.8199 17.8248 18.8698 17.854C18.9525 17.9007 19.2574 17.9581 18.9955 17.68ZM22.2678 24.8282C22.4397 25.2166 22.2881 24.7546 22.293 24.6301C22.7577 25.5035 22.2311 24.536 22.3623 24.3646C22.261 24.2787 22.0512 24.1284 22.1285 24.3695C22.1609 24.4702 22.1961 24.4111 22.1986 24.4169C22.2684 24.5971 22.1739 24.6163 22.2678 24.8282ZM15.8357 18.5878C15.8495 18.5793 15.8024 18.5282 15.8446 18.4975C15.8855 18.4673 16.0123 18.4659 16.0076 18.4249C16.0032 18.3836 15.7769 18.4399 15.721 18.4936C15.6647 18.5477 15.7098 18.6647 15.8357 18.5878ZM17.4152 18.1461C17.5994 18.0292 17.1897 17.9242 17.1445 17.943C16.7665 18.0992 17.4004 18.0696 17.4152 18.1461ZM21.4785 24.1118C21.8076 24.5217 21.8378 24.0933 21.8142 23.7494C21.7728 23.7222 21.731 23.6941 21.6901 23.6675C21.9135 23.7738 22.1979 24.012 21.7528 23.3935C21.8961 23.78 21.7102 23.4872 21.7012 23.4888C21.423 23.5712 21.8044 24.063 21.4783 24.1114C21.4783 24.1116 21.4784 24.1117 21.4785 24.1118ZM15.1696 18.779C14.9622 18.8626 14.4445 19.1207 14.7407 19.1379C14.8832 19.0186 15.0258 18.8991 15.1696 18.779ZM23.0971 30.8981C23.0587 30.8984 23.0212 30.9014 22.9838 30.9068C22.8444 30.9252 22.7138 30.9769 22.5508 31.04C22.7733 31.0693 22.6559 31.1252 22.6001 31.1725C22.5155 31.244 22.7503 31.1553 22.7515 31.1618C22.7828 31.2549 22.6379 31.328 22.9771 31.1951C22.9064 31.2598 22.8334 31.3245 22.7624 31.3871C22.9481 31.3219 23.0458 31.3184 23.1542 31.3253C23.2009 31.3273 23.2491 31.3309 23.3055 31.332C23.0714 31.2209 23.3309 31.2464 23.4781 31.0718C23.548 30.9867 23.1937 30.8989 23.0965 30.8983C23.0967 30.8982 23.0969 30.8981 23.0971 30.8981ZM21.6703 24.6059C21.7242 24.6387 21.7872 24.662 21.8448 24.691C21.872 24.7395 21.8988 24.7884 21.926 24.8369C21.9012 24.8563 21.8747 24.8752 21.8515 24.895C21.8747 24.9649 21.9011 24.9209 21.914 24.9388C21.9139 24.9389 21.9137 24.9389 21.9136 24.939C22.0981 25.1965 22.1469 25.3145 22.1657 25.5759C22.2506 25.5358 22.3355 25.4956 22.4204 25.4555C22.3888 25.4097 22.3571 25.3631 22.3258 25.3174C22.2678 25.3126 22.2096 25.3077 22.1515 25.3029C22.1495 25.2335 22.1475 25.1648 22.1455 25.0956C22.1074 25.0573 22.0639 25.0102 22.0291 24.978C22.1578 24.6366 22.2432 25.2334 22.3439 25.1916C22.4086 25.1646 22.1576 24.6417 22.078 24.5868C22.0665 24.579 21.9436 24.7758 21.9447 24.5407C21.945 24.5038 22.3219 24.3118 21.9145 24.2519C21.8567 24.2433 21.6682 24.4587 21.6703 24.6059ZM22.4469 26.5675C22.5527 26.1573 22.8066 27.3682 22.7869 26.8037C22.9621 26.8841 22.9489 26.8599 22.9855 26.6787C22.9889 26.6627 23.0635 26.741 23.0637 26.7312C23.0597 26.5798 22.9585 26.4406 23.0582 26.3927C23.0368 26.3611 23.0167 26.3307 22.9953 26.2991C22.9681 26.486 22.7984 26.2901 22.6773 26.2395C22.6224 26.2164 22.6547 26.3138 22.6073 26.2949C22.5897 26.2874 22.5528 26.1496 22.5172 26.1597C22.4376 26.1844 22.374 26.311 22.3836 26.474C22.3835 26.474 22.3834 26.474 22.3833 26.4741C22.4043 26.5059 22.4258 26.5361 22.4469 26.5675ZM19.6301 20.1973C19.7377 20.0795 19.675 19.8616 19.9342 20.2099C19.9511 20.1782 19.9671 20.1451 19.9836 20.1127C19.9487 20.0496 19.9143 19.9878 19.8792 19.9245C19.3871 19.929 19.6445 19.3463 19.4854 19.718C19.4675 19.7574 19.5802 19.893 19.4207 19.785C19.4207 19.7852 19.4207 19.7854 19.4208 19.7857C19.5535 19.9811 19.6145 19.9842 19.6301 20.1973ZM20.425 21.56C20.9463 21.9101 20.2517 20.8073 20.2722 21.04C20.2738 21.0593 20.5803 21.5307 20.425 21.56ZM18.379 18.3459C18.5623 18.3156 18.526 18.167 18.5281 18.1009C18.5165 18.0344 18.3676 18.1161 18.348 18.1129C18.2766 18.0952 18.4105 18.0463 18.3168 18.0209C18.2856 18.0059 17.8592 18.0697 17.8442 18.0858C17.7541 18.1587 17.9484 18.2415 17.9236 18.2666C17.8454 18.3476 17.6953 18.3233 17.6937 18.403C17.6892 18.5729 17.8667 18.3335 17.9082 18.3176C18.0249 18.2713 18.0424 18.3598 18.1361 18.3499C18.2268 18.3416 18.2776 18.296 18.3507 18.2859C18.3756 18.2826 18.3686 18.3476 18.379 18.3459ZM18.891 18.3536C18.7985 18.2844 18.7676 18.3442 18.7691 18.4455C18.7709 18.5926 18.8423 18.8235 18.8784 18.8542C19.046 18.996 19.0047 18.504 18.9109 18.3746C18.9045 18.3658 18.8979 18.3589 18.891 18.3536ZM22.4678 25.6553C22.2841 25.4844 22.4477 26.0072 22.5477 26.1315C22.5702 26.0884 22.5311 25.7141 22.4678 25.6553ZM21.4181 23.9836C21.5362 24.1645 21.6037 23.8178 21.524 23.6581C21.3544 23.6227 21.4217 23.7004 21.4666 23.808C21.5114 23.9155 21.3258 23.8424 21.4181 23.9836ZM15.8993 19.09C15.9454 19.0739 16.5922 18.695 16.1786 18.8079C16.1453 18.8172 15.6721 19.0269 15.6406 19.0622C15.582 19.1317 15.7892 19.1272 15.8993 19.09ZM20.7928 23.1456C20.9487 23.1951 20.996 23.2979 21.0772 23.1428C21.0771 23.1427 21.077 23.1425 21.077 23.1424C21.2391 23.3822 20.9862 23.5179 21.0181 23.5705C21.1306 23.7565 21.2264 23.4835 21.3454 23.5775C21.1528 23.3198 21.3156 23.3418 21.2205 23.1223C21.1987 23.0723 21.0321 22.9142 20.9722 22.9076C20.9124 22.9013 20.8216 23.067 20.7928 23.1456ZM14.9338 19.5055C15.186 19.4548 15.3251 19.1915 14.9919 19.2907C14.8268 19.3399 14.7824 19.5355 14.9338 19.5055ZM17.454 32.5863C17.5053 32.6239 17.5576 32.6609 17.6115 32.6973C17.5258 32.7356 17.4411 32.7739 17.3554 32.8127C17.4213 32.7762 17.4867 32.7401 17.5532 32.7039C17.3813 32.7367 17.2785 32.6713 17.4535 32.5864C17.4537 32.5864 17.4538 32.5863 17.454 32.5863ZM11.6071 34.7248C11.5186 34.7102 11.4353 34.9112 11.4586 34.9139C11.6296 34.9354 11.7322 34.7442 11.6071 34.7248ZM22.1994 26.1622C22.304 26.4334 22.4409 26.1475 22.3808 25.9807C22.3845 26.0987 22.1404 26.009 22.1994 26.1622ZM13.6244 33.8819C13.6566 33.8918 13.689 33.9015 13.7242 33.9101C13.6273 33.9174 13.6054 33.905 13.6244 33.8819ZM16.0904 19.2476C16.1377 19.2491 16.4454 19.1438 16.4795 19.1053C16.5461 19.0262 16.2612 18.993 16.1354 19.0879C16.1223 19.0979 16.0428 19.2463 16.0911 19.2474C16.0909 19.2475 16.0906 19.2475 16.0904 19.2476ZM17.0505 32.6094C17.0517 32.6115 17.0521 32.6137 17.0518 32.616C17.0515 32.6138 17.0508 32.6116 17.0505 32.6094ZM7.66855 32.8873C7.66561 32.8903 7.66242 32.8925 7.65895 32.8936C7.66204 32.8917 7.66506 32.8891 7.66855 32.8873ZM18.266 18.6562C18.4251 18.8521 18.5482 18.7001 18.3922 18.6159C18.3839 18.6111 18.289 18.6495 18.266 18.6562ZM32.9531 17.5645C32.1233 15.0205 31.0875 12.2682 30.2597 9.62125C30.1939 9.41052 30.1297 9.20209 30.0668 8.99476C29.9618 8.64856 30.0342 8.65118 30.0122 8.55191C29.9524 8.28039 29.8261 8.14448 29.7717 7.9502C29.5065 7.00302 29.2528 6.12177 29.004 5.19304C28.7482 4.2363 29.0836 4.62513 29.0358 4.28217C28.9423 3.60975 28.8399 4.23486 28.7062 4.0001C28.5741 3.51507 28.4466 3.02354 28.3177 2.54555C28.2494 2.29393 28.182 2.04694 28.1123 1.85483C28.1916 1.97614 28.2729 2.13666 28.3506 2.30052C28.2594 1.98901 28.1471 1.59812 28.389 2.03599C28.3699 1.92097 28.3551 1.81502 28.3307 1.71261C28.2801 1.7208 28.1991 1.61026 28.1426 1.57382C28.0834 1.53595 28.0915 1.57574 28.0779 1.59853C28.059 1.65775 28.0261 1.61733 28.0376 1.63358C28.0254 1.64323 28.0116 1.6433 28.0284 1.65876C28.0453 1.6759 28.08 1.67238 28.0115 1.6583C27.8772 1.63043 27.5246 1.6571 27.3728 1.66979C27.3249 1.67384 27.2922 1.6765 27.2797 1.67743C27.0219 1.69689 27.2245 1.53804 27.0102 1.58133C26.6378 1.65797 26.9316 1.86326 26.3697 1.6212C26.1869 1.76519 26.1628 1.71175 25.906 1.75258C25.8725 1.758 25.9102 1.81516 25.8959 1.81957C25.5236 1.93918 25.7949 1.76704 25.7912 1.76126C25.7364 1.6612 25.3338 1.79003 25.2452 1.79826C24.136 1.89966 23.3172 1.99782 22.1919 2.31498C21.9566 2.37835 21.2154 2.68733 21.0804 2.78333C21.0593 2.79499 21.0549 2.79893 21.0621 2.77884L21.0921 2.6498C21.0764 2.76902 21.0072 2.70219 20.9894 2.81129C21.2043 2.98454 21.2498 3.15166 21.2429 3.62003C21.4186 3.74708 21.3043 3.75437 21.422 4.05749C21.4465 4.11976 21.4831 4.19126 21.5237 4.26846C21.6446 4.51662 21.7846 4.81701 21.741 5.05877C21.7403 5.06252 21.7396 5.06626 21.7389 5.06998C21.7382 5.06654 21.7375 5.06314 21.7368 5.05978C21.669 4.73274 21.6142 4.77726 21.4765 4.41286C21.4699 4.3957 21.4572 4.35514 21.4392 4.29854C21.3098 3.95875 21.0666 3.02711 20.9756 3.12897C20.9106 3.19515 21.0776 3.61584 21.0711 3.63435C21.0213 3.75185 20.8621 3.53337 20.8481 3.30531C20.8753 3.35671 20.9058 3.41859 20.935 3.47295C20.9234 2.96623 20.6231 3.37138 20.8789 2.9379C20.9115 2.88548 20.9555 2.89671 20.9873 2.81595C20.9675 2.80278 20.9371 2.90126 20.9181 2.82272C20.9084 2.78217 20.92 2.71999 20.9256 2.66709L20.9203 2.69002C20.9495 2.66649 20.9883 2.64601 20.976 2.61154C20.9642 2.5701 20.9068 2.57153 20.8451 2.64293L20.8359 2.65675L20.8374 2.67625C20.8382 2.76962 20.8671 2.88615 20.8661 2.90121C20.8667 2.90139 20.8674 2.90157 20.868 2.90175C20.8536 3.09749 20.7929 2.80365 20.7742 2.68282L20.7709 2.63973L20.7913 2.60919C20.8137 2.57145 20.8353 2.55264 20.8359 2.54917C20.9441 2.38691 20.8199 2.40733 21.02 2.24143C21.1312 2.15053 21.4516 2.0438 21.5609 1.99562C21.6742 1.94439 21.4764 1.96417 21.5512 1.92619C21.6247 1.88868 21.735 1.88931 21.8186 1.84877C21.8555 1.83088 21.8368 1.78035 21.8553 1.77227C22.0495 1.68738 21.9525 1.83623 22.1321 1.77242C22.2479 1.73054 22.6173 1.51366 22.3323 1.56505C22.4633 1.51479 22.5887 1.4706 22.7168 1.4261C22.6319 1.43309 22.5396 1.44799 22.4551 1.45286C22.7107 1.40584 22.7983 1.28688 22.9509 1.23869C23.1067 1.18996 23.2743 1.26084 23.4302 1.16603C23.7697 0.962038 22.8739 1.24289 22.7569 1.25768C22.7106 1.26197 22.8572 1.13198 22.882 1.1229C22.9961 1.08094 23.1465 1.10576 23.2363 1.07991C23.5519 0.988696 23.7279 0.862081 24.0308 0.774833C24.9806 0.500383 26.1587 0.23317 27.1184 0.0623744C27.1996 0.0479004 27.2795 0.0344682 27.3592 0.0223901C27.7722 -0.0393436 28.1166 0.0365357 28.4444 0.116568C29.2574 0.382736 29.3858 0.651357 29.6234 1.05484C29.7862 1.39726 29.8651 1.72852 29.9428 2.04005C30.0076 2.30776 30.0648 2.56437 30.1143 2.75431C30.1883 3.03798 30.337 3.26789 30.3602 3.33945C30.6841 4.33973 31.0429 5.55806 31.297 6.3851C31.4162 6.77412 31.39 6.98372 31.4174 7.06393C31.5344 7.40505 31.577 7.29074 31.657 7.57251C31.7003 7.72444 31.6409 7.77375 31.6446 7.79488C31.6784 7.9811 31.778 7.98623 31.825 8.12478C31.9271 8.42509 32.0181 8.72462 32.1056 9.0243C32.2475 9.50975 32.382 9.99585 32.5407 10.4841C32.5593 10.5414 32.5183 10.5494 32.5328 10.5856C32.5959 10.7405 32.6327 10.6459 32.6933 10.8101C32.8196 11.1507 32.9304 11.5075 33.0482 11.8754C33.0599 11.9118 33.0152 11.9453 33.0437 12.0282C33.0722 12.1112 33.1415 12.1573 33.1838 12.2885C33.2941 12.6309 33.3533 12.9865 33.4748 13.3483C33.495 13.4081 33.5811 13.4612 33.6114 13.551C33.7065 13.8329 33.7949 14.2684 33.8756 14.5106C34.1424 15.3094 34.4265 16.0354 34.6746 16.7934C34.7328 16.9718 34.7273 17.1482 34.7558 17.2415C34.8198 17.4512 34.8229 17.2766 34.8909 17.4893C35.0272 17.9167 35.1589 18.3471 35.285 18.7809C35.6672 20.0978 36.0337 21.4183 36.392 22.7656C36.5782 23.4677 36.8488 24.3125 36.9749 25.0255C37.0266 25.3232 36.96 25.3944 36.9946 25.6091C37.0472 26.0217 37.1807 26.0022 37.1772 26.6185C37.1721 26.6905 37.1628 26.7793 37.1285 26.9028C37.0793 27.0244 37.0731 27.2262 36.7061 27.5151C36.2268 27.7948 35.9791 27.752 35.7323 27.8401C35.4095 27.9359 35.291 28.0648 34.9324 28.1671C34.8621 28.187 34.7832 28.2058 34.6986 28.2241C34.4413 28.2797 34.1466 28.3287 33.907 28.3943C31.9826 28.9297 29.9415 29.4689 28.1972 30.0259C28.1636 30.0362 28.0614 30.0894 27.8464 30.1132C27.6319 30.1417 27.334 30.0686 27.1733 29.9682C26.8439 29.7613 26.7894 29.6197 26.712 29.5175C26.5808 29.31 26.527 29.1738 26.467 29.0331C26.3544 28.7571 26.2758 28.5154 26.1981 28.2681C26.0456 27.7771 25.9173 27.2967 25.7954 26.8153C25.6684 26.3122 25.531 25.7842 25.4032 25.253C25.2647 24.677 25.1353 24.0897 25.0427 23.5215C25.0257 23.4174 25.1548 23.5488 25.0551 23.2331C25.0008 23.0607 24.8629 22.8415 24.7582 22.4383C24.142 20.0627 23.6931 17.4762 23.0785 15.0598C22.5288 12.8992 21.7585 10.7325 21.2713 8.62831C20.9419 7.20635 20.7395 5.8074 20.8181 4.44598C20.8277 4.28014 21.0747 4.31027 21.1612 4.38774C21.1355 4.48477 21.0996 4.57735 21.0689 4.67979C21.3796 4.72597 21.3009 4.72348 21.3752 5.15005C21.4208 5.4127 21.4931 5.17712 21.5602 5.30696C21.6472 5.47531 21.9865 6.28207 21.7603 6.16507C21.8052 6.20942 21.8478 6.25007 21.8917 6.29324C22.0644 6.89461 22.2515 7.47429 22.4465 8.05628C22.4803 8.15679 22.5404 8.14754 22.5749 8.25143C22.582 8.27267 22.5887 8.29366 22.5949 8.31444C22.6694 8.56044 22.6884 8.78588 22.7583 9.05641C22.8003 9.21914 22.8721 9.21839 22.9179 9.43065C22.9643 9.64596 22.8693 9.65509 23.0377 9.91934C23.109 9.70645 23.2223 10.5561 23.2989 10.8466C23.3105 10.8914 23.4965 11.2129 23.5295 11.4044C23.5623 11.5942 23.5637 11.8942 23.6699 12.1731C23.7197 12.3038 23.8201 12.3669 23.8598 12.5132C23.8875 12.6152 23.8449 12.7543 23.873 12.8855C23.9013 13.0173 24.0272 13.2838 24.0405 13.335C24.0889 13.5202 23.9894 13.3269 24.0173 13.4549C24.1526 14.072 24.2967 14.7927 24.4762 15.3905C24.4982 15.4637 24.5329 15.3468 24.5372 15.356C24.7314 15.8432 24.5893 15.5925 24.5689 15.7417C24.5493 15.8868 24.8104 16.8468 24.9155 16.8291C24.7934 16.89 24.944 17.081 24.9613 17.136C25.0286 17.3499 24.9064 17.3344 24.992 17.5365C25.0233 17.6107 25.0625 17.442 25.0804 17.5255C25.1244 17.7314 25.0481 17.947 25.1021 18.2224C25.1151 18.2889 25.1744 18.2972 25.2011 18.4153C25.228 18.5339 25.2812 19.0404 25.3402 18.7863C25.3216 19.1074 25.3864 19.1554 25.4686 19.5026C25.4894 19.5911 25.4301 19.7261 25.5027 19.9058C25.5274 19.9667 25.6106 19.9432 25.6349 20.0392C25.6907 20.2589 25.6529 20.4803 25.7184 20.7607C25.8385 21.2768 26.0366 21.8143 26.1492 22.357C26.1798 22.5049 26.0862 22.4889 26.1376 22.7009C26.1457 22.733 26.2834 22.9727 26.3128 23.1182C26.3318 23.2112 26.3949 23.6752 26.4156 23.7732C26.4481 23.9282 26.5363 23.9337 26.5414 24.0201C26.5576 24.274 26.3883 24.1126 26.6268 24.3601C26.5597 24.4759 26.6137 24.6471 26.516 24.7301C26.6061 24.7709 26.6101 24.845 26.6193 24.9353C26.6262 24.997 26.6353 25.0658 26.6711 25.1365C26.7612 25.3127 27.0414 25.4117 26.7983 25.5244C26.8518 25.6016 27.0078 25.9699 27.029 26.0318C27.092 26.2194 26.9939 26.1376 27.0419 26.2746C27.0502 26.2986 27.0908 26.2587 27.1313 26.4227C27.1544 26.5238 27.3749 27.2992 27.3821 27.3397C27.4654 27.8815 27.2482 27.0711 27.1666 26.9749C27.1744 26.9507 27.1822 26.9267 27.1894 26.9008C27.1467 26.6663 27.075 26.8257 27.0801 26.9381C27.0859 27.0533 27.1909 27.2329 27.1814 27.3298C27.1761 27.3767 27.0394 27.3922 27.0155 27.2543C27.0178 27.4085 26.918 27.2264 26.8972 27.2939C26.872 27.3668 27.0553 28.0036 27.13 27.9848C27.0937 27.8658 27.0449 27.7191 27.0119 27.6007C27.0899 27.4091 27.6488 27.7477 27.6288 28.2132C27.6221 28.5455 27.3296 28.1287 27.7181 28.7438C27.675 28.6495 27.6494 28.5582 27.6155 28.459C27.7007 28.4116 27.6655 28.6093 27.7288 28.6672C27.7575 28.6942 27.7228 28.4544 27.8279 28.627C27.8048 28.7146 27.8311 28.7786 27.8613 28.8014C27.872 28.8117 27.8962 28.8041 27.8367 28.7616C27.7671 28.7081 27.6225 28.7436 27.6883 28.715C27.7324 28.6924 27.7809 28.6715 27.834 28.653C27.7889 28.6816 27.7436 28.7108 27.6986 28.7416C27.6565 28.7728 27.7096 28.7526 27.7882 28.7845C27.6407 28.7858 27.7131 28.8137 27.7259 28.8118C27.7429 28.8152 27.7439 28.824 27.7353 28.8359C27.7231 28.8552 27.7 28.8694 27.7339 28.8756C27.7724 28.8851 27.7887 28.9128 27.7755 28.9136C27.7612 28.909 27.7205 28.9611 27.7763 28.9415C27.835 28.9231 27.9054 28.9029 27.9911 28.8791C27.9197 28.9054 27.8533 28.9287 27.7824 28.9574C27.7175 28.9816 27.7473 28.975 27.7369 28.9775C27.7412 29.0371 27.601 29.1324 27.6424 29.1897C27.7008 29.2547 27.8323 29.2412 27.8848 29.2211C27.9979 29.19 28.133 29.1241 28.2525 29.0915C28.331 29.0701 28.2947 29.1238 28.3015 29.1219C28.4074 29.0937 28.3682 29.0439 28.4597 29.0121C28.5758 28.9714 28.9335 28.9268 28.9873 28.9048C29.1248 28.8477 28.8566 28.8034 28.8661 28.7917C28.9419 28.7107 29.1427 28.7022 29.112 28.634C28.6752 28.8044 27.3583 29.1529 28.4984 28.67C28.1387 28.6541 28.1836 28.4658 28.6513 28.3149C29.0359 28.1922 28.8061 28.3274 29.0263 28.3399C29.0561 28.3403 29.5845 28.2283 29.596 28.1722C29.6065 28.292 29.8042 28.3461 29.7227 28.4951C29.711 28.5169 29.4971 28.569 29.5976 28.6429C29.6499 28.6795 29.7813 28.7544 29.7817 28.8194C29.8131 28.7654 29.8474 28.705 29.8789 28.6492C30.1939 28.5495 30.2518 28.5827 30.4454 28.6146C30.4289 28.5839 30.23 28.4898 30.4867 28.4654C30.5004 28.4644 30.5239 28.511 30.6541 28.5024C30.9197 28.484 30.9729 28.4863 30.8218 28.6823C31.3169 28.4615 31.4733 28.5937 31.993 28.4075C31.8395 28.2478 31.6627 28.3428 31.1843 28.5078C31.1513 28.469 31.1297 28.4276 31.0961 28.3885C31.7726 28.3176 31.4476 28.3924 31.7941 28.2052C31.8766 28.1599 32.3652 28.0588 32.1718 27.9744C32.1269 27.9543 31.8277 28.0356 31.8501 27.9799C31.8546 27.9691 32.2119 27.8524 32.2479 27.8561C32.6883 27.902 31.9962 28.1895 33.0903 27.8523C33.1205 27.843 33.1173 27.7857 33.1755 27.7629C33.285 27.7201 33.3011 27.7833 33.3979 27.7433C33.4954 27.7031 33.6119 27.5834 33.7833 27.624C34.0962 27.6978 33.4643 27.9435 33.1562 27.9412C33.1132 28.0797 33.946 27.9161 34.5865 27.7712C34.946 27.6898 35.2422 27.6099 35.2882 27.5916C35.8393 27.3715 34.9021 27.6617 34.8436 27.6186C34.8177 27.6017 34.7587 27.3209 34.5664 27.5605C34.5097 27.6314 34.8197 27.6294 34.6527 27.7022C34.6198 27.7166 34.5945 27.7244 34.5757 27.7275C34.5009 27.7399 34.5304 27.6756 34.519 27.6735C34.4703 27.6648 34.2927 27.7411 34.2662 27.7354C33.8515 27.6514 33.82 27.3759 34.4078 27.648C34.5996 27.5059 34.074 27.4857 34.3244 27.3594C34.374 27.3344 34.4229 27.3152 34.4701 27.3007C34.7122 27.2259 34.9047 27.2725 34.9396 27.2687C35.4444 27.2102 34.8343 27.1735 35.4434 27.0741C35.7828 27.0142 34.9812 27.3369 35.7347 27.1094C36.3751 26.8754 35.9958 26.928 35.9836 26.7785C35.982 26.7399 36.2364 26.5711 35.8584 26.7612C35.8599 26.8027 35.8539 26.8601 35.8372 26.9042C35.7144 26.9166 35.4728 26.7806 35.4114 26.7904C35.1099 26.8391 35.1486 26.9331 34.9431 26.8621C35.1017 26.9574 34.8776 26.9331 34.8077 26.9793C34.5726 27.1339 34.8628 27.1028 34.4251 27.119C34.3774 27.1208 34.3212 27.1231 34.2552 27.1262C34.3211 27.1523 34.3834 27.1787 34.4464 27.2051C34.4784 27.2182 34.5101 27.2314 34.5419 27.2447C34.5157 27.252 34.4889 27.2594 34.4617 27.2669C34.4111 27.2809 34.3606 27.2948 34.3104 27.3087C34.1635 27.2049 33.7552 27.3246 34.0952 27.0987C33.6379 27.1725 33.4655 27.2467 33.3928 27.3742C33.3791 27.3985 33.3135 27.4233 33.2356 27.445C33.2577 27.4701 33.2993 27.5545 33.2896 27.5686C33.2044 27.6924 32.988 27.5705 33.0312 27.4921C32.9752 27.5031 32.9308 27.5106 32.9151 27.5129C32.8155 27.5278 32.9914 27.422 32.9076 27.4224C32.8811 27.4223 32.607 27.5055 32.5966 27.4834C32.5245 27.3429 33.0068 27.3335 32.0735 27.481C32.0872 27.6222 32.5011 27.4839 32.4299 27.6561C32.3542 27.8408 32.0619 27.6944 32.0603 27.8978C32.0331 27.8715 32.0179 27.8476 31.9923 27.8163C31.6454 27.9947 31.5993 27.8379 31.4784 27.8322C31.2429 27.8204 30.2422 28.0975 31.1797 27.9953C31.0497 28.0443 30.9198 28.0855 30.791 28.1328C30.686 27.8575 30.7941 27.9483 30.1544 28.0748C30.0106 28.1036 29.9351 27.9905 29.8373 28.1762C29.8165 28.0258 29.4303 28.2267 29.3866 28.2202C29.1082 28.1743 29.9791 27.7615 30.166 27.9873C30.2911 27.8463 30.3297 27.9775 30.4949 27.9143C30.7376 27.8222 30.7648 27.7873 31.0859 27.8067C31.3396 27.5918 29.9315 28.0496 30.7494 27.6361C31.1719 27.4221 32.7109 26.9413 34.2722 26.5008C34.5671 26.4172 34.8636 26.3332 35.1396 26.2496C35.396 26.1768 35.7389 26.0444 35.6695 26.0584C35.3377 26.3439 35.4109 26.4284 35.3819 26.4612C35.3747 26.4919 35.3767 26.4815 35.3758 26.4643C35.375 26.4269 35.3703 26.359 35.3623 26.2896C35.3461 26.1479 35.3205 25.9972 35.294 25.8557C35.2406 25.5741 35.1848 25.3341 35.1461 25.1695C34.6299 23.1035 34.2576 21.9933 33.7264 20.1078C33.7005 20.0178 33.5888 19.646 33.5046 19.3073C33.4178 18.9557 33.361 18.6464 33.488 18.7708C33.5238 18.8053 33.7634 19.3856 33.7323 18.8349C33.6912 18.9614 33.552 18.6735 33.5365 18.651C33.1822 18.1251 33.2476 18.4749 32.9531 17.5645ZM33.4322 14.3881C33.8063 15.5957 33.6094 14.6819 33.9292 14.8501C33.8774 14.6963 33.8256 14.5429 33.7736 14.3892C33.7727 14.4346 33.7717 14.4794 33.7708 14.5248C33.7708 14.5249 33.7709 14.5251 33.771 14.5253C33.6581 14.4797 33.545 14.4336 33.4322 14.3881ZM22.0727 1.4786C22.1109 1.4326 22.1525 1.38567 22.1947 1.3396C22.3619 1.29989 22.5325 1.26125 22.6976 1.22604C22.6838 1.25286 22.6709 1.27972 22.6575 1.3065C22.4613 1.36038 22.2695 1.41527 22.0727 1.4786ZM32.9948 28.0192C32.7423 27.9899 32.806 28.1407 32.4826 28.1475C32.5494 28.2538 32.6198 28.3565 32.6885 28.461C32.914 28.385 32.9574 28.327 33.2133 28.2921C33.1746 28.2623 33.1353 28.2324 33.0974 28.2022C33.0579 28.2207 33.0164 28.2409 32.9772 28.2585C32.8871 28.1704 33.2818 28.0535 32.9955 28.0188C32.9953 28.0189 32.995 28.0191 32.9948 28.0192ZM30.6708 28.6755C30.5445 28.693 30.0469 28.7676 29.9924 28.8342C29.8137 29.0564 31.1478 28.5837 30.184 29.0001C30.1947 29.0216 30.1962 29.0451 30.2024 29.0676C30.3852 29.0262 30.5728 28.9828 30.7574 28.9401C30.7235 28.853 30.7063 28.7626 30.6708 28.6755ZM34.867 18.7404C34.8746 18.7736 34.8911 18.8271 34.913 18.8909C35.0195 19.2011 35.252 19.7502 35.266 19.4844C35.2698 19.3864 35.0083 19.0358 34.9684 18.8779C34.9681 18.8768 34.9679 18.8758 34.9676 18.8747C34.9456 18.78 35.0553 18.8633 34.9686 18.6787C34.936 18.6979 34.8986 18.7149 34.8674 18.7408C34.8673 18.7407 34.8672 18.7405 34.867 18.7404ZM34.2962 18.529C34.3589 18.6907 34.4246 18.8545 34.4873 19.0167C34.498 19.0443 34.5085 19.0719 34.5189 19.0993C34.5273 19.07 34.53 19.0378 34.5294 19.0043C34.5274 18.8461 34.4463 18.6568 34.5484 18.6118C34.5741 18.6619 34.5997 18.7119 34.6255 18.7627C34.6098 18.8121 34.5938 18.8607 34.5777 18.9091C34.602 18.939 34.6216 18.9581 34.6378 18.9722C34.7017 19.0286 34.7169 19.011 34.7738 19.2634C34.8547 19.1204 34.9202 19.0382 34.8897 18.8978C34.8685 18.7998 34.7978 18.67 34.6489 18.4733C34.7846 18.5432 35.0974 18.3414 34.7619 18.1206C34.6996 18.0792 34.7408 18.32 34.7342 18.3246C34.6553 18.3875 34.5589 18.2774 34.4858 18.3414C34.4527 18.3699 34.4966 18.5112 34.4497 18.5484C34.4267 18.5661 34.3117 18.4546 34.2962 18.529ZM34.6317 18.003C34.7047 18.0462 34.7696 17.8008 34.6869 17.6309C34.5585 17.3666 34.5753 17.8426 34.6317 18.003ZM22.0717 1.47906C22.072 1.47891 22.0724 1.47875 22.0727 1.4786C22.0726 1.47878 22.0724 1.47895 22.0723 1.47912C22.0721 1.4791 22.0719 1.47908 22.0717 1.47906ZM31.3194 28.5709C31.1855 28.6561 30.9723 28.7056 31.0072 28.7758C30.9327 28.7801 30.8606 28.7839 30.7849 28.7886C30.7916 28.8107 30.7989 28.8327 30.8055 28.8546C31.0193 28.8122 31.2334 28.7703 31.448 28.7289C31.4059 28.6761 31.3662 28.6224 31.3194 28.5709ZM29.0154 29.1467C28.7496 29.2158 28.9991 29.2521 28.9556 29.3173C28.914 29.3817 28.669 29.4116 28.7173 29.4729C28.8697 29.4302 29.0335 29.3855 29.1879 29.3439C29.1248 29.2801 29.0741 29.2112 29.0149 29.1468C29.015 29.1468 29.0152 29.1467 29.0154 29.1467ZM31.8503 9.49548C31.8866 9.6784 31.7872 9.63254 31.991 9.95087C31.9909 9.95061 31.9908 9.95036 31.9908 9.9501C31.9564 9.69788 31.9028 9.39643 31.8104 9.11976C31.7737 9.00976 31.7314 8.90482 31.6812 8.80684C31.6771 8.93363 31.7058 9.0342 31.743 9.14158C31.7785 9.24425 31.8222 9.35349 31.8503 9.49548ZM33.6837 28.0876C33.7452 28.007 33.3753 28.0457 33.313 28.1221C33.2097 28.2463 33.5903 28.21 33.6837 28.0876ZM29.1162 2.46202C28.8466 2.24823 28.7969 2.82393 29.0464 3.33498C29.0684 3.37965 29.024 3.01439 29.0911 3.10631C29.0975 3.11461 29.1503 3.30806 29.19 3.34706C29.2301 3.38694 29.2756 3.31884 29.3242 3.38982C29.4086 3.51207 29.4174 3.84364 29.506 3.92973C29.5177 3.94073 29.5418 3.72514 29.5416 3.71323C29.5321 3.5013 29.3713 3.34598 29.3611 3.31437C29.3114 3.16017 29.4009 3.15872 29.4086 3.11325C29.4231 3.02839 29.3472 2.90767 29.3472 2.89805C29.3492 2.64095 29.4902 3.18713 29.5413 3.25083C29.6801 3.42401 29.7015 3.22086 29.886 3.67809C29.9039 3.72262 30.0569 4.25881 29.9502 3.55633C30.5348 4.82638 29.8644 2.85765 29.754 2.65069C29.7042 2.55658 29.6711 2.73181 29.6173 2.68174C29.4948 2.56801 29.408 2.3355 29.3007 2.39265C29.0746 2.51035 29.3261 2.77198 29.3492 2.99759C29.2903 2.99055 29.2367 2.99702 29.1733 2.97098C29.2617 3.01504 29.1367 2.47684 29.1167 2.46188C29.1166 2.46193 29.1164 2.46198 29.1162 2.46202ZM30.3901 5.73658C30.4069 6.05509 30.5521 5.9883 30.548 6.28716C30.7567 6.48535 30.604 6.0147 30.5955 5.95823C30.5537 5.6952 30.7035 5.65675 30.581 5.41332C30.5199 5.52847 30.4527 5.62597 30.3901 5.73658ZM29.684 3.12703C29.8201 3.30332 29.7125 2.94624 29.723 2.92807C29.832 2.72297 30.1193 3.80274 29.684 3.12703ZM34.9034 19.9952C34.9279 20.0991 34.9828 20.0129 35.0306 20.0964C35.0785 20.1793 35.1036 20.5042 35.1474 20.4839C35.1909 20.4615 35.1482 19.8645 35.3369 20.4232C35.3572 20.3965 35.3783 20.3975 35.399 20.3815C35.3538 20.2216 35.3116 20.0711 35.2665 19.913C35.2172 20.0206 35.1642 20.1304 35.1158 20.232C35.0318 20.1629 35.0934 20.0918 35.0921 20.0872C35.092 20.0873 35.0919 20.0873 35.0918 20.0873C35.0388 19.9262 34.848 19.7614 34.9034 19.9952ZM32.54 12.0082C32.348 12.0407 32.632 12.2065 32.6877 12.2951C32.7434 12.3839 32.722 12.5399 32.783 12.463C32.783 12.2882 32.5614 12.0044 32.5398 12.0082C32.5399 12.0082 32.5399 12.0082 32.54 12.0082ZM30.882 7.349C31.0038 7.58406 31.0388 7.52876 31.0795 7.84995C31.1202 7.82436 31.1618 7.79848 31.2019 7.77315C31.1272 7.53097 31.0039 7.58894 30.9691 7.2935C30.9634 7.24494 31.0969 7.31225 30.9997 7.11477C30.9634 7.19198 30.9214 7.27216 30.882 7.349ZM31.4323 8.52648C31.3354 8.24509 30.9052 8.13204 31.2333 8.60514C31.2824 8.67584 31.5056 8.73869 31.4323 8.52648ZM34.091 17.3526C34.2362 17.8404 34.1176 17.2714 34.1311 17.1272C34.5389 18.2437 34.0761 17.0045 34.2203 16.832C34.1232 16.7114 33.9191 16.492 33.9818 16.7894C34.0077 16.9131 34.0478 16.8517 34.0499 16.859C34.1085 17.0838 34.0109 17.0857 34.091 17.3526ZM30.2265 5.22209C30.2348 5.23976 30.2883 5.19224 30.3183 5.24739C30.3482 5.30252 30.3439 5.44698 30.3862 5.44916C30.4283 5.45041 30.3789 5.17629 30.3267 5.10308C30.2744 5.03083 30.1531 5.06302 30.2265 5.22209ZM30.6387 7.13583C30.7581 7.36436 30.8645 6.89818 30.8472 6.84516C30.6934 6.38573 30.7152 7.12784 30.6387 7.13583ZM33.3364 16.3571C33.6449 16.8999 33.7045 16.4085 33.7018 16.0031C33.6613 15.9633 33.6203 15.9221 33.5802 15.8828C33.8014 16.0513 34.0772 16.3861 33.6608 15.5763C33.7836 16.055 33.6118 15.6771 33.6025 15.6771C33.3138 15.7174 33.6721 16.3661 33.3362 16.3566C33.3363 16.3568 33.3363 16.357 33.3364 16.3571ZM30.0572 4.41123C29.9805 4.15508 29.7364 3.50271 29.7085 3.84976C29.8246 4.03652 29.9406 4.22308 30.0572 4.41123ZM35.9905 25.9868C35.9451 26.1967 35.9719 26.4196 35.9512 26.5803C36.0716 26.4343 36.0765 26.538 36.0899 26.6078C36.1107 26.7098 36.1457 26.4695 36.1449 26.4621C36.2389 26.4656 36.2702 26.661 36.2476 26.2257C36.2899 26.3277 36.3304 26.4364 36.356 26.5543C36.3716 26.2015 36.4093 26.121 36.4632 25.894C36.2993 26.1304 36.3864 25.8361 36.2495 25.6096C36.1817 25.4968 36.0151 25.8795 35.9906 25.9876C35.9906 25.9873 35.9905 25.987 35.9905 25.9868ZM33.4987 16.9698C33.5512 17.0188 33.6136 17.0584 33.6703 17.1045C33.6946 17.1667 33.7183 17.2289 33.7423 17.2908C33.7157 17.308 33.6873 17.3244 33.6623 17.3426C33.6806 17.4283 33.7108 17.383 33.7226 17.4065C33.7225 17.4066 33.7223 17.4066 33.7222 17.4067C33.8904 17.744 33.9307 17.8923 33.9275 18.1991C34.0171 18.1711 34.1067 18.1431 34.1963 18.1151C34.1682 18.0552 34.14 17.9943 34.1118 17.9339C34.0531 17.9155 33.9944 17.8974 33.9358 17.8795C33.9395 17.7989 33.9429 17.7186 33.9461 17.6373C33.9103 17.5847 33.8699 17.5213 33.8368 17.4764C33.9934 17.1064 34.0353 17.8189 34.1403 17.7917C34.209 17.7745 33.9929 17.1118 33.9152 17.0317C33.904 17.0203 33.765 17.2238 33.7826 16.9503C33.7855 16.9078 34.1829 16.762 33.7716 16.6083C33.7132 16.5865 33.5068 16.7985 33.4987 16.9698ZM34.1178 19.4122C34.2676 18.9616 34.3976 20.4236 34.4371 19.7654C34.606 19.9006 34.5954 19.8701 34.651 19.6671C34.6561 19.6492 34.7236 19.7585 34.7248 19.7471C34.7363 19.5693 34.648 19.3829 34.754 19.3516C34.7357 19.3102 34.7187 19.2711 34.7003 19.2293C34.6534 19.439 34.502 19.1726 34.3841 19.084C34.3307 19.044 34.3538 19.1654 34.3076 19.1322C34.3018 19.1279 34.2951 19.1046 34.2872 19.0759C34.2728 19.0232 34.2542 18.9517 34.23 18.9541C34.1712 18.9611 34.1158 19.03 34.0853 19.1356C34.073 19.1805 34.0651 19.232 34.063 19.2881C34.063 19.2881 34.0629 19.2881 34.0628 19.2881C34.0809 19.3302 34.0996 19.3706 34.1178 19.4122ZM31.6988 11.4245C31.8188 11.3131 31.7732 11.047 32.0078 11.5085C32.0275 11.475 32.0467 11.4409 32.0664 11.4074C32.0361 11.3266 32.0065 11.2479 31.9761 11.1657C31.4741 11.0579 31.7914 10.4424 31.594 10.8347C31.5725 10.8774 31.674 11.0593 31.522 10.8972C31.522 10.8975 31.522 10.8978 31.522 10.8981C31.6393 11.1567 31.701 11.1735 31.6988 11.4245ZM32.4127 13.1801C32.9228 13.6934 32.2845 12.2716 32.2903 12.5438C32.2908 12.5685 32.573 13.1784 32.4127 13.1801ZM30.4945 8.29917C30.5771 8.57921 30.7453 8.54753 30.7946 8.50076C30.844 8.45381 30.7238 8.2791 30.7253 8.25166C30.7302 8.16136 30.8042 8.3263 30.8128 8.20835C30.815 8.16889 30.7206 7.66474 30.7071 7.64529C30.63 7.53402 30.5523 7.7559 30.5261 7.72539C30.44 7.62587 30.4608 7.44682 30.3795 7.436C30.2054 7.41092 30.4551 7.65325 30.4733 7.70235C30.5266 7.84824 30.4372 7.86207 30.4552 7.97953C30.4728 8.09577 30.5249 8.15928 30.55 8.26017C30.5582 8.29337 30.4906 8.28492 30.4945 8.29917ZM31.1293 9.11195C30.9999 8.96177 30.9816 9.17119 31.0012 9.38145C31.0137 9.51914 31.0429 9.65688 31.0653 9.68681C31.1832 9.84241 31.2169 9.54605 31.1909 9.32012C31.1799 9.22738 31.1591 9.1466 31.1293 9.11195ZM34.2273 18.358C34.0562 18.1194 34.1755 18.761 34.2636 18.9284C34.2913 18.8844 34.2864 18.4394 34.2273 18.358ZM33.2829 16.1957C33.3919 16.4299 33.483 16.0407 33.4114 15.8388C33.2405 15.7637 33.3043 15.8672 33.3435 16.0015C33.3826 16.1356 33.1979 16.0136 33.2829 16.1957ZM29.714 5.21868C29.7272 5.27172 30.0925 6.09426 29.9909 5.58988C29.9828 5.55101 29.7852 4.95805 29.7517 4.919C29.6835 4.8399 29.6788 5.07874 29.714 5.21868ZM32.6955 15.0977C32.8523 15.1875 32.8938 15.3141 32.9861 15.151C32.9861 15.1508 32.986 15.1506 32.986 15.1504C33.1376 15.4618 32.8709 15.5682 32.9005 15.6362C33.004 15.8746 33.1184 15.5768 33.2339 15.7091C33.0529 15.3712 33.2181 15.4303 33.1336 15.155C33.1146 15.0936 32.9533 14.8757 32.8927 14.8568C32.8321 14.8379 32.7296 15.0121 32.6955 15.0977ZM29.3276 4.01772C29.369 4.31926 29.6326 4.52946 29.5438 4.12028C29.5002 3.91937 29.3023 3.83366 29.3276 4.01772ZM30.074 28.1318C30.1315 28.1687 30.1926 28.2044 30.252 28.2403C30.1475 28.2814 30.0448 28.3223 29.9395 28.3641C30.0226 28.3247 30.0992 28.2875 30.1827 28.2484C29.9749 28.2866 29.8616 28.222 30.0734 28.132C30.0736 28.1319 30.0738 28.1319 30.074 28.1318ZM26.4996 24.4593C26.5241 24.359 26.3317 24.2174 26.3261 24.2429C26.2852 24.4371 26.4657 24.5987 26.4996 24.4593ZM33.9079 18.8844C33.9867 19.2211 34.1544 18.9231 34.1092 18.7158C34.1016 18.8528 33.8632 18.6948 33.9079 18.8844ZM27.1666 26.9749C27.155 27.0108 27.1433 27.0466 27.1326 27.0852C27.1307 26.9736 27.144 26.9482 27.1666 26.9749ZM29.5464 5.41618C29.5438 5.47386 29.6408 5.85239 29.6786 5.89688C29.7572 5.98822 29.7991 5.65606 29.7078 5.49595C29.6981 5.47911 29.5493 5.35977 29.5466 5.41697C29.5466 5.4167 29.5465 5.41644 29.5464 5.41618ZM29.5951 28.1656C29.5963 28.1677 29.5966 28.17 29.596 28.1722C29.5958 28.17 29.5951 28.1679 29.5951 28.1656ZM24.9257 16.8235C24.9225 16.8265 24.9191 16.8285 24.9155 16.8291C24.9188 16.8275 24.922 16.825 24.9257 16.8235ZM30.1549 8.12667C29.9703 8.32087 30.1802 8.57276 30.2189 8.31006C30.2206 8.29532 30.1638 8.15677 30.1549 8.12667ZM19.4631 9.82297C19.7716 11.4733 20.0851 13.2487 20.4597 14.8873C20.5238 15.1297 20.4671 15.4214 20.3914 15.5718C20.3255 15.714 20.2485 15.8076 20.1826 15.8766C20.0809 15.9811 19.9927 16.0373 19.9412 16.07C19.8278 16.1391 19.759 16.1678 19.6881 16.1983C19.5632 16.2501 19.4592 16.2835 19.3642 16.3128C19.1738 16.3707 18.9976 16.4147 18.8311 16.4544C18.4921 16.5345 18.1709 16.5998 17.8514 16.6621C17.5685 16.7168 17.5712 16.6465 17.4921 16.6538C17.2705 16.6746 17.157 16.7795 16.9998 16.8056C16.2324 16.9332 15.5227 17.0642 14.779 17.1955C14.0135 17.332 14.3286 17.0492 14.0534 17.0562C13.5161 17.0716 14.0139 17.2435 13.825 17.3486C13.6908 17.3746 13.5575 17.4001 13.423 17.4258L13.4724 17.4129C13.0133 17.5303 12.5518 17.6428 12.0931 17.7553C12.2296 17.6877 12.3633 17.6217 12.5013 17.5559C12.2465 17.6256 11.8676 17.6943 12.2748 17.498C12.1767 17.5065 12.079 17.5114 11.9774 17.5216C11.9808 17.625 11.5301 17.7683 11.5083 17.837C11.4844 17.9062 11.7318 17.8177 11.7323 17.823C11.7376 17.8983 10.6716 18.1138 10.5924 18.1297C10.3894 18.1684 10.5276 17.9966 10.3598 18.056C10.0735 18.1576 10.3423 18.3397 9.8512 18.1385C9.72957 18.29 9.69495 18.2413 9.49866 18.2938C9.47268 18.3009 9.5113 18.3551 9.50029 18.3602C9.21342 18.4978 9.40958 18.3143 9.40614 18.3087C9.34657 18.2138 9.04085 18.3587 8.97069 18.3698C8.08837 18.5094 7.4419 18.6204 6.54385 18.8862C6.36252 18.9399 5.84294 19.1559 5.64183 19.2255C5.62487 19.2312 5.61272 19.2349 5.60168 19.2379C5.41374 19.2889 5.48389 19.1794 5.37616 19.1798C5.29012 19.4128 5.15632 19.483 4.77656 19.5044C4.70527 19.6821 4.67842 19.5723 4.45444 19.6997C4.26637 19.806 4.00771 20.1098 3.73849 20.0926C3.98236 19.9831 3.92691 19.9349 4.18385 19.7691C4.26521 19.7055 5.24033 19.3035 5.12039 19.2063C5.05526 19.1524 4.75074 19.3451 4.73374 19.3385C4.63012 19.2964 4.77756 19.1313 4.95427 19.0989C4.91895 19.1296 4.87575 19.1638 4.83805 19.1959C5.24018 19.1432 4.85308 18.8905 5.24999 19.0907C5.29843 19.1155 5.30038 19.1596 5.37192 19.1785C5.3772 19.1576 5.29267 19.1424 5.34959 19.1127C5.40814 19.0823 5.55335 19.117 5.54621 19.0446C5.53594 18.9394 5.29686 19.0718 5.27553 19.0735C5.27554 19.0742 5.27555 19.0748 5.27556 19.0755C5.08781 19.0882 5.43796 18.95 5.45158 18.9347C5.48321 18.8976 5.49138 18.8714 5.49511 18.8481C5.4965 18.8103 5.49735 18.7751 5.59189 18.7047C5.67986 18.6397 5.92404 18.5731 6.01306 18.5326C6.09624 18.4937 5.94547 18.4942 6.00094 18.4643C6.05466 18.4349 6.14466 18.4432 6.2089 18.4089C6.2374 18.3937 6.21884 18.3431 6.2331 18.3363C6.38212 18.2646 6.31414 18.4054 6.45536 18.3513C6.54338 18.3172 6.81863 18.1171 6.59816 18.1566C6.69526 18.1133 6.79302 18.0731 6.89213 18.032C6.8213 18.0381 6.75675 18.0477 6.68537 18.0512C6.88367 18.0134 6.94184 17.8978 7.05997 17.8525C7.17713 17.8075 7.32172 17.8774 7.43372 17.785C7.68019 17.5858 6.99999 17.8586 6.9079 17.8675C6.87222 17.8705 6.9728 17.7469 6.99279 17.7379C7.0814 17.6979 7.20001 17.7249 7.2699 17.6997C7.5091 17.6123 7.63756 17.4858 7.86358 17.3972C8.64279 17.0925 9.61195 16.7474 10.3622 16.5018C10.6391 16.4111 10.8355 16.4481 10.9608 16.4077C11.2537 16.3133 11.2681 16.2254 11.5227 16.1448C11.9046 16.0238 12.4634 15.9312 12.7867 15.8518C12.8604 15.8336 12.9297 15.8068 12.9916 15.7784L13.044 15.7647C13.1737 15.7146 13.2715 15.6565 13.3108 15.6463C14.1263 15.4343 15.1265 15.2298 15.803 15.0913C16.1212 15.0261 16.2892 15.081 16.3545 15.065C16.6331 14.9973 16.5433 14.9395 16.7727 14.9003C16.8969 14.8789 16.933 14.9445 16.9499 14.9438C17.1016 14.9367 17.1082 14.8398 17.2213 14.8131C17.8364 14.6646 18.5828 14.5738 18.9558 14.4398C18.9617 14.438 18.9793 14.4749 18.9681 14.4788C18.9451 14.4868 18.8667 14.5215 18.786 14.5949C18.7436 14.6347 18.7014 14.6784 18.6539 14.7602C18.6119 14.8339 18.5138 15.0425 18.576 15.335C18.5674 15.3213 18.5591 15.302 18.5513 15.2733C18.4721 14.9802 18.4189 14.6857 18.3625 14.3751C18.3571 14.3449 18.4064 14.3207 18.3921 14.2516C18.378 14.1829 18.3171 14.1371 18.2982 14.0298C18.2481 13.7444 18.2524 13.4512 18.1988 13.1527C18.1898 13.103 18.1149 13.0523 18.1017 12.9788C18.0597 12.7456 18.0527 12.389 18.0184 12.19C17.904 11.5314 17.7592 10.9318 17.6466 10.3161C17.6203 10.1714 17.6552 10.0324 17.6428 9.95689C17.6147 9.78667 17.583 9.92475 17.5512 9.75304C17.2902 8.3517 17.0528 6.9418 16.7066 5.57748C16.6075 5.19044 16.455 4.75381 16.3159 4.37869C16.289 4.31153 16.341 4.46721 16.4383 4.54723C16.5334 4.6313 16.5953 4.64166 16.6044 4.6431C16.6059 4.63584 16.5386 4.54924 16.4373 4.5528C16.2238 4.56387 16.1851 4.67017 15.9287 4.72259C15.829 4.74382 15.7215 4.74486 15.6038 4.74824C15.476 4.7507 15.3356 4.75646 15.2145 4.78985C14.9819 4.85436 14.8974 4.97654 14.6293 5.06227C14.4082 5.13306 14.082 5.1817 13.8378 5.2616C12.2129 5.79413 10.5949 6.36449 8.90498 6.83263C8.25869 7.01114 7.60866 7.16617 6.94933 7.2996C6.10413 7.47159 5.16823 7.67577 4.28985 7.74879C4.20718 7.75569 4.31538 7.63983 4.05801 7.70968C3.92338 7.74671 3.74211 7.86317 3.4278 7.92982C2.67011 8.08947 1.66504 8.28434 1.39548 8.48005C1.55123 8.30303 1.46241 8.35788 1.45605 8.42487C1.43486 8.49783 1.41776 8.60676 1.4082 8.72085C1.38869 8.95077 1.39368 9.21526 1.41237 9.47726C1.45107 10.008 1.54367 10.5535 1.66977 11.0857C1.76806 11.4988 1.89324 11.9134 2.033 12.3251C2.686 14.2185 3.60888 16.0612 3.90732 17.9307C3.9797 18.3789 4.01634 18.8282 4.00683 19.2784C4.00337 19.4111 3.76144 19.4273 3.67346 19.3774C3.69486 19.2959 3.72636 19.2161 3.75217 19.1286C3.44632 19.1384 3.52324 19.1281 3.43399 18.7971C3.379 18.5928 3.31712 18.792 3.24671 18.699C3.19623 18.6316 3.06392 18.4216 2.99174 18.2543C2.93322 18.119 2.91505 18.0119 3.01697 18.039C2.97126 18.0101 2.92761 17.9829 2.88325 17.9556C2.69048 17.4973 2.4855 17.0579 2.27513 16.6165C2.23889 16.5408 2.18031 16.5568 2.1429 16.4774C2.04256 16.2657 2.02073 16.0777 1.93832 15.8518C1.8937 15.7293 1.82147 15.7343 1.77164 15.5705C1.72206 15.4069 1.81286 15.3807 1.64248 15.1913C1.57693 15.3729 1.44785 14.701 1.36873 14.4726C1.35718 14.4397 1.16904 14.1971 1.13563 14.0466C1.10161 13.8957 1.09887 13.6535 0.994325 13.4355C0.945216 13.3331 0.846786 13.2921 0.808538 13.1761C0.781919 13.0954 0.824731 12.9761 0.79902 12.8721C0.78668 12.8223 0.752696 12.7478 0.719923 12.6806C0.683247 12.6045 0.647818 12.5367 0.641599 12.5152C0.598639 12.368 0.691772 12.5181 0.667763 12.4164C0.54899 11.9182 0.440542 11.3353 0.31088 10.8425C0.294865 10.7814 0.251272 10.8786 0.247734 10.8708C0.095428 10.4654 0.215822 10.6733 0.249204 10.5512C0.275963 10.4341 0.136257 9.62743 0.0361803 9.62573C0.165643 9.58828 0.0478621 9.41126 0.0409671 9.36187C0.0135051 9.17145 0.130126 9.2031 0.0884795 9.01752C0.0738833 8.94836 -0.000599607 9.08604 -0.000173812 9.01075C0.00240154 8.8225 0.125516 8.65815 0.166117 8.39992C0.177192 8.3368 0.123036 8.30873 0.147262 8.18852C0.159606 8.12809 0.212289 7.9697 0.275106 7.83517C0.337318 7.70189 0.400448 7.58979 0.252599 7.72394C0.329054 7.62995 0.408483 7.54542 0.505061 7.47105C0.667215 7.36621 0.744754 7.27875 0.981138 7.16353C1.06407 7.12489 1.19598 7.16398 1.34514 7.08009C1.39791 7.0512 1.36472 6.97091 1.44749 6.94238C1.63412 6.87885 1.83415 6.91534 2.06044 6.86203C2.48663 6.76259 2.92097 6.61128 3.36028 6.54741C3.48194 6.5298 3.46535 6.6216 3.6384 6.58959C3.66558 6.58428 3.854 6.47114 3.97496 6.45488C4.04565 6.44556 4.42276 6.4259 4.49912 6.41505C4.62171 6.39782 4.62703 6.31102 4.69741 6.31379C4.9022 6.3212 4.76921 6.47416 4.96821 6.26132C5.06422 6.33767 5.19704 6.30087 5.26383 6.40504C5.31712 6.26474 5.44537 6.36242 5.58869 6.28869C5.7347 6.21434 5.80531 5.94795 5.89882 6.19763C5.96458 6.15072 6.25379 6.03018 6.30492 6.01419C6.45387 5.96862 6.38852 6.05844 6.49956 6.02274C6.51919 6.01647 6.48668 5.97291 6.61626 5.94768C6.70231 5.93214 7.31456 5.78586 7.35391 5.78181C7.7904 5.75139 7.13748 5.88817 7.0609 5.96128C7.04137 5.95145 7.02202 5.94152 7.00151 5.93207C6.81014 5.95414 6.94205 6.0383 7.03301 6.04314C7.12513 6.04773 7.26706 5.96084 7.34684 5.9789C7.38641 5.98809 7.39746 6.12483 7.28791 6.13531C7.41099 6.14754 7.26725 6.22869 7.3214 6.25552C7.38184 6.28556 7.89293 6.16785 7.87789 6.09399C7.78138 6.11677 7.66382 6.14992 7.56794 6.17122C7.41156 6.07732 7.68017 5.55383 8.06837 5.63099C8.35388 5.68498 7.96614 5.89867 8.53098 5.62932C8.43774 5.65038 8.35736 5.6603 8.27357 5.67786C8.23883 5.58677 8.40106 5.65256 8.46246 5.60306C8.49155 5.57921 8.26793 5.57066 8.43973 5.49858C8.47354 5.51456 8.50397 5.52241 8.53257 5.52408C8.66394 5.53227 8.75496 5.40757 8.9656 5.34452C8.90107 5.38922 8.8366 5.43364 8.77266 5.4779C9.23374 5.44894 8.23561 5.77327 9.09534 5.58202C8.99546 5.61602 8.89333 5.64454 8.79343 5.68047C8.85745 5.71502 8.81903 5.88176 8.87252 5.8992C9.01176 5.94535 9.17084 5.8468 9.31516 5.81165C9.37849 5.7961 9.35119 5.84629 9.35654 5.84495C9.44272 5.82406 9.4071 5.7729 9.48071 5.74704C9.57375 5.71451 9.86132 5.68797 9.90323 5.66833C10.012 5.61788 9.78897 5.56341 9.79749 5.55169C9.85328 5.47577 10.015 5.47564 9.98569 5.4072C9.64469 5.56554 8.5999 5.80551 9.49306 5.41304C9.20285 5.3748 9.23079 5.19502 9.5927 5.0726C9.89225 4.97067 9.71595 5.09302 9.89505 5.11455C9.91785 5.11729 10.3343 5.02611 10.34 4.97047C10.3585 5.08851 10.5216 5.14787 10.4687 5.2918C10.461 5.31296 10.2919 5.35752 10.379 5.43339C10.4226 5.47156 10.5379 5.5483 10.5428 5.6124C10.5644 5.56013 10.5858 5.50218 10.6073 5.44794C10.8539 5.35851 10.9032 5.39233 11.0642 5.4276C11.0479 5.39711 10.8792 5.30005 11.084 5.28193C11.0946 5.28135 11.1183 5.32761 11.2233 5.32161C11.4356 5.30896 11.4813 5.3113 11.3747 5.50194C11.7575 5.29311 11.8947 5.42572 12.2982 5.24922C12.1575 5.09044 12.0253 5.18156 11.6533 5.33635C11.623 5.29762 11.6017 5.25659 11.5707 5.21757C12.1115 5.15848 11.8562 5.22673 12.1173 5.04788C12.1812 5.00402 12.5653 4.91086 12.401 4.8254C12.3618 4.80543 12.1294 4.88112 12.1417 4.82678C12.1444 4.81628 12.422 4.70587 12.4509 4.71004C12.8106 4.76066 12.2803 5.03487 13.1309 4.71641C13.1543 4.70757 13.1464 4.65114 13.1908 4.62955C13.2736 4.58924 13.2946 4.65102 13.3687 4.61305C13.4421 4.57525 13.5276 4.45816 13.6676 4.50133C13.9254 4.57911 13.4413 4.81041 13.1924 4.80464C13.1578 5.01248 14.7701 4.54413 14.8651 4.51209C15.2823 4.32955 14.5692 4.55764 14.516 4.51921C14.4945 4.50176 14.4269 4.22231 14.2909 4.45391C14.2509 4.5224 14.4998 4.52812 14.3712 4.59574C14.2441 4.66315 14.2749 4.56676 14.2634 4.56385C14.2244 4.55383 14.0875 4.62562 14.066 4.61941C13.7259 4.52899 13.6759 4.25666 14.1724 4.53613C14.3151 4.39999 13.8893 4.36964 14.0811 4.25C14.3137 4.10477 14.5361 4.18022 14.5688 4.17748C14.9703 4.14299 14.4782 4.07402 14.9633 4.01207C15.2346 3.97968 14.6036 4.23197 15.197 4.07295C15.3225 4.04039 15.4013 4.01678 15.4421 3.99719C15.5694 3.93885 15.4106 3.90549 15.4144 3.78974C15.4165 3.75568 15.6486 3.66715 15.3843 3.72897C15.363 3.73409 15.3382 3.74038 15.3091 3.74808C15.3068 3.78891 15.2979 3.84409 15.2815 3.88505C15.1842 3.87748 14.9824 3.7237 14.9307 3.72961C14.6814 3.75862 14.7198 3.85516 14.5466 3.77637C14.6824 3.87657 14.4964 3.84387 14.4431 3.88738C14.2408 4.04968 14.552 4.00152 14.0059 4.01883C14.09 4.05904 14.165 4.10081 14.2461 4.14195C14.1853 4.16122 14.1265 4.18015 14.0656 4.19976C13.9384 4.09437 13.6173 4.20597 13.8739 3.98884C13.5103 4.05364 13.3763 4.12553 13.33 4.24969C13.3212 4.27339 13.2712 4.29681 13.2096 4.3174C13.2299 4.34236 13.2714 4.42591 13.2649 4.43965C13.2056 4.56104 13.0224 4.43755 13.0491 4.36111C13.0049 4.37123 12.9694 4.37819 12.9568 4.38037C12.8771 4.39399 13.0106 4.29159 12.9423 4.29115C12.9197 4.29107 12.7083 4.36907 12.6966 4.34756C12.626 4.20816 13.0127 4.20523 12.2742 4.33885C12.2986 4.47811 12.62 4.34682 12.579 4.51542C12.5344 4.6966 12.286 4.54854 12.3032 4.74885C12.2786 4.72264 12.264 4.69897 12.2402 4.66786C11.9774 4.83885 11.9261 4.68361 11.8271 4.67653C11.6356 4.66219 10.8552 4.91614 11.6008 4.83258C11.5024 4.87799 11.3988 4.91711 11.3004 4.96079C11.19 4.68793 11.2867 4.78032 10.7807 4.8904C10.6692 4.91456 10.5959 4.80224 10.5346 4.9815C10.5048 4.8335 10.2106 5.01908 10.1754 5.01073C9.94882 4.95633 10.6124 4.57951 10.7826 4.80457C10.8723 4.66844 10.9125 4.79915 11.0415 4.74011C11.2281 4.65469 11.2471 4.62087 11.5077 4.64547C11.6926 4.43907 10.6004 4.86215 11.2207 4.47171C11.6588 4.21013 13.6036 3.45673 15.2339 3.03037C15.9989 2.88736 16.6047 2.60231 17.5209 3.0851C17.8193 3.25902 18.0228 3.68886 18.0469 3.79016C18.5968 5.36585 18.7776 6.24552 19.0707 7.71403C19.1018 7.86706 19.3338 9.02018 19.1266 8.81021C19.0971 8.77965 18.9423 8.29683 18.8956 8.74492C18.9542 8.64438 19.0497 8.88522 19.0615 8.90489C19.3298 9.35223 19.3227 9.06647 19.4631 9.82297ZM18.4291 12.324C18.2845 11.3298 18.3098 12.0752 18.0281 11.9146C18.0507 12.0421 18.0732 12.1687 18.0957 12.2947C18.1049 12.2588 18.1142 12.2233 18.1234 12.1873C18.1233 12.1871 18.1233 12.187 18.1233 12.1869C18.2251 12.2322 18.3271 12.278 18.4291 12.324ZM6.3837 18.0609C6.41008 18.0178 6.43681 17.9745 6.46838 17.9304C6.59723 17.8987 6.72632 17.867 6.85761 17.8351C6.84899 17.8612 6.84107 17.8874 6.83267 17.9134C6.68456 17.9605 6.53322 18.0089 6.3837 18.0609ZM13.069 4.87964C12.8644 4.84715 12.9277 4.99712 12.6685 4.99959C12.7329 5.10484 12.7996 5.20667 12.865 5.31043C13.039 5.23852 13.0675 5.18224 13.2717 5.15075C13.2377 5.1209 13.2031 5.09102 13.1694 5.06086C13.1389 5.07874 13.1076 5.0981 13.0781 5.11472C12.9963 5.0272 13.305 4.91653 13.0695 4.87922C13.0694 4.87936 13.0692 4.8795 13.069 4.87964ZM11.2523 5.49217C11.1516 5.50724 10.7527 5.56954 10.7152 5.63287C10.5882 5.84807 11.6337 5.41264 10.8841 5.80113C10.8947 5.82251 10.8979 5.84569 10.9048 5.86797C11.0521 5.83105 11.1987 5.79302 11.3463 5.75408C11.3109 5.66779 11.2889 5.57859 11.2523 5.49217ZM17.7663 8.76702C17.7507 8.61189 17.5333 7.90718 17.4745 8.16215C17.4575 8.2366 17.669 8.52985 17.6857 8.65354C17.6966 8.73378 17.5978 8.66023 17.6577 8.81147C17.6925 8.79776 17.7317 8.78585 17.766 8.76664C17.7661 8.76677 17.7662 8.7669 17.7663 8.76702ZM18.2968 8.96169C18.2527 8.80703 18.2041 8.65144 18.1583 8.49596C18.0871 8.62929 18.19 8.84508 18.061 8.88306C18.043 8.84172 18.025 8.80092 18.0069 8.75971C18.0294 8.72137 18.0519 8.683 18.0744 8.64494C17.9772 8.52275 17.9575 8.61127 17.9298 8.35581C17.7605 8.54577 17.6599 8.59467 17.942 8.98834C17.8189 8.92695 17.4823 9.06962 17.7779 9.2621C17.8328 9.29821 17.8291 9.10543 17.8361 9.10175C17.9229 9.05564 18.0012 9.14878 18.0825 9.10154C18.1194 9.08023 18.0973 8.96582 18.1488 8.93847C18.174 8.92553 18.2705 9.02022 18.2968 8.96169ZM17.8874 9.36202C17.8225 9.32379 17.7208 9.51447 17.7742 9.65356C17.8573 9.87061 17.9182 9.49291 17.8874 9.36202ZM6.38292 18.0613C6.38318 18.0612 6.38344 18.061 6.3837 18.0609C6.3836 18.0611 6.3835 18.0612 6.38341 18.0614C6.38324 18.0614 6.38308 18.0613 6.38292 18.0613ZM11.7677 5.40074C11.6692 5.48199 11.4989 5.5276 11.5343 5.59703C11.4748 5.59975 11.4146 5.6029 11.3549 5.60565C11.3623 5.62754 11.3702 5.64932 11.3775 5.67099C11.5478 5.63311 11.7174 5.59545 11.8874 5.55785C11.8483 5.50534 11.8105 5.45213 11.7677 5.40074ZM9.94154 5.90773C9.72965 5.96361 9.9357 6.01056 9.90422 6.07277C9.87243 6.13513 9.67368 6.15189 9.71645 6.21462C9.84065 6.1804 9.97105 6.14405 10.0967 6.10863C10.0409 6.04327 9.99459 5.97347 9.94112 5.90786C9.94126 5.90781 9.9414 5.90777 9.94154 5.90773ZM18.3107 14.9788C18.4538 14.9674 18.4213 15.0594 18.6666 14.8991C18.6664 14.8992 18.6662 14.8992 18.666 14.8993C18.3953 14.9041 18.043 14.9245 17.7602 15.0504C17.9565 15.0938 18.0834 14.9961 18.3107 14.9788ZM13.6301 4.95622C13.6713 4.87792 13.3796 4.91006 13.335 4.98503C13.2637 5.10579 13.5672 5.07495 13.6301 4.95622ZM12.6022 16.8142C12.4422 17.0645 12.9121 17.1528 13.3148 16.936C13.3496 16.9172 13.0542 16.9397 13.1258 16.879C13.1318 16.8739 13.2431 16.8441 13.2958 16.8125L13.2838 16.8156C13.2935 16.8105 13.3013 16.8052 13.3062 16.7999C13.3384 16.7648 13.2843 16.7125 13.3411 16.6725C13.4407 16.6025 13.7078 16.6304 13.7769 16.5532C13.786 16.5429 13.6137 16.4948 13.6032 16.4939C13.4334 16.4796 13.3054 16.6215 13.2811 16.6278C13.2666 16.6316 13.2538 16.6337 13.2425 16.6345C13.1562 16.6461 13.1482 16.576 13.1152 16.567C13.0449 16.5479 12.952 16.6151 12.944 16.6145C12.7581 16.5989 13.083 16.5135 13.1925 16.4613L13.2024 16.4587C13.2156 16.4533 13.2257 16.4482 13.2313 16.4435C13.3721 16.3256 13.2069 16.2824 13.5794 16.1506C13.6148 16.1382 14.0508 16.0469 13.4815 16.0741C14.2416 15.7553 13.58 15.9067 13.1085 16.0472L13.0734 16.0563C12.9053 16.1178 12.7652 16.1746 12.7233 16.1993C12.6507 16.2421 12.7927 16.2859 12.7556 16.3355C12.6699 16.449 12.486 16.519 12.537 16.6284C12.6437 16.8584 12.8443 16.6276 13.0241 16.6187C13.0217 16.6762 13.0299 16.7291 13.0122 16.7899C13.043 16.706 12.6136 16.7955 12.6021 16.8137C12.6021 16.8138 12.6022 16.814 12.6022 16.8142ZM15.2486 15.8993C15.5071 15.9233 15.4563 15.7721 15.6969 15.8153C15.8636 15.6361 15.4796 15.7243 15.4336 15.7256C15.2217 15.7326 15.1945 15.5804 14.9944 15.6705C15.0854 15.745 15.1626 15.8234 15.2486 15.8993ZM13.1119 16.2968C13.1226 16.2872 13.1308 16.2788 13.1367 16.2715L13.1583 16.2658C13.1823 16.2396 13.1729 16.2277 13.1486 16.2232L13.1243 16.2296C13.0725 16.2235 12.9578 16.2541 12.948 16.247C12.8789 16.1989 12.9772 16.1345 13.0862 16.0999L13.1186 16.0915C13.2772 16.0518 13.4497 16.0759 13.1596 16.2714L13.1383 16.277C13.1299 16.2834 13.1211 16.2901 13.1119 16.2968ZM17.8968 7.76574C17.8858 7.68279 17.8209 7.74968 17.7843 7.68216C17.7478 7.61549 17.7616 7.35325 17.7161 7.36964C17.6706 7.38528 17.6407 7.86318 17.5221 7.41413C17.4989 7.43482 17.4783 7.43366 17.456 7.44592C17.4806 7.57029 17.505 7.69717 17.5289 7.82123C17.5911 7.73754 17.6572 7.65284 17.7169 7.57119C17.7916 7.63011 17.7219 7.68398 17.7226 7.68789C17.7227 7.68787 17.7228 7.68786 17.7229 7.68784C17.755 7.81661 17.9215 7.95259 17.8968 7.76574ZM18.8817 14.2989C19.0749 14.2841 18.8247 14.1355 18.7847 14.0584C18.7447 13.9809 18.793 13.8601 18.72 13.9169C18.6897 14.0561 18.8604 14.3025 18.8819 14.2988C18.8818 14.2988 18.8818 14.2989 18.8817 14.2989ZM16.5618 15.6308C16.7568 15.5434 16.7107 15.5019 16.972 15.5065C16.9531 15.463 16.934 15.4184 16.9153 15.3756C16.7162 15.4154 16.7606 15.544 16.5208 15.5375C16.4819 15.5363 16.5405 15.4144 16.379 15.4826C16.4397 15.529 16.5019 15.5814 16.5618 15.6308ZM17.5273 15.2555C17.2996 15.3108 17.1908 15.7176 17.5829 15.4619C17.6415 15.4236 17.7005 15.2132 17.5273 15.2555ZM18.3127 9.91278C18.2507 9.51385 18.2737 9.97577 18.2356 10.0894C18.0211 9.17394 18.2705 10.191 18.0979 10.3174C18.1723 10.4207 18.3338 10.6097 18.3241 10.3688C18.32 10.2683 18.2702 10.3143 18.2693 10.3084C18.2504 10.1256 18.3465 10.1306 18.3127 9.91278ZM14.8307 15.9956C14.8451 15.9897 14.8084 15.9311 14.8532 15.9085C14.8978 15.886 15.015 15.908 15.0177 15.8667C15.0198 15.8253 14.7979 15.8398 14.7374 15.8824C14.6769 15.9253 14.7008 16.0484 14.8307 15.9956ZM16.3812 15.8405C16.5707 15.7543 16.1989 15.586 16.1565 15.5957C15.7798 15.6851 16.3785 15.7638 16.3812 15.8405ZM18.8799 10.7626C18.6735 10.3048 18.5296 10.6937 18.4595 11.0156C18.4919 11.0504 18.5246 11.0868 18.5568 11.1214C18.3705 10.9691 18.1614 10.6812 18.4227 11.3589C18.3891 10.9682 18.4888 11.2825 18.4979 11.2833C18.7877 11.2744 18.5535 10.7292 18.88 10.763C18.88 10.7629 18.88 10.7627 18.8799 10.7626ZM14.1731 16.0653C13.9653 16.1105 13.4367 16.2784 13.7152 16.3447C13.8676 16.2512 14.0194 16.1582 14.1731 16.0653ZM16.2136 3.51689C16.0251 3.46237 15.8561 3.48808 15.6391 3.53278C15.8543 3.59988 15.7276 3.63433 15.666 3.6716C15.5755 3.72721 15.8124 3.68068 15.8144 3.6883C15.825 3.78769 15.6795 3.82339 16.0203 3.7701C15.9405 3.81567 15.8622 3.86326 15.7863 3.91129C16.0415 3.87259 16.1135 3.93025 16.2769 3.99405C16.1073 3.8179 16.3182 3.91168 16.5012 3.81647C16.6018 3.7679 16.3151 3.54067 16.213 3.51695C16.2132 3.51693 16.2134 3.51691 16.2136 3.51689ZM18.8281 10.2606C18.785 10.2174 18.7307 10.1807 18.6831 10.1402C18.6699 10.0889 18.6571 10.0375 18.644 9.98619C18.6729 9.97427 18.7035 9.96315 18.7311 9.95036C18.7274 9.88025 18.6903 9.91462 18.6826 9.89498C18.6828 9.89495 18.6829 9.89492 18.6831 9.89489C18.5741 9.613 18.5584 9.49285 18.6091 9.24655C18.5168 9.26367 18.4245 9.28079 18.3322 9.2979C18.3505 9.34761 18.3687 9.39794 18.3868 9.44777C18.4414 9.46598 18.4961 9.48415 18.5508 9.50232C18.5343 9.56679 18.518 9.63068 18.5015 9.69514C18.5281 9.7395 18.5574 9.79331 18.5823 9.83137C18.3676 10.1158 18.4442 9.54457 18.3361 9.55956C18.2667 9.56894 18.3691 10.1111 18.4308 10.1806C18.4398 10.1906 18.6107 10.0383 18.5467 10.255C18.5366 10.289 18.1226 10.3757 18.4983 10.5286C18.5516 10.5504 18.7908 10.3971 18.8281 10.2606ZM18.5954 8.26201C18.3892 8.61849 18.4506 7.43701 18.3271 7.96574C18.1781 7.8517 18.1848 7.8771 18.1037 8.03707C18.0964 8.05116 18.0441 7.96185 18.0414 7.97085C18.0072 8.11199 18.0692 8.2633 17.9609 8.28536C17.9735 8.31955 17.985 8.35193 17.9975 8.38577C18.0717 8.21984 18.1853 8.43899 18.2889 8.51317C18.3359 8.54692 18.3299 8.44991 18.3707 8.47804C18.3857 8.48845 18.3859 8.62571 18.4228 8.62442C18.506 8.62038 18.5998 8.51601 18.6326 8.36361C18.6327 8.36359 18.6328 8.36358 18.6329 8.36356C18.6208 8.32924 18.6078 8.29618 18.5954 8.26201ZM19.6139 14.8107C19.4804 14.8967 19.485 15.1121 19.3242 14.7318C19.2998 14.7578 19.2758 14.7842 19.2514 14.8101C19.2685 14.8744 19.2866 14.9423 19.3046 15.0096C19.406 15.032 19.4677 15.0707 19.5044 15.1143C19.5104 15.3026 19.3488 15.2717 19.306 15.2798C19.2548 15.2773 19.2434 15.2819 19.3919 15.3499C19.4284 15.3759 19.6035 15.2194 19.4609 15.4141C19.4612 15.4141 19.4615 15.414 19.4618 15.4139C19.5214 15.3533 19.6612 15.3444 19.6445 15.0811C19.6059 14.9991 19.5877 14.9487 19.6139 14.8107ZM19.2069 13.3687C18.7983 12.9193 19.1733 14.1054 19.2155 13.8845C19.2191 13.8668 19.0494 13.358 19.2069 13.3687ZM17.3086 16.1445C17.5346 16.1032 17.5188 15.9329 17.4823 15.8781C17.4461 15.8231 17.3022 15.9163 17.2799 15.9111C17.2072 15.8936 17.3433 15.844 17.2486 15.819C17.2162 15.8114 16.8084 15.8333 16.7928 15.8438C16.7004 15.9041 16.8753 16.0114 16.8498 16.0329C16.7669 16.1035 16.6234 16.0584 16.6119 16.1367C16.5848 16.3043 16.7894 16.0925 16.8292 16.0816C16.9479 16.0496 16.9555 16.1394 17.0505 16.1382C17.1452 16.137 17.1966 16.0952 17.2794 16.0845C17.3066 16.0811 17.2969 16.1464 17.3086 16.1445ZM17.9854 15.6346C17.7763 15.8121 18.3858 15.8212 18.4466 15.7744C18.6289 15.64 18.086 15.5511 17.9854 15.6346ZM18.339 9.10237C18.4712 9.30315 18.4506 8.78127 18.3861 8.64361C18.3533 8.67776 18.2936 9.03314 18.339 9.10237ZM18.9035 10.8954C18.8388 10.7007 18.6802 11.0026 18.7139 11.17C18.8674 11.2433 18.8238 11.1561 18.8095 11.0456C18.7953 10.9352 18.954 11.0472 18.9035 10.8954ZM14.8146 16.4999C14.8582 16.4925 15.5269 16.2374 15.1197 16.2735C15.0874 16.2764 14.6081 16.3974 14.5757 16.4263C14.5109 16.4839 14.7027 16.5171 14.8146 16.4999ZM19.2787 11.819C19.1419 11.7341 19.1245 11.6299 19.0044 11.7522C19.0045 11.7523 19.0045 11.7525 19.0045 11.7526C18.9135 11.4933 19.1932 11.4293 19.1766 11.3726C19.1187 11.1742 18.9528 11.4021 18.864 11.2875C18.9795 11.571 18.829 11.5119 18.8612 11.7369C18.8684 11.7873 18.9863 11.9749 19.042 11.9946C19.0977 12.0147 19.2298 11.8845 19.2787 11.819ZM13.8456 16.7387C14.0881 16.7321 14.2604 16.497 13.9305 16.5375C13.769 16.5575 13.6979 16.7429 13.8456 16.7387ZM10.7216 4.94423C10.7714 4.98189 10.8221 5.019 10.8744 5.05537C10.7939 5.09316 10.7134 5.13119 10.6329 5.16913C10.6947 5.13325 10.7566 5.09756 10.819 5.0617C10.6558 5.09373 10.5564 5.02792 10.7212 4.94436C10.7213 4.94432 10.7214 4.94428 10.7216 4.94423ZM5.04841 6.396C4.96567 6.36304 4.85439 6.53956 4.87464 6.54751C5.02645 6.60672 5.16342 6.44164 5.04841 6.396ZM18.7298 8.69551C18.6993 8.42042 18.4933 8.65289 18.5079 8.8216C18.5349 8.71136 18.747 8.85149 18.7298 8.69551ZM7.0609 5.96128C7.09032 5.97584 7.11857 5.99067 7.15024 6.00466C7.06047 5.99649 7.03978 5.98112 7.0609 5.96128ZM14.9693 16.6892C15.0136 16.6991 15.321 16.651 15.3566 16.6199C15.4314 16.5544 15.168 16.4702 15.0366 16.5403C15.0223 16.5479 14.9247 16.6792 14.97 16.689C14.9697 16.6891 14.9695 16.6891 14.9693 16.6892ZM10.3387 4.96391C10.3398 4.96602 10.3403 4.96824 10.34 4.97047C10.3397 4.96828 10.3389 4.96614 10.3387 4.96391ZM0.0252634 9.62939C0.0288764 9.62722 0.0325456 9.62588 0.0361803 9.62573C0.032701 9.62677 0.0291082 9.62854 0.0252634 9.62939ZM17.1566 16.4539C17.3031 16.6629 17.5166 16.4915 17.3059 16.4168C17.2933 16.4132 17.1815 16.4492 17.1566 16.4539Z" fill="url(#paint0_linear_651_4563)"/>
<defs>
<linearGradient id="paint0_linear_651_4563" x1="15.0896" y1="3.73246" x2="34.5078" y2="42.1563" gradientUnits="userSpaceOnUse">
<stop stop-color="#455155"/>
<stop offset="1" stop-color="#455155" stop-opacity="0"/>
</linearGradient>
</defs>
</svg>
