<svg width="153" height="71" viewBox="0 0 153 71" fill="none" xmlns="http://www.w3.org/2000/svg">
<path d="M11.5162 37.0303C12.3172 37.0303 13.0427 36.8716 13.6925 36.5542C14.3575 36.2217 14.9016 35.7079 15.3247 35.0127C15.7479 34.3023 15.9897 33.3804 16.0502 32.2469H19.8134C19.7529 33.8792 19.3373 35.3149 18.5665 36.5542C17.8109 37.7784 16.8134 38.7381 15.5741 39.4333C14.35 40.1133 12.9973 40.4534 11.5162 40.4534C9.92935 40.4534 8.54649 40.1965 7.36767 39.6826C6.20395 39.1688 5.23671 38.4282 4.46594 37.461C3.71028 36.4786 3.14354 35.2922 2.76571 33.9018C2.38788 32.4963 2.19897 30.9019 2.19897 29.1185V26.3528C2.19897 24.5695 2.38788 22.9826 2.76571 21.5922C3.14354 20.1866 3.71028 19.0003 4.46594 18.033C5.23671 17.0507 6.20395 16.3026 7.36767 15.7887C8.54649 15.2749 9.92935 15.0179 11.5162 15.0179C13.1787 15.0179 14.6144 15.3731 15.8235 16.0834C17.0477 16.7786 17.9998 17.7912 18.6799 19.1212C19.3751 20.436 19.7529 22.0304 19.8134 23.9045H16.0502C15.9897 22.6954 15.7706 21.6904 15.3928 20.8894C15.0149 20.0733 14.5011 19.4688 13.8512 19.0758C13.2013 18.6678 12.423 18.4637 11.5162 18.4637C10.4583 18.4637 9.58175 18.6527 8.88654 19.0305C8.20645 19.3932 7.66993 19.9222 7.27699 20.6174C6.88405 21.3126 6.60445 22.1438 6.43821 23.111C6.28708 24.0783 6.21151 25.1589 6.21151 26.3528V29.1185C6.21151 30.3125 6.28708 31.4006 6.43821 32.383C6.60445 33.3502 6.87649 34.1814 7.25432 34.8766C7.64726 35.5718 8.19134 36.1084 8.88654 36.4862C9.58175 36.8489 10.4583 37.0303 11.5162 37.0303ZM26.9736 15.4713V40H22.961V15.4713H26.9736ZM40.4621 15.4713L30.6007 29.5266H25.6361L25.0013 25.8541H28.9685L35.6561 15.4713H40.4621ZM36.0188 40L28.8325 28.8918L31.3942 25.8541L41.0515 40H36.0188ZM47.3956 33.3578L56.2821 15.4713H60.2947V40H56.2821V22.1136L47.3956 40H43.4057V15.4713H47.3956V33.3578ZM78.5404 15.4713V18.9398H68.7698V15.4713H78.5404ZM82.1222 15.4713V40H78.1324V15.4713H82.1222ZM67.8176 15.4713H71.8302L71.2634 27.3049C71.1728 29.1336 71.0216 30.7507 70.81 32.1563C70.6136 33.5467 70.334 34.7406 69.9713 35.7381C69.6237 36.7356 69.1854 37.5517 68.6564 38.1864C68.1426 38.8061 67.5229 39.267 66.7975 39.5693C66.0872 39.8564 65.2635 40 64.3265 40H63.125V36.3048L63.9184 36.2368C64.4474 36.1915 64.9008 36.0404 65.2786 35.7834C65.6716 35.5265 65.9889 35.1487 66.2308 34.6499C66.4877 34.1361 66.6917 33.4787 66.8428 32.6777C67.0091 31.8767 67.1375 30.9245 67.2282 29.8213C67.3189 28.718 67.3869 27.4334 67.4322 25.9674L67.8176 15.4713ZM100.391 15.4713V18.9398H90.62V15.4713H100.391ZM103.972 15.4713V40H99.9826V15.4713H103.972ZM89.6679 15.4713H93.6804L93.1137 27.3049C93.023 29.1336 92.8718 30.7507 92.6603 32.1563C92.4638 33.5467 92.1842 34.7406 91.8215 35.7381C91.4739 36.7356 91.0356 37.5517 90.5066 38.1864C89.9928 38.8061 89.3732 39.267 88.6477 39.5693C87.9374 39.8564 87.1137 40 86.1767 40H84.9752V36.3048L85.7687 36.2368C86.2976 36.1915 86.751 36.0404 87.1288 35.7834C87.5218 35.5265 87.8392 35.1487 88.081 34.6499C88.3379 34.1361 88.5419 33.4787 88.6931 32.6777C88.8593 31.8767 88.9878 30.9245 89.0784 29.8213C89.1691 28.718 89.2371 27.4334 89.2825 25.9674L89.6679 15.4713Z" fill="#E0E2E8"/>
<path d="M115.007 17.2738C112.678 21.8811 104.09 46.3871 112.843 41.7124C116.063 39.9925 119.084 37.1299 121.396 34.3338C122.42 33.0948 123.015 32.1102 123.606 30.6979C124.196 29.2855 124.763 27.4751 125.219 25.7118C126.099 22.3103 127.235 17.0002 127.091 17.2738C126.857 17.72 125.59 22.2395 124.45 25.5203C118.463 42.7513 99.5 72.5 96.5004 68C93.9436 64.1643 106.185 56 115.006 47.6196C117.521 45.2305 127.156 36.448 128.16 35.1161C130.433 32.0998 128 41.5619 128.163 42.6137C128.47 44.6029 132.99 37.4034 133.773 36.2243C136.352 32.3423 138.26 26.958 139.793 22.5415C140.979 19.1254 140.992 15.9281 139.793 19.2118C138.88 21.7127 131.028 39.1585 138.182 36.6731C144.912 34.3355 149.472 26.8645 150.786 20.171C151.848 14.762 146.95 30.5702 146 36C145.212 40.5061 142.785 47.0768 145.332 51.3812" stroke="#FF5D39" stroke-width="3.71026" stroke-linecap="round"/>
</svg>
